<?xml version="1.0" standalone="no"?>
<!DOCTYPE svg PUBLIC "-//W3C//DTD SVG 1.1//EN" "http://www.w3.org/Graphics/SVG/1.1/DTD/svg11.dtd" >
<svg xmlns="http://www.w3.org/2000/svg" xmlns:xlink="http://www.w3.org/1999/xlink" version="1.1">
<metadata>
Created by FontForge 20170731 at Wed Jan 26 13:56:32 2022
 By Aleksey,,,
Pangram Pangram
</metadata>
<defs>
<font id="MonumentExtended-Ultralight" horiz-adv-x="491" >
  <font-face 
    font-family="Monument Extended Ultralight"
    font-weight="250"
    font-stretch="normal"
    units-per-em="2048"
    panose-1="0 0 3 0 0 0 0 0 0 0"
    ascent="1638"
    descent="-410"
    x-height="1188"
    cap-height="1434"
    bbox="-2212 -696 4782 2216"
    underline-thickness="102"
    underline-position="-307"
    unicode-range="U+0020-25CA"
  />
<missing-glyph horiz-adv-x="1126" 
d="M924 1638v-2252h-715v2252h715zM750 1487h-371v-74h145v-84h-147v-74h373v74h-148v84h148v74zM602 1196h-225v-233h373v75h-148v158zM524 1120v-82h-73v82h73zM750 901h-373v-74h147v-84h-147v-73h225v157h148v74zM750 766h-74v-148h-299v-77h373v225zM750 492h-226v-125
h78v51h74v-107h-225v181h-74v-254h373v254zM750 102h-373v-254h373v254zM676 29v-107h-225v107h225zM750 -205h-373v-74h158l-158 -106v-74h373v74h-230l158 106h72v74z" />
    <glyph glyph-name=".notdef" horiz-adv-x="1126" 
d="M924 1638v-2252h-715v2252h715zM750 1487h-371v-74h145v-84h-147v-74h373v74h-148v84h148v74zM602 1196h-225v-233h373v75h-148v158zM524 1120v-82h-73v82h73zM750 901h-373v-74h147v-84h-147v-73h225v157h148v74zM750 766h-74v-148h-299v-77h373v225zM750 492h-226v-125
h78v51h74v-107h-225v181h-74v-254h373v254zM750 102h-373v-254h373v254zM676 29v-107h-225v107h225zM750 -205h-373v-74h158l-158 -106v-74h373v74h-230l158 106h72v74z" />
    <glyph glyph-name=".null" horiz-adv-x="0" 
 />
    <glyph glyph-name="nonmarkingreturn" horiz-adv-x="682" 
 />
    <glyph glyph-name="space" unicode=" " horiz-adv-x="1024" 
 />
    <glyph glyph-name="exclam" unicode="!" 
d="M369 1434v-1024h-246v1024h246zM123 205h246v-205h-246v205z" />
    <glyph glyph-name="quotedbl" unicode="&#x22;" horiz-adv-x="983" 
d="M369 1475l-21 -656h-205l-20 656h246zM860 1475l-20 -656h-205l-21 656h246z" />
    <glyph glyph-name="numbersign" unicode="#" horiz-adv-x="2734" 
d="M2570 881h-506l-157 -533h458v-205h-520l-135 -450h-246l135 450h-706l-135 -450h-246l135 450h-483v205h545l157 533h-497v204h559l116 390h246l-116 -390h706l117 390h246l-117 -390h444v-204zM1661 348l158 533h-707l-158 -533h707z" />
    <glyph glyph-name="dollar" unicode="$" horiz-adv-x="2158" 
d="M1995 414q0 -87 -27 -154.5t-80.5 -114t-121 -78.5t-161.5 -50t-188.5 -26.5t-214.5 -10.5v-185h-246v187q-154 6 -272 24.5t-218.5 55.5t-165 93t-100.5 139t-36 191h246q0 -97 49.5 -157.5t170 -95.5t326.5 -44v445q-160 13 -275 33t-204.5 53t-143.5 80.5t-81 112.5
t-27 153q0 86 33.5 151t93.5 108t153 71t201.5 41t249.5 16v186h246v-188q731 -32 731 -477h-245q0 140 -111.5 200.5t-374.5 71.5v-424q93 -7 158 -12.5t140.5 -15t127.5 -20.5t107.5 -28t92 -38t71 -49.5t54 -64t31 -80.5t11.5 -99zM471 1053q0 -71 41 -110.5t142.5 -63.5
t301.5 -41v411q-192 -3 -297.5 -24.5t-146.5 -61.5t-41 -110zM1202 184q293 4 420 55t127 162q0 48 -14 78.5t-46.5 54t-98.5 38.5t-155 25t-233 19v-432z" />
    <glyph glyph-name="percent" unicode="%" horiz-adv-x="3530" 
d="M788 530q-155 0 -276.5 44t-196 122t-113 179t-38.5 221q0 119 38.5 219.5t113 178t196 121.5t276.5 44q156 0 278 -44t197 -121.5t113.5 -178t38.5 -219.5q0 -120 -38.5 -221t-114 -179t-197 -122t-277.5 -44zM2154 1638l-532 -1781h-246l533 1781h245zM788 735
q72 0 137.5 20t121.5 61t89 113t33 167t-33 166.5t-89 112t-121 60t-138 19.5q-72 0 -136.5 -19.5t-120 -60t-88.5 -112t-33 -166.5t33 -167t88.5 -113t120 -61t136.5 -20zM2740 -164q-155 0 -276.5 44t-196 121.5t-113 179t-38.5 220.5t38.5 220t113 178.5t196 121.5
t276.5 44q125 0 229 -29t177 -80t123 -122t74 -155t24 -178q0 -119 -38.5 -220.5t-114 -179t-197 -121.5t-277.5 -44zM2740 41q73 0 138 20t121 60.5t89 112.5t33 167q0 77 -22 138.5t-59 102t-86.5 68t-103 39t-110.5 11.5t-109.5 -11.5t-102.5 -39t-86.5 -68t-58.5 -102.5
t-22 -138q0 -95 33 -167t89 -112.5t120.5 -60.5t136.5 -20z" />
    <glyph glyph-name="ampersand" unicode="&#x26;" horiz-adv-x="2242" 
d="M2120 199l-123 -199q-88 43 -402 188q-351 -208 -788 -208q-187 0 -322 29.5t-213 86t-113.5 130t-35.5 169.5q0 72 23 133t61.5 104.5t93 77.5t112 55.5t124.5 35.5q-101 125 -101 284q0 177 156 273t446 96q163 0 297.5 -41.5t215.5 -122t81 -184.5q0 -162 -147 -257.5
t-441 -154.5q172 -96 506 -248q173 127 310 297l221 -81q-125 -190 -283 -326zM1038 1249q-166 0 -261 -45t-95 -139q0 -106 129 -215q123 23 214 45t179 53t135 71t47 87q0 67 -94 105t-254 38zM807 184q263 0 524 129q-443 213 -606 324q-75 -15 -132 -32.5t-111 -44
t-83.5 -64.5t-29.5 -86q0 -226 438 -226z" />
    <glyph glyph-name="quotesingle" unicode="'" 
d="M369 1475l-21 -656h-205l-20 656h246z" />
    <glyph glyph-name="parenleft" unicode="(" horiz-adv-x="1413" 
d="M123 616q0 197 29.5 348t92.5 265t155 192t225.5 126.5t294.5 69.5t370 21v-204q-131 0 -234.5 -9.5t-202 -33t-171 -64t-134 -102.5t-99.5 -147.5t-59 -201t-21 -260.5q0 -146 21 -261.5t59.5 -201t100 -148.5t134 -103t171 -64t201.5 -33.5t234 -9.5v-205
q-209 0 -370 21.5t-294 70t-225.5 126.5t-155.5 192.5t-92.5 266.5t-29.5 349z" />
    <glyph glyph-name="parenright" unicode=")" horiz-adv-x="1413" 
d="M1290 616q0 -197 -29.5 -349t-92.5 -266.5t-155.5 -192.5t-225.5 -126.5t-294 -70t-370 -21.5v205q131 0 234 9.5t201.5 33.5t171 64t134 103t100 148.5t59.5 201t21 261.5q0 145 -21 260.5t-59 201t-99.5 147.5t-134 102.5t-171 64t-202 33t-234.5 9.5v204
q209 0 370 -21t294.5 -69.5t225.5 -126.5t155 -192t92.5 -265t29.5 -348z" />
    <glyph glyph-name="asterisk" unicode="*" horiz-adv-x="1236" 
d="M123 1032l301 168l-301 168l104 178l293 -176l-6 266l207 2l-4 -268l293 176l104 -178l-301 -168l301 -168l-102 -176l-295 176l4 -270h-203l4 270l-297 -176z" />
    <glyph glyph-name="plus" unicode="+" horiz-adv-x="1966" 
d="M1802 799v-205h-696v-594h-246v594h-696v205h696v594h246v-594h696z" />
    <glyph glyph-name="comma" unicode="," 
d="M123 205h246v-205l-117 -369h-129l78 369h-78v205z" />
    <glyph glyph-name="hyphen" unicode="-" horiz-adv-x="1966" 
d="M164 799h1638v-205h-1638v205z" />
    <glyph glyph-name="period" unicode="." 
d="M123 205h246v-205h-246v205z" />
    <glyph glyph-name="slash" unicode="/" horiz-adv-x="1024" 
d="M901 1475l-532 -1782h-246l532 1782h246z" />
    <glyph glyph-name="zero" unicode="0" horiz-adv-x="1884" 
d="M942 -20q-418 0 -629 193.5t-211 545.5q0 350 211 542.5t629 192.5q417 0 628.5 -193t211.5 -542q0 -351 -211.5 -545t-628.5 -194zM942 184q286 0 440 135.5t154 399.5q0 262 -154 396t-440 134q-287 0 -440.5 -133.5t-153.5 -396.5q0 -265 153.5 -400t440.5 -135z" />
    <glyph glyph-name="one" unicode="1" horiz-adv-x="1597" 
d="M922 205h553v-205h-1352v205h553l2 833q-45 -39 -105.5 -66.5t-112 -41t-124 -20.5t-111 -8t-102.5 -1v205q49 0 75.5 0.5t78.5 3.5t84 8.5t78.5 16.5t76 27t63 41t52.5 57t32 76.5t13 97.5h246v-1229z" />
    <glyph glyph-name="two" unicode="2" horiz-adv-x="1830" 
d="M1729 1004q0 -90 -35.5 -163.5t-96 -123t-142.5 -90t-174 -65.5t-191 -49.5t-194 -43t-181.5 -43.5t-154.5 -53t-113.5 -71t-57.5 -97h1319v-205h-1606v143q0 85 29 155t98 123.5t127 89.5t173.5 72.5t177 52.5t193.5 47q101 24 152 37t133 37t124 46t88.5 52.5t66 68.5
t19.5 84q0 64 -21.5 106t-77.5 74t-158 46.5t-259 14.5q-161 0 -266 -17.5t-177.5 -61t-103.5 -116t-31 -184.5h-246q0 99 20.5 180t57 141t92 105.5t121 75.5t149.5 48.5t171.5 26t191.5 7.5q155 0 272 -12.5t216 -43.5t162 -82t98 -129t35 -183z" />
    <glyph glyph-name="three" unicode="3" horiz-adv-x="1830" 
d="M1493 717q236 -103 236 -318q0 -113 -52.5 -194t-156 -130t-247.5 -72t-337 -23q-130 0 -235 10.5t-202 35.5t-167.5 67.5t-123.5 104t-79.5 148.5t-26.5 197h246q0 -68 13 -120t36.5 -90t63.5 -64.5t86 -43t113 -26t135 -12.5t161 -3q292 0 409.5 46.5t117.5 179.5
q0 35 -7 61.5t-26.5 48t-44.5 36t-71 25.5t-96 17t-128.5 10t-159.5 5t-198 1v205q130 0 217 2t170.5 6.5t135 14t95.5 24.5t66.5 37t34.5 51.5t12 69.5q0 85 -45.5 132t-159.5 70t-322 23q-122 0 -207 -6t-156.5 -21t-115.5 -40.5t-74.5 -66t-42.5 -94.5t-12 -130h-246
q0 110 26.5 197t79.5 148.5t123.5 104t167.5 67.5t202 35.5t235 10.5q193 0 337 -23t247.5 -72.5t156 -130.5t52.5 -194q0 -214 -236 -317z" />
    <glyph glyph-name="four" unicode="4" horiz-adv-x="1912" 
d="M1790 492v-205h-348v-287h-246v287h-1073v205l1073 942h246v-942h348zM451 492h745v634z" />
    <glyph glyph-name="five" unicode="5" horiz-adv-x="1830" 
d="M1139 993q281 0 435.5 -127t154.5 -368q0 -131 -57 -231t-161.5 -162t-246.5 -93.5t-318 -31.5q-121 0 -222 9t-199 30t-173 58t-132.5 90t-87.5 130t-30 174h246q0 -151 150 -219t458 -68q144 0 247.5 22t164 63.5t88 96.5t27.5 126q0 54 -12 96.5t-43.5 81t-82.5 63.5
t-132 40t-189 15q-123 0 -260.5 -32t-355.5 -121l-226 53l185 746h1259v-205h-1055l-108 -391q189 85 344 120t332 35z" />
    <glyph glyph-name="six" unicode="6" horiz-adv-x="1884" 
d="M1036 993q175 0 305.5 -27t226 -86t144.5 -157t49 -236q0 -250 -198.5 -378.5t-579.5 -128.5q-235 0 -400.5 44t-266.5 134t-147 218t-46 306q0 173 40.5 307.5t110 221t169.5 142t211 78.5t243 23q165 0 323.5 -15.5t242 -30.5t202.5 -40v-205q-13 2 -85 16.5
t-94.5 18.5t-86 15t-100.5 15t-94 10.5t-110 8.5t-108 2q-98 0 -170 -6.5t-141.5 -24t-117.5 -49.5t-87.5 -81t-62.5 -120t-33 -165q92 78 259.5 134t401.5 56zM942 184q160 0 273 20.5t178 61.5t94 95t29 126q0 73 -28.5 126t-93.5 93.5t-178 61t-274 20.5q-279 0 -426 -79
t-147 -222q0 -144 142.5 -223.5t430.5 -79.5z" />
    <glyph glyph-name="seven" unicode="7" horiz-adv-x="1603" 
d="M41 1434h1522v-205q-169 -83 -317 -202t-252.5 -248.5t-180.5 -268.5t-112.5 -268.5t-36.5 -241.5h-246q0 113 30 241.5t93.5 268t153 269t219 248.5t280.5 202h-1153v205z" />
    <glyph glyph-name="eight" unicode="8" horiz-adv-x="1884" 
d="M1489 817q293 -119 293 -395q0 -109 -43.5 -189t-140.5 -138t-260 -86.5t-396 -28.5q-234 0 -397 28.5t-260 86t-140 137.5t-43 190q0 276 293 395q-149 98 -149 256q0 197 166 289t530 92q363 0 529.5 -92t166.5 -289q0 -158 -149 -256zM492 1075q0 -99 96.5 -136.5
t353.5 -37.5t354 37.5t97 136.5t-97 136.5t-354 37.5t-353.5 -37.5t-96.5 -136.5zM942 184q228 0 358 27.5t183 82t53 148.5q0 93 -52.5 147t-182.5 80.5t-359 26.5t-359 -26.5t-182.5 -80.5t-52.5 -147q0 -94 53 -148.5t183 -82t358 -27.5z" />
    <glyph glyph-name="nine" unicode="9" horiz-adv-x="1843" 
d="M881 1454q235 0 400.5 -44t266.5 -134t147 -218t46 -306q0 -173 -40.5 -307.5t-110 -221t-169.5 -142t-211 -78.5t-243 -23q-165 0 -323.5 15.5t-242 30.5t-202.5 40v204q13 -2 85 -16.5t94.5 -18.5t86 -15t100.5 -15t94 -10.5t110 -8.5t108 -2q118 0 201 10t159.5 38
t125 77t81.5 129t45 193q-92 -78 -260 -134.5t-402 -56.5q-175 0 -305.5 27t-226 86t-144.5 157t-49 236q0 250 199 379t580 129zM922 645q279 0 426 79t147 222q0 144 -142.5 223.5t-430.5 79.5q-160 0 -273 -20.5t-178 -61.5t-94 -95t-29 -126q0 -73 28.5 -126t93.5 -93.5
t178 -61t274 -20.5z" />
    <glyph glyph-name="colon" unicode=":" 
d="M123 819h246v-205h-246v205zM123 205h246v-205h-246v205z" />
    <glyph glyph-name="semicolon" unicode=";" 
d="M123 819h246v-205h-246v205zM123 0v205h246v-205l-117 -369h-129l78 369h-78z" />
    <glyph glyph-name="less" unicode="&#x3c;" horiz-adv-x="1781" 
d="M1618 1229v-236l-1204 -297l1204 -297v-235l-1454 348v369z" />
    <glyph glyph-name="equal" unicode="=" horiz-adv-x="1966" 
d="M164 1126h1638v-204h-1638v204zM164 471h1638v-205h-1638v205z" />
    <glyph glyph-name="greater" unicode="&#x3e;" horiz-adv-x="1781" 
d="M164 1229l1454 -348v-369l-1454 -348v235l1204 297l-1204 297v236z" />
    <glyph glyph-name="question" unicode="?" horiz-adv-x="1789" 
d="M903 410h-246q0 81 26 144.5t70.5 104.5t101.5 72t120.5 51.5t127 38.5t120.5 37.5t101.5 43.5t70.5 62.5t26 88.5q0 196 -485 196q-308 0 -437.5 -76t-129.5 -272h-246q0 128 39.5 225t107 159t170 100.5t217 53.5t258.5 15q752 0 752 -410q0 -74 -26 -133t-70.5 -97.5
t-101.5 -68.5t-120.5 -50.5t-127 -39.5t-120.5 -40.5t-101.5 -47.5t-70.5 -65.5t-26 -91.5zM657 205h246v-205h-246v205z" />
    <glyph glyph-name="at" unicode="@" horiz-adv-x="2594" 
d="M1391 1659q374 0 604 -94.5t333 -281.5t103 -484v-860h-246v194q-197 -212 -610 -215q-128 -1 -237.5 16.5t-210.5 62.5t-171.5 115t-112.5 180t-42 251q0 613 774 624q409 6 606 -206q-42 493 -770 493q-110 0 -212.5 -13.5t-203.5 -45.5t-187 -80t-160.5 -120.5
t-126.5 -164t-81.5 -214.5t-29.5 -267q0 -141 23.5 -258t63 -206t107 -159t141 -119.5t179 -84.5t206.5 -55.5t239.5 -32.5t261.5 -15.5t288 -3.5l-21 -205q-323 0 -567.5 23.5t-442 78.5t-331.5 141t-223.5 214t-129.5 295t-40 387q0 356 148 606.5t422 377t657 126.5z
M1616 123q282 0 419 95.5t148 285.5v80q-12 189 -148.5 284t-418.5 95q-296 0 -432.5 -105.5t-136.5 -314.5t136.5 -314.5t432.5 -105.5z" />
    <glyph glyph-name="A" unicode="A" horiz-adv-x="2183" 
d="M1808 0l-202 340h-1028l-203 -340h-273l850 1434h279l850 -1434h-273zM698 545h787l-393 663z" />
    <glyph glyph-name="B" unicode="B" horiz-adv-x="2002" 
d="M1706 762q195 -100 195 -348q0 -193 -115.5 -303.5t-351.5 -110.5h-1311v1434h1270q118 0 203.5 -30.5t132.5 -85.5t68.5 -121t21.5 -148q0 -174 -113 -287zM369 1229v-402h962h2q37 0 55.5 0.5t49.5 4t46 11t35.5 22t30 35.5t16.5 53.5t7 74.5q0 33 -4.5 60t-10 46.5
t-18.5 35t-23 25.5t-30 16.5t-33 10t-38.5 5t-40 2t-44.5 0.5h-962zM1413 205q33 0 49.5 0.5t44.5 3t42.5 8t34.5 15t30.5 25t21 37t15 52t4.5 68.5t-4.5 68.5t-15 52t-21 37t-30.5 25t-34.5 15t-42.5 8t-44.5 3t-49.5 0.5h-1044v-418h1044z" />
    <glyph glyph-name="C" unicode="C" horiz-adv-x="2000" 
d="M102 719q0 174 53 308t161 230.5t281.5 146.5t406.5 50q416 0 636.5 -159t255.5 -453h-245q-31 217 -194 312t-453 95q-162 0 -280 -27.5t-204 -88.5t-129 -164t-43 -250t43 -251.5t129.5 -166t204.5 -89.5t279 -28q288 0 452 96.5t195 315.5h247q-36 -296 -257 -456
t-637 -160q-233 0 -406.5 50.5t-281.5 147.5t-161 231.5t-53 309.5z" />
    <glyph glyph-name="D" unicode="D" horiz-adv-x="1961" 
d="M1147 1434q148 0 275 -44.5t226 -130.5t155.5 -225.5t56.5 -316.5t-56.5 -316.5t-155.5 -225.5t-226 -130.5t-275 -44.5h-1024v1434h1024zM1024 205q126 0 216 14t164 48t118.5 92.5t68 146.5t23.5 211t-23.5 211t-68 146.5t-118.5 92.5t-164 48t-216 14h-655v-1024h655z
" />
    <glyph glyph-name="E" unicode="E" horiz-adv-x="1740" 
d="M1638 1229h-1269v-410h1269v-205h-1269v-409h1269v-205h-1515v1434h1515v-205z" />
    <glyph glyph-name="F" unicode="F" horiz-adv-x="1740" 
d="M1638 1229h-1269v-522h1147v-205h-1147v-502h-246v1434h1515v-205z" />
    <glyph glyph-name="G" unicode="G" horiz-adv-x="2000" 
d="M1004 555v205h894v-760h-245v242q-113 -122 -289 -192t-401 -70q-397 0 -629 197t-232 540q0 345 241.5 541t680.5 196q210 0 374 -42.5t270 -119.5t163.5 -180t66.5 -229h-245q-5 33 -14 63t-30 68t-50.5 70t-78.5 63.5t-110.5 53t-150.5 35t-195 13.5
q-124 0 -226.5 -21t-171 -54t-121 -80.5t-81.5 -94.5t-47 -101.5t-23.5 -96.5t-5.5 -84q0 -43 5.5 -85t24 -96.5t47.5 -101.5t81.5 -94.5t121 -80.5t170.5 -54t226 -21q134 0 245.5 27.5t180.5 69t116.5 93.5t67 97.5t19.5 83.5h-649z" />
    <glyph glyph-name="H" unicode="H" horiz-adv-x="2150" 
d="M1782 1434h246v-1434h-246v614h-1413v-614h-246v1434h246v-615h1413v615z" />
    <glyph glyph-name="I" unicode="I" 
d="M369 1434v-1434h-246v1434h246z" />
    <glyph glyph-name="J" unicode="J" horiz-adv-x="1966" 
d="M1843 1434v-715q0 -375 -210.5 -557t-649.5 -182q-441 0 -650.5 181.5t-209.5 557.5h246q0 -58 4.5 -104.5t19.5 -104t41 -101.5t72.5 -88t110 -72.5t157 -46.5t209.5 -18t209.5 18t157 47t110 73t72 88t41 101.5t20 104t4.5 103.5v510h-841v205h1087z" />
    <glyph glyph-name="K" unicode="K" horiz-adv-x="2174" 
d="M2073 1434l-897 -609l897 -825h-340l-752 692l-612 -416v-276h-246v1434h246v-879l1294 879h410z" />
    <glyph glyph-name="L" unicode="L" horiz-adv-x="1699" 
d="M369 205h1228v-205h-1474v1434h246v-1229z" />
    <glyph glyph-name="M" unicode="M" horiz-adv-x="2441" 
d="M2318 1434v-1434h-245v1190l-750 -1190h-205l-749 1190v-1190h-246v1434h379l719 -1149l718 1149h379z" />
    <glyph glyph-name="N" unicode="N" horiz-adv-x="2093" 
d="M1724 1434h246v-1434h-354l-1247 1198v-1198h-246v1434h354l1247 -1198v1198z" />
    <glyph glyph-name="O" unicode="O" horiz-adv-x="2007" 
d="M1004 -20q-233 0 -406.5 50.5t-281.5 147.5t-161 231.5t-53 309.5q0 174 53 308t161 230.5t281.5 146.5t406.5 50q459 0 680 -191.5t221 -543.5q0 -354 -221 -546.5t-680 -192.5zM1004 184q168 0 287 28t203 90.5t124.5 165.5t40.5 251q0 147 -40 249t-124 164
t-203.5 89.5t-287.5 27.5q-169 0 -288 -27t-203.5 -89t-124.5 -164t-40 -250q0 -149 40.5 -252t125 -165.5t203.5 -90t287 -27.5z" />
    <glyph glyph-name="P" unicode="P" horiz-adv-x="1900" 
d="M1249 1434q248 0 398.5 -136t150.5 -372t-150.5 -372t-398.5 -136h-880v-418h-246v1434h1126zM1147 623q36 0 55.5 0.5t58 3t61.5 7.5t57.5 15.5t56 25.5t46 38t38 52.5t23 70.5t9.5 90t-9.5 90t-23 70.5t-38 52.5t-46 38t-56 25.5t-57.5 15.5t-61.5 7.5t-58 3t-55.5 0.5
h-778v-606h778z" />
    <glyph glyph-name="Q" unicode="Q" horiz-adv-x="2070" 
d="M1948 33l-174 -174l-226 225q-213 -104 -544 -104q-233 0 -406.5 50.5t-281.5 147.5t-161 231.5t-53 309.5q0 174 53 308t161 230.5t281.5 146.5t406.5 50q459 0 680 -191.5t221 -543.5q0 -300 -158 -486zM348 719q0 -149 40.5 -252t125 -165.5t203.5 -90t287 -27.5
t287 28t203 90.5t124.5 165.5t40.5 251q0 147 -40 249t-124 164t-203.5 89.5t-287.5 27.5q-169 0 -288 -27t-203.5 -89t-124.5 -164t-40 -250z" />
    <glyph glyph-name="R" unicode="R" horiz-adv-x="1900" 
d="M1798 926q0 -186 -94.5 -312t-261.5 -172l274 -442h-286l-259 418h-802v-418h-246v1434h1126q248 0 398.5 -136t150.5 -372zM369 1229v-606h778q36 0 55.5 0.5t58 3t61.5 7.5t57.5 15.5t56 25.5t46 38t38 52.5t23 70.5t9.5 90t-9.5 90t-23 70.5t-38 52.5t-46 38t-56 25.5
t-57.5 15.5t-61.5 7.5t-58 3t-55.5 0.5h-778z" />
    <glyph glyph-name="S" unicode="S" horiz-adv-x="2035" 
d="M102 485h246q0 -110 65.5 -174t225 -95.5t440.5 -31.5q328 0 468.5 50t140.5 167q0 43 -9.5 71.5t-40.5 52t-73.5 37.5t-124.5 26.5t-176.5 20t-245.5 16.5q-189 11 -322.5 29.5t-239 50.5t-167.5 80.5t-93.5 117t-31.5 162.5q0 93 39.5 161.5t108.5 111.5t177.5 69.5
t232 36.5t286.5 10q864 0 864 -481h-246q0 160 -146.5 218t-512.5 58q-222 0 -342.5 -20t-167.5 -61t-47 -115q0 -47 16.5 -78.5t53.5 -56t110.5 -40.5t173 -27.5t254.5 -21.5q136 -9 203.5 -14t175.5 -16.5t161 -24t127.5 -34t109.5 -50t72.5 -67.5t51.5 -91t14 -118
q0 -79 -23.5 -142t-64 -108t-104 -78t-134 -53t-163.5 -32t-183 -16.5t-202 -4.5q-154 0 -276 9.5t-233 31t-191 59.5t-139 93.5t-88.5 133.5t-29.5 178z" />
    <glyph glyph-name="T" unicode="T" horiz-adv-x="1966" 
d="M1864 1434v-205h-758v-1229h-246v1229h-758v205h1762z" />
    <glyph glyph-name="U" unicode="U" horiz-adv-x="2048" 
d="M1925 719q0 -377 -216.5 -558t-684.5 -181q-469 0 -685 180.5t-216 558.5v715h246v-715q0 -58 4.5 -104.5t20.5 -104t43.5 -101.5t77 -88t117 -72.5t167.5 -46.5t225 -18t225 18t167.5 47t117 73t77 88t43.5 101.5t20.5 104t4.5 103.5v715h246v-715z" />
    <glyph glyph-name="V" unicode="V" horiz-adv-x="2183" 
d="M1796 1434h285l-846 -1434h-287l-846 1434h285l705 -1207z" />
    <glyph glyph-name="W" unicode="W" horiz-adv-x="3198" 
d="M2828 1434h269l-635 -1434h-299l-564 1194l-563 -1194h-299l-635 1434h269l518 -1188l553 1188h315l553 -1188z" />
    <glyph glyph-name="X" unicode="X" horiz-adv-x="2318" 
d="M102 0l904 717l-904 717h369l688 -553l688 553h369l-903 -717l903 -717h-369l-688 553l-688 -553h-369z" />
    <glyph glyph-name="Y" unicode="Y" horiz-adv-x="2195" 
d="M975 471l-873 963h318l678 -746l678 746h317l-872 -963v-471h-246v471z" />
    <glyph glyph-name="Z" unicode="Z" horiz-adv-x="1863" 
d="M1741 1434v-205l-1260 -1024h1260v-205h-1618v205l1259 1024h-1259v205h1618z" />
    <glyph glyph-name="bracketleft" unicode="[" horiz-adv-x="1413" 
d="M1290 1434h-921v-1639h921v-205h-1167v2048h1167v-204z" />
    <glyph glyph-name="backslash" unicode="\" horiz-adv-x="1024" 
d="M123 1475h246l532 -1782h-246z" />
    <glyph glyph-name="bracketright" unicode="]" horiz-adv-x="1413" 
d="M1290 1638v-2048h-1167v205h921v1639h-921v204h1167z" />
    <glyph glyph-name="asciicircum" unicode="^" horiz-adv-x="1968" 
d="M1804 717h-288l-531 749l-534 -749h-287l657 921h328z" />
    <glyph glyph-name="underscore" unicode="_" horiz-adv-x="2375" 
d="M164 -164h2048v-205h-2048v205z" />
    <glyph glyph-name="grave" unicode="`" horiz-adv-x="1124" 
d="M961 1597v-204l-797 163v205z" />
    <glyph glyph-name="a" unicode="a" horiz-adv-x="1859" 
d="M942 1208q195 0 337.5 -31t246.5 -100t157 -186t54 -283v-608h-246v150q-258 -87 -379 -116q-224 -54 -442 -54q-291 0 -429.5 93t-138.5 298q0 112 56.5 195t158.5 131t229 71t283 23q326 0 662 -105q0 60 -23 109t-59.5 81.5t-88.5 57t-102 37.5t-108.5 21t-100 10
t-83.5 2q-315 0 -625 -105l-98 184q384 125 739 125zM1491 354v127q-317 105 -653 105q-229 0 -359.5 -53t-130.5 -166q0 -42 12 -73t39 -51t56.5 -32t79 -18t92 -7.5t108.5 -1.5q153 0 368.5 49t387.5 121z" />
    <glyph glyph-name="b" unicode="b" horiz-adv-x="1896" 
d="M1040 1208q169 0 304 -35.5t237 -108t157.5 -192t55.5 -278.5t-55.5 -278.5t-157.5 -192t-237 -108t-304 -35.5q-461 0 -671 223v-203h-246v1638h246v-653q210 223 671 223zM958 184q590 0 590 410t-590 410q-589 0 -589 -410t589 -410z" />
    <glyph glyph-name="c" unicode="c" horiz-adv-x="1861" 
d="M102 594q0 159 62.5 278.5t176 192t263 108t334.5 35.5q162 0 297.5 -27.5t244.5 -83t181 -147t98 -213.5h-250q-40 141 -184 204t-387 63q-140 0 -245.5 -22t-184.5 -69t-119.5 -127.5t-40.5 -191.5t40.5 -191.5t119.5 -127.5t184.5 -69t245.5 -22q243 0 387 63t184 204
h250q-26 -122 -98 -213.5t-181 -147t-244.5 -83t-297.5 -27.5q-185 0 -334.5 35.5t-263 108t-176 192t-62.5 278.5z" />
    <glyph glyph-name="d" unicode="d" horiz-adv-x="1896" 
d="M1528 1638h246v-1638h-246v203q-210 -223 -672 -223q-169 0 -304 35.5t-237 108t-157.5 192t-55.5 278.5t55.5 278.5t157.5 192t237 108t304 35.5q462 0 672 -223v653zM938 184q590 0 590 410t-590 410t-590 -410t590 -410z" />
    <glyph glyph-name="e" unicode="e" horiz-adv-x="1861" 
d="M918 184q459 0 571 226h250q-45 -142 -164 -240t-285.5 -144t-371.5 -46q-135 0 -254 22t-223 69.5t-178.5 118.5t-117.5 174t-43 230q0 159 62.5 278.5t176 192t263 108t334.5 35.5q821 0 821 -696h-1405q19 -118 96 -192.5t192 -105t276 -30.5zM938 1004
q-253 0 -396 -67.5t-180 -219.5h1133q-78 287 -557 287z" />
    <glyph glyph-name="f" unicode="f" horiz-adv-x="1384" 
d="M1030 1444q-82 0 -133.5 -7t-88 -22.5t-55 -46.5t-26 -72.5t-8.5 -107.5h563v-205h-563v-983h-246v983h-371v205h371v108q0 184 111 273.5t336 89.5q175 0 362 -21v-204q-133 10 -252 10z" />
    <glyph glyph-name="g" unicode="g" horiz-adv-x="1896" 
d="M1528 1188h246v-969q0 -360 -211.5 -545.5t-583.5 -185.5q-386 0 -748 96v195q7 -1 66 -12.5t85.5 -16.5t88.5 -16t106 -16t103.5 -12t116.5 -10t112 -3q166 0 283.5 34t188 102t104.5 158t41 214q-208 -221 -670 -221q-169 0 -304 35.5t-237 108t-157.5 192t-55.5 278.5
t55.5 278.5t157.5 192t237 108t304 35.5q462 0 672 -223v203zM938 184q590 0 590 410t-590 410t-590 -410t590 -410z" />
    <glyph glyph-name="h" unicode="h" horiz-adv-x="1927" 
d="M1151 1208q111 0 204 -17t177 -59t142 -107t93 -165.5t37 -230.5l-6 -629h-246v547q0 114 -20.5 194.5t-69 141.5t-134.5 91t-212 30q-217 0 -435.5 -99t-311.5 -221v-684h-246v1638h246v-696q145 125 347 195.5t435 70.5z" />
    <glyph glyph-name="i" unicode="i" 
d="M123 1638h246v-286h-246v286zM123 1188h246v-1188h-246v1188z" />
    <glyph glyph-name="j" unicode="j" horiz-adv-x="972" 
d="M604 1638h246v-286h-246v286zM850 1188v-1133q0 -84 -4.5 -148t-17 -125.5t-34 -105t-55.5 -81t-81 -60t-110.5 -35t-144.5 -12.5q-181 0 -362 31v194q167 -20 252 -20q54 0 90 2t70.5 9.5t55 18.5t39.5 32.5t28 47.5t16.5 67.5t9.5 89t2 114.5v1114h246z" />
    <glyph glyph-name="k" unicode="k" horiz-adv-x="2052" 
d="M1950 1188l-865 -481l865 -707h-377l-703 573l-501 -274v-299h-246v1638h246v-1071l1104 621h477z" />
    <glyph glyph-name="l" unicode="l" 
d="M123 1638h246v-1638h-246v1638z" />
    <glyph glyph-name="m" unicode="m" horiz-adv-x="2859" 
d="M2206 1208q123 0 215 -28.5t164 -93.5t110.5 -179.5t40.5 -277.5l-6 -629h-246v547q0 68 -2.5 117t-11 99.5t-23 85t-39.5 66t-60 50t-84.5 29t-113.5 10.5q-161 0 -322 -65.5t-261 -152.5q12 -71 12 -157l-6 -629h-246v547q0 68 -2.5 117t-11 99.5t-23 85t-39.5 66
t-60 50t-84.5 29t-113.5 10.5q-183 0 -363 -82t-261 -177v-745h-246v1188h246v-191q126 91 300 151t380 60q330 0 452 -217q330 217 705 217z" />
    <glyph glyph-name="n" unicode="n" horiz-adv-x="1927" 
d="M1151 1208q111 0 204 -17t177 -59t142 -107t93 -165.5t37 -230.5l-6 -629h-246v547q0 114 -20.5 194.5t-69 141.5t-134.5 91t-212 30q-217 0 -435.5 -99t-311.5 -221v-684h-246v1188h246v-246q145 125 347 195.5t435 70.5z" />
    <glyph glyph-name="o" unicode="o" horiz-adv-x="1875" 
d="M938 -20q-185 0 -334.5 35.5t-263 108t-176 192t-62.5 278.5t62.5 278.5t176 192t263 108t334.5 35.5t334.5 -35.5t263 -108t176 -192t62.5 -278.5t-62.5 -278.5t-176 -192t-263 -108t-334.5 -35.5zM938 184q309 0 449.5 93.5t140.5 316.5t-140.5 316.5t-449.5 93.5
t-449.5 -93.5t-140.5 -316.5t140.5 -316.5t449.5 -93.5z" />
    <glyph glyph-name="p" unicode="p" horiz-adv-x="1896" 
d="M1040 1208q169 0 304 -35.5t237 -108t157.5 -192t55.5 -278.5t-55.5 -278.5t-157.5 -192t-237 -108t-304 -35.5q-461 0 -671 223v-715h-246v1700h246v-203q210 223 671 223zM958 184q590 0 590 410t-590 410q-589 0 -589 -410t589 -410z" />
    <glyph glyph-name="q" unicode="q" horiz-adv-x="1896" 
d="M1528 1188h246v-1700h-246v715q-210 -223 -672 -223q-169 0 -304 35.5t-237 108t-157.5 192t-55.5 278.5t55.5 278.5t157.5 192t237 108t304 35.5q462 0 672 -223v203zM938 184q590 0 590 410t-590 410t-590 -410t590 -410z" />
    <glyph glyph-name="r" unicode="r" horiz-adv-x="1519" 
d="M1092 1208q157 0 325 -41v-204q-163 41 -317 41q-374 0 -731 -238v-766h-246v1188h246v-205q321 225 723 225z" />
    <glyph glyph-name="s" unicode="s" horiz-adv-x="1871" 
d="M102 424h246q0 -129 149.5 -184.5t495.5 -55.5q231 0 343 15t150 46.5t38 96.5q0 23 -3.5 39t-16 30.5t-29 24.5t-51.5 19.5t-73 16t-104.5 13.5t-135.5 13t-175 14q-84 6 -144.5 11.5t-129 13t-116 15.5t-99.5 20t-86.5 26t-69.5 32.5t-56 41.5t-38.5 51t-25 62t-7.5 75
q0 70 27.5 125.5t81 93t121.5 63.5t158.5 40t182 20t201.5 6q104 0 188 -4t168 -15t148 -29t120 -46.5t92 -67t56.5 -91.5t20.5 -119h-246q0 94 -130 131t-438 37q-194 0 -306 -14.5t-155.5 -42t-43.5 -73.5q0 -24 7 -40.5t31 -31.5t59.5 -25t103.5 -20.5t152 -19.5t214 -20
q313 -28 369 -35q233 -31 327 -107q96 -76 96 -223q0 -66 -18 -119t-50 -91.5t-83 -67t-111 -46.5t-140.5 -29t-164 -15t-188.5 -4q-108 0 -197.5 4.5t-186 16.5t-171.5 32.5t-144 54.5t-114 79.5t-72 110.5t-27 146z" />
    <glyph glyph-name="t" unicode="t" horiz-adv-x="1445" 
d="M1343 983h-624v-418q0 -85 4 -140.5t17.5 -101t34 -70.5t57 -41.5t82.5 -22t116 -5.5q165 0 313 21v-195q-175 -30 -403 -30q-99 0 -182 23t-147.5 68t-101 119.5t-36.5 171.5v621h-371v205h371v287l246 81v-368h624v-205z" />
    <glyph glyph-name="u" unicode="u" horiz-adv-x="1927" 
d="M1559 1188h245v-1188h-245v246q-144 -124 -347 -195t-436 -71q-111 0 -204 17t-177 59t-142 107t-93 165.5t-37 230.5l6 629h246v-547q0 -114 20.5 -194.5t69 -141.5t134.5 -91t212 -30q217 0 436 99t312 221v684z" />
    <glyph glyph-name="v" unicode="v" horiz-adv-x="1927" 
d="M1542 1188h283l-686 -1188h-351l-686 1188h283l580 -1006z" />
    <glyph glyph-name="w" unicode="w" horiz-adv-x="2932" 
d="M2560 1188h270l-565 -1188h-371l-428 973l-428 -973h-370l-566 1188h271l479 -1020l440 1020h348l441 -1020z" />
    <glyph glyph-name="x" unicode="x" horiz-adv-x="2031" 
d="M102 0l764 594l-764 594h349l565 -430l565 430h348l-764 -594l764 -594h-348l-565 430l-565 -430h-349z" />
    <glyph glyph-name="y" unicode="y" horiz-adv-x="1968" 
d="M1589 1188h277l-903 -1700h-277l272 512h-147l-709 1188h283l637 -1067z" />
    <glyph glyph-name="z" unicode="z" horiz-adv-x="1667" 
d="M1544 1188v-205l-1052 -778h1052v-205h-1421v205l1053 778h-1053v205h1421z" />
    <glyph glyph-name="braceleft" unicode="{" horiz-adv-x="1413" 
d="M123 371v491h52.5t47.5 1.5t45 4t39 7.5t35.5 12.5t28 18.5t24.5 26.5t16.5 34.5t11.5 44.5t3 55.5q0 102 10 174.5t33 135.5t66.5 104.5t106 73.5t157 49t212.5 25.5t279 8.5v-204q-114 0 -188 -2.5t-147.5 -11.5t-116.5 -23.5t-84 -42t-61 -63t-36 -90.5t-21 -120.5
t-5 -156.5q0 -70 -20 -122t-48.5 -79t-67.5 -42.5t-67 -19.5t-59 -4v-82q31 0 59 -3.5t67.5 -19.5t67 -42.5t48 -78.5t20.5 -122q0 -92 5 -158t21 -121.5t36 -91t61 -63.5t84 -42.5t116.5 -23.5t147.5 -11.5t188 -2.5v-205q-146 0 -256.5 6t-200.5 21t-152.5 35.5t-109 56.5
t-74 76t-44 101t-22 125.5t-5.5 154.5q0 30 -3 55.5t-11.5 44.5t-16.5 34.5t-24.5 26.5t-28 18.5t-35.5 12.5t-39 7.5t-45 4t-47.5 1.5h-52.5z" />
    <glyph glyph-name="bar" unicode="|" horiz-adv-x="573" 
d="M164 1475h246v-1782h-246v1782z" />
    <glyph glyph-name="braceright" unicode="}" horiz-adv-x="1413" 
d="M1290 371h-52.5t-47.5 -1.5t-45 -4t-39 -7.5t-35.5 -12.5t-28 -18.5t-24.5 -26.5t-16.5 -34.5t-11.5 -44.5t-3 -55.5q0 -90 -5.5 -154.5t-22 -125.5t-44 -101t-74 -76t-109 -56.5t-152.5 -35.5t-200.5 -21t-256.5 -6v205q114 0 188 2.5t147.5 11.5t116.5 23.5t84 42.5
t61 63.5t36 91t21 121.5t5 158q0 70 20.5 122t48 78.5t67 42.5t67.5 19.5t59 3.5v82q-31 0 -59 4t-67 19.5t-67.5 42.5t-48.5 79t-20 122q0 91 -5 156.5t-21 120.5t-36 90.5t-61 63t-84 42t-116.5 23.5t-147.5 11.5t-188 2.5v204q161 0 279 -8.5t212.5 -25.5t157 -49
t106 -73.5t66.5 -104.5t33 -135.5t10 -174.5q0 -30 3 -55.5t11.5 -44.5t16.5 -34.5t24.5 -26.5t28 -18.5t35.5 -12.5t39 -7.5t45 -4t47.5 -1.5h52.5v-491z" />
    <glyph glyph-name="asciitilde" unicode="~" horiz-adv-x="1966" 
d="M164 369q0 160 22.5 276.5t74 204t139.5 131t214 43.5q89 0 163.5 -25t126.5 -64.5t97 -88t84 -96.5t77.5 -87.5t86.5 -64.5t103 -25q81 0 124 41t61.5 136.5t18.5 273.5h246q0 -160 -22.5 -276.5t-74 -204t-139.5 -131t-214 -43.5q-89 0 -163.5 25t-126.5 64.5t-97 87.5
t-84 96t-77.5 87.5t-86.5 64.5t-103 25q-81 0 -124 -41t-61.5 -136t-18.5 -273h-246z" />
    <glyph glyph-name="exclamdown" unicode="&#xa1;" 
d="M123 1024v205h246v-205h-246zM369 -205h-246v1024h246v-1024z" />
    <glyph glyph-name="cent" unicode="&#xa2;" horiz-adv-x="1984" 
d="M1116 311q390 25 455 262h250q-32 -147 -131 -249t-242 -153.5t-332 -64.5v-311h-246v311q-159 12 -285.5 53.5t-222 115t-147 185.5t-51.5 257t51.5 257t147 185t222 114.5t285.5 53.5v311h246v-311q189 -13 332 -64.5t242 -153.5t131 -249h-250q-65 237 -455 262v-811z
M410 717q0 -193 118 -289.5t342 -114.5v807q-225 -18 -342.5 -114t-117.5 -289z" />
    <glyph glyph-name="sterling" unicode="&#xa3;" horiz-adv-x="1843" 
d="M1194 1454q-253 0 -362 -59t-125.5 -195t6.5 -358h729v-205h-721q-10 -216 -93.5 -381.5t-217.5 -255.5h1269v-205h-1515v205q155 121 239 272t84 365h-323v205h307q-33 196 -15 348t88 256t208 158.5t346 54.5q146 0 271.5 -14.5t309.5 -47.5v-204q-165 33 -271 47
t-214 14z" />
    <glyph glyph-name="currency" unicode="&#xa4;" horiz-adv-x="1998" 
d="M1835 696q0 -364 -322 -516l322 -321l-160 -158l-403 403q-132 -22 -273 -22q-140 0 -272 22l-403 -403l-160 158l321 321q-321 152 -321 516q0 355 307 510l-307 307l160 158l385 -385q141 25 290 25q150 0 291 -25l385 385l160 -158l-307 -307q307 -155 307 -510z
M999 287q309 0 449.5 93t140.5 316t-140.5 316.5t-449.5 93.5t-449 -93.5t-140 -316.5t140 -316t449 -93z" />
    <glyph glyph-name="yen" unicode="&#xa5;" horiz-adv-x="2318" 
d="M2154 1638l-798 -880h608v-205h-682v-164h682v-205h-682v-389h-246v389h-678v205h678v164h-678v205h605l-799 880h323l672 -743l672 743h323z" />
    <glyph glyph-name="brokenbar" unicode="&#xa6;" horiz-adv-x="573" 
d="M164 1475h246v-707h-246v707zM164 399h246v-706h-246v706z" />
    <glyph glyph-name="section" unicode="&#xa7;" horiz-adv-x="1871" 
d="M1520 385q99 -49 143.5 -126.5t44.5 -199.5q0 -77 -25.5 -138t-75 -103t-113 -71.5t-147.5 -46t-170.5 -23.5t-189.5 -7q-187 0 -334.5 27t-258.5 83.5t-170.5 150.5t-59.5 221h246q0 -160 140.5 -218.5t477.5 -58.5q240 0 337 44.5t97 152.5q0 30 -3.5 51.5t-15 41
t-27.5 32.5t-47 25.5t-66 20.5t-93 17t-120 15.5t-154 15.5q-169 16 -284.5 34.5t-203.5 44.5t-137.5 62.5t-73.5 84.5t-24 114q0 87 34 160.5t103 150.5q-98 49 -142 127.5t-44 200.5q0 77 25.5 138t75 103t113 71.5t147.5 46t170.5 23.5t189.5 7q187 0 334.5 -27
t258.5 -83.5t170.5 -150t59.5 -220.5h-246q0 159 -140.5 217.5t-477.5 58.5q-240 0 -337 -44.5t-97 -152.5q0 -40 6.5 -66.5t29.5 -50t56 -37.5t96 -27.5t140 -23.5t198 -22q171 -17 284.5 -34.5t203 -42.5t138.5 -60t73 -82t24 -113q0 -87 -34.5 -160t-104.5 -153zM549 879
q-53 -70 -78 -121t-20.5 -91t33 -66t93.5 -46t148.5 -33t210.5 -24q259 -24 385 -52q54 71 79.5 122.5t21 91.5t-32.5 66t-94 45.5t-148.5 32t-210.5 23.5q-260 23 -387 52z" />
    <glyph glyph-name="dieresis" unicode="&#xa8;" horiz-adv-x="1187" 
d="M164 1679h328v-245h-328v245zM696 1679h328v-245h-328v245z" />
    <glyph glyph-name="copyright" unicode="&#xa9;" horiz-adv-x="2385" 
d="M1194 -225q-198 0 -365 47t-288.5 132.5t-207 203t-127.5 259.5t-42 302t42 301.5t127.5 258.5t207 201.5t288.5 131.5t365 47q247 0 444 -72t323.5 -199.5t193.5 -298t67 -370.5q0 -160 -41.5 -302t-126.5 -259.5t-206.5 -203t-288.5 -132.5t-365 -47zM1194 -20
q244 0 429 86.5t289.5 255t104.5 397.5t-104 396.5t-289 253t-430 85.5t-430.5 -86t-290 -253.5t-104.5 -395.5q0 -229 105 -397.5t290.5 -255t429.5 -86.5zM600 717q0 236 153 344t443 108q551 0 592 -387h-246q-30 183 -346 183q-54 0 -98 -4.5t-93 -20.5t-82 -42
t-55 -72.5t-22 -108.5t22 -108.5t55 -72.5t82 -42t93 -20.5t98 -4.5q316 0 346 182h246q-41 -387 -592 -387q-290 0 -443 108.5t-153 344.5z" />
    <glyph glyph-name="guillemotleft" unicode="&#xab;" horiz-adv-x="1781" 
d="M655 1188h328l-532 -594l532 -594h-328l-532 594zM1331 1188h328l-533 -594l533 -594h-328l-532 594z" />
    <glyph glyph-name="logicalnot" unicode="&#xac;" horiz-adv-x="1966" 
d="M1802 799v-629h-246v424h-1392v205h1638z" />
    <glyph glyph-name="registered" unicode="&#xae;" horiz-adv-x="1703" 
d="M852 1659q169 0 301 -46t216 -129t127.5 -195.5t43.5 -248.5t-43.5 -248.5t-127.5 -195.5t-216 -128.5t-301 -45.5t-301 45.5t-216 128.5t-127.5 195.5t-43.5 248.5t43.5 248.5t127.5 195.5t216 129t301 46zM852 524q128 0 234 32t185.5 94.5t123 162t43.5 227.5
t-43.5 227.5t-123 162t-185.5 94.5t-234 32t-234 -32t-185.5 -94.5t-123 -162t-43.5 -227.5t43.5 -227.5t123 -162t185.5 -94.5t234 -32zM1239 1128q0 -78 -40 -130.5t-109 -71.5l114 -187h-121l-108 176h-336v-176h-104v602h473q104 0 167.5 -57t63.5 -156zM965 1001
q23 0 36 0.5t36.5 4t38 11.5t29.5 21.5t22.5 36t7.5 53.5t-7.5 53.5t-22.5 36t-29.5 21.5t-38 11.5t-36.5 4t-36 0.5h-326v-254h326z" />
    <glyph glyph-name="macron" unicode="&#xaf;" horiz-adv-x="1288" 
d="M164 1618h960v-205h-960v205z" />
    <glyph glyph-name="degree" unicode="&#xb0;" horiz-adv-x="1579" 
d="M788 530q-155 0 -276.5 44t-196 122t-113 179t-38.5 221q0 119 38.5 219.5t113 178t196 121.5t276.5 44q156 0 278 -44t197 -121.5t113.5 -178t38.5 -219.5q0 -120 -38.5 -221t-114 -179t-197 -122t-277.5 -44zM788 735q175 0 278 91.5t103 269.5q0 177 -103 267.5
t-278 90.5q-174 0 -276 -90.5t-102 -267.5t102.5 -269t275.5 -92z" />
    <glyph glyph-name="plusminus" unicode="&#xb1;" horiz-adv-x="1966" 
d="M1106 1065h696v-205h-696v-368h-246v368h-696v205h696v369h246v-369zM164 102v205h1638v-205h-1638z" />
    <glyph glyph-name="acute" unicode="&#xb4;" horiz-adv-x="1124" 
d="M164 1597l797 164v-205l-797 -163v204z" />
    <glyph glyph-name="paragraph" unicode="&#xb6;" horiz-adv-x="1880" 
d="M899 1475h246v-1782h-246v1003q-110 0 -189.5 3.5t-161.5 13t-137 27t-105 46.5t-79 70t-46 98t-17 131t17 131t46 98.5t79 70.5t105.5 46.5t137 27t161 13t189.5 3.5zM1470 1475h246v-1782h-246v1782z" />
    <glyph glyph-name="periodcentered" unicode="&#xb7;" 
d="M123 737h246v-205h-246v205z" />
    <glyph glyph-name="cedilla" unicode="&#xb8;" horiz-adv-x="974" 
d="M446 -96q52 16 110 21.5t117.5 -3t98.5 -49.5t39 -111q0 -68 -37.5 -117.5t-99.5 -77t-146.5 -40.5t-175 -11.5t-188.5 13.5v166q201 -27 301 -3.5t100 89.5q0 39 -46.5 47t-166.5 -18l-121 118l19 72h221z" />
    <glyph glyph-name="guillemotright" unicode="&#xbb;" horiz-adv-x="1863" 
d="M532 1188l533 -594l-533 -594h-327l532 594l-532 594h327zM1208 1188l533 -594l-533 -594h-327l532 594l-532 594h327z" />
    <glyph glyph-name="questiondown" unicode="&#xbf;" horiz-adv-x="1789" 
d="M1133 1024h-246v205h246v-205zM887 819h246q0 -81 -26 -144.5t-70.5 -104.5t-101.5 -72t-120.5 -51.5t-127 -38.5t-120.5 -37.5t-101.5 -43.5t-70.5 -62.5t-26 -88.5q0 -196 485 -196q308 0 437.5 76t129.5 272h246q0 -128 -39.5 -225t-107.5 -159t-170.5 -100.5
t-217 -53.5t-258.5 -15q-751 0 -751 409q0 74 26 133t70.5 97.5t101.5 68.5t120.5 51t127 40t120.5 40t101.5 47.5t70.5 66t26 91.5z" />
    <glyph glyph-name="Agrave" unicode="&#xc0;" horiz-adv-x="2183" 
d="M1489 1843v-205l-797 164v205zM1808 0l-202 340h-1028l-203 -340h-273l850 1434h279l850 -1434h-273zM698 545h787l-393 663z" />
    <glyph glyph-name="Aacute" unicode="&#xc1;" horiz-adv-x="2183" 
d="M1489 2007v-205l-797 -164v205zM1808 0l-202 340h-1028l-203 -340h-273l850 1434h279l850 -1434h-273zM698 545h787l-393 663z" />
    <glyph glyph-name="Acircumflex" unicode="&#xc2;" horiz-adv-x="2183" 
d="M1516 1638l-424 164l-424 -164v205l424 164l424 -164v-205zM1808 0l-202 340h-1028l-203 -340h-273l850 1434h279l850 -1434h-273zM698 545h787l-393 663z" />
    <glyph glyph-name="Atilde" unicode="&#xc3;" horiz-adv-x="2183" 
d="M866 1843q-69 0 -96 -55.5t-27 -169.5h-245q0 194 87.5 312t260.5 118q70 0 129.5 -25.5t100.5 -61.5t77.5 -72t78 -61.5t85.5 -25.5q69 0 96 56t27 170h246q0 -194 -88 -312.5t-261 -118.5q-70 0 -129.5 25.5t-100.5 61.5t-77.5 72t-78 61.5t-85.5 25.5zM1808 0
l-202 340h-1028l-203 -340h-273l850 1434h279l850 -1434h-273zM698 545h787l-393 663z" />
    <glyph glyph-name="Adieresis" unicode="&#xc4;" horiz-adv-x="2183" 
d="M989 1925v-246h-327v246h327zM1522 1925v-246h-328v246h328zM1808 0l-202 340h-1028l-203 -340h-273l850 1434h279l850 -1434h-273zM698 545h787l-393 663z" />
    <glyph glyph-name="Aring" unicode="&#xc5;" horiz-adv-x="2183" 
d="M1092 1597q-430 0 -430 271q0 270 430 270t430 -270q0 -271 -430 -271zM1092 1995q-226 0 -226 -127t226 -127q225 0 225 127t-225 127zM1808 0l-202 340h-1028l-203 -340h-273l850 1434h279l850 -1434h-273zM698 545h787l-393 663z" />
    <glyph glyph-name="AE" unicode="&#xc6;" horiz-adv-x="2977" 
d="M2875 1229h-1269v-410h1269v-205h-1269v-409h1269v-205h-1515v340h-793l-184 -340h-281l779 1434h1994v-205zM1360 1229h-309l-371 -684h680v684z" />
    <glyph glyph-name="Ccedilla" unicode="&#xc7;" horiz-adv-x="2000" 
d="M1898 596q-33 -276 -228 -434.5t-558 -179.5l-20 -78q40 13 85 20t96 4t90.5 -18.5t66 -53t26.5 -94.5q0 -68 -37.5 -117.5t-99.5 -77t-146.5 -40.5t-175 -11.5t-188.5 13.5v166q201 -27 301 -3.5t100 89.5q0 39 -46.5 47t-166.5 -18l-120 118l14 56
q-402 23 -595.5 212.5t-193.5 522.5q0 174 53 308t161 230.5t281.5 146.5t406.5 50q416 0 636.5 -159t255.5 -453h-245q-31 217 -194 312t-453 95q-162 0 -280 -27.5t-204 -88.5t-129 -164t-43 -250t43 -251.5t129.5 -166t204.5 -89.5t279 -28q288 0 452 96.5t195 315.5h247
z" />
    <glyph glyph-name="Egrave" unicode="&#xc8;" horiz-adv-x="1740" 
d="M1278 1843v-205l-797 164v205zM1638 1229h-1269v-410h1269v-205h-1269v-409h1269v-205h-1515v1434h1515v-205z" />
    <glyph glyph-name="Eacute" unicode="&#xc9;" horiz-adv-x="1740" 
d="M1278 2007v-205l-797 -164v205zM1638 1229h-1269v-410h1269v-205h-1269v-409h1269v-205h-1515v1434h1515v-205z" />
    <glyph glyph-name="Ecircumflex" unicode="&#xca;" horiz-adv-x="1740" 
d="M1305 1638l-424 164l-424 -164v205l424 164l424 -164v-205zM1638 1229h-1269v-410h1269v-205h-1269v-409h1269v-205h-1515v1434h1515v-205z" />
    <glyph glyph-name="Edieresis" unicode="&#xcb;" horiz-adv-x="1740" 
d="M778 1925v-246h-327v246h327zM1311 1925v-246h-328v246h328zM1638 1229h-1269v-410h1269v-205h-1269v-409h1269v-205h-1515v1434h1515v-205z" />
    <glyph glyph-name="Igrave" unicode="&#xcc;" 
d="M643 1843v-205l-797 164v205zM369 1434v-1434h-246v1434h246z" />
    <glyph glyph-name="Iacute" unicode="&#xcd;" 
d="M-154 1843l797 164v-205l-797 -164v205zM369 1434v-1434h-246v1434h246z" />
    <glyph glyph-name="Icircumflex" unicode="&#xce;" 
d="M246 2007l424 -164v-205l-424 164l-424 -164v205zM123 0v1434h246v-1434h-246z" />
    <glyph glyph-name="Idieresis" unicode="&#xcf;" 
d="M-184 1925h327v-246h-327v246zM348 1925h328v-246h-328v246zM369 1434v-1434h-246v1434h246z" />
    <glyph glyph-name="Eth" unicode="&#xd0;" horiz-adv-x="2111" 
d="M1296 1434q148 0 275 -44.5t226 -130.5t155.5 -225.5t56.5 -316.5t-56.5 -316.5t-155.5 -225.5t-226 -130.5t-275 -44.5h-1024v614h-149v205h149v615h1024zM1174 205q158 0 262.5 22.5t181 79.5t111 157t34.5 253t-34.5 253t-111 157t-181 79.5t-262.5 22.5h-656v-410
h588v-205h-588v-409h656z" />
    <glyph glyph-name="Ntilde" unicode="&#xd1;" horiz-adv-x="2093" 
d="M821 1843q-69 0 -96 -55.5t-27 -169.5h-245q0 194 87.5 312t260.5 118q70 0 129.5 -25.5t100.5 -61.5t77.5 -72t78 -61.5t85.5 -25.5q69 0 96 56t27 170h245q0 -194 -87.5 -312.5t-260.5 -118.5q-70 0 -129.5 25.5t-100.5 61.5t-77.5 72t-78 61.5t-85.5 25.5zM1724 1434
h246v-1434h-354l-1247 1198v-1198h-246v1434h354l1247 -1198v1198z" />
    <glyph glyph-name="Ograve" unicode="&#xd2;" horiz-adv-x="2007" 
d="M1401 1843v-205l-797 164v205zM1004 -20q-233 0 -406.5 50.5t-281.5 147.5t-161 231.5t-53 309.5q0 174 53 308t161 230.5t281.5 146.5t406.5 50q459 0 680 -191.5t221 -543.5q0 -354 -221 -546.5t-680 -192.5zM1004 184q168 0 287 28t203 90.5t124.5 165.5t40.5 251
q0 147 -40 249t-124 164t-203.5 89.5t-287.5 27.5q-169 0 -288 -27t-203.5 -89t-124.5 -164t-40 -250q0 -149 40.5 -252t125 -165.5t203.5 -90t287 -27.5z" />
    <glyph glyph-name="Oacute" unicode="&#xd3;" horiz-adv-x="2007" 
d="M604 1843l797 164v-205l-797 -164v205zM1004 -20q-233 0 -406.5 50.5t-281.5 147.5t-161 231.5t-53 309.5q0 174 53 308t161 230.5t281.5 146.5t406.5 50q459 0 680 -191.5t221 -543.5q0 -354 -221 -546.5t-680 -192.5zM1004 184q168 0 287 28t203 90.5t124.5 165.5
t40.5 251q0 147 -40 249t-124 164t-203.5 89.5t-287.5 27.5q-169 0 -288 -27t-203.5 -89t-124.5 -164t-40 -250q0 -149 40.5 -252t125 -165.5t203.5 -90t287 -27.5z" />
    <glyph glyph-name="Ocircumflex" unicode="&#xd4;" horiz-adv-x="2007" 
d="M1427 1638l-423 164l-424 -164v205l424 164l423 -164v-205zM1004 1454q459 0 680 -191.5t221 -543.5q0 -354 -221 -546.5t-680 -192.5q-233 0 -406.5 50.5t-281.5 147.5t-161 231.5t-53 309.5q0 174 53 308t161 230.5t281.5 146.5t406.5 50zM1004 184q168 0 287 28
t203 90.5t124.5 165.5t40.5 251q0 147 -40 249t-124 164t-203.5 89.5t-287.5 27.5q-169 0 -288 -27t-203.5 -89t-124.5 -164t-40 -250q0 -149 40.5 -252t125 -165.5t203.5 -90t287 -27.5z" />
    <glyph glyph-name="Otilde" unicode="&#xd5;" horiz-adv-x="2007" 
d="M410 1618q0 194 87.5 312t260.5 118q70 0 129.5 -25.5t100.5 -61.5t77.5 -72t78 -61.5t85.5 -25.5q69 0 96 56t27 170h245q0 -194 -87.5 -312.5t-260.5 -118.5q-70 0 -129.5 25.5t-100.5 61.5t-77.5 72t-78 61.5t-85.5 25.5q-69 0 -96 -55.5t-27 -169.5h-245zM1004 -20
q-233 0 -406.5 50.5t-281.5 147.5t-161 231.5t-53 309.5q0 174 53 308t161 230.5t281.5 146.5t406.5 50q459 0 680 -191.5t221 -543.5q0 -354 -221 -546.5t-680 -192.5zM1004 184q168 0 287 28t203 90.5t124.5 165.5t40.5 251q0 147 -40 249t-124 164t-203.5 89.5
t-287.5 27.5q-169 0 -288 -27t-203.5 -89t-124.5 -164t-40 -250q0 -149 40.5 -252t125 -165.5t203.5 -90t287 -27.5z" />
    <glyph glyph-name="Odieresis" unicode="&#xd6;" horiz-adv-x="2007" 
d="M573 1925h328v-246h-328v246zM1106 1925h328v-246h-328v246zM1004 -20q-233 0 -406.5 50.5t-281.5 147.5t-161 231.5t-53 309.5q0 174 53 308t161 230.5t281.5 146.5t406.5 50q459 0 680 -191.5t221 -543.5q0 -354 -221 -546.5t-680 -192.5zM1004 184q168 0 287 28
t203 90.5t124.5 165.5t40.5 251q0 147 -40 249t-124 164t-203.5 89.5t-287.5 27.5q-169 0 -288 -27t-203.5 -89t-124.5 -164t-40 -250q0 -149 40.5 -252t125 -165.5t203.5 -90t287 -27.5z" />
    <glyph glyph-name="multiply" unicode="&#xd7;" horiz-adv-x="1849" 
d="M1686 1018l-556 -320l556 -321l-103 -178l-657 381l-660 -381l-102 178l555 321l-555 320l102 178l660 -381l657 381z" />
    <glyph glyph-name="Oslash" unicode="&#xd8;" horiz-adv-x="2007" 
d="M1348 1419q282 -65 419.5 -244t137.5 -456q0 -354 -221 -546.5t-680 -192.5q-59 0 -86 2l-48 -156h-266l55 188q-557 127 -557 705q0 174 53 308t161 230.5t281.5 146.5t406.5 50q59 0 86 -2l47 156h266zM348 719q0 -222 91.5 -343t279.5 -165l311 1038h-26
q-169 0 -288 -27t-203.5 -89t-124.5 -164t-40 -250zM1004 184q168 0 287 28t203 90.5t124.5 165.5t40.5 251q0 220 -91 341t-280 163l-311 -1039h27z" />
    <glyph glyph-name="Ugrave" unicode="&#xd9;" horiz-adv-x="2048" 
d="M1421 1843v-205l-796 164v205zM1925 719q0 -377 -216.5 -558t-684.5 -181q-469 0 -685 180.5t-216 558.5v715h246v-715q0 -58 4.5 -104.5t20.5 -104t43.5 -101.5t77 -88t117 -72.5t167.5 -46.5t225 -18t225 18t167.5 47t117 73t77 88t43.5 101.5t20.5 104t4.5 103.5v715
h246v-715z" />
    <glyph glyph-name="Uacute" unicode="&#xda;" horiz-adv-x="2048" 
d="M625 1843l796 164v-205l-796 -164v205zM1925 719q0 -377 -216.5 -558t-684.5 -181q-469 0 -685 180.5t-216 558.5v715h246v-715q0 -58 4.5 -104.5t20.5 -104t43.5 -101.5t77 -88t117 -72.5t167.5 -46.5t225 -18t225 18t167.5 47t117 73t77 88t43.5 101.5t20.5 104
t4.5 103.5v715h246v-715z" />
    <glyph glyph-name="Ucircumflex" unicode="&#xdb;" horiz-adv-x="2048" 
d="M1448 1638l-424 164l-424 -164v205l424 164l424 -164v-205zM1679 1434h246v-715q0 -377 -216.5 -558t-684.5 -181q-469 0 -685 180.5t-216 558.5v715h246v-715q0 -58 4.5 -104.5t20.5 -104t43.5 -101.5t77 -88t117 -72.5t167.5 -46.5t225 -18t225 18t167.5 47t117 73
t77 88t43.5 101.5t20.5 104t4.5 103.5v715z" />
    <glyph glyph-name="Udieresis" unicode="&#xdc;" horiz-adv-x="2048" 
d="M594 1925h328v-246h-328v246zM1126 1925h328v-246h-328v246zM1925 719q0 -377 -216.5 -558t-684.5 -181q-469 0 -685 180.5t-216 558.5v715h246v-715q0 -58 4.5 -104.5t20.5 -104t43.5 -101.5t77 -88t117 -72.5t167.5 -46.5t225 -18t225 18t167.5 47t117 73t77 88
t43.5 101.5t20.5 104t4.5 103.5v715h246v-715z" />
    <glyph glyph-name="Yacute" unicode="&#xdd;" horiz-adv-x="2195" 
d="M698 1843l797 164v-205l-797 -164v205zM975 471l-873 963h318l678 -746l678 746h317l-872 -963v-471h-246v471z" />
    <glyph glyph-name="Thorn" unicode="&#xde;" horiz-adv-x="1900" 
d="M1249 1229q248 0 398.5 -136t150.5 -372t-150.5 -372t-398.5 -136h-880v-213h-246v1434h246v-205h880zM1147 418q36 0 55.5 0.5t58 3t61.5 7.5t57.5 15.5t56 25.5t46 38t38 52.5t23 70.5t9.5 90t-9.5 90t-23 70.5t-38 52.5t-46 38t-56 25.5t-57.5 15.5t-61.5 7.5t-58 3
t-55.5 0.5h-778v-606h778z" />
    <glyph glyph-name="germandbls" unicode="&#xdf;" horiz-adv-x="1851" 
d="M1397 782q178 -35 265 -121.5t87 -250.5q0 -204 -125 -295q-114 -82 -390 -103q-153 -12 -564 -12v205q134 0 225.5 1t182 5t146.5 10t108.5 17t81 25.5t51 36t30.5 48t8 62.5t-8 62.5t-30.5 48t-50.5 36t-81 25t-109 17t-146.5 10t-181.5 4.5t-226 1v205q96 0 157.5 1
t128.5 4.5t107 9.5t81 17t62.5 27t40 38.5t25 52t6.5 67.5q0 112 -99 162.5t-305 50.5q-141 0 -232.5 -17.5t-155 -63t-90.5 -122.5t-27 -196v-850h-246v850q0 140 31 243t89.5 172t152 111t208.5 60t270 18q119 0 214.5 -12t178.5 -42t138.5 -77t87 -119.5t31.5 -167.5
q0 -154 -127 -254z" />
    <glyph glyph-name="agrave" unicode="&#xe0;" horiz-adv-x="1859" 
d="M1354 1597v-204l-797 163v205zM942 1208q195 0 337.5 -31t246.5 -100t157 -186t54 -283v-608h-246v150q-258 -87 -379 -116q-224 -54 -442 -54q-291 0 -429.5 93t-138.5 298q0 112 56.5 195t158.5 131t229 71t283 23q326 0 662 -105q0 60 -23 109t-59.5 81.5t-88.5 57
t-102 37.5t-108.5 21t-100 10t-83.5 2q-315 0 -625 -105l-98 184q384 125 739 125zM1491 354v127q-317 105 -653 105q-229 0 -359.5 -53t-130.5 -166q0 -42 12 -73t39 -51t56.5 -32t79 -18t92 -7.5t108.5 -1.5q153 0 368.5 49t387.5 121z" />
    <glyph glyph-name="aacute" unicode="&#xe1;" horiz-adv-x="1859" 
d="M1354 1761v-205l-797 -163v204zM942 1208q195 0 337.5 -31t246.5 -100t157 -186t54 -283v-608h-246v150q-258 -87 -379 -116q-224 -54 -442 -54q-291 0 -429.5 93t-138.5 298q0 112 56.5 195t158.5 131t229 71t283 23q326 0 662 -105q0 60 -23 109t-59.5 81.5t-88.5 57
t-102 37.5t-108.5 21t-100 10t-83.5 2q-315 0 -625 -105l-98 184q384 125 739 125zM1491 354v127q-317 105 -653 105q-229 0 -359.5 -53t-130.5 -166q0 -42 12 -73t39 -51t56.5 -32t79 -18t92 -7.5t108.5 -1.5q153 0 368.5 49t387.5 121z" />
    <glyph glyph-name="acircumflex" unicode="&#xe2;" horiz-adv-x="1859" 
d="M1380 1393l-424 163l-424 -163v204l424 164l424 -164v-204zM942 1208q195 0 337.5 -31t246.5 -100t157 -186t54 -283v-608h-246v150q-258 -87 -379 -116q-224 -54 -442 -54q-291 0 -429.5 93t-138.5 298q0 112 56.5 195t158.5 131t229 71t283 23q326 0 662 -105
q0 60 -23 109t-59.5 81.5t-88.5 57t-102 37.5t-108.5 21t-100 10t-83.5 2q-315 0 -625 -105l-98 184q384 125 739 125zM1491 354v127q-317 105 -653 105q-229 0 -359.5 -53t-130.5 -166q0 -42 12 -73t39 -51t56.5 -32t79 -18t92 -7.5t108.5 -1.5q153 0 368.5 49t387.5 121z
" />
    <glyph glyph-name="atilde" unicode="&#xe3;" horiz-adv-x="1859" 
d="M731 1597q-69 0 -96 -55.5t-27 -169.5h-246q0 194 88 312t261 118q70 0 129.5 -25.5t100.5 -61.5t77.5 -72t78 -61.5t85.5 -25.5q69 0 96 56t27 170h245q0 -194 -87.5 -312t-260.5 -118q-59 0 -111 18t-87.5 45.5t-71.5 59t-64 59t-64 45.5t-73 18zM942 1208
q195 0 337.5 -31t246.5 -100t157 -186t54 -283v-608h-246v150q-258 -87 -379 -116q-224 -54 -442 -54q-291 0 -429.5 93t-138.5 298q0 112 56.5 195t158.5 131t229 71t283 23q326 0 662 -105q0 60 -23 109t-59.5 81.5t-88.5 57t-102 37.5t-108.5 21t-100 10t-83.5 2
q-315 0 -625 -105l-98 184q384 125 739 125zM1491 354v127q-317 105 -653 105q-229 0 -359.5 -53t-130.5 -166q0 -42 12 -73t39 -51t56.5 -32t79 -18t92 -7.5t108.5 -1.5q153 0 368.5 49t387.5 121z" />
    <glyph glyph-name="adieresis" unicode="&#xe4;" horiz-adv-x="1859" 
d="M854 1679v-245h-328v245h328zM1386 1679v-245h-327v245h327zM942 1208q195 0 337.5 -31t246.5 -100t157 -186t54 -283v-608h-246v150q-258 -87 -379 -116q-224 -54 -442 -54q-291 0 -429.5 93t-138.5 298q0 112 56.5 195t158.5 131t229 71t283 23q326 0 662 -105
q0 60 -23 109t-59.5 81.5t-88.5 57t-102 37.5t-108.5 21t-100 10t-83.5 2q-315 0 -625 -105l-98 184q384 125 739 125zM1491 354v127q-317 105 -653 105q-229 0 -359.5 -53t-130.5 -166q0 -42 12 -73t39 -51t56.5 -32t79 -18t92 -7.5t108.5 -1.5q153 0 368.5 49t387.5 121z
" />
    <glyph glyph-name="aring" unicode="&#xe5;" horiz-adv-x="1859" 
d="M956 1352q-430 0 -430 270t430 270t430 -270t-430 -270zM956 1749q-225 0 -225 -127t225 -127q226 0 226 127t-226 127zM942 1208q195 0 337.5 -31t246.5 -100t157 -186t54 -283v-608h-246v150q-258 -87 -379 -116q-224 -54 -442 -54q-291 0 -429.5 93t-138.5 298
q0 112 56.5 195t158.5 131t229 71t283 23q326 0 662 -105q0 60 -23 109t-59.5 81.5t-88.5 57t-102 37.5t-108.5 21t-100 10t-83.5 2q-315 0 -625 -105l-98 184q384 125 739 125zM1491 354v127q-317 105 -653 105q-229 0 -359.5 -53t-130.5 -166q0 -42 12 -73t39 -51
t56.5 -32t79 -18t92 -7.5t108.5 -1.5q153 0 368.5 49t387.5 121z" />
    <glyph glyph-name="ae" unicode="&#xe6;" horiz-adv-x="3244" 
d="M2300 184q459 0 571 226h250q-45 -142 -164 -240t-285.5 -144t-371.5 -46q-239 0 -428 70t-289 212q-83 -78 -206 -136t-253 -88t-243.5 -44t-210.5 -14q-279 0 -423.5 94.5t-144.5 296.5q0 96 38 170t102.5 120.5t159 76.5t198 41.5t229.5 11.5q326 0 662 -105v4
q0 59 -23.5 107.5t-60 80.5t-88.5 56t-102 37t-108 21t-99.5 10t-83.5 2q-315 0 -625 -105l-98 184q384 125 739 125q252 0 422 -53t262 -172q212 225 694 225q822 0 822 -696h-1405q14 -89 60 -153t120.5 -102t169 -55.5t213.5 -17.5zM2320 1004q-253 0 -395.5 -67.5
t-179.5 -219.5h1132q-78 287 -557 287zM1491 395v86q-317 105 -653 105q-95 0 -163 -4t-133.5 -17t-105.5 -35t-64 -59.5t-24 -89.5q0 -50 19.5 -86.5t51 -57.5t83 -33t105 -16t128.5 -4q203 0 400 50.5t356 160.5z" />
    <glyph glyph-name="ccedilla" unicode="&#xe7;" horiz-adv-x="1861" 
d="M938 184q243 0 387 63t184 204h250q-48 -218 -233.5 -333.5t-474.5 -133.5l-21 -80q52 16 110 21.5t117.5 -3t98.5 -49.5t39 -111q0 -68 -37.5 -117.5t-99.5 -77t-146.5 -40.5t-175 -11.5t-188.5 13.5v166q201 -27 301 -3.5t100 89.5q0 39 -46.5 47t-166.5 -18l-121 118
l14 56q-130 8 -239.5 34.5t-200.5 76t-154 119t-98 166t-35 214.5q0 159 62.5 278.5t176 192t263 108t334.5 35.5q162 0 297.5 -27.5t244.5 -83t181 -147t98 -213.5h-250q-40 141 -184 204t-387 63q-140 0 -245.5 -22t-184.5 -69t-119.5 -127.5t-40.5 -191.5t40.5 -191.5
t119.5 -127.5t184.5 -69t245.5 -22z" />
    <glyph glyph-name="egrave" unicode="&#xe8;" horiz-adv-x="1861" 
d="M1335 1597v-204l-796 163v205zM918 184q459 0 571 226h250q-45 -142 -164 -240t-285.5 -144t-371.5 -46q-135 0 -254 22t-223 69.5t-178.5 118.5t-117.5 174t-43 230q0 159 62.5 278.5t176 192t263 108t334.5 35.5q821 0 821 -696h-1405q19 -118 96 -192.5t192 -105
t276 -30.5zM938 1004q-253 0 -396 -67.5t-180 -219.5h1133q-78 287 -557 287z" />
    <glyph glyph-name="eacute" unicode="&#xe9;" horiz-adv-x="1861" 
d="M1335 1761v-205l-796 -163v204zM918 184q459 0 571 226h250q-45 -142 -164 -240t-285.5 -144t-371.5 -46q-135 0 -254 22t-223 69.5t-178.5 118.5t-117.5 174t-43 230q0 159 62.5 278.5t176 192t263 108t334.5 35.5q821 0 821 -696h-1405q19 -118 96 -192.5t192 -105
t276 -30.5zM938 1004q-253 0 -396 -67.5t-180 -219.5h1133q-78 287 -557 287z" />
    <glyph glyph-name="ecircumflex" unicode="&#xea;" horiz-adv-x="1861" 
d="M1362 1393l-424 163l-424 -163v204l424 164l424 -164v-204zM918 184q459 0 571 226h250q-45 -142 -164 -240t-285.5 -144t-371.5 -46q-135 0 -254 22t-223 69.5t-178.5 118.5t-117.5 174t-43 230q0 159 62.5 278.5t176 192t263 108t334.5 35.5q821 0 821 -696h-1405
q19 -118 96 -192.5t192 -105t276 -30.5zM938 1004q-253 0 -396 -67.5t-180 -219.5h1133q-78 287 -557 287z" />
    <glyph glyph-name="edieresis" unicode="&#xeb;" horiz-adv-x="1861" 
d="M836 1679v-245h-328v245h328zM1368 1679v-245h-328v245h328zM918 184q459 0 571 226h250q-45 -142 -164 -240t-285.5 -144t-371.5 -46q-135 0 -254 22t-223 69.5t-178.5 118.5t-117.5 174t-43 230q0 159 62.5 278.5t176 192t263 108t334.5 35.5q821 0 821 -696h-1405
q19 -118 96 -192.5t192 -105t276 -30.5zM938 1004q-253 0 -396 -67.5t-180 -219.5h1133q-78 287 -557 287z" />
    <glyph glyph-name="igrave" unicode="&#xec;" 
d="M643 1597v-204l-797 163v205zM123 1188h246v-1188h-246v1188z" />
    <glyph glyph-name="iacute" unicode="&#xed;" 
d="M-154 1597l797 164v-205l-797 -163v204zM123 1188h246v-1188h-246v1188z" />
    <glyph glyph-name="icircumflex" unicode="&#xee;" 
d="M246 1761l424 -164v-204l-424 163l-424 -163v204zM123 0v1188h246v-1188h-246z" />
    <glyph glyph-name="idieresis" unicode="&#xef;" 
d="M-184 1679h327v-245h-327v245zM348 1679h328v-245h-328v245zM123 1188h246v-1188h-246v1188z" />
    <glyph glyph-name="eth" unicode="&#xf0;" horiz-adv-x="2013" 
d="M1509 1587q181 -150 281 -351t100 -445q0 -124 -28 -231t-77.5 -189t-120 -147.5t-153.5 -110.5t-180 -75.5t-197.5 -44t-207.5 -13.5q-803 0 -803 589q0 137 40 241.5t124 181t223.5 116t331.5 39.5q251 0 456 -101.5t347 -271.5v17q0 236 -107 410t-293 288l-637 -236
l-80 174l476 177q-221 77 -472 96l41 225q422 -25 742 -207l479 178l78 -174zM885 184q249 0 427.5 77.5t262.5 232.5q-142 216 -343.5 332t-404.5 116q-104 0 -183.5 -18t-143.5 -59.5t-97.5 -116t-33.5 -179.5q0 -202 128.5 -293.5t387.5 -91.5z" />
    <glyph glyph-name="ntilde" unicode="&#xf1;" horiz-adv-x="1927" 
d="M817 1597q-69 0 -96 -55.5t-27 -169.5h-245q0 194 87.5 312t260.5 118q70 0 129.5 -25.5t100.5 -61.5t77.5 -72t78 -61.5t85.5 -25.5q69 0 96 56t27 170h245q0 -194 -87.5 -312t-260.5 -118q-59 0 -111 18t-87.5 45.5t-71.5 59t-64 59t-64 45.5t-73 18zM1151 1208
q111 0 204 -17t177 -59t142 -107t93 -165.5t37 -230.5l-6 -629h-246v547q0 114 -20.5 194.5t-69 141.5t-134.5 91t-212 30q-217 0 -435.5 -99t-311.5 -221v-684h-246v1188h246v-246q145 125 347 195.5t435 70.5z" />
    <glyph glyph-name="ograve" unicode="&#xf2;" horiz-adv-x="1875" 
d="M1335 1597v-204l-796 163v205zM938 -20q-185 0 -334.5 35.5t-263 108t-176 192t-62.5 278.5t62.5 278.5t176 192t263 108t334.5 35.5t334.5 -35.5t263 -108t176 -192t62.5 -278.5t-62.5 -278.5t-176 -192t-263 -108t-334.5 -35.5zM938 184q309 0 449.5 93.5t140.5 316.5
t-140.5 316.5t-449.5 93.5t-449.5 -93.5t-140.5 -316.5t140.5 -316.5t449.5 -93.5z" />
    <glyph glyph-name="oacute" unicode="&#xf3;" horiz-adv-x="1875" 
d="M539 1597l796 164v-205l-796 -163v204zM938 -20q-185 0 -334.5 35.5t-263 108t-176 192t-62.5 278.5t62.5 278.5t176 192t263 108t334.5 35.5t334.5 -35.5t263 -108t176 -192t62.5 -278.5t-62.5 -278.5t-176 -192t-263 -108t-334.5 -35.5zM938 184q309 0 449.5 93.5
t140.5 316.5t-140.5 316.5t-449.5 93.5t-449.5 -93.5t-140.5 -316.5t140.5 -316.5t449.5 -93.5z" />
    <glyph glyph-name="ocircumflex" unicode="&#xf4;" horiz-adv-x="1875" 
d="M1362 1393l-424 163l-424 -163v204l424 164l424 -164v-204zM938 1208q185 0 334.5 -35.5t263 -108t176 -192t62.5 -278.5t-62.5 -278.5t-176 -192t-263 -108t-334.5 -35.5t-334.5 35.5t-263 108t-176 192t-62.5 278.5t62.5 278.5t176 192t263 108t334.5 35.5zM938 184
q309 0 449.5 93.5t140.5 316.5t-140.5 316.5t-449.5 93.5t-449.5 -93.5t-140.5 -316.5t140.5 -316.5t449.5 -93.5z" />
    <glyph glyph-name="otilde" unicode="&#xf5;" horiz-adv-x="1875" 
d="M344 1372q0 194 87.5 312t260.5 118q70 0 129.5 -25.5t100.5 -61.5t77.5 -72t78 -61.5t85.5 -25.5q69 0 96 56t27 170h246q0 -194 -87.5 -312t-260.5 -118q-59 0 -111 18t-87.5 45.5t-71.5 59t-64 59t-64 45.5t-73 18q-69 0 -96 -55.5t-27 -169.5h-246zM938 -20
q-185 0 -334.5 35.5t-263 108t-176 192t-62.5 278.5t62.5 278.5t176 192t263 108t334.5 35.5t334.5 -35.5t263 -108t176 -192t62.5 -278.5t-62.5 -278.5t-176 -192t-263 -108t-334.5 -35.5zM938 184q309 0 449.5 93.5t140.5 316.5t-140.5 316.5t-449.5 93.5t-449.5 -93.5
t-140.5 -316.5t140.5 -316.5t449.5 -93.5z" />
    <glyph glyph-name="odieresis" unicode="&#xf6;" horiz-adv-x="1875" 
d="M508 1679h328v-245h-328v245zM1040 1679h328v-245h-328v245zM938 -20q-185 0 -334.5 35.5t-263 108t-176 192t-62.5 278.5t62.5 278.5t176 192t263 108t334.5 35.5t334.5 -35.5t263 -108t176 -192t62.5 -278.5t-62.5 -278.5t-176 -192t-263 -108t-334.5 -35.5zM938 184
q309 0 449.5 93.5t140.5 316.5t-140.5 316.5t-449.5 93.5t-449.5 -93.5t-140.5 -316.5t140.5 -316.5t449.5 -93.5z" />
    <glyph glyph-name="divide" unicode="&#xf7;" horiz-adv-x="1966" 
d="M860 1229h246v-205h-246v205zM164 799h1638v-205h-1638v205zM860 369h246v-205h-246v205z" />
    <glyph glyph-name="oslash" unicode="&#xf8;" horiz-adv-x="1875" 
d="M1245 1180q249 -53 389 -199t140 -387q0 -159 -62.5 -278.5t-176 -192t-263 -108t-334.5 -35.5h-51l-82 -277h-266l92 305q-249 53 -389 199t-140 387q0 159 62.5 278.5t176 192t263 108t334.5 35.5h51l82 277h266zM348 594q0 -172 82.5 -265t257.5 -126l240 801
q-304 -2 -442 -95t-138 -315zM948 184q304 2 442 95t138 315q0 172 -82.5 265t-257.5 126z" />
    <glyph glyph-name="ugrave" unicode="&#xf9;" horiz-adv-x="1927" 
d="M1358 1597v-204l-797 163v205zM1559 1188h245v-1188h-245v246q-144 -124 -347 -195t-436 -71q-111 0 -204 17t-177 59t-142 107t-93 165.5t-37 230.5l6 629h246v-547q0 -114 20.5 -194.5t69 -141.5t134.5 -91t212 -30q217 0 436 99t312 221v684z" />
    <glyph glyph-name="uacute" unicode="&#xfa;" horiz-adv-x="1927" 
d="M1358 1761v-205l-797 -163v204zM1559 1188h245v-1188h-245v246q-144 -124 -347 -195t-436 -71q-111 0 -204 17t-177 59t-142 107t-93 165.5t-37 230.5l6 629h246v-547q0 -114 20.5 -194.5t69 -141.5t134.5 -91t212 -30q217 0 436 99t312 221v684z" />
    <glyph glyph-name="ucircumflex" unicode="&#xfb;" horiz-adv-x="1927" 
d="M1384 1393l-423 163l-424 -163v204l424 164l423 -164v-204zM1559 1188h245v-1188h-245v246q-144 -124 -347 -195t-436 -71q-111 0 -204 17t-177 59t-142 107t-93 165.5t-37 230.5l6 629h246v-547q0 -114 20.5 -194.5t69 -141.5t134.5 -91t212 -30q217 0 436 99t312 221
v684z" />
    <glyph glyph-name="udieresis" unicode="&#xfc;" horiz-adv-x="1927" 
d="M858 1679v-245h-328v245h328zM1391 1679v-245h-328v245h328zM1559 1188h245v-1188h-245v246q-144 -124 -347 -195t-436 -71q-111 0 -204 17t-177 59t-142 107t-93 165.5t-37 230.5l6 629h246v-547q0 -114 20.5 -194.5t69 -141.5t134.5 -91t212 -30q217 0 436 99t312 221
v684z" />
    <glyph glyph-name="yacute" unicode="&#xfd;" horiz-adv-x="1968" 
d="M1382 1761v-205l-796 -163v204zM1589 1188h277l-903 -1700h-277l272 512h-147l-709 1188h283l637 -1067z" />
    <glyph glyph-name="thorn" unicode="&#xfe;" horiz-adv-x="1896" 
d="M1020 1208q84 0 162.5 -9t156.5 -30t144.5 -53t124.5 -81t99 -111.5t64 -146.5t23 -183t-23 -183t-64 -146.5t-99 -111.5t-124.5 -81t-144.5 -53t-156.5 -30t-162.5 -9q-465 0 -651 225v-615h-246v2048h246v-655q186 225 651 225zM958 184q309 0 449.5 103.5t140.5 306.5
t-140.5 306.5t-449.5 103.5t-449 -103.5t-140 -306.5t140 -306.5t449 -103.5z" />
    <glyph glyph-name="ydieresis" unicode="&#xff;" horiz-adv-x="1968" 
d="M883 1679v-245h-328v245h328zM1415 1679v-245h-328v245h328zM1589 1188h277l-903 -1700h-277l272 512h-147l-709 1188h283l637 -1067z" />
    <glyph glyph-name="Amacron" unicode="&#x100;" horiz-adv-x="2183" 
d="M1571 1864v-205h-961v205h961zM1808 0l-202 340h-1028l-203 -340h-273l850 1434h279l850 -1434h-273zM698 545h787l-393 663z" />
    <glyph glyph-name="amacron" unicode="&#x101;" horiz-adv-x="1859" 
d="M1436 1618v-205h-961v205h961zM942 1208q195 0 337.5 -31t246.5 -100t157 -186t54 -283v-608h-246v150q-258 -87 -379 -116q-224 -54 -442 -54q-291 0 -429.5 93t-138.5 298q0 112 56.5 195t158.5 131t229 71t283 23q326 0 662 -105q0 60 -23 109t-59.5 81.5t-88.5 57
t-102 37.5t-108.5 21t-100 10t-83.5 2q-315 0 -625 -105l-98 184q384 125 739 125zM1491 354v127q-317 105 -653 105q-229 0 -359.5 -53t-130.5 -166q0 -42 12 -73t39 -51t56.5 -32t79 -18t92 -7.5t108.5 -1.5q153 0 368.5 49t387.5 121z" />
    <glyph glyph-name="Abreve" unicode="&#x102;" horiz-adv-x="2183" 
d="M1092 1597q-81 0 -146.5 11t-126.5 40.5t-102 77t-65.5 124t-24.5 178.5h204q0 -246 261 -246q260 0 260 246h204q0 -102 -24.5 -178.5t-65.5 -124t-101.5 -77t-126 -40.5t-146.5 -11zM1808 0l-202 340h-1028l-203 -340h-273l850 1434h279l850 -1434h-273zM698 545h787
l-393 663z" />
    <glyph glyph-name="abreve" unicode="&#x103;" horiz-adv-x="1859" 
d="M956 1352q-81 0 -146.5 11t-126 40.5t-101.5 76.5t-65.5 123.5t-24.5 178.5h204q0 -246 260 -246q261 0 261 246h204q0 -102 -24.5 -178.5t-65.5 -123.5t-102 -76.5t-126.5 -40.5t-146.5 -11zM942 1208q195 0 337.5 -31t246.5 -100t157 -186t54 -283v-608h-246v150
q-258 -87 -379 -116q-224 -54 -442 -54q-291 0 -429.5 93t-138.5 298q0 112 56.5 195t158.5 131t229 71t283 23q326 0 662 -105q0 60 -23 109t-59.5 81.5t-88.5 57t-102 37.5t-108.5 21t-100 10t-83.5 2q-315 0 -625 -105l-98 184q384 125 739 125zM1491 354v127
q-317 105 -653 105q-229 0 -359.5 -53t-130.5 -166q0 -42 12 -73t39 -51t56.5 -32t79 -18t92 -7.5t108.5 -1.5q153 0 368.5 49t387.5 121z" />
    <glyph glyph-name="Aogonek" unicode="&#x104;" horiz-adv-x="2183" 
d="M1907 -147q0 -22 7 -39.5t23.5 -29.5t32.5 -21t46 -14l51 -8.5t59.5 -4.5t60 -1.5t64.5 -0.5v-205q-122 0 -209 5.5t-163 21t-121.5 42t-71 69t-25.5 102.5q0 72 42 122.5t130 108.5h-25l-202 340h-1028l-203 -340h-273l850 1434h279l850 -1434h-70q-31 -25 -48 -41
t-36.5 -46.5t-19.5 -59.5zM698 545h787l-393 663z" />
    <glyph glyph-name="aogonek" unicode="&#x105;" horiz-adv-x="1859" 
d="M1597 -147q0 -22 7 -39.5t23.5 -29.5t33 -21t46 -14t50.5 -8.5t60 -4.5t60.5 -1.5t64.5 -0.5v-205q-122 0 -209 5.5t-163 21t-121.5 42t-71 69t-25.5 102.5q0 72 42 122.5t130 108.5h-33v150q-258 -87 -379 -116q-224 -54 -442 -54q-291 0 -429.5 93t-138.5 298
q0 112 56.5 195t158.5 131t229 71t283 23q326 0 662 -105q0 60 -23 109t-59.5 81.5t-88.5 57t-102 37.5t-108.5 21t-100 10t-83.5 2q-315 0 -625 -105l-98 184q384 125 739 125q195 0 337.5 -31t246.5 -100t157 -186t54 -283v-608h-35q-32 -26 -48.5 -41t-36.5 -46t-20 -60z
M1491 354v127q-317 105 -653 105q-229 0 -359.5 -53t-130.5 -166q0 -42 12 -73t39 -51t56.5 -32t79 -18t92 -7.5t108.5 -1.5q153 0 368.5 49t387.5 121z" />
    <glyph glyph-name="Cacute" unicode="&#x106;" horiz-adv-x="2000" 
d="M602 1843l797 164v-205l-797 -164v205zM102 719q0 174 53 308t161 230.5t281.5 146.5t406.5 50q416 0 636.5 -159t255.5 -453h-245q-31 217 -194 312t-453 95q-162 0 -280 -27.5t-204 -88.5t-129 -164t-43 -250t43 -251.5t129.5 -166t204.5 -89.5t279 -28q288 0 452 96.5
t195 315.5h247q-36 -296 -257 -456t-637 -160q-233 0 -406.5 50.5t-281.5 147.5t-161 231.5t-53 309.5z" />
    <glyph glyph-name="cacute" unicode="&#x107;" horiz-adv-x="1861" 
d="M541 1597l796 164v-205l-796 -163v204zM102 594q0 159 62.5 278.5t176 192t263 108t334.5 35.5q162 0 297.5 -27.5t244.5 -83t181 -147t98 -213.5h-250q-40 141 -184 204t-387 63q-140 0 -245.5 -22t-184.5 -69t-119.5 -127.5t-40.5 -191.5t40.5 -191.5t119.5 -127.5
t184.5 -69t245.5 -22q243 0 387 63t184 204h250q-26 -122 -98 -213.5t-181 -147t-244.5 -83t-297.5 -27.5q-185 0 -334.5 35.5t-263 108t-176 192t-62.5 278.5z" />
    <glyph glyph-name="Cdotaccent" unicode="&#x10a;" horiz-adv-x="2000" 
d="M838 1925h327v-246h-327v246zM102 719q0 174 53 308t161 230.5t281.5 146.5t406.5 50q416 0 636.5 -159t255.5 -453h-245q-31 217 -194 312t-453 95q-162 0 -280 -27.5t-204 -88.5t-129 -164t-43 -250t43 -251.5t129.5 -166t204.5 -89.5t279 -28q288 0 452 96.5
t195 315.5h247q-36 -296 -257 -456t-637 -160q-233 0 -406.5 50.5t-281.5 147.5t-161 231.5t-53 309.5z" />
    <glyph glyph-name="cdotaccent" unicode="&#x10b;" horiz-adv-x="1861" 
d="M776 1679h328v-245h-328v245zM102 594q0 159 62.5 278.5t176 192t263 108t334.5 35.5q162 0 297.5 -27.5t244.5 -83t181 -147t98 -213.5h-250q-40 141 -184 204t-387 63q-140 0 -245.5 -22t-184.5 -69t-119.5 -127.5t-40.5 -191.5t40.5 -191.5t119.5 -127.5t184.5 -69
t245.5 -22q243 0 387 63t184 204h250q-26 -122 -98 -213.5t-181 -147t-244.5 -83t-297.5 -27.5q-185 0 -334.5 35.5t-263 108t-176 192t-62.5 278.5z" />
    <glyph glyph-name="Ccaron" unicode="&#x10c;" horiz-adv-x="2000" 
d="M1425 1806l-424 -164l-423 164v205l423 -164l424 164v-205zM1651 596h247q-36 -296 -257 -456t-637 -160q-233 0 -406.5 50.5t-281.5 147.5t-161 231.5t-53 309.5q0 174 53 308t161 230.5t281.5 146.5t406.5 50q416 0 636.5 -159t255.5 -453h-245q-31 217 -194 312
t-453 95q-162 0 -280 -27.5t-204 -88.5t-129 -164t-43 -250t43 -251.5t129.5 -166t204.5 -89.5t279 -28q288 0 452 96.5t195 315.5z" />
    <glyph glyph-name="ccaron" unicode="&#x10d;" horiz-adv-x="1861" 
d="M1364 1561l-424 -164l-424 164v204l424 -163l424 163v-204zM938 184q243 0 387 63t184 204h250q-26 -122 -98 -213.5t-181 -147t-244.5 -83t-297.5 -27.5q-185 0 -334.5 35.5t-263 108t-176 192t-62.5 278.5t62.5 278.5t176 192t263 108t334.5 35.5q162 0 297.5 -27.5
t244.5 -83t181 -147t98 -213.5h-250q-40 141 -184 204t-387 63q-140 0 -245.5 -22t-184.5 -69t-119.5 -127.5t-40.5 -191.5t40.5 -191.5t119.5 -127.5t184.5 -69t245.5 -22z" />
    <glyph glyph-name="Dcaron" unicode="&#x10e;" horiz-adv-x="1961" 
d="M1272 1806l-424 -164l-424 164v205l424 -164l424 164v-205zM1147 1434q148 0 275 -44.5t226 -130.5t155.5 -225.5t56.5 -316.5t-56.5 -316.5t-155.5 -225.5t-226 -130.5t-275 -44.5h-1024v1434h1024zM1024 205q126 0 216 14t164 48t118.5 92.5t68 146.5t23.5 211
t-23.5 211t-68 146.5t-118.5 92.5t-164 48t-216 14h-655v-1024h655z" />
    <glyph glyph-name="dcaron" unicode="&#x10f;" horiz-adv-x="2244" 
d="M1528 985v653h246v-1638h-246v203q-210 -223 -672 -223q-169 0 -304 35.5t-237 108t-157.5 192t-55.5 278.5t55.5 278.5t157.5 192t237 108t304 35.5q462 0 672 -223zM1876 1638h246v-204l-117 -369h-129l78 369h-78v204zM938 184q590 0 590 410t-590 410t-590 -410
t590 -410z" />
    <glyph glyph-name="Dcroat" unicode="&#x110;" horiz-adv-x="2111" 
d="M1296 1434q148 0 275 -44.5t226 -130.5t155.5 -225.5t56.5 -316.5t-56.5 -316.5t-155.5 -225.5t-226 -130.5t-275 -44.5h-1024v614h-149v205h149v615h1024zM1174 205q158 0 262.5 22.5t181 79.5t111 157t34.5 253t-34.5 253t-111 157t-181 79.5t-262.5 22.5h-656v-410
h588v-205h-588v-409h656z" />
    <glyph glyph-name="dcroat" unicode="&#x111;" horiz-adv-x="1998" 
d="M1876 1516v-205h-102v-1311h-246v203q-210 -223 -672 -223q-169 0 -304 35.5t-237 108t-157.5 192t-55.5 278.5t55.5 278.5t157.5 192t237 108t304 35.5q462 0 672 -223v326h-635v205h635v122h246v-122h102zM938 184q590 0 590 410t-590 410t-590 -410t590 -410z" />
    <glyph glyph-name="Emacron" unicode="&#x112;" horiz-adv-x="1740" 
d="M1360 1864v-205h-961v205h961zM1638 1229h-1269v-410h1269v-205h-1269v-409h1269v-205h-1515v1434h1515v-205z" />
    <glyph glyph-name="emacron" unicode="&#x113;" horiz-adv-x="1861" 
d="M1417 1618v-205h-960v205h960zM918 184q459 0 571 226h250q-45 -142 -164 -240t-285.5 -144t-371.5 -46q-135 0 -254 22t-223 69.5t-178.5 118.5t-117.5 174t-43 230q0 159 62.5 278.5t176 192t263 108t334.5 35.5q821 0 821 -696h-1405q19 -118 96 -192.5t192 -105
t276 -30.5zM938 1004q-253 0 -396 -67.5t-180 -219.5h1133q-78 287 -557 287z" />
    <glyph glyph-name="Edotaccent" unicode="&#x116;" horiz-adv-x="1740" 
d="M1044 1925v-246h-327v246h327zM1638 1229h-1269v-410h1269v-205h-1269v-409h1269v-205h-1515v1434h1515v-205z" />
    <glyph glyph-name="edotaccent" unicode="&#x117;" horiz-adv-x="1861" 
d="M1102 1679v-245h-328v245h328zM918 184q459 0 571 226h250q-45 -142 -164 -240t-285.5 -144t-371.5 -46q-135 0 -254 22t-223 69.5t-178.5 118.5t-117.5 174t-43 230q0 159 62.5 278.5t176 192t263 108t334.5 35.5q821 0 821 -696h-1405q19 -118 96 -192.5t192 -105
t276 -30.5zM938 1004q-253 0 -396 -67.5t-180 -219.5h1133q-78 287 -557 287z" />
    <glyph glyph-name="Eogonek" unicode="&#x118;" horiz-adv-x="1740" 
d="M1376 -147q0 -22 7 -39.5t23.5 -29.5t32.5 -21t46 -14l51 -8.5t59.5 -4.5t60 -1.5t64.5 -0.5v-205q-122 0 -209 5.5t-163 21t-121.5 42t-71 69t-25.5 102.5q0 72 42 122.5t131 108.5h-1180v1434h1515v-205h-1269v-410h1269v-205h-1269v-409h1269v-205h-157
q-32 -26 -48.5 -41t-36.5 -46t-20 -60z" />
    <glyph glyph-name="eogonek" unicode="&#x119;" horiz-adv-x="1861" 
d="M918 184q459 0 571 226h250q-54 -169 -207.5 -273t-378.5 -139q-29 -23 -46.5 -40.5t-35.5 -47t-18 -57.5q0 -22 7 -39.5t23.5 -29.5t32.5 -21t46 -14l51 -8.5t59.5 -4.5t60 -1.5t64.5 -0.5v-205q-122 0 -209 5.5t-163 21t-121.5 42t-71 69t-25.5 102.5q0 66 35 114
t106 97h-30q-135 0 -254 22t-223 69.5t-178.5 118.5t-117.5 174t-43 230q0 159 62.5 278.5t176 192t263 108t334.5 35.5q821 0 821 -696h-1405q19 -118 96 -192.5t192 -105t276 -30.5zM938 1004q-253 0 -396 -67.5t-180 -219.5h1133q-78 287 -557 287z" />
    <glyph glyph-name="Ecaron" unicode="&#x11a;" horiz-adv-x="1740" 
d="M1305 1806l-424 -164l-424 164v205l424 -164l424 164v-205zM1638 1229h-1269v-410h1269v-205h-1269v-409h1269v-205h-1515v1434h1515v-205z" />
    <glyph glyph-name="ecaron" unicode="&#x11b;" horiz-adv-x="1861" 
d="M1362 1561l-424 -164l-424 164v204l424 -163l424 163v-204zM918 184q459 0 571 226h250q-45 -142 -164 -240t-285.5 -144t-371.5 -46q-135 0 -254 22t-223 69.5t-178.5 118.5t-117.5 174t-43 230q0 159 62.5 278.5t176 192t263 108t334.5 35.5q821 0 821 -696h-1405
q19 -118 96 -192.5t192 -105t276 -30.5zM938 1004q-253 0 -396 -67.5t-180 -219.5h1133q-78 287 -557 287z" />
    <glyph glyph-name="Gbreve" unicode="&#x11e;" horiz-adv-x="2000" 
d="M1001 1597q-81 0 -146.5 11t-126 40.5t-101.5 77t-65.5 124t-24.5 178.5h204q0 -246 260 -246q261 0 261 246h204q0 -102 -24.5 -178.5t-65.5 -124t-102 -77t-126.5 -40.5t-146.5 -11zM1004 555v205h894v-760h-245v242q-113 -122 -289 -192t-401 -70q-397 0 -629 197
t-232 540q0 345 241.5 541t680.5 196q210 0 374 -42.5t270 -119.5t163.5 -180t66.5 -229h-245q-5 33 -14 63t-30 68t-50.5 70t-78.5 63.5t-110.5 53t-150.5 35t-195 13.5q-124 0 -226.5 -21t-171 -54t-121 -80.5t-81.5 -94.5t-47 -101.5t-23.5 -96.5t-5.5 -84q0 -43 5.5 -85
t24 -96.5t47.5 -101.5t81.5 -94.5t121 -80.5t170.5 -54t226 -21q134 0 245.5 27.5t180.5 69t116.5 93.5t67 97.5t19.5 83.5h-649z" />
    <glyph glyph-name="gbreve" unicode="&#x11f;" horiz-adv-x="1896" 
d="M938 1352q-81 0 -146.5 11t-126.5 40.5t-102 76.5t-65.5 123.5t-24.5 178.5h205q0 -246 260 -246t260 246h205q0 -102 -24.5 -178.5t-65.5 -123.5t-102 -76.5t-126.5 -40.5t-146.5 -11zM1528 1188h246v-969q0 -360 -211.5 -545.5t-583.5 -185.5q-386 0 -748 96v195
q7 -1 66 -12.5t85.5 -16.5t88.5 -16t106 -16t103.5 -12t116.5 -10t112 -3q166 0 283.5 34t188 102t104.5 158t41 214q-208 -221 -670 -221q-169 0 -304 35.5t-237 108t-157.5 192t-55.5 278.5t55.5 278.5t157.5 192t237 108t304 35.5q462 0 672 -223v203zM938 184
q590 0 590 410t-590 410t-590 -410t590 -410z" />
    <glyph glyph-name="Gdotaccent" unicode="&#x120;" horiz-adv-x="2000" 
d="M1165 1925v-246h-327v246h327zM1004 555v205h894v-760h-245v242q-113 -122 -289 -192t-401 -70q-397 0 -629 197t-232 540q0 345 241.5 541t680.5 196q210 0 374 -42.5t270 -119.5t163.5 -180t66.5 -229h-245q-5 33 -14 63t-30 68t-50.5 70t-78.5 63.5t-110.5 53
t-150.5 35t-195 13.5q-124 0 -226.5 -21t-171 -54t-121 -80.5t-81.5 -94.5t-47 -101.5t-23.5 -96.5t-5.5 -84q0 -43 5.5 -85t24 -96.5t47.5 -101.5t81.5 -94.5t121 -80.5t170.5 -54t226 -21q134 0 245.5 27.5t180.5 69t116.5 93.5t67 97.5t19.5 83.5h-649z" />
    <glyph glyph-name="gdotaccent" unicode="&#x121;" horiz-adv-x="1896" 
d="M1102 1679v-245h-328v245h328zM1528 1188h246v-969q0 -360 -211.5 -545.5t-583.5 -185.5q-386 0 -748 96v195q7 -1 66 -12.5t85.5 -16.5t88.5 -16t106 -16t103.5 -12t116.5 -10t112 -3q166 0 283.5 34t188 102t104.5 158t41 214q-208 -221 -670 -221q-169 0 -304 35.5
t-237 108t-157.5 192t-55.5 278.5t55.5 278.5t157.5 192t237 108t304 35.5q462 0 672 -223v203zM938 184q590 0 590 410t-590 410t-590 -410t590 -410z" />
    <glyph glyph-name="Gcommaaccent" unicode="&#x122;" horiz-adv-x="2000" 
d="M1004 555v205h894v-760h-245v242q-113 -122 -289 -192t-401 -70q-397 0 -629 197t-232 540q0 345 241.5 541t680.5 196q210 0 374 -42.5t270 -119.5t163.5 -180t66.5 -229h-245q-5 33 -14 63t-30 68t-50.5 70t-78.5 63.5t-110.5 53t-150.5 35t-195 13.5
q-124 0 -226.5 -21t-171 -54t-121 -80.5t-81.5 -94.5t-47 -101.5t-23.5 -96.5t-5.5 -84q0 -43 5.5 -85t24 -96.5t47.5 -101.5t81.5 -94.5t121 -80.5t170.5 -54t226 -21q134 0 245.5 27.5t180.5 69t116.5 93.5t67 97.5t19.5 83.5h-649zM879 -471v205h245v-205l-129 -225h-116
l98 225h-98z" />
    <glyph glyph-name="gcommaaccent" unicode="&#x123;" horiz-adv-x="1896" 
d="M1061 1659v-205h-246v205l129 225h117l-98 -225h98zM1528 1188h246v-969q0 -360 -211.5 -545.5t-583.5 -185.5q-386 0 -748 96v195q7 -1 66 -12.5t85.5 -16.5t88.5 -16t106 -16t103.5 -12t116.5 -10t112 -3q166 0 283.5 34t188 102t104.5 158t41 214q-208 -221 -670 -221
q-169 0 -304 35.5t-237 108t-157.5 192t-55.5 278.5t55.5 278.5t157.5 192t237 108t304 35.5q462 0 672 -223v203zM938 184q590 0 590 410t-590 410t-590 -410t590 -410z" />
    <glyph glyph-name="Hbar" unicode="&#x126;" horiz-adv-x="2150" 
d="M2099 1270v-205h-71v-1065h-246v614h-1413v-614h-246v1065h-72v205h72v164h246v-164h1413v164h246v-164h71zM1782 819v246h-1413v-246h1413z" />
    <glyph glyph-name="hbar" unicode="&#x127;" horiz-adv-x="2070" 
d="M1294 1208q111 0 204 -17t177 -59t142.5 -107t93.5 -165.5t37 -230.5l-6 -629h-246v547q0 114 -20.5 194.5t-69 141.5t-134.5 91t-212 30q-217 0 -436 -99t-312 -221v-684h-246v1331h-143v205h143v102h246v-102h594v-205h-594v-389q145 125 347 195.5t435 70.5z" />
    <glyph glyph-name="Imacron" unicode="&#x12a;" 
d="M-236 1864h961v-205h-961v205zM369 1434v-1434h-246v1434h246z" />
    <glyph glyph-name="imacron" unicode="&#x12b;" 
d="M-236 1618h961v-205h-961v205zM123 1188h246v-1188h-246v1188z" />
    <glyph glyph-name="Iogonek" unicode="&#x12e;" 
d="M264 -147q0 -22 7 -39.5t23.5 -29.5t32.5 -21t46 -14l51 -8.5t59.5 -4.5t60 -1.5t64.5 -0.5v-205q-122 0 -209 5.5t-163 21t-121.5 42t-71 69t-25.5 102.5q0 72 42 122.5t130 108.5h-67v1434h246v-1434q-32 -26 -48.5 -41t-36.5 -46t-20 -60z" />
    <glyph glyph-name="iogonek" unicode="&#x12f;" 
d="M410 1679v-245h-328v245h328zM252 -147q0 -22 7 -39.5t23.5 -29.5t32.5 -21t46 -14l51 -8.5t59.5 -4.5t60 -1.5t64.5 -0.5v-205q-122 0 -209 5.5t-163 21t-121.5 42t-71 69t-25.5 102.5q0 72 42 122.5t130 108.5h-55v1188h246v-1188h-13q-31 -25 -48 -41t-36.5 -46.5
t-19.5 -59.5z" />
    <glyph glyph-name="Idotaccent" unicode="&#x130;" 
d="M82 1925h328v-246h-328v246zM369 1434v-1434h-246v1434h246z" />
    <glyph glyph-name="dotlessi" unicode="&#x131;" 
d="M123 1188h246v-1188h-246v1188z" />
    <glyph glyph-name="Kcommaaccent" unicode="&#x136;" horiz-adv-x="2174" 
d="M2073 1434l-897 -609l897 -825h-340l-752 692l-612 -416v-276h-246v1434h246v-879l1294 879h410zM975 -471v205h246v-205l-129 -225h-117l98 225h-98z" />
    <glyph glyph-name="kcommaaccent" unicode="&#x137;" horiz-adv-x="2052" 
d="M1950 1188l-865 -481l865 -707h-377l-703 573l-501 -274v-299h-246v1638h246v-1071l1104 621h477zM811 -471v205h246v-205l-129 -225h-117l98 225h-98z" />
    <glyph glyph-name="Lacute" unicode="&#x139;" horiz-adv-x="1699" 
d="M920 2007v-205l-797 -164v205zM369 205h1228v-205h-1474v1434h246v-1229z" />
    <glyph glyph-name="lacute" unicode="&#x13a;" 
d="M-154 2048l797 164v-205l-797 -164v205zM123 1638h246v-1638h-246v1638z" />
    <glyph glyph-name="Lcommaaccent" unicode="&#x13b;" horiz-adv-x="1699" 
d="M369 205h1228v-205h-1474v1434h246v-1229zM737 -471v205h246v-205l-129 -225h-117l99 225h-99z" />
    <glyph glyph-name="lcommaaccent" unicode="&#x13c;" 
d="M123 1638h246v-1638h-246v1638zM123 -266h246v-205l-129 -225h-117l98 225h-98v205z" />
    <glyph glyph-name="Lcaron" unicode="&#x13d;" horiz-adv-x="1699" 
d="M946 1806l-424 -164l-424 164v205l424 -164l424 164v-205zM369 205h1228v-205h-1474v1434h246v-1229z" />
    <glyph glyph-name="lcaron" unicode="&#x13e;" 
d="M246 2052l424 164v-205l-424 -164l-424 164v205zM123 0v1638h246v-1638h-246z" />
    <glyph glyph-name="Lslash" unicode="&#x141;" horiz-adv-x="1925" 
d="M573 205h1229v-205h-1474v455l-205 -103v246l205 102v734h245v-611l619 307v-245l-619 -307v-373z" />
    <glyph glyph-name="lslash" unicode="&#x142;" horiz-adv-x="1314" 
d="M1192 1288v-246l-453 -225v-817h-245v694l-371 -184v246l371 184v698h245v-575z" />
    <glyph glyph-name="Nacute" unicode="&#x143;" horiz-adv-x="2093" 
d="M1444 2007v-205l-797 -164v205zM1724 1434h246v-1434h-354l-1247 1198v-1198h-246v1434h354l1247 -1198v1198z" />
    <glyph glyph-name="nacute" unicode="&#x144;" horiz-adv-x="1927" 
d="M1440 1761v-205l-797 -163v204zM1151 1208q111 0 204 -17t177 -59t142 -107t93 -165.5t37 -230.5l-6 -629h-246v547q0 114 -20.5 194.5t-69 141.5t-134.5 91t-212 30q-217 0 -435.5 -99t-311.5 -221v-684h-246v1188h246v-246q145 125 347 195.5t435 70.5z" />
    <glyph glyph-name="Ncommaaccent" unicode="&#x145;" horiz-adv-x="2093" 
d="M1724 1434h246v-1434h-354l-1247 1198v-1198h-246v1434h354l1247 -1198v1198zM924 -471v205h245v-205l-129 -225h-116l98 225h-98z" />
    <glyph glyph-name="ncommaaccent" unicode="&#x146;" horiz-adv-x="1927" 
d="M1151 1208q111 0 204 -17t177 -59t142 -107t93 -165.5t37 -230.5l-6 -629h-246v547q0 114 -20.5 194.5t-69 141.5t-134.5 91t-212 30q-217 0 -435.5 -99t-311.5 -221v-684h-246v1188h246v-246q145 125 347 195.5t435 70.5zM838 -471v205h245v-205l-129 -225h-116l98 225
h-98z" />
    <glyph glyph-name="Ncaron" unicode="&#x147;" horiz-adv-x="2093" 
d="M1470 1806l-423 -164l-424 164v205l424 -164l423 164v-205zM1724 1434h246v-1434h-354l-1247 1198v-1198h-246v1434h354l1247 -1198v1198z" />
    <glyph glyph-name="ncaron" unicode="&#x148;" horiz-adv-x="1927" 
d="M1466 1561l-424 -164l-424 164v204l424 -163l424 163v-204zM1151 1208q111 0 204 -17t177 -59t142 -107t93 -165.5t37 -230.5l-6 -629h-246v547q0 114 -20.5 194.5t-69 141.5t-134.5 91t-212 30q-217 0 -435.5 -99t-311.5 -221v-684h-246v1188h246v-246
q145 125 347 195.5t435 70.5z" />
    <glyph glyph-name="Eng" unicode="&#x14a;" horiz-adv-x="2093" 
d="M1724 1434h246v-1434q0 -272 -137.5 -412.5t-431.5 -140.5q-182 0 -363 51v195q63 -16 96.5 -22.5t100 -12.5t158.5 -6q84 0 144.5 17t96 45t56.5 74.5t27.5 95t6.5 116.5h-108l-1247 1198v-1198h-246v1434h354l1247 -1198v1198z" />
    <glyph glyph-name="eng" unicode="&#x14b;" horiz-adv-x="1927" 
d="M1151 1208q111 0 204 -17t177 -59t142 -107t93 -165.5t37 -230.5l-6 -629q0 -267 -135 -389.5t-434 -122.5q-182 0 -363 31v174q175 -21 232 -21q83 0 140.5 4.5t113 16.5t89.5 34.5t61 59t38.5 89t11.5 124.5v547q0 114 -20.5 194.5t-69 141.5t-134.5 91t-212 30
q-217 0 -435.5 -99t-311.5 -221v-684h-246v1188h246v-246q145 125 347 195.5t435 70.5z" />
    <glyph glyph-name="Omacron" unicode="&#x14c;" horiz-adv-x="2007" 
d="M522 1864h961v-205h-961v205zM1004 -20q-233 0 -406.5 50.5t-281.5 147.5t-161 231.5t-53 309.5q0 174 53 308t161 230.5t281.5 146.5t406.5 50q459 0 680 -191.5t221 -543.5q0 -354 -221 -546.5t-680 -192.5zM1004 184q168 0 287 28t203 90.5t124.5 165.5t40.5 251
q0 147 -40 249t-124 164t-203.5 89.5t-287.5 27.5q-169 0 -288 -27t-203.5 -89t-124.5 -164t-40 -250q0 -149 40.5 -252t125 -165.5t203.5 -90t287 -27.5z" />
    <glyph glyph-name="omacron" unicode="&#x14d;" horiz-adv-x="1875" 
d="M457 1618h960v-205h-960v205zM938 -20q-185 0 -334.5 35.5t-263 108t-176 192t-62.5 278.5t62.5 278.5t176 192t263 108t334.5 35.5t334.5 -35.5t263 -108t176 -192t62.5 -278.5t-62.5 -278.5t-176 -192t-263 -108t-334.5 -35.5zM938 184q309 0 449.5 93.5t140.5 316.5
t-140.5 316.5t-449.5 93.5t-449.5 -93.5t-140.5 -316.5t140.5 -316.5t449.5 -93.5z" />
    <glyph glyph-name="Ohungarumlaut" unicode="&#x150;" horiz-adv-x="2007" 
d="M518 1874l424 164v-226l-424 -163v225zM1065 1874l424 164v-226l-424 -163v225zM1004 -20q-233 0 -406.5 50.5t-281.5 147.5t-161 231.5t-53 309.5q0 174 53 308t161 230.5t281.5 146.5t406.5 50q459 0 680 -191.5t221 -543.5q0 -354 -221 -546.5t-680 -192.5zM1004 184
q168 0 287 28t203 90.5t124.5 165.5t40.5 251q0 147 -40 249t-124 164t-203.5 89.5t-287.5 27.5q-169 0 -288 -27t-203.5 -89t-124.5 -164t-40 -250q0 -149 40.5 -252t125 -165.5t203.5 -90t287 -27.5z" />
    <glyph glyph-name="ohungarumlaut" unicode="&#x151;" horiz-adv-x="1875" 
d="M453 1628l424 164v-225l-424 -164v225zM999 1628l424 164v-225l-424 -164v225zM938 -20q-185 0 -334.5 35.5t-263 108t-176 192t-62.5 278.5t62.5 278.5t176 192t263 108t334.5 35.5t334.5 -35.5t263 -108t176 -192t62.5 -278.5t-62.5 -278.5t-176 -192t-263 -108
t-334.5 -35.5zM938 184q309 0 449.5 93.5t140.5 316.5t-140.5 316.5t-449.5 93.5t-449.5 -93.5t-140.5 -316.5t140.5 -316.5t449.5 -93.5z" />
    <glyph glyph-name="OE" unicode="&#x152;" horiz-adv-x="3280" 
d="M3178 1229h-1269v-410h1269v-205h-1269v-409h1269v-205h-1515v156q-229 -176 -659 -176q-233 0 -406.5 50.5t-281.5 147.5t-161 231.5t-53 309.5q0 174 53 308t161 230.5t281.5 146.5t406.5 50q434 0 659 -176v156h1515v-205zM1004 184q168 0 287 28t203 90.5
t124.5 165.5t40.5 251q0 147 -40 249t-124 164t-203.5 89.5t-287.5 27.5q-169 0 -288 -27t-203.5 -89t-124.5 -164t-40 -250q0 -149 40.5 -252t125 -165.5t203.5 -90t287 -27.5z" />
    <glyph glyph-name="oe" unicode="&#x153;" horiz-adv-x="3287" 
d="M2343 184q459 0 571 226h250q-45 -142 -164 -240t-285.5 -144t-371.5 -46q-225 0 -405 61t-285 186q-104 -125 -288 -186t-427 -61q-185 0 -334.5 35.5t-263 108t-176 192t-62.5 278.5t62.5 278.5t176 192t263 108t334.5 35.5q241 0 425 -60.5t288 -184.5
q104 124 287.5 184.5t424.5 60.5q822 0 822 -696h-1405q14 -89 60 -153t120.5 -102t169 -55.5t213.5 -17.5zM938 184q309 0 449.5 93.5t140.5 316.5t-140.5 316.5t-449.5 93.5t-449.5 -93.5t-140.5 -316.5t140.5 -316.5t449.5 -93.5zM2363 1004q-253 0 -395.5 -67.5
t-179.5 -219.5h1132q-78 287 -557 287z" />
    <glyph glyph-name="Racute" unicode="&#x154;" horiz-adv-x="1900" 
d="M1276 2007v-205l-797 -164v205zM1798 926q0 -186 -94.5 -312t-261.5 -172l274 -442h-286l-259 418h-802v-418h-246v1434h1126q248 0 398.5 -136t150.5 -372zM369 1229v-606h778q36 0 55.5 0.5t58 3t61.5 7.5t57.5 15.5t56 25.5t46 38t38 52.5t23 70.5t9.5 90t-9.5 90
t-23 70.5t-38 52.5t-46 38t-56 25.5t-57.5 15.5t-61.5 7.5t-58 3t-55.5 0.5h-778z" />
    <glyph glyph-name="racute" unicode="&#x155;" horiz-adv-x="1519" 
d="M1167 1761v-205l-796 -163v204zM1092 1208q157 0 325 -41v-204q-163 41 -317 41q-374 0 -731 -238v-766h-246v1188h246v-205q321 225 723 225z" />
    <glyph glyph-name="Rcommaaccent" unicode="&#x156;" horiz-adv-x="1900" 
d="M1798 926q0 -186 -94.5 -312t-261.5 -172l274 -442h-286l-259 418h-802v-418h-246v1434h1126q248 0 398.5 -136t150.5 -372zM369 1229v-606h778q36 0 55.5 0.5t58 3t61.5 7.5t57.5 15.5t56 25.5t46 38t38 52.5t23 70.5t9.5 90t-9.5 90t-23 70.5t-38 52.5t-46 38t-56 25.5
t-57.5 15.5t-61.5 7.5t-58 3t-55.5 0.5h-778zM756 -471v205h245v-205l-129 -225h-116l98 225h-98z" />
    <glyph glyph-name="rcommaaccent" unicode="&#x157;" horiz-adv-x="1519" 
d="M1092 1208q157 0 325 -41v-204q-163 41 -317 41q-374 0 -731 -238v-766h-246v1188h246v-205q321 225 723 225zM123 -471v205h246v-205l-129 -225h-117l98 225h-98z" />
    <glyph glyph-name="Rcaron" unicode="&#x158;" horiz-adv-x="1900" 
d="M1303 1806l-424 -164l-424 164v205l424 -164l424 164v-205zM1798 926q0 -186 -94.5 -312t-261.5 -172l274 -442h-286l-259 418h-802v-418h-246v1434h1126q248 0 398.5 -136t150.5 -372zM369 1229v-606h778q36 0 55.5 0.5t58 3t61.5 7.5t57.5 15.5t56 25.5t46 38t38 52.5
t23 70.5t9.5 90t-9.5 90t-23 70.5t-38 52.5t-46 38t-56 25.5t-57.5 15.5t-61.5 7.5t-58 3t-55.5 0.5h-778z" />
    <glyph glyph-name="rcaron" unicode="&#x159;" horiz-adv-x="1519" 
d="M1194 1561l-424 -164l-424 164v204l424 -163l424 163v-204zM1092 1208q157 0 325 -41v-204q-163 41 -317 41q-374 0 -731 -238v-766h-246v1188h246v-205q321 225 723 225z" />
    <glyph glyph-name="Sacute" unicode="&#x15a;" horiz-adv-x="2035" 
d="M618 1843l797 164v-205l-797 -164v205zM102 485h246q0 -110 65.5 -174t225 -95.5t440.5 -31.5q328 0 468.5 50t140.5 167q0 43 -9.5 71.5t-40.5 52t-73.5 37.5t-124.5 26.5t-176.5 20t-245.5 16.5q-189 11 -322.5 29.5t-239 50.5t-167.5 80.5t-93.5 117t-31.5 162.5
q0 93 39.5 161.5t108.5 111.5t177.5 69.5t232 36.5t286.5 10q864 0 864 -481h-246q0 160 -146.5 218t-512.5 58q-222 0 -342.5 -20t-167.5 -61t-47 -115q0 -47 16.5 -78.5t53.5 -56t110.5 -40.5t173 -27.5t254.5 -21.5q136 -9 203.5 -14t175.5 -16.5t161 -24t127.5 -34
t109.5 -50t72.5 -67.5t51.5 -91t14 -118q0 -79 -23.5 -142t-64 -108t-104 -78t-134 -53t-163.5 -32t-183 -16.5t-202 -4.5q-154 0 -276 9.5t-233 31t-191 59.5t-139 93.5t-88.5 133.5t-29.5 178z" />
    <glyph glyph-name="sacute" unicode="&#x15b;" horiz-adv-x="1871" 
d="M537 1597l796 164v-205l-796 -163v204zM102 424h246q0 -129 149.5 -184.5t495.5 -55.5q231 0 343 15t150 46.5t38 96.5q0 23 -3.5 39t-16 30.5t-29 24.5t-51.5 19.5t-73 16t-104.5 13.5t-135.5 13t-175 14q-84 6 -144.5 11.5t-129 13t-116 15.5t-99.5 20t-86.5 26
t-69.5 32.5t-56 41.5t-38.5 51t-25 62t-7.5 75q0 70 27.5 125.5t81 93t121.5 63.5t158.5 40t182 20t201.5 6q104 0 188 -4t168 -15t148 -29t120 -46.5t92 -67t56.5 -91.5t20.5 -119h-246q0 94 -130 131t-438 37q-194 0 -306 -14.5t-155.5 -42t-43.5 -73.5q0 -24 7 -40.5
t31 -31.5t59.5 -25t103.5 -20.5t152 -19.5t214 -20q313 -28 369 -35q233 -31 327 -107q96 -76 96 -223q0 -66 -18 -119t-50 -91.5t-83 -67t-111 -46.5t-140.5 -29t-164 -15t-188.5 -4q-108 0 -197.5 4.5t-186 16.5t-171.5 32.5t-144 54.5t-114 79.5t-72 110.5t-27 146z" />
    <glyph glyph-name="Scedilla" unicode="&#x15e;" horiz-adv-x="2035" 
d="M1933 414q0 -75 -21.5 -136t-58.5 -105t-94.5 -77.5t-123 -54.5t-151 -34.5t-170 -19.5t-188.5 -7l-18 -76q52 16 110 21.5t117.5 -3t98.5 -49.5t39 -111q0 -68 -37.5 -117.5t-99.5 -77t-147 -40.5t-175.5 -11.5t-188.5 13.5v166q201 -27 301.5 -3.5t100.5 89.5
q0 39 -46.5 47t-166.5 -18l-121 118l14 54q-156 6 -276.5 24t-222 55t-167.5 93t-102.5 139t-36.5 192h246q0 -110 65.5 -174t225 -95.5t440.5 -31.5q328 0 468.5 50t140.5 167q0 43 -9.5 71.5t-40.5 52t-73.5 37.5t-124.5 26.5t-176.5 20t-245.5 16.5q-189 11 -322.5 29.5
t-239 50.5t-167.5 80.5t-93.5 117t-31.5 162.5q0 93 39.5 161.5t108.5 111.5t177.5 69.5t232 36.5t286.5 10q864 0 864 -481h-246q0 160 -146.5 218t-512.5 58q-222 0 -342.5 -20t-167.5 -61t-47 -115q0 -47 16.5 -78.5t53.5 -56t110.5 -40.5t173 -27.5t254.5 -21.5
q136 -9 203.5 -14t175.5 -16.5t161 -24t127.5 -34t109.5 -50t72.5 -67.5t51.5 -91t14 -118z" />
    <glyph glyph-name="scedilla" unicode="&#x15f;" horiz-adv-x="1871" 
d="M1769 352q0 -90 -33.5 -156t-92 -107t-152.5 -65.5t-199 -33.5t-248 -10l-18 -76q52 16 110 21.5t117.5 -3t98.5 -49.5t39 -111q0 -68 -37.5 -117.5t-99.5 -77t-147 -40.5t-175.5 -11.5t-188.5 13.5v166q201 -27 301.5 -3.5t100.5 89.5q0 39 -46.5 47t-166.5 -18
l-121 118l14 56q-125 6 -226 20.5t-196.5 46.5t-159.5 79.5t-102.5 122t-38.5 171.5h246q0 -129 149.5 -184.5t495.5 -55.5q231 0 343 15t150 46.5t38 96.5q0 23 -3.5 39t-16 30.5t-29 24.5t-51.5 19.5t-73 16t-104.5 13.5t-135.5 13t-175 14q-84 6 -144.5 11.5t-129 13
t-116 15.5t-99.5 20t-86.5 26t-69.5 32.5t-56 41.5t-38.5 51t-25 62t-7.5 75q0 70 27.5 125.5t81 93t121.5 63.5t158.5 40t182 20t201.5 6q104 0 188 -4t168 -15t148 -29t120 -46.5t92 -67t56.5 -91.5t20.5 -119h-246q0 94 -130 131t-438 37q-194 0 -306 -14.5t-155.5 -42
t-43.5 -73.5q0 -24 7 -40.5t31 -31.5t59.5 -25t103.5 -20.5t152 -19.5t214 -20q313 -28 369 -35q233 -31 327 -107q96 -76 96 -223z" />
    <glyph glyph-name="Scaron" unicode="&#x160;" horiz-adv-x="2035" 
d="M1442 1806l-424 -164l-424 164v205l424 -164l424 164v-205zM1018 829q136 -9 203.5 -14t175.5 -16.5t161 -24t127.5 -34t109.5 -50t72.5 -67.5t51.5 -91t14 -118q0 -79 -23.5 -142t-64 -108t-104 -78t-134 -53t-163.5 -32t-183 -16.5t-202 -4.5q-154 0 -276 9.5t-233 31
t-191 59.5t-139 93.5t-88.5 133.5t-29.5 178h246q0 -110 65.5 -174t225 -95.5t440.5 -31.5q328 0 468.5 50t140.5 167q0 43 -9.5 71.5t-40.5 52t-73.5 37.5t-124.5 26.5t-176.5 20t-245.5 16.5q-189 11 -322.5 29.5t-239 50.5t-167.5 80.5t-93.5 117t-31.5 162.5
q0 93 39.5 161.5t108.5 111.5t177.5 69.5t232 36.5t286.5 10q864 0 864 -481h-246q0 160 -146.5 218t-512.5 58q-222 0 -342.5 -20t-167.5 -61t-47 -115q0 -47 16.5 -78.5t53.5 -56t110.5 -40.5t173 -27.5t254.5 -21.5z" />
    <glyph glyph-name="scaron" unicode="&#x161;" horiz-adv-x="1871" 
d="M1360 1561l-424 -164l-424 164v204l424 -163l424 163v-204zM977 717q313 -28 369 -35q233 -31 327 -107q96 -76 96 -223q0 -66 -18 -119t-50 -91.5t-83 -67t-111 -46.5t-140.5 -29t-164 -15t-188.5 -4q-108 0 -197.5 4.5t-186 16.5t-171.5 32.5t-144 54.5t-114 79.5
t-72 110.5t-27 146h246q0 -129 149.5 -184.5t495.5 -55.5q231 0 343 15t150 46.5t38 96.5q0 23 -3.5 39t-16 30.5t-29 24.5t-51.5 19.5t-73 16t-104.5 13.5t-135.5 13t-175 14q-84 6 -144.5 11.5t-129 13t-116 15.5t-99.5 20t-86.5 26t-69.5 32.5t-56 41.5t-38.5 51t-25 62
t-7.5 75q0 70 27.5 125.5t81 93t121.5 63.5t158.5 40t182 20t201.5 6q104 0 188 -4t168 -15t148 -29t120 -46.5t92 -67t56.5 -91.5t20.5 -119h-246q0 94 -130 131t-438 37q-194 0 -306 -14.5t-155.5 -42t-43.5 -73.5q0 -24 7 -40.5t31 -31.5t59.5 -25t103.5 -20.5t152 -19.5
t214 -20z" />
    <glyph glyph-name="uni0162" unicode="&#x162;" horiz-adv-x="1966" 
d="M1106 0h-8l-25 -96q52 16 110 21.5t117.5 -3t98.5 -49.5t39 -111q0 -68 -37.5 -117.5t-99.5 -77t-146.5 -40.5t-175 -11.5t-188.5 13.5v166q201 -27 301 -3.5t100 89.5q0 39 -46.5 47t-166.5 -18l-121 118l19 72h-17v1229h-758v205h1762v-205h-758v-1229z" />
    <glyph glyph-name="uni0163" unicode="&#x163;" horiz-adv-x="1445" 
d="M1343 983h-624v-418q0 -85 4 -140.5t17.5 -101t34 -70.5t57 -41.5t82.5 -22t116 -5.5q165 0 313 21v-195q-154 -27 -348 -30l-18 -76q40 13 85 20t96 4t90.5 -18.5t66 -53t26.5 -94.5q0 -68 -37.5 -117.5t-99.5 -77t-146.5 -40.5t-175 -11.5t-188.5 13.5v166
q201 -27 301.5 -3.5t100.5 89.5q0 39 -46.5 47t-166.5 -18l-121 118l18 68q-142 32 -224.5 124t-82.5 242v621h-371v205h371v287l246 81v-368h624v-205z" />
    <glyph glyph-name="Tcaron" unicode="&#x164;" horiz-adv-x="1966" 
d="M1407 1806l-424 -164l-424 164v205l424 -164l424 164v-205zM1864 1434v-205h-758v-1229h-246v1229h-758v205h1762z" />
    <glyph glyph-name="tcaron" unicode="&#x165;" horiz-adv-x="1445" 
d="M1020 1888l-424 -164l-424 164v205l424 -164l424 164v-205zM1343 983h-624v-418q0 -85 4 -140.5t17.5 -101t34 -70.5t57 -41.5t82.5 -22t116 -5.5q165 0 313 21v-195q-175 -30 -403 -30q-99 0 -182 23t-147.5 68t-101 119.5t-36.5 171.5v621h-371v205h371v287l246 81
v-368h624v-205z" />
    <glyph glyph-name="Tbar" unicode="&#x166;" horiz-adv-x="1966" 
d="M1864 1229h-758v-533h350v-204h-350v-492h-246v492h-387v204h387v533h-758v205h1762v-205z" />
    <glyph glyph-name="tbar" unicode="&#x167;" horiz-adv-x="1445" 
d="M1343 983h-624v-266h477v-205h-477q2 -107 15 -167.5t49.5 -98.5t92.5 -50t154 -12q165 0 313 21v-195q-175 -30 -403 -30q-99 0 -182 23t-147.5 68t-101 119.5t-36.5 171.5v150h-260v205h260v266h-371v205h371v287l246 81v-368h624v-205z" />
    <glyph glyph-name="Umacron" unicode="&#x16a;" horiz-adv-x="2048" 
d="M543 1864h960v-205h-960v205zM1925 719q0 -377 -216.5 -558t-684.5 -181q-469 0 -685 180.5t-216 558.5v715h246v-715q0 -58 4.5 -104.5t20.5 -104t43.5 -101.5t77 -88t117 -72.5t167.5 -46.5t225 -18t225 18t167.5 47t117 73t77 88t43.5 101.5t20.5 104t4.5 103.5v715
h246v-715z" />
    <glyph glyph-name="umacron" unicode="&#x16b;" horiz-adv-x="1927" 
d="M1440 1618v-205h-961v205h961zM1559 1188h245v-1188h-245v246q-144 -124 -347 -195t-436 -71q-111 0 -204 17t-177 59t-142 107t-93 165.5t-37 230.5l6 629h246v-547q0 -114 20.5 -194.5t69 -141.5t134.5 -91t212 -30q217 0 436 99t312 221v684z" />
    <glyph glyph-name="Uring" unicode="&#x16e;" horiz-adv-x="2048" 
d="M1024 1597q-430 0 -430 271q0 270 430 270t430 -270q0 -271 -430 -271zM1024 1741q225 0 225 127t-225 127t-225 -127t225 -127zM1925 719q0 -377 -216.5 -558t-684.5 -181q-469 0 -685 180.5t-216 558.5v715h246v-715q0 -58 4.5 -104.5t20.5 -104t43.5 -101.5t77 -88
t117 -72.5t167.5 -46.5t225 -18t225 18t167.5 47t117 73t77 88t43.5 101.5t20.5 104t4.5 103.5v715h246v-715z" />
    <glyph glyph-name="uring" unicode="&#x16f;" horiz-adv-x="1927" 
d="M961 1352q-431 0 -431 270t431 270q430 0 430 -270t-430 -270zM961 1749q-226 0 -226 -127t226 -127q225 0 225 127t-225 127zM1559 1188h245v-1188h-245v246q-144 -124 -347 -195t-436 -71q-111 0 -204 17t-177 59t-142 107t-93 165.5t-37 230.5l6 629h246v-547
q0 -114 20.5 -194.5t69 -141.5t134.5 -91t212 -30q217 0 436 99t312 221v684z" />
    <glyph glyph-name="Uhungarumlaut" unicode="&#x170;" horiz-adv-x="2048" 
d="M539 1874l424 164v-226l-424 -163v225zM1085 1874l424 164v-226l-424 -163v225zM1925 719q0 -377 -216.5 -558t-684.5 -181q-469 0 -685 180.5t-216 558.5v715h246v-715q0 -58 4.5 -104.5t20.5 -104t43.5 -101.5t77 -88t117 -72.5t167.5 -46.5t225 -18t225 18t167.5 47
t117 73t77 88t43.5 101.5t20.5 104t4.5 103.5v715h246v-715z" />
    <glyph glyph-name="uhungarumlaut" unicode="&#x171;" horiz-adv-x="1927" 
d="M899 1792v-225l-424 -164v225zM1446 1792v-225l-424 -164v225zM1559 1188h245v-1188h-245v246q-144 -124 -347 -195t-436 -71q-111 0 -204 17t-177 59t-142 107t-93 165.5t-37 230.5l6 629h246v-547q0 -114 20.5 -194.5t69 -141.5t134.5 -91t212 -30q217 0 436 99
t312 221v684z" />
    <glyph glyph-name="Uogonek" unicode="&#x172;" horiz-adv-x="2048" 
d="M1679 1434h246v-715q0 -316 -152 -494t-473 -227q-31 -25 -47.5 -40.5t-35.5 -45.5t-19 -59q0 -22 7 -39.5t23.5 -29.5t32.5 -21t46 -14l51 -8.5t59.5 -4.5t60 -1.5t64.5 -0.5v-205q-122 0 -209 5.5t-163 21t-121.5 42t-71 69t-25.5 102.5q0 66 35.5 114.5t108.5 98.5
q-25 -2 -72 -2q-469 0 -685 180.5t-216 558.5v715h246v-715q0 -58 4.5 -104.5t20.5 -104t43.5 -101.5t77 -88t117 -72.5t167.5 -46.5t225 -18t225 18t167.5 47t117 73t77 88t43.5 101.5t20.5 104t4.5 103.5v715z" />
    <glyph glyph-name="uogonek" unicode="&#x173;" horiz-adv-x="1927" 
d="M1665 -147q0 -22 7 -39.5t23.5 -29.5t32.5 -21t46 -14l51 -8.5t59.5 -4.5t60 -1.5t64.5 -0.5v-205q-122 0 -209 5.5t-163 21t-121.5 42t-71 69t-25.5 102.5q0 72 42 122.5t130 108.5h-32v246q-144 -124 -347 -195t-436 -71q-111 0 -204 17t-177 59t-142 107t-93 165.5
t-37 230.5l6 629h246v-547q0 -114 20.5 -194.5t69 -141.5t134.5 -91t212 -30q217 0 436 99t312 221v684h245v-1188h-35q-31 -25 -48 -41t-36.5 -46.5t-19.5 -59.5z" />
    <glyph glyph-name="Wcircumflex" unicode="&#x174;" horiz-adv-x="3198" 
d="M2023 1638l-424 164l-423 -164v205l423 164l424 -164v-205zM2828 1434h269l-635 -1434h-299l-564 1194l-563 -1194h-299l-635 1434h269l518 -1188l553 1188h315l553 -1188z" />
    <glyph glyph-name="wcircumflex" unicode="&#x175;" horiz-adv-x="2932" 
d="M1890 1393l-424 163l-424 -163v204l424 164l424 -164v-204zM2560 1188h270l-565 -1188h-371l-428 973l-428 -973h-370l-566 1188h271l479 -1020l440 1020h348l441 -1020z" />
    <glyph glyph-name="Ycircumflex" unicode="&#x176;" horiz-adv-x="2195" 
d="M1522 1638l-424 164l-424 -164v205l424 164l424 -164v-205zM1776 1434h317l-872 -963v-471h-246v471l-873 963h318l678 -746z" />
    <glyph glyph-name="ycircumflex" unicode="&#x177;" horiz-adv-x="1968" 
d="M1409 1393l-424 163l-424 -163v204l424 164l424 -164v-204zM1589 1188h277l-903 -1700h-277l272 512h-147l-709 1188h283l637 -1067z" />
    <glyph glyph-name="Ydieresis" unicode="&#x178;" horiz-adv-x="2195" 
d="M668 1925h327v-246h-327v246zM1200 1925h328v-246h-328v246zM975 471l-873 963h318l678 -746l678 746h317l-872 -963v-471h-246v471z" />
    <glyph glyph-name="Zacute" unicode="&#x179;" horiz-adv-x="1863" 
d="M1329 2007v-205l-797 -164v205zM1741 1434v-205l-1260 -1024h1260v-205h-1618v205l1259 1024h-1259v205h1618z" />
    <glyph glyph-name="zacute" unicode="&#x17a;" horiz-adv-x="1667" 
d="M1231 1761v-205l-797 -163v204zM1544 1188v-205l-1052 -778h1052v-205h-1421v205l1053 778h-1053v205h1421z" />
    <glyph glyph-name="Zdotaccent" unicode="&#x17b;" horiz-adv-x="1863" 
d="M1096 1925v-246h-328v246h328zM1741 1434v-205l-1260 -1024h1260v-205h-1618v205l1259 1024h-1259v205h1618z" />
    <glyph glyph-name="zdotaccent" unicode="&#x17c;" horiz-adv-x="1667" 
d="M997 1679v-245h-327v245h327zM1544 1188v-205l-1052 -778h1052v-205h-1421v205l1053 778h-1053v205h1421z" />
    <glyph glyph-name="Zcaron" unicode="&#x17d;" horiz-adv-x="1863" 
d="M1356 1806l-424 -164l-424 164v205l424 -164l424 164v-205zM1741 1434v-205l-1260 -1024h1260v-205h-1618v205l1259 1024h-1259v205h1618z" />
    <glyph glyph-name="zcaron" unicode="&#x17e;" horiz-adv-x="1667" 
d="M1257 1561l-423 -164l-424 164v204l424 -163l423 163v-204zM1544 1188v-205l-1052 -778h1052v-205h-1421v205l1053 778h-1053v205h1421z" />
    <glyph glyph-name="Scommaaccent" unicode="&#x218;" horiz-adv-x="2035" 
d="M102 485h246q0 -110 65.5 -174t225 -95.5t440.5 -31.5q328 0 468.5 50t140.5 167q0 43 -9.5 71.5t-40.5 52t-73.5 37.5t-124.5 26.5t-176.5 20t-245.5 16.5q-189 11 -322.5 29.5t-239 50.5t-167.5 80.5t-93.5 117t-31.5 162.5q0 93 39.5 161.5t108.5 111.5t177.5 69.5
t232 36.5t286.5 10q864 0 864 -481h-246q0 160 -146.5 218t-512.5 58q-222 0 -342.5 -20t-167.5 -61t-47 -115q0 -47 16.5 -78.5t53.5 -56t110.5 -40.5t173 -27.5t254.5 -21.5q136 -9 203.5 -14t175.5 -16.5t161 -24t127.5 -34t109.5 -50t72.5 -67.5t51.5 -91t14 -118
q0 -79 -23.5 -142t-64 -108t-104 -78t-134 -53t-163.5 -32t-183 -16.5t-202 -4.5q-154 0 -276 9.5t-233 31t-191 59.5t-139 93.5t-88.5 133.5t-29.5 178zM895 -266h246v-205l-129 -225h-117l98 225h-98v205z" />
    <glyph glyph-name="scommaaccent" unicode="&#x219;" horiz-adv-x="1871" 
d="M102 424h246q0 -129 149.5 -184.5t495.5 -55.5q231 0 343 15t150 46.5t38 96.5q0 23 -3.5 39t-16 30.5t-29 24.5t-51.5 19.5t-73 16t-104.5 13.5t-135.5 13t-175 14q-84 6 -144.5 11.5t-129 13t-116 15.5t-99.5 20t-86.5 26t-69.5 32.5t-56 41.5t-38.5 51t-25 62t-7.5 75
q0 70 27.5 125.5t81 93t121.5 63.5t158.5 40t182 20t201.5 6q104 0 188 -4t168 -15t148 -29t120 -46.5t92 -67t56.5 -91.5t20.5 -119h-246q0 94 -130 131t-438 37q-194 0 -306 -14.5t-155.5 -42t-43.5 -73.5q0 -24 7 -40.5t31 -31.5t59.5 -25t103.5 -20.5t152 -19.5t214 -20
q313 -28 369 -35q233 -31 327 -107q96 -76 96 -223q0 -66 -18 -119t-50 -91.5t-83 -67t-111 -46.5t-140.5 -29t-164 -15t-188.5 -4q-108 0 -197.5 4.5t-186 16.5t-171.5 32.5t-144 54.5t-114 79.5t-72 110.5t-27 146zM813 -266h246v-205l-129 -225h-117l98 225h-98v205z" />
    <glyph glyph-name="uni021A" unicode="&#x21a;" horiz-adv-x="1966" 
d="M1864 1434v-205h-758v-1229h-246v1229h-758v205h1762zM860 -471v205h246v-205l-129 -225h-117l98 225h-98z" />
    <glyph glyph-name="uni021B" unicode="&#x21b;" horiz-adv-x="1445" 
d="M1343 983h-624v-418q0 -85 4 -140.5t17.5 -101t34 -70.5t57 -41.5t82.5 -22t116 -5.5q165 0 313 21v-195q-175 -30 -403 -30q-99 0 -182 23t-147.5 68t-101 119.5t-36.5 171.5v621h-371v205h371v287l246 81v-368h624v-205zM764 -471v205h246v-205l-129 -225h-117l98 225
h-98z" />
    <glyph glyph-name="circumflex" unicode="&#x2c6;" horiz-adv-x="1175" 
d="M588 1761l424 -164v-204l-424 163l-424 -163v204z" />
    <glyph glyph-name="caron" unicode="&#x2c7;" horiz-adv-x="1175" 
d="M588 1602l424 163v-204l-424 -164l-424 164v204z" />
    <glyph glyph-name="breve" unicode="&#x2d8;" horiz-adv-x="1257" 
d="M164 1782h205q0 -246 260 -246t260 246h205q0 -102 -24.5 -178.5t-65.5 -123.5t-102 -76.5t-126.5 -40.5t-146.5 -11t-146.5 11t-126.5 40.5t-102 76.5t-65.5 123.5t-24.5 178.5z" />
    <glyph glyph-name="dotaccent" unicode="&#x2d9;" horiz-adv-x="655" 
d="M164 1679h328v-245h-328v245z" />
    <glyph glyph-name="ring" unicode="&#x2da;" horiz-adv-x="1187" 
d="M594 1352q-430 0 -430 270t430 270t430 -270t-430 -270zM594 1495q225 0 225 127t-225 127t-225 -127t225 -127z" />
    <glyph glyph-name="ogonek" unicode="&#x2db;" horiz-adv-x="917" 
d="M754 -266v-205q-122 0 -209 5.5t-163 21t-121.5 42t-71 69t-25.5 102.5q0 72 42 122.5t130 108.5h178q-31 -25 -48 -41t-36.5 -46.5t-19.5 -59.5q0 -22 7 -39.5t23.5 -29.5t32.5 -21t46 -14l51 -8.5t59.5 -4.5t60 -1.5t64.5 -0.5z" />
    <glyph glyph-name="tilde" unicode="&#x2dc;" horiz-adv-x="1515" 
d="M164 1372q0 194 87.5 312t260.5 118q70 0 129.5 -25.5t100.5 -61.5t77.5 -72t78 -61.5t85.5 -25.5q69 0 96 56t27 170h246q0 -194 -87.5 -312t-260.5 -118q-51 0 -96.5 13.5t-79.5 35t-65 47.5t-58 52.5t-53 48t-57 35t-63 13.5q-69 0 -95.5 -55.5t-26.5 -169.5h-246z
" />
    <glyph glyph-name="hungarumlaut" unicode="&#x2dd;" horiz-adv-x="1298" 
d="M164 1628l424 164v-225l-424 -164v225zM711 1628l424 164v-225l-424 -164v225z" />
    <glyph glyph-name="gravecomb" unicode="&#x300;" horiz-adv-x="0" 
d="M-164 1597v-204l-797 163v205z" />
    <glyph glyph-name="acutecomb" unicode="&#x301;" horiz-adv-x="0" 
d="M-961 1597l797 164v-205l-797 -163v204z" />
    <glyph glyph-name="uni0302" unicode="&#x302;" horiz-adv-x="0" 
d="M-588 1761l424 -164v-204l-424 163l-424 -163v204z" />
    <glyph glyph-name="tildecomb" unicode="&#x303;" horiz-adv-x="0" 
d="M-1352 1372q0 194 87.5 312t260.5 118q70 0 129.5 -25.5t100.5 -61.5t78 -72t78.5 -61.5t85.5 -25.5q69 0 95.5 56t26.5 170h246q0 -194 -87.5 -312t-260.5 -118q-59 0 -111 18t-87.5 45.5t-71.5 59t-64 59t-64 45.5t-73 18q-69 0 -96 -55.5t-27 -169.5h-246z" />
    <glyph glyph-name="uni0304" unicode="&#x304;" horiz-adv-x="0" 
d="M-1124 1618h960v-205h-960v205z" />
    <glyph glyph-name="uni0306" unicode="&#x306;" horiz-adv-x="0" 
d="M-1094 1782h205q0 -246 260 -246t260 246h205q0 -102 -24.5 -178.5t-65.5 -123.5t-102 -76.5t-126.5 -40.5t-146.5 -11t-146.5 11t-126.5 40.5t-102 76.5t-65.5 123.5t-24.5 178.5z" />
    <glyph glyph-name="uni0307" unicode="&#x307;" horiz-adv-x="0" 
d="M-492 1679h328v-245h-328v245z" />
    <glyph glyph-name="uni0308" unicode="&#x308;" horiz-adv-x="0" 
d="M-1024 1679h328v-245h-328v245zM-492 1679h328v-245h-328v245z" />
    <glyph glyph-name="uni030A" unicode="&#x30a;" horiz-adv-x="0" 
d="M-594 1352q-430 0 -430 270t430 270t430 -270t-430 -270zM-594 1495q225 0 225 127t-225 127t-225 -127t225 -127z" />
    <glyph glyph-name="uni030B" unicode="&#x30b;" horiz-adv-x="0" 
d="M-1135 1628l424 164v-225l-424 -164v225zM-588 1628l424 164v-225l-424 -164v225z" />
    <glyph glyph-name="uni030C" unicode="&#x30c;" horiz-adv-x="0" 
d="M-588 1602l424 163v-204l-424 -164l-424 164v204z" />
    <glyph glyph-name="uni0312" unicode="&#x312;" horiz-adv-x="0" 
d="M-164 1454h-246v205l129 225h117l-98 -225h98v-205z" />
    <glyph glyph-name="uni0326" unicode="&#x326;" horiz-adv-x="0" 
d="M-410 -123h246v-205l-129 -225h-117l99 225h-99v205z" />
    <glyph glyph-name="uni0327" unicode="&#x327;" horiz-adv-x="0" 
d="M-528 -96q40 13 85 20t96 4t90.5 -18.5t66 -53t26.5 -94.5q0 -68 -37.5 -117.5t-99.5 -77t-146.5 -40.5t-175 -11.5t-188.5 13.5v166q201 -27 301 -3.5t100 89.5q0 39 -46.5 47t-166.5 -18l-120 118l18 72h221z" />
    <glyph glyph-name="uni0328" unicode="&#x328;" horiz-adv-x="0" 
d="M-164 -266v-205q-122 0 -209 5.5t-163 21t-121.5 42t-71 69t-25.5 102.5q0 72 42 122.5t130 108.5h179q-32 -26 -48.5 -41t-36.5 -46t-20 -60q0 -22 7 -39.5t23.5 -29.5t32.5 -21t46 -14l51 -8.5t59.5 -4.5t60 -1.5t64.5 -0.5z" />
    <glyph glyph-name="uni0335" unicode="&#x335;" horiz-adv-x="0" 
d="M-1147 799h983v-205h-983v205z" />
    <glyph glyph-name="uni0336" unicode="&#x336;" horiz-adv-x="0" 
d="M-2212 799h2048v-205h-2048v205z" />
    <glyph glyph-name="uni0337" unicode="&#x337;" horiz-adv-x="0" 
d="M-123 1475l-532 -1782h-246l532 1782h246z" />
    <glyph glyph-name="uni0338" unicode="&#x338;" horiz-adv-x="0" 
d="M-164 1475l-532 -1782h-267l533 1782h266z" />
    <glyph glyph-name="Wgrave" unicode="&#x1e80;" horiz-adv-x="3198" 
d="M1997 1843v-205l-797 164v205zM2828 1434h269l-635 -1434h-299l-564 1194l-563 -1194h-299l-635 1434h269l518 -1188l553 1188h315l553 -1188z" />
    <glyph glyph-name="wgrave" unicode="&#x1e81;" horiz-adv-x="2932" 
d="M1864 1597v-204l-797 163v205zM2560 1188h270l-565 -1188h-371l-428 973l-428 -973h-370l-566 1188h271l479 -1020l440 1020h348l441 -1020z" />
    <glyph glyph-name="Wacute" unicode="&#x1e82;" horiz-adv-x="3198" 
d="M1997 2007v-205l-797 -164v205zM2828 1434h269l-635 -1434h-299l-564 1194l-563 -1194h-299l-635 1434h269l518 -1188l553 1188h315l553 -1188z" />
    <glyph glyph-name="wacute" unicode="&#x1e83;" horiz-adv-x="2932" 
d="M1864 1761v-205l-797 -163v204zM2560 1188h270l-565 -1188h-371l-428 973l-428 -973h-370l-566 1188h271l479 -1020l440 1020h348l441 -1020z" />
    <glyph glyph-name="Wdieresis" unicode="&#x1e84;" horiz-adv-x="3198" 
d="M1497 1925v-246h-328v246h328zM2030 1925v-246h-328v246h328zM2828 1434h269l-635 -1434h-299l-564 1194l-563 -1194h-299l-635 1434h269l518 -1188l553 1188h315l553 -1188z" />
    <glyph glyph-name="wdieresis" unicode="&#x1e85;" horiz-adv-x="2932" 
d="M1364 1679v-245h-328v245h328zM1896 1679v-245h-327v245h327zM2560 1188h270l-565 -1188h-371l-428 973l-428 -973h-370l-566 1188h271l479 -1020l440 1020h348l441 -1020z" />
    <glyph glyph-name="Ygrave" unicode="&#x1ef2;" horiz-adv-x="2195" 
d="M1495 1843v-205l-797 164v205zM975 471l-873 963h318l678 -746l678 746h317l-872 -963v-471h-246v471z" />
    <glyph glyph-name="ygrave" unicode="&#x1ef3;" horiz-adv-x="1968" 
d="M1382 1597v-204l-796 163v205zM1589 1188h277l-903 -1700h-277l272 512h-147l-709 1188h283l637 -1067z" />
    <glyph glyph-name="endash" unicode="&#x2013;" horiz-adv-x="2375" 
d="M164 799h2048v-205h-2048v205z" />
    <glyph glyph-name="emdash" unicode="&#x2014;" horiz-adv-x="2785" 
d="M164 799h2457v-205h-2457v205z" />
    <glyph glyph-name="quoteleft" unicode="&#x2018;" horiz-adv-x="614" 
d="M143 819l123 656h205l-82 -656h-246z" />
    <glyph glyph-name="quoteright" unicode="&#x2019;" horiz-adv-x="614" 
d="M471 1475l-123 -656h-205l82 656h246z" />
    <glyph glyph-name="quotesinglbase" unicode="&#x201a;" 
d="M123 205h246v-205l-117 -369h-129l78 369h-78v205z" />
    <glyph glyph-name="quotedblleft" unicode="&#x201c;" horiz-adv-x="1105" 
d="M225 819l123 656h205l-82 -656h-246zM635 819l123 656h205l-82 -656h-246z" />
    <glyph glyph-name="quotedblright" unicode="&#x201d;" horiz-adv-x="1024" 
d="M471 1475l-123 -656h-205l82 656h246zM881 1475l-123 -656h-205l82 656h246z" />
    <glyph glyph-name="quotedblbase" unicode="&#x201e;" horiz-adv-x="901" 
d="M123 0v205h246v-205l-117 -369h-129l78 369h-78zM532 205h246v-205l-116 -369h-130l78 369h-78v205z" />
    <glyph glyph-name="dagger" unicode="&#x2020;" horiz-adv-x="1966" 
d="M1802 963v-205h-694v-1065h-246v1065h-698v205h698v512h246v-512h694z" />
    <glyph glyph-name="daggerdbl" unicode="&#x2021;" horiz-adv-x="1966" 
d="M1802 758h-694v-348h694v-205h-694v-512h-246v512h-698v205h698v348h-698v205h698v512h246v-512h694v-205z" />
    <glyph glyph-name="bullet" unicode="&#x2022;" horiz-adv-x="743" 
d="M373 479q-128 0 -189 43t-61 135q0 91 61 134t189 43q126 0 187 -43t61 -134q0 -92 -60.5 -135t-187.5 -43z" />
    <glyph glyph-name="ellipsis" unicode="&#x2026;" horiz-adv-x="1433" 
d="M123 205h246v-205h-246v205zM594 205h246v-205h-246v205zM1065 205h246v-205h-246v205z" />
    <glyph glyph-name="perthousand" unicode="&#x2030;" horiz-adv-x="4945" 
d="M788 530q-155 0 -276.5 44t-196 122t-113 179t-38.5 221q0 119 38.5 219.5t113 178t196 121.5t276.5 44q156 0 278 -44t197 -121.5t113.5 -178t38.5 -219.5q0 -120 -38.5 -221t-114 -179t-197 -122t-277.5 -44zM2154 1638l-532 -1781h-246l533 1781h245zM788 735
q72 0 137.5 20t121.5 61t89 113t33 167t-33 166.5t-89 112t-121 60t-138 19.5q-72 0 -136.5 -19.5t-120 -60t-88.5 -112t-33 -166.5t33 -167t88.5 -113t120 -61t136.5 -20zM2740 -164q-155 0 -276.5 44t-196 121.5t-113 179t-38.5 220.5t38.5 220t113 178.5t196 121.5
t276.5 44q125 0 229 -29t177 -80t123 -122t74 -155t24 -178q0 -119 -38.5 -220.5t-114 -179t-197 -121.5t-277.5 -44zM4155 -164q-155 0 -276.5 44t-196 121.5t-113 179t-38.5 220.5t38.5 220t113 178.5t196 121.5t276.5 44q125 0 229 -29t177 -80t123 -122t74 -155t24 -178
q0 -119 -38.5 -220.5t-114 -179t-197 -121.5t-277.5 -44zM2740 41q73 0 138 20t121 60.5t89 112.5t33 167q0 77 -22 138.5t-59 102t-86.5 68t-103 39t-110.5 11.5t-109.5 -11.5t-102.5 -39t-86.5 -68t-58.5 -102.5t-22 -138q0 -95 33 -167t89 -112.5t120.5 -60.5t136.5 -20z
M4155 41q73 0 138 20t121 60.5t89 112.5t33 167q0 77 -22 138.5t-59 102t-86.5 68t-103 39t-110.5 11.5q-72 0 -136.5 -19.5t-120 -60t-88.5 -112.5t-33 -167t33 -167t88.5 -112.5t120 -60.5t136.5 -20z" />
    <glyph glyph-name="guilsinglleft" unicode="&#x2039;" horiz-adv-x="1105" 
d="M655 1188h328l-532 -594l532 -594h-328l-532 594z" />
    <glyph glyph-name="guilsinglright" unicode="&#x203a;" horiz-adv-x="1105" 
d="M451 1188l532 -594l-532 -594h-328l532 594l-532 594h328z" />
    <glyph glyph-name="fraction" unicode="&#x2044;" horiz-adv-x="1024" 
d="M901 1475l-532 -1782h-246l532 1782h246z" />
    <glyph glyph-name="Euro" unicode="&#x20ac;" horiz-adv-x="1843" 
d="M1153 1454q-274 0 -401 -99t-162 -349h852v-205h-869v-82v-82h869v-205h-852q35 -251 162 -351.5t401 -100.5q191 0 526 61v-205q-181 -33 -307.5 -47t-273.5 -14q-350 0 -529.5 158.5t-224.5 498.5h-180v205h166q-2 27 -2 82t2 82h-166v205h182q47 331 226.5 492
t525.5 161q146 0 271.5 -14.5t309.5 -47.5v-204q-335 61 -526 61z" />
    <glyph glyph-name="trademark" unicode="&#x2122;" horiz-adv-x="2289" 
d="M1016 1636v-98h-367v-594h-119v594h-366v98h852zM2126 1636v-692h-119v576l-362 -576h-99l-362 576v-576h-119v692h182l348 -555l349 555h182z" />
    <glyph glyph-name="arrowleft" unicode="&#x2190;" horiz-adv-x="2385" 
d="M1192 -225q-198 0 -365 47t-288.5 132.5t-206.5 203t-126.5 259.5t-41.5 302q0 200 67 370.5t193.5 298t323.5 199.5t444 72q198 0 365 -47t288.5 -131.5t207 -201.5t127.5 -258.5t42 -301.5t-42 -302t-127.5 -259.5t-207 -203t-288.5 -132.5t-365 -47zM1868 594v246
h-903l286 282l-153 183l-582 -586l582 -590l153 182l-286 283h903z" />
    <glyph glyph-name="arrowup" unicode="&#x2191;" horiz-adv-x="2385" 
d="M1194 -225q-198 0 -365 47t-288.5 132.5t-207 203t-127.5 259.5t-42 302t42 301.5t127.5 258.5t207 201.5t288.5 131.5t365 47q247 0 444 -72t323.5 -199.5t193.5 -298t67 -370.5q0 -160 -41.5 -302t-126.5 -259.5t-206.5 -203t-288.5 -132.5t-365 -47zM1317 61v904
l282 -287l183 153l-590 582l-586 -582l182 -153l283 287v-904h246z" />
    <glyph glyph-name="arrowright" unicode="&#x2192;" horiz-adv-x="2385" 
d="M1194 -225q-198 0 -365 47t-288.5 132.5t-207 203t-127.5 259.5t-42 302t42 301.5t127.5 258.5t207 201.5t288.5 131.5t365 47q247 0 444 -72t323.5 -199.5t193.5 -298t67 -370.5q0 -160 -41.5 -302t-126.5 -259.5t-206.5 -203t-288.5 -132.5t-365 -47zM518 594h903
l-286 -283l153 -182l582 590l-582 586l-153 -183l286 -282h-903v-246z" />
    <glyph glyph-name="arrowdown" unicode="&#x2193;" horiz-adv-x="2385" 
d="M1194 1659q198 0 365 -47t288.5 -132.5t206.5 -203t126.5 -259.5t41.5 -302q0 -200 -67 -370.5t-193.5 -298t-323.5 -199.5t-444 -72q-198 0 -365 47t-288.5 131.5t-207 201.5t-127.5 258.5t-42 301.5t42 302t127.5 259.5t207 203t288.5 132.5t365 47zM1317 1372h-246
v-903l-283 287l-182 -154l586 -582l590 582l-183 154l-282 -287v903z" />
    <glyph glyph-name="arrowboth" unicode="&#x2194;" horiz-adv-x="2385" 
d="M1194 -225q-198 0 -365 47t-288.5 132.5t-207 203t-127.5 259.5t-42 302t42 301.5t127.5 258.5t207 201.5t288.5 131.5t365 47q247 0 444 -72t323.5 -199.5t193.5 -298t67 -370.5q0 -160 -41.5 -302t-126.5 -259.5t-206.5 -203t-288.5 -132.5t-365 -47zM1985 715
l-439 590l-164 -183l240 -303h-852l240 303l-164 183l-443 -592l443 -584l164 182l-240 303h852l-240 -303l164 -182z" />
    <glyph glyph-name="arrowupdn" unicode="&#x2195;" horiz-adv-x="2385" 
d="M1194 -225q-198 0 -365 47t-288.5 132.5t-207 203t-127.5 259.5t-42 302t42 301.5t127.5 258.5t207 201.5t288.5 131.5t365 47q247 0 444 -72t323.5 -199.5t193.5 -298t67 -370.5q0 -160 -41.5 -302t-126.5 -259.5t-206.5 -203t-288.5 -132.5t-365 -47zM1196 1446
l-590 -438l182 -164l304 239v-729l-304 240l-182 -164l592 -442l584 442l-183 164l-303 -240v729l303 -239l183 164z" />
    <glyph glyph-name="uni2196" unicode="&#x2196;" horiz-adv-x="2385" 
d="M1192 -225q-198 0 -365 47t-288.5 132.5t-206.5 203t-126.5 259.5t-41.5 302q0 200 67 370.5t193.5 298t323.5 199.5t444 72q198 0 365 -47t288.5 -131.5t207 -201.5t127.5 -258.5t42 -301.5t-42 -302t-127.5 -259.5t-207 -203t-288.5 -132.5t-365 -47zM1542 195l174 172
l-639 639l422 -2v237l-825 -4l-4 -827h237l-4 421z" />
    <glyph glyph-name="uni2197" unicode="&#x2197;" horiz-adv-x="2385" 
d="M1194 -225q-198 0 -365 47t-288.5 132.5t-207 203t-127.5 259.5t-42 302t42 301.5t127.5 258.5t207 201.5t288.5 131.5t365 47q247 0 444 -72t323.5 -199.5t193.5 -298t67 -370.5q0 -160 -41.5 -302t-126.5 -259.5t-206.5 -203t-288.5 -132.5t-365 -47zM844 195l639 636
l-4 -421h237l-4 827l-825 4v-237l422 2l-639 -639z" />
    <glyph glyph-name="uni2198" unicode="&#x2198;" horiz-adv-x="2385" 
d="M1194 1659q198 0 365 -47t288.5 -132.5t206.5 -203t126.5 -259.5t41.5 -302q0 -200 -67 -370.5t-193.5 -298t-323.5 -199.5t-444 -72q-198 0 -365 47t-288.5 131.5t-207 201.5t-127.5 258.5t-42 301.5t42 302t127.5 259.5t207 203t288.5 132.5t365 47zM844 1239
l-174 -172l639 -639l-422 2v-237l825 4l4 827h-237l4 -422z" />
    <glyph glyph-name="uni2199" unicode="&#x2199;" horiz-adv-x="2385" 
d="M1192 1659q198 0 365 -47t288.5 -132.5t207 -203t127.5 -259.5t42 -302t-42 -301.5t-127.5 -258.5t-207 -201.5t-288.5 -131.5t-365 -47q-247 0 -444 72t-323.5 199.5t-193.5 298t-67 370.5q0 160 41.5 302t126.5 259.5t206.5 203t288.5 132.5t365 47zM1542 1239
l-639 -637l4 422h-237l4 -827l825 -4v237l-422 -2l639 639z" />
    <glyph glyph-name="partialdiff" unicode="&#x2202;" horiz-adv-x="2095" 
d="M614 1638q212 -12 406.5 -67t360.5 -153.5t288.5 -230t192 -307.5t69.5 -376q0 -124 -28 -231t-77.5 -189t-120 -147.5t-153.5 -110.5t-180 -75.5t-197.5 -44t-207.5 -13.5q-803 0 -803 590q0 137 39.5 241.5t124 180.5t224 115.5t331.5 39.5q251 0 456 -101.5
t347 -271.5v17q0 129 -34 242.5t-93.5 201t-143.5 160.5t-181 125t-209 90t-223.5 59.5t-228.5 30.5zM926 -102q249 0 427.5 77t262.5 232q-142 216 -343.5 332t-404.5 116q-104 0 -183.5 -18t-143.5 -59t-97.5 -115.5t-33.5 -179.5q0 -202 128.5 -293.5t387.5 -91.5z" />
    <glyph glyph-name="emptyset" unicode="&#x2205;" horiz-adv-x="2385" 
d="M1991 1358q231 -249 231 -639q0 -160 -41.5 -302t-126.5 -259.5t-206.5 -203t-288.5 -132.5t-365 -47q-368 0 -625 162l-239 -240l-158 158l225 225q-115 124 -174 287t-59 352q0 160 42 301.5t127.5 258.5t207 201.5t288.5 131.5t365 47q372 0 623 -160l237 238
l158 -158zM410 719q0 -291 147 -479l1104 1103q-193 111 -467 111q-368 0 -576 -193.5t-208 -541.5zM1194 -20q367 0 574.5 195t207.5 544q0 292 -147 477l-1102 -1102q185 -114 467 -114z" />
    <glyph glyph-name="product" unicode="&#x220f;" horiz-adv-x="2750" 
d="M2587 1475v-205h-533v-1577h-246v1577h-866v-1577h-246v1577h-532v205h2423z" />
    <glyph glyph-name="summation" unicode="&#x2211;" horiz-adv-x="1843" 
d="M1679 1638v-204h-1167l840 -768l-840 -768h1167v-205h-1515v205l840 768l-840 768v204h1515z" />
    <glyph glyph-name="minus" unicode="&#x2212;" horiz-adv-x="1966" 
d="M164 799h1638v-205h-1638v205z" />
    <glyph glyph-name="radical" unicode="&#x221a;" horiz-adv-x="2846" 
d="M2683 1638v-204h-688l-578 -1741h-274l-389 821h-590v205h756l346 -719l542 1638h875z" />
    <glyph glyph-name="infinity" unicode="&#x221e;" horiz-adv-x="2750" 
d="M164 612q0 264 158.5 422t433.5 158q129 0 238.5 -43t197.5 -117.5t184 -195.5q96 121 183.5 195.5t197 117.5t238.5 43q275 0 433.5 -158t158.5 -422q0 -272 -151.5 -421.5t-440.5 -149.5q-190 0 -333.5 86t-287.5 266q-96 -120 -183.5 -194t-196.5 -116t-238 -42
q-289 0 -440.5 149.5t-151.5 421.5zM410 612q0 -199 84 -282.5t262 -83.5q59 0 114 15t120.5 52.5t133.5 113.5t133 187q-218 373 -501 373q-165 0 -255.5 -91t-90.5 -284zM1493 612q52 -89 107.5 -155.5t105 -106t102.5 -63.5t96.5 -32.5t90.5 -8.5q178 0 262 83.5
t84 282.5q0 193 -90.5 284t-255.5 91q-284 0 -502 -375z" />
    <glyph glyph-name="integral" unicode="&#x222b;" horiz-adv-x="2115" 
d="M164 -307v205q184 0 251 7q247 27 365 183q91 119 119 318l74 520q16 116 47.5 212t67 165.5t92.5 123.5t103 89t121.5 59.5t126 36.5t137.5 18t134.5 7t137.5 1h6.5h5.5v-204q-184 0 -251 -7q-247 -27 -365 -183q-91 -120 -119 -318l-74 -520q-16 -116 -47.5 -212
t-67 -165.5t-92.5 -124t-103.5 -89.5t-122 -59.5t-126 -36.5t-138 -18t-134.5 -7t-138 -1h-10z" />
    <glyph glyph-name="approxequal" unicode="&#x2248;" horiz-adv-x="1966" 
d="M164 778q0 160 22.5 276.5t74 204t139.5 131.5t214 44q89 0 163.5 -25t126.5 -64.5t97 -87.5t84 -96.5t77.5 -88t86.5 -64.5t103 -25q81 0 124 41t61.5 136.5t18.5 273.5h246q0 -160 -22.5 -276.5t-74 -204t-139.5 -131.5t-214 -44q-89 0 -163.5 25t-126.5 64.5t-97 88
t-84 96.5t-77.5 87.5t-86.5 64.5t-103 25q-81 0 -124 -41t-61.5 -136.5t-18.5 -273.5h-246zM164 0q0 160 22.5 276.5t74 204t139.5 131t214 43.5q89 0 163.5 -25t126.5 -64.5t97 -87.5t84 -96t77.5 -87.5t86.5 -64.5t103 -25q81 0 124 41t61.5 136t18.5 273h246
q0 -160 -22.5 -276.5t-74 -204t-139.5 -131t-214 -43.5q-89 0 -163.5 25t-126.5 64.5t-97 87.5t-84 96.5t-77.5 88t-86.5 64.5t-103 25q-81 0 -124 -41t-61.5 -136.5t-18.5 -273.5h-246z" />
    <glyph glyph-name="notequal" unicode="&#x2260;" horiz-adv-x="1966" 
d="M1802 922h-628l-136 -451h764v-205h-825l-137 -461h-246l137 461h-567v205h629l135 451h-764v204h825l137 461h246l-137 -461h567v-204z" />
    <glyph glyph-name="lessequal" unicode="&#x2264;" horiz-adv-x="1781" 
d="M1618 1434v-226l-1225 -327l1225 -328v-225l-1454 379v348zM164 0v205h1454v-205h-1454z" />
    <glyph glyph-name="greaterequal" unicode="&#x2265;" horiz-adv-x="1781" 
d="M164 1434l1454 -379v-348l-1454 -379v225l1225 328l-1225 327v226zM164 0v205h1454v-205h-1454z" />
    <glyph glyph-name="lozenge" unicode="&#x25ca;" horiz-adv-x="1968" 
d="M1149 1638l655 -921l-655 -922h-328l-657 922l657 921h328zM985 -33l531 750l-531 749l-534 -749z" />
    <glyph glyph-name="i.loclTRK" 
d="M82 1679h328v-245h-328v245zM123 1188h246v-1188h-246v1188z" />
    <glyph glyph-name="a.001" horiz-adv-x="1746" 
d="M1655 252q0 -48 1 -73t7 -65t21.5 -67.5t41.5 -46.5h-366q-102 0 -149.5 32.5t-47.5 117.5q-132 -97 -283.5 -133.5t-332.5 -36.5q-109 0 -201.5 20.5t-167 62.5t-116.5 114.5t-42 168.5q0 92 42 164t110.5 116.5t165 73t196.5 39.5t214 11q239 0 415 -64
q0 36 -11.5 62.5t-35.5 43t-50 26.5t-67.5 14.5t-73.5 6t-81 1.5q-269 0 -563 -64l-160 348q384 125 739 125q194 0 337.5 -34.5t247 -109.5t156.5 -199t54 -298v-356zM1163 401v52q-117 30 -325 30q-177 0 -251.5 -20.5t-74.5 -77.5q0 -48 40.5 -63t141.5 -15
q120 0 246.5 26.5t222.5 67.5z" />
    <glyph glyph-name="b.001" horiz-adv-x="1732" 
d="M1081 1249q88 0 164.5 -13t149 -41t129 -77.5t99.5 -118t66 -166.5t23 -219q0 -634 -631 -634q-177 0 -317 55.5t-232 159.5v-195h-491v1638h494v-604q90 104 229.5 159.5t316.5 55.5zM877 389q176 0 260 48.5t84 176.5t-84 177t-260 49q-168 0 -252 -43.5t-93 -157.5
v-47q9 -115 93 -159t252 -44z" />
    <glyph glyph-name="e.001" horiz-adv-x="1748" 
d="M877 369q107 0 192 27t137 65l482 -82q-78 -186 -288 -292.5t-523 -106.5q-193 0 -343.5 35.5t-262 110t-171 198t-59.5 290.5t59.5 290.5t171 198t262 110.5t343.5 36q154 0 281 -26.5t230 -82.5t173.5 -139.5t108.5 -202t38 -266.5h-1165q25 -86 108.5 -124.5
t225.5 -38.5zM877 901q-128 0 -203.5 -26t-110.5 -97h625q-35 71 -109.5 97t-201.5 26z" />
    <glyph glyph-name="m.001" horiz-adv-x="2695" 
d="M2187 1249q80 0 147 -13.5t127.5 -46t102 -83t66 -128t24.5 -177.5v-801h-491v580q0 135 -54.5 187t-166.5 52q-148 0 -349 -135v-684h-491v580q0 135 -54.5 187t-166.5 52q-148 0 -349 -135v-684h-491v1229h491v-185q185 113 315 159t300 46q295 0 397 -207
q194 116 327 161.5t316 45.5z" />
    <glyph glyph-name="n.001" horiz-adv-x="1757" 
d="M1208 1249q508 0 508 -448v-801h-491v559q0 140 -57 200t-179 60q-196 0 -457 -135v-684h-491v1229h491v-164q343 184 676 184z" />
    </font>
</defs>
</svg>
