<?xml version="1.0" standalone="no"?>
<!DOCTYPE svg PUBLIC "-//W3C//DTD SVG 1.1//EN" "http://www.w3.org/Graphics/SVG/1.1/DTD/svg11.dtd" >
<svg xmlns="http://www.w3.org/2000/svg" xmlns:xlink="http://www.w3.org/1999/xlink" version="1.1">
<metadata>
Created by FontForge 20170731 at Wed Jan 26 13:22:05 2022
 By Aleksey,,,
Copyright (c) 2020 by Newlyn Works Limited. All rights reserved.
</metadata>
<defs>
<font id="NewSpirit-BoldCondensed" horiz-adv-x="1060" >
  <font-face 
    font-family="New Spirit Bold Condensed"
    font-weight="700"
    font-stretch="condensed"
    units-per-em="2048"
    panose-1="0 0 8 6 0 0 0 0 0 0"
    ascent="1536"
    descent="-512"
    x-height="1042"
    cap-height="1466"
    bbox="-195 -461 1704 1954"
    underline-thickness="102"
    underline-position="-307"
    unicode-range="U+0020-2122"
  />
<missing-glyph horiz-adv-x="1536" 
 />
    <glyph glyph-name="fi" unicode="fi" horiz-adv-x="1234" 
d="M438 1452q-36 0 -57 -26t-21 -76q0 -64 12 -113.5t43.5 -119.5t35.5 -81h155q47 0 47 -45q0 -29 -4 -65q-6 -49 -51 -49h-123v-633q0 -42 9.5 -69t23.5 -40t28 -22t23.5 -23.5t9.5 -36.5q0 -24 -17.5 -41.5t-51.5 -17.5q-10 0 -66.5 3t-122.5 3q-55 0 -104 -3t-60 -3
q-33 0 -50 17t-17 42q0 19 7.5 32.5t18 23.5t21 23.5t18 41.5t7.5 70v633h-91q-26 0 -37 12.5t-14 40.5q-4 36 -4 61q0 45 49 45h72q-1 2 -8 19.5t-8.5 21t-8 20t-8 22.5t-7 22t-7 24.5t-4.5 23.5t-4.5 27t-2.5 26.5t-1 29.5q0 142 94 227.5t254 85.5q125 0 218 -54t93 -118
q0 -77 -74 -180q-36 -49 -75 -49q-49 0 -52 65q-5 101 -24.5 152t-63.5 51zM907 1184q-67 0 -108 37t-41 96q0 84 70 151.5t159 67.5q66 0 110 -39.5t44 -101.5q0 -81 -70.5 -146t-163.5 -65zM1122 244q0 -42 7.5 -70t18.5 -41.5t22 -23.5t18.5 -23.5t7.5 -32.5
q0 -24 -18 -41.5t-52 -17.5q-11 0 -59.5 3t-105.5 3t-106 -3t-60 -3q-34 0 -51 17.5t-17 41.5q0 23 11.5 39.5t24.5 26.5t24.5 42t11.5 83v432q0 36 -8.5 59.5t-20.5 34t-24 18.5t-20.5 21t-8.5 35q0 34 33.5 57.5t150.5 83.5q90 45 117 56.5t43 11.5q61 0 61 -103v-706z
" />
    <glyph glyph-name="fl" unicode="fl" horiz-adv-x="1159" 
d="M1047 244q0 -42 7.5 -70t18.5 -41.5t21.5 -23.5t18 -23.5t7.5 -32.5q0 -24 -17.5 -41.5t-51.5 -17.5q-11 0 -60 3t-106 3t-106 -3t-60 -3q-34 0 -51 17.5t-17 41.5q0 23 11.5 39.5t24.5 26.5t24.5 42t11.5 83v934q0 49 -1 71.5t-6 49.5t-16 47q-21 37 -62 61.5t-89 24.5
q-65 0 -96 -48t-31 -124q0 -91 39 -224h149q47 0 47 -45q0 -29 -4 -65q-6 -49 -51 -49h-137v-633q0 -42 9.5 -69t23.5 -40t28 -22t23.5 -23.5t9.5 -36.5q0 -24 -18 -41.5t-52 -17.5q-10 0 -66 3t-122 3q-55 0 -104 -3t-60 -3q-33 0 -50 17t-17 42q0 19 7.5 32.5t18 23.5
t20.5 23.5t17.5 41.5t7.5 70v633h-80q-26 0 -37 12.5t-14 40.5q-4 36 -4 61q0 45 49 45h80q-22 96 -22 172q0 48 11 97t39 100.5t70 90.5t110.5 64t154.5 25q76 0 136 -19.5t99 -39t62 -19.5q17 0 89 33t101 33q62 0 62 -103v-1226z" />
    <glyph glyph-name=".notdef" horiz-adv-x="1536" 
 />
    <glyph glyph-name=".null" horiz-adv-x="0" 
 />
    <glyph glyph-name="nonmarkingreturn" horiz-adv-x="682" 
 />
    <glyph glyph-name="space" unicode=" " horiz-adv-x="335" 
 />
    <glyph glyph-name="exclam" unicode="!" horiz-adv-x="485" 
d="M242 457q-30 0 -44.5 13.5t-25.5 47.5q-28 76 -73.5 338t-45.5 404q0 120 44.5 184.5t146.5 64.5q101 0 144.5 -64.5t43.5 -184.5q0 -142 -45.5 -402t-73.5 -340q-11 -34 -26 -47.5t-45 -13.5zM254 299q-80 0 -131 -49.5t-51 -120.5q0 -68 41.5 -107.5t113.5 -39.5
q80 0 132.5 49t52.5 119q0 68 -43.5 108.5t-114.5 40.5z" />
    <glyph glyph-name="quotedbl" unicode="&#x22;" horiz-adv-x="688" 
d="M510 831q59 0 76 91l53 311q14 87 14 123q0 64 -38.5 102.5t-104.5 38.5q-64 0 -103.5 -39t-39.5 -102q0 -46 14 -123l55 -311q16 -91 74 -91zM176 825q60 0 76 90l53 312q14 87 14 123q0 64 -38.5 102.5t-104.5 38.5q-64 0 -103.5 -39t-39.5 -102q0 -46 14 -123l55 -312
q16 -90 74 -90z" />
    <glyph glyph-name="numbersign" unicode="#" horiz-adv-x="1095" 
d="M266 -10q-112 0 -98 102l35 250q3 17 -6 26t-25 9h-43q-57 0 -77 19t-13 77q7 60 32.5 80t84.5 20h47q14 0 24 9t11 22l34 254q3 17 -5.5 26t-24.5 9h-43q-57 0 -77 19t-13 77q7 61 32.5 81t83.5 20h47q14 0 24 8.5t11 21.5l35 254q8 55 35 79t86 24q108 0 94 -103
l-35 -250q-3 -16 6 -25t25 -9h90q14 0 24 8.5t11 21.5l35 254q8 55 35 79t86 24q108 0 94 -103l-35 -250q-3 -16 6 -25t25 -9h43q57 0 77 -19.5t13 -77.5q-7 -60 -32.5 -80t-84.5 -20h-47q-14 0 -24 -9t-11 -22l-35 -254q-3 -17 6 -26t25 -9h43q57 0 77 -19t13 -77
q-7 -60 -32.5 -80t-84.5 -20h-47q-14 0 -24 -9t-11 -22l-34 -254q-8 -55 -34 -78.5t-83 -23.5q-112 0 -98 102l34 250q3 17 -5.5 26t-24.5 9h-90q-14 0 -24 -9t-11 -22l-35 -254q-8 -56 -33 -79t-84 -23zM483 573h90q14 0 24 9t11 22l35 254q3 17 -6 26t-25 9h-90
q-14 0 -24 -9t-11 -22l-34 -254q-3 -17 5.5 -26t24.5 -9z" />
    <glyph glyph-name="dollar" unicode="$" horiz-adv-x="997" 
d="M629 938q40 -33 61 -50.5t60 -54.5t61 -64.5t51 -70.5t44 -82.5t26.5 -91.5t11.5 -106q0 -200 -109 -325.5t-266 -125.5h-12v-168q0 -42 -17 -65t-61 -23q-45 0 -61.5 23.5t-16.5 64.5v211q-34 15 -47 15q-15 0 -28 -12t-22 -26t-26 -26t-38 -12q-15 0 -27.5 6t-19.5 13
t-15 25t-11 27.5t-11 34.5l-60 197q-47 151 -47 197q0 34 17 52.5t43 18.5q24 0 40.5 -13t34.5 -42q36 -58 62 -97.5t61 -83.5t65 -70.5t66 -44t72 -17.5q125 0 125 131q0 68 -61.5 140.5t-198.5 186.5q-70 58 -116.5 104.5t-89 106t-63 128t-20.5 147.5q0 163 75 274
t212 129v143q0 42 17 65.5t63 23.5q43 0 59 -22.5t16 -66.5v-163q57 -21 62 -21q13 0 25 15.5t27 31t36 15.5q26 0 41.5 -16.5t38.5 -69.5l63 -148q68 -158 68 -194q0 -31 -18 -50.5t-44 -19.5q-34 0 -63 41q-89 124 -152.5 186t-124.5 62q-88 0 -88 -94q0 -26 12.5 -54
t27.5 -49.5t51.5 -55.5t60.5 -54.5t78 -65.5z" />
    <glyph glyph-name="percent" unicode="%" horiz-adv-x="1507" 
d="M346 686q-142 0 -227.5 117t-85.5 311q0 197 85.5 314.5t227.5 117.5q143 0 227 -117t84 -315q0 -196 -84 -312t-227 -116zM406 -35q-70 0 -70 68q0 60 53 174l565 1220q55 119 136 119q69 0 69 -67q0 -60 -53 -174l-565 -1221q-55 -119 -135 -119zM346 825q60 0 60 289
q0 291 -60 291q-31 0 -44 -67t-13 -224q0 -155 13 -222t44 -67zM1163 -16q-142 0 -227.5 117t-85.5 311q0 197 85.5 314.5t227.5 117.5q143 0 227.5 -117t84.5 -315q0 -196 -84.5 -312t-227.5 -116zM1163 123q60 0 60 289q0 152 -14.5 221t-45.5 69t-44 -66.5t-13 -223.5
q0 -155 13 -222t44 -67z" />
    <glyph glyph-name="ampersand" unicode="&#x26;" horiz-adv-x="1306" 
d="M1120 238q30 -40 74.5 -72.5t67 -55.5t22.5 -59q0 -57 -72 -57q-5 0 -43.5 3t-89.5 3q-59 0 -103.5 -3t-51.5 -3q-25 0 -42 4.5t-26 14.5t-12.5 17.5t-7.5 20.5q-8 26 -14 37t-23 33q-179 -152 -367 -152q-173 0 -284 101t-111 280q0 128 67 241t175 189
q-125 175 -125 348q0 174 106.5 274.5t284.5 100.5q156 0 233.5 -81t77.5 -220q0 -204 -205 -356l242 -314q111 214 111 441q0 180 -43 215q-31 26 -31 55q0 38 33 64q68 55 108 55q47 0 78 -96.5t31 -210.5q0 -377 -170 -674zM522 1341q-39 0 -60.5 -29.5t-21.5 -78.5
q0 -95 105 -246q61 100 61 209q0 145 -84 145zM360 453q0 -66 17.5 -114t45.5 -71.5t56 -34t58 -10.5q72 0 143 47l-279 353q-41 -98 -41 -170z" />
    <glyph glyph-name="quotesingle" unicode="'" horiz-adv-x="354" 
d="M176 825q60 0 76 90l53 312q14 87 14 123q0 64 -38.5 102.5t-104.5 38.5q-64 0 -103.5 -39t-39.5 -102q0 -46 14 -123l55 -312q16 -90 74 -90z" />
    <glyph glyph-name="parenleft" unicode="(" horiz-adv-x="634" 
d="M530 -203q-49 0 -110 33.5t-119 97.5q-40 45 -81.5 113.5t-83.5 164.5t-68.5 223t-26.5 259t26.5 259t68.5 223t83.5 164.5t81.5 113.5q58 64 119 97.5t110 33.5q70 0 70 -61q0 -11 -2 -21.5t-7 -25t-8 -22t-12.5 -27t-11.5 -25.5q-133 -295 -133 -709q0 -413 133 -708
q2 -6 11.5 -25.5t12.5 -27t8 -22t7 -25t2 -21.5q0 -62 -70 -62z" />
    <glyph glyph-name="parenright" unicode=")" horiz-adv-x="634" 
d="M104 -203q-69 0 -69 62q0 11 2 21.5t7 25t8 22t12.5 27t11.5 25.5q133 295 133 708q0 414 -133 709q-2 6 -11.5 25.5t-12.5 27t-8 22t-7 25t-2 21.5q0 61 69 61q49 0 110.5 -33.5t119.5 -97.5q40 -45 81.5 -113.5t83.5 -164.5t68.5 -223t26.5 -259t-26.5 -259t-68.5 -223
t-83.5 -164.5t-81.5 -113.5q-58 -64 -119.5 -97.5t-110.5 -33.5z" />
    <glyph glyph-name="asterisk" unicode="*" horiz-adv-x="868" 
d="M270 711q-43 0 -89 37t-46 77q0 31 23 60q37 47 127 116q12 10 12 21q0 17 -45 20q-64 5 -137 27q-68 21 -68 84q0 49 26.5 89t73.5 40q24 0 51 -13.5t64.5 -38t63.5 -36.5q12 -6 20 -6q10 0 10 10q0 6 -8 37q-24 94 -24 154q0 98 110 98q111 0 111 -98q0 -56 -25 -154
q-8 -31 -8 -37q0 -10 10 -10q9 0 21 6q26 13 63.5 37t64 37.5t50.5 13.5q47 0 73.5 -40t26.5 -89q0 -63 -67 -84q-72 -22 -138 -27q-45 -3 -45 -20q0 -11 13 -21q92 -71 127 -116q22 -27 22 -60q0 -40 -46 -77t-89 -37t-68 43q-32 50 -79 166q-6 16 -17 16q-10 0 -16 -16
q-46 -111 -80 -166q-25 -43 -68 -43z" />
    <glyph glyph-name="plus" unicode="+" horiz-adv-x="942" 
d="M471 123q-111 0 -111 80v301q0 31 -30 31h-199q-80 0 -80 106q0 107 80 107h199q30 0 30 30v281q0 80 111 80t111 -80v-281q0 -30 30 -30h199q80 0 80 -107q0 -106 -80 -106h-199q-30 0 -30 -31v-301q0 -80 -111 -80z" />
    <glyph glyph-name="comma" unicode="," horiz-adv-x="438" 
d="M225 322q85 0 128.5 -51.5t43.5 -151.5t-41.5 -199t-102.5 -160t-118 -61q-23 0 -37 15t-14 38q0 33 53 80q49 44 49 96q0 26 -13 41.5t-56 40.5q-84 47 -84 133q0 74 55.5 126.5t136.5 52.5z" />
    <glyph glyph-name="hyphen" unicode="-" horiz-adv-x="550" 
d="M139 406q-41 0 -61.5 21t-20.5 75v73q0 51 19 75t65 24h271q40 0 60 -22t20 -77v-73q0 -51 -18.5 -73.5t-63.5 -22.5h-271z" />
    <glyph glyph-name="hyphen" unicode="&#xad;" horiz-adv-x="550" 
d="M139 406q-41 0 -61.5 21t-20.5 75v73q0 51 19 75t65 24h271q40 0 60 -22t20 -77v-73q0 -51 -18.5 -73.5t-63.5 -22.5h-271z" />
    <glyph glyph-name="period" unicode="." horiz-adv-x="421" 
d="M223 322q-84 0 -137 -52.5t-53 -128.5q0 -74 43.5 -116.5t118.5 -42.5q84 0 138 52.5t54 127.5q0 73 -45 116.5t-119 43.5z" />
    <glyph glyph-name="slash" unicode="/" horiz-adv-x="608" 
d="M127 -63q-52 0 -75 13t-23 46q0 23 8 59l309 1331q11 51 44.5 70t90.5 19q53 0 76 -14t23 -46q0 -19 -9 -59l-309 -1333q-11 -45 -41.5 -65.5t-93.5 -20.5z" />
    <glyph glyph-name="zero" unicode="0" horiz-adv-x="1034" 
d="M506 -45q-135 0 -238 95.5t-160 272t-57 408.5q0 228 60.5 406t168.5 276t246 98q213 0 335 -207t122 -573q0 -228 -60.5 -405t-169 -274t-247.5 -97zM516 133q39 0 61.5 48t35 180t12.5 370q0 237 -12.5 369.5t-35 181.5t-61.5 49q-38 0 -60 -49t-34 -181.5t-12 -369.5
t12 -369t34 -180.5t60 -48.5z" />
    <glyph glyph-name="one" unicode="1" horiz-adv-x="696" 
d="M154 -6q-35 0 -53.5 18t-18.5 43q0 24 12.5 40t30 26.5t34.5 24.5t29.5 43t12.5 73v817q0 99 -49 99q-16 0 -44.5 -7.5t-46.5 -7.5q-27 0 -44 20.5t-17 55.5q0 51 61 74q14 5 60 20t106 37t133 51q41 16 81 34t57.5 25.5t35.5 13t33 5.5q29 0 48.5 -19t19.5 -48
q0 -27 -12 -50t-27 -38.5t-27 -44.5t-12 -66v-971q0 -44 12.5 -73t29.5 -43t34.5 -24.5t30 -26.5t12.5 -40q0 -25 -18.5 -43t-53.5 -18q-17 0 -83.5 3t-141.5 3t-141.5 -3t-83.5 -3z" />
    <glyph glyph-name="two" unicode="2" horiz-adv-x="970" 
d="M887 494q57 0 57 -70q0 -49 -41 -164l-74 -209q-20 -56 -38 -78t-50 -22q-21 0 -56.5 24.5t-78.5 24.5h-338q-15 0 -71.5 -3t-96.5 -3q-43 0 -66.5 23t-23.5 55q0 53 33 110q6 11 60.5 104.5t123.5 212t105 181.5q137 243 137 379q0 80 -26.5 128t-77.5 48
q-25 0 -46 -11.5t-41 -37.5t-32 -46.5t-33 -60.5q-29 -59 -80 -59q-70 0 -70 90q0 37 17 94q43 141 147.5 220t251.5 79q176 0 278.5 -110t102.5 -289q0 -128 -48.5 -229t-135.5 -209q-86 -106 -210 -231.5t-151 -155.5h260q142 0 236 157q35 58 76 58z" />
    <glyph glyph-name="three" unicode="3" horiz-adv-x="946" 
d="M547 924q103 -13 185 -83.5t123.5 -169t41.5 -204.5q0 -138 -56 -251t-165 -181t-252 -68q-151 0 -245.5 73t-133.5 187q-18 53 -18 111q0 39 21 61.5t54 22.5q48 0 84 -64q36 -69 75 -101t93 -32q56 0 99 55.5t43 190.5q0 110 -39 167.5t-105 57.5q-18 0 -42 -5t-36 -5
q-29 0 -46 22.5t-17 55.5q0 23 17 47t56 62.5t58 60.5q236 274 248 289h-184q-82 0 -121.5 -30.5t-102.5 -133.5q-32 -55 -71 -55q-24 0 -41 19t-17 52q0 35 33 150l55 186q8 25 11 35.5t10.5 28.5t14.5 25t18.5 13.5t25.5 6.5q26 0 64.5 -27t81.5 -27h266q16 0 65.5 3.5
t63.5 3.5q62 0 93.5 -30t31.5 -81q0 -65 -51 -125q-115 -136 -289 -313z" />
    <glyph glyph-name="four" unicode="4" horiz-adv-x="940" 
d="M821 592q43 0 59.5 -17t16.5 -77v-76q0 -57 -14.5 -75.5t-61.5 -18.5h-41v-80q0 -41 8 -69t19.5 -41.5t23 -23.5t19.5 -24t8 -35q0 -25 -18.5 -43t-53.5 -18q-12 0 -65 3t-119 3q-64 0 -125 -3t-71 -3q-36 0 -54 17.5t-18 43.5q0 22 9.5 37t22.5 25t26 23.5t22.5 40.5
t9.5 67v80h-303q-117 0 -117 100q0 85 68 252l262 649q33 82 75 113t117 31h117q73 0 105 -24t32 -87v-770h41zM442 1174l-213 -582h213v582z" />
    <glyph glyph-name="five" unicode="5" horiz-adv-x="913" 
d="M453 958q195 0 308 -134.5t113 -342.5q0 -226 -129.5 -372t-336.5 -146q-121 0 -213.5 51t-141.5 136q-35 58 -35 110q0 35 20.5 56.5t51.5 21.5q41 0 70 -43q69 -98 155 -98q72 0 116 62.5t44 178.5q0 113 -43.5 175.5t-122.5 62.5q-43 0 -95.5 -22.5t-72.5 -22.5
q-31 0 -49 24t-12 72l84 668q5 37 24.5 56t61.5 19h407q52 0 93 41q16 16 23 22t18 11.5t24 5.5q51 0 51 -53q0 -16 -15.5 -68.5t-29.5 -87.5l-33 -86q-16 -41 -46.5 -60t-88.5 -19h-334l-30 -242q82 24 164 24z" />
    <glyph glyph-name="six" unicode="6" horiz-adv-x="970" 
d="M618 993q147 0 236.5 -129.5t89.5 -355.5q0 -241 -126 -390t-318 -149q-226 0 -337.5 187t-111.5 534q0 173 31 318.5t91.5 257t158 174.5t223.5 63q125 0 205 -57q76 -51 76 -119q0 -33 -20.5 -54.5t-51.5 -21.5q-27 0 -68 23q-46 24 -84 24q-91 0 -140 -97t-58 -316
q72 108 204 108zM502 143q31 0 50.5 27.5t30.5 102t11 202.5q0 164 -26 238.5t-68 74.5q-18 0 -34 -12.5t-32 -42t-25.5 -89t-9.5 -142.5q0 -359 103 -359z" />
    <glyph glyph-name="seven" unicode="7" horiz-adv-x="813" 
d="M700 1473q103 0 103 -91q0 -29 -27 -143q-111 -461 -295 -1145q-14 -52 -40.5 -73t-82.5 -21h-139q-106 0 -106 78q0 25 13 57.5t43 89.5t40 78q247 516 383 879h-268q-54 0 -89 -33t-94 -127q-33 -55 -71 -55q-64 0 -64 71q0 31 37 150l68 223q16 56 35 82.5t51 26.5
q18 0 36 -13.5t43.5 -27t59.5 -13.5h209q15 0 78.5 3.5t76.5 3.5z" />
    <glyph glyph-name="eight" unicode="8" horiz-adv-x="972" 
d="M670 856q143 -118 201.5 -219.5t58.5 -222.5q0 -201 -125 -324t-320 -123q-188 0 -314 101t-126 276q0 256 217 377q-100 94 -141 181t-41 196q0 176 112.5 290.5t307.5 114.5q90 0 161.5 -26.5t114 -71.5t64.5 -100t22 -115q0 -116 -54.5 -199.5t-137.5 -134.5z
M492 1335q-41 0 -66 -32t-25 -86q0 -76 36.5 -136t103.5 -118q55 83 55 196q0 69 -27.5 122.5t-76.5 53.5zM487 143q48 0 81.5 43t33.5 121q0 46 -14 86t-45.5 77.5t-63 66.5t-84.5 71q-63 -110 -63 -231q0 -107 39.5 -170.5t115.5 -63.5z" />
    <glyph glyph-name="nine" unicode="9" horiz-adv-x="985" 
d="M483 1497q226 0 337.5 -187t111.5 -534q0 -134 -15.5 -249t-53 -220t-95 -179t-147.5 -117.5t-205 -43.5q-144 0 -242 68q-88 61 -88 133q0 34 20 57t50 23q25 0 77 -33q67 -43 132 -43q109 0 160 109t59 325q-72 -133 -219 -133t-236.5 129.5t-89.5 355.5q0 241 126 390
t318 149zM483 678q18 0 34 13t32 42.5t25.5 89t9.5 142.5q0 138 -12 218t-33 110t-56 30q-48 0 -71 -74.5t-23 -257.5q0 -124 13.5 -196t33 -94.5t47.5 -22.5z" />
    <glyph glyph-name="colon" unicode=":" horiz-adv-x="477" 
d="M258 948q-84 0 -136 -50t-52 -124q0 -72 43 -114t116 -42q83 0 137 51.5t54 125.5q0 70 -44.5 111.5t-117.5 41.5zM244 311q-83 0 -136 -50.5t-53 -123.5q0 -72 43.5 -113.5t118.5 -41.5q83 0 137 51.5t54 124.5q0 70 -45 111.5t-119 41.5z" />
    <glyph glyph-name="semicolon" unicode=";" horiz-adv-x="487" 
d="M242 936q-83 0 -136 -50.5t-53 -123.5q0 -72 43.5 -114t118.5 -42q83 0 137 51.5t54 124.5q0 70 -45 112t-119 42zM262 322q85 0 128.5 -51.5t43.5 -151.5t-41.5 -199t-102.5 -160t-118 -61q-23 0 -37 15t-14 38q0 33 53 80q49 44 49 96q0 26 -13 41.5t-56 40.5
q-84 47 -84 133q0 74 55.5 126.5t136.5 52.5z" />
    <glyph glyph-name="less" unicode="&#x3c;" horiz-adv-x="755" 
d="M655 164q-27 0 -57 20l-479 308q-25 16 -38.5 29.5t-24.5 41.5t-11 68q0 41 11.5 69.5t24 40.5t38.5 29l479 307q32 21 57 21q43 0 43 -76q0 -71 -15 -99t-67 -59l-372 -221q-8 -5 -8 -12q0 -8 8 -13l372 -221q48 -29 65 -57.5t17 -99.5q0 -76 -43 -76z" />
    <glyph glyph-name="equal" unicode="=" horiz-adv-x="974" 
d="M152 737q-34 0 -54 27t-20 82q0 104 74 104h671q74 0 74 -104q0 -55 -20 -82t-54 -27h-671zM152 315q-34 0 -54 27t-20 82q0 104 74 104h671q74 0 74 -104q0 -55 -20 -82t-54 -27h-671z" />
    <glyph glyph-name="greater" unicode="&#x3e;" horiz-adv-x="755" 
d="M100 164q-43 0 -43 76q0 71 17 99.5t65 57.5l373 221q8 5 8 13q0 7 -8 12l-373 221q-52 31 -67 59t-15 99q0 76 43 76q26 0 58 -21l479 -307q26 -17 38.5 -29t24 -40.5t11.5 -69.5q0 -40 -11 -68t-24.5 -41.5t-38.5 -29.5l-479 -308q-30 -20 -58 -20z" />
    <glyph glyph-name="question" unicode="?" horiz-adv-x="821" 
d="M358 422q-46 0 -57 47q-33 130 -33 242q0 80 20.5 133t92.5 143q145 180 145 279q0 43 -20 66.5t-55 23.5q-116 0 -168 -244q-13 -61 -64 -61q-25 0 -65 30q-127 97 -127 181q0 40 31.5 84t83 80.5t126 60.5t152.5 24q69 0 133 -20.5t116.5 -59.5t83.5 -104t31 -147
q0 -63 -16.5 -121.5t-50 -112t-63.5 -91t-76 -87.5q-77 -82 -98.5 -109.5t-30.5 -58.5q-19 -64 -33 -131q-11 -47 -58 -47zM381 281q-75 0 -123.5 -46t-48.5 -112t39 -103.5t108 -37.5q75 0 123.5 46t48.5 113q0 64 -40.5 102t-106.5 38z" />
    <glyph glyph-name="at" unicode="@" horiz-adv-x="1712" 
d="M932 1337q224 0 393 -94t256.5 -255t87.5 -365q0 -154 -40 -283t-107 -213t-154 -130t-182 -46q-81 0 -136.5 40t-82.5 113q-42 -58 -102.5 -90t-125.5 -32q-123 0 -200.5 106t-77.5 277q0 250 105 412.5t263 162.5q52 0 101.5 -20.5t84.5 -41t52 -20.5q24 0 61 31t58 31
q28 0 39.5 -18t9.5 -56l-27 -512q-1 -26 -3.5 -63.5t-2.5 -47.5q0 -90 47 -90q68 0 119 121t51 324q0 296 -134 448t-374 152q-172 0 -311 -103.5t-217 -281.5t-78 -394q0 -280 148.5 -448t380.5 -168q89 0 187.5 24.5t104.5 24.5q52 0 52 -53q0 -31 -22 -52.5t-79 -50.5
q-43 -22 -134.5 -41.5t-188.5 -19.5q-145 0 -275.5 53.5t-229 149.5t-156.5 240.5t-58 316.5q0 130 29.5 253.5t84.5 229.5t135.5 195t178.5 151.5t218 97.5t251 35zM860 186q46 0 67 58.5t29 187.5q5 82 5 133q0 111 -23.5 170.5t-65.5 59.5q-48 0 -75 -95t-27 -231
q0 -135 23 -209t67 -74z" />
    <glyph glyph-name="A" unicode="A" horiz-adv-x="1130" 
d="M1028 244q7 -35 20 -61.5t26 -40.5t25 -25.5t19.5 -25t7.5 -30.5q0 -30 -18.5 -48.5t-54.5 -18.5q-1 0 -62 3t-127 3q-64 0 -135 -3t-90 -3q-38 0 -61 15.5t-23 45.5q0 22 14.5 38.5t32.5 25.5t32.5 30t14.5 52q0 36 -10 84l-21 110q-7 37 -21 47.5t-48 10.5h-148
q-33 0 -47.5 -13.5t-23.5 -52.5l-21 -98q-10 -49 -10 -88q0 -31 15 -52t33 -30t33 -25.5t15 -38.5q0 -29 -22 -45t-62 -16q-26 0 -65.5 3t-61.5 3q-30 0 -72.5 -3t-70.5 -3q-64 0 -64 57q0 19 9.5 32.5t25 25.5t32.5 27.5t33.5 46t26.5 73.5l177 797q7 32 19.5 90t22.5 105
t17 89q8 49 18 74t35 43t65 23.5t111 5.5q95 0 139 -13t61 -41t28 -94q4 -25 57 -282zM532 618q44 0 35 52l-84 442l-92 -438q-12 -56 35 -56h106z" />
    <glyph glyph-name="B" unicode="B" horiz-adv-x="1157" 
d="M870 788q119 -53 183.5 -154t64.5 -222q0 -89 -26 -163.5t-79.5 -133t-142.5 -91t-206 -32.5q-32 0 -164 4t-189 4q-67 0 -120 -3t-66 -3q-34 0 -52 17.5t-18 43.5t12 43.5t26 27.5t26 40.5t12 79.5v977q0 48 -12 78.5t-26 40.5t-26 27.5t-12 43.5t18 43t52 17
q13 0 66 -3.5t120 -3.5q52 0 156 5.5t156 5.5q194 0 310 -110.5t116 -276.5q0 -96 -45 -179.5t-134 -122.5zM487 1219v-308q0 -31 11.5 -42t36.5 -11h8q56 0 91.5 52t35.5 167t-38.5 174.5t-78.5 59.5h-4q-62 0 -62 -92zM578 158q71 0 113 71t42 185q0 280 -184 280h-8
q-28 0 -41 -11t-13 -42v-391q0 -92 74 -92h17z" />
    <glyph glyph-name="B" unicode="&#xe000;" horiz-adv-x="1157" 
d="M870 788q119 -53 183.5 -154t64.5 -222q0 -89 -26 -163.5t-79.5 -133t-142.5 -91t-206 -32.5q-32 0 -164 4t-189 4q-67 0 -120 -3t-66 -3q-34 0 -52 17.5t-18 43.5t12 43.5t26 27.5t26 40.5t12 79.5v977q0 48 -12 78.5t-26 40.5t-26 27.5t-12 43.5t18 43t52 17
q13 0 66 -3.5t120 -3.5q52 0 156 5.5t156 5.5q194 0 310 -110.5t116 -276.5q0 -96 -45 -179.5t-134 -122.5zM487 1219v-308q0 -31 11.5 -42t36.5 -11h8q56 0 91.5 52t35.5 167t-38.5 174.5t-78.5 59.5h-4q-62 0 -62 -92zM578 158q71 0 113 71t42 185q0 280 -184 280h-8
q-28 0 -41 -11t-13 -42v-391q0 -92 74 -92h17z" />
    <glyph glyph-name="C" unicode="C" horiz-adv-x="1007" 
d="M553 -43q-157 0 -271.5 95t-173.5 262.5t-59 387.5q0 216 62.5 402t173 296.5t241.5 110.5q49 0 90.5 -12.5t68 -24.5t38.5 -12t24 14.5t28.5 29t37.5 14.5q61 0 82 -111l55 -270q17 -87 17 -103q0 -35 -20.5 -53t-45.5 -18q-22 0 -36 13t-29 40q-6 11 -17 31
q-31 57 -47 85t-42.5 69.5t-45 60.5t-42 34t-46.5 15q-158 0 -158 -580q0 -575 195 -575q82 0 128.5 75.5t61.5 196.5q5 40 24 63t50 23q35 0 54.5 -26.5t19.5 -71.5q0 -220 -112.5 -340.5t-305.5 -120.5z" />
    <glyph glyph-name="D" unicode="D" horiz-adv-x="1218" 
d="M606 -8q-31 0 -133 4t-164 4q-65 0 -118 -3t-66 -3q-34 0 -52 17.5t-18 43.5t12 43.5t26 27.5t26 40.5t12 79.5v975q0 40 -8 67t-19 40t-22 23t-19 24t-8 36q0 26 18 44t52 18q13 0 66 -3.5t118 -3.5q47 0 134 8.5t120 8.5q270 0 439 -210t169 -558q0 -214 -66 -376.5
t-194.5 -254.5t-304.5 -92zM559 156h12q108 0 159.5 133t51.5 420q0 291 -61 439t-154 148h-8q-36 0 -54 -21t-18 -75v-948q0 -47 15.5 -71.5t56.5 -24.5z" />
    <glyph glyph-name="E" unicode="E" horiz-adv-x="1046" 
d="M985 483q25 0 41 -18.5t16 -50.5q0 -53 -38 -160l-72 -205q-20 -55 -36 -76.5t-48 -21.5q-22 0 -59.5 24.5t-79.5 24.5h-398q-67 0 -120 -3t-66 -3q-34 0 -52 17.5t-18 43.5q0 25 12 42.5t26 27.5t26 41t12 80v975q0 40 -8 67t-19 40t-22 23t-19 24t-8 36q0 26 18 44
t52 18q11 0 65 -3.5t121 -3.5h348q33 0 57.5 13.5t44 27t40.5 13.5q30 0 46 -22.5t38 -86.5l63 -186q43 -125 43 -156q0 -30 -19 -50t-44 -20q-21 0 -35.5 11.5t-36.5 44.5q-97 148 -152.5 198t-119.5 50h-23q-74 0 -74 -99v-325q0 -54 43 -54h13q20 0 37.5 23t28.5 51
t30.5 51t44.5 23q55 0 55 -80q0 -23 -2 -74t-2 -76q0 -26 2 -76.5t2 -74.5q0 -80 -55 -80q-25 0 -44 23.5t-29.5 51.5t-28.5 51.5t-41 23.5h-11q-43 0 -43 -54v-346q0 -52 17.5 -75t58.5 -23h51q28 0 52.5 6.5t50 26t43.5 35.5t47 54.5t45 61.5t53 78q19 29 36.5 43t43.5 14
z" />
    <glyph glyph-name="E" unicode="&#xe001;" horiz-adv-x="1046" 
d="M985 483q25 0 41 -18.5t16 -50.5q0 -53 -38 -160l-72 -205q-20 -55 -36 -76.5t-48 -21.5q-22 0 -59.5 24.5t-79.5 24.5h-398q-67 0 -120 -3t-66 -3q-34 0 -52 17.5t-18 43.5q0 25 12 42.5t26 27.5t26 41t12 80v975q0 40 -8 67t-19 40t-22 23t-19 24t-8 36q0 26 18 44
t52 18q11 0 65 -3.5t121 -3.5h348q33 0 57.5 13.5t44 27t40.5 13.5q30 0 46 -22.5t38 -86.5l63 -186q43 -125 43 -156q0 -30 -19 -50t-44 -20q-21 0 -35.5 11.5t-36.5 44.5q-97 148 -152.5 198t-119.5 50h-23q-74 0 -74 -99v-325q0 -54 43 -54h13q20 0 37.5 23t28.5 51
t30.5 51t44.5 23q55 0 55 -80q0 -23 -2 -74t-2 -76q0 -26 2 -76.5t2 -74.5q0 -80 -55 -80q-25 0 -44 23.5t-29.5 51.5t-28.5 51.5t-41 23.5h-11q-43 0 -43 -54v-346q0 -52 17.5 -75t58.5 -23h51q28 0 52.5 6.5t50 26t43.5 35.5t47 54.5t45 61.5t53 78q19 29 36.5 43t43.5 14
z" />
    <glyph glyph-name="F" unicode="F" horiz-adv-x="989" 
d="M952 1225q39 -112 39 -158q0 -32 -15.5 -50t-45.5 -18q-35 0 -70 56q-85 140 -140 194t-120 54h-37q-40 0 -58 -24t-18 -75v-356q0 -31 11.5 -42t36.5 -11h30q25 0 46 24t33 53.5t32 53.5t43 24q30 0 42.5 -19t12.5 -63q0 -24 -2 -77t-2 -78q0 -26 2 -81t2 -79
q0 -44 -12.5 -63t-42.5 -19q-23 0 -43 25t-32 55t-33 55t-46 25h-30q-25 0 -36.5 -12t-11.5 -41v-332q0 -34 7 -59t17 -37.5t22.5 -23.5t22.5 -18.5t17 -21t7 -31.5q0 -25 -18 -43t-52 -18q-12 0 -68 3t-125 3q-67 0 -123.5 -3t-66.5 -3q-36 0 -54 17.5t-18 43.5t12 43.5
t26 27.5t26 40.5t12 79.5v975q0 40 -8 67t-19 40t-22 23t-19 24t-8 36q0 26 18 44t52 18q13 0 66 -3.5t120 -3.5h353q43 0 79 25t56 25q31 0 50 -23t40 -82z" />
    <glyph glyph-name="G" unicode="G" horiz-adv-x="1132" 
d="M600 -43q-142 0 -247.5 51t-172 149t-99 234t-32.5 311q0 189 42 343.5t115 255.5t170.5 155.5t209.5 54.5q49 0 90 -12.5t66.5 -24.5t37.5 -12t25 14.5t29.5 29t37.5 14.5q35 0 52 -28t30 -83l62 -270q16 -72 16 -103q0 -35 -20 -53t-45 -18q-44 0 -74 55
q-9 17 -26.5 50t-27 50.5t-26 46.5t-27.5 45t-27 37.5t-29.5 33.5t-30 24t-33.5 17t-35 5q-193 0 -193 -635q0 -137 8.5 -234t29.5 -171t58 -110t91 -36q33 0 45 15t12 51v274q0 40 -7.5 67.5t-18 41t-21 24t-18 24.5t-7.5 34q0 25 19 43t51 18h352q34 0 52 -17.5t18 -43.5
q0 -23 -11.5 -40t-25.5 -28.5t-25.5 -43t-11.5 -79.5v-223q0 -43 11 -69.5t21.5 -43t10.5 -34.5q0 -25 -12.5 -39.5t-46.5 -32.5q-61 -33 -174 -58.5t-238 -25.5z" />
    <glyph glyph-name="H" unicode="H" horiz-adv-x="1241" 
d="M1110 246q0 -40 8 -67t19.5 -40t23 -23t19.5 -24.5t8 -36.5q0 -26 -18.5 -43.5t-53.5 -17.5q-10 0 -64 3t-120 3q-64 0 -118 -3t-64 -3q-36 0 -54 17.5t-18 43.5t12 43.5t26 27.5t26 40.5t12 79.5v360q0 30 -11 41.5t-36 11.5h-172q-24 0 -36 -11.5t-12 -41.5v-360
q0 -40 8 -67t19.5 -40t23 -23t19.5 -24.5t8 -36.5q0 -26 -18 -43.5t-53 -17.5q-10 0 -64 3t-119 3q-66 0 -120 -3t-64 -3q-36 0 -54 17.5t-18 43.5t12 43.5t26 27.5t26 40.5t12 79.5v975q0 40 -8 67t-19 40t-22 22.5t-19 23.5t-8 35q0 27 21.5 45.5t58.5 18.5q11 0 61 -3.5
t115 -3.5t119 3.5t64 3.5q35 0 53 -17.5t18 -44.5q0 -22 -8 -36t-19.5 -24t-23 -23t-19.5 -40t-8 -67v-338q0 -31 11.5 -42.5t36.5 -11.5h172q26 0 36.5 11.5t10.5 42.5v338q0 40 -8 67t-19 40t-22 23t-19 24t-8 36q0 26 18 44t54 18q10 0 64 -3.5t118 -3.5q66 0 120 3.5
t64 3.5q35 0 53.5 -18t18.5 -44q0 -22 -8 -36t-19.5 -24t-23 -23t-19.5 -40t-8 -67v-975z" />
    <glyph glyph-name="I" unicode="I" horiz-adv-x="618" 
d="M127 -6q-36 0 -54 17.5t-18 43.5t12 43.5t26 27.5t26 40.5t12 79.5v968q0 49 -12 79.5t-26 40.5t-26 27.5t-12 43.5q0 25 22.5 43t57.5 18q11 0 61 -3t115 -3t119 3t64 3q35 0 53 -17.5t18 -43.5q0 -22 -8 -36.5t-19.5 -24.5t-23 -23t-19.5 -40t-8 -67v-968q0 -40 8 -67
t19.5 -40t23 -23t19.5 -24.5t8 -36.5q0 -26 -18 -43.5t-53 -17.5q-10 0 -64 3t-119 3q-66 0 -120 -3t-64 -3z" />
    <glyph glyph-name="J" unicode="J" horiz-adv-x="905" 
d="M406 -31q-101 0 -194.5 30.5t-151.5 81.5t-58 107q0 36 63 234q7 22 11 33q30 90 82 90q53 0 63 -72q27 -189 56 -260.5t75 -71.5q43 0 63.5 46t20.5 167v860q0 40 -9.5 67t-22.5 40t-26 22.5t-22.5 24.5t-9.5 37q0 26 20.5 43.5t55.5 17.5q12 0 67 -3t123 -3q66 0 120 3
t65 3q34 0 52.5 -17.5t18.5 -43.5q0 -22 -7.5 -36.5t-19 -24.5t-22.5 -23t-18.5 -40t-7.5 -67v-860q0 -385 -387 -385z" />
    <glyph glyph-name="K" unicode="K" horiz-adv-x="1196" 
d="M1104 240q16 -42 37.5 -72t36.5 -42.5t25.5 -31t10.5 -43.5q0 -24 -17.5 -40.5t-51.5 -16.5q-13 0 -79 3t-130 3q-62 0 -113 -3t-71 -3q-82 0 -82 61q0 34 30.5 63t30.5 70q0 31 -20 86l-138 379l-86 -121v-286q0 -40 8 -67t19.5 -40t23 -23t19.5 -24.5t8 -36.5
q0 -26 -18 -43.5t-53 -17.5q-10 0 -64 3t-119 3q-66 0 -120 -3t-64 -3q-36 0 -54 17.5t-18 43.5t12 43.5t26 27.5t26 40.5t12 79.5v968q0 49 -12 79.5t-26 40.5t-26 27.5t-12 43.5q0 25 22.5 43t57.5 18q11 0 61 -3t115 -3t119 3t64 3q35 0 53 -17.5t18 -43.5
q0 -22 -8 -36.5t-19.5 -24.5t-23 -23t-19.5 -40t-8 -67v-370l273 379q33 46 33 75q0 13 -15 25t-32.5 20t-32.5 23.5t-15 36.5q0 30 23 45.5t61 15.5q27 0 86 -3t76 -3q19 0 83 3t93 3q26 0 41 -14.5t15 -38.5q0 -27 -16.5 -42.5t-39 -23t-54.5 -29t-56 -54.5l-195 -273z
" />
    <glyph glyph-name="L" unicode="L" horiz-adv-x="983" 
d="M774 -49q-19 0 -54 24.5t-77 24.5h-332q-67 0 -120 -3t-66 -3q-34 0 -52 17.5t-18 43.5t12 43.5t26 27.5t26 40.5t12 79.5v968q0 49 -12 79.5t-26 40.5t-26 27.5t-12 43.5q0 25 22.5 43t57.5 18q11 0 61 -3t115 -3t119 3t64 3q35 0 53 -17.5t18 -43.5q0 -22 -8 -36.5
t-19.5 -24.5t-23 -23t-19.5 -40t-8 -67v-960q0 -45 16.5 -67.5t59.5 -22.5h6q59 0 121.5 65t155.5 207q38 58 78 58q57 0 57 -64q0 -45 -43 -170l-72 -209q-18 -53 -38 -76.5t-54 -23.5z" />
    <glyph glyph-name="M" unicode="M" horiz-adv-x="1552" 
d="M1427 227q3 -33 15.5 -55.5t27 -34t29 -22t24 -26t9.5 -38.5q0 -26 -16.5 -41.5t-49.5 -15.5q-17 0 -80 3t-112 3q-51 0 -121 -3t-90 -3q-38 0 -60 15t-22 42t15 44.5t33 25t33 26.5t15 48q0 27 -4 77l-47 584l-211 -672q-14 -45 -38 -66.5t-64 -21.5q-38 0 -58 18.5
t-39 69.5l-239 684l-55 -575q-7 -82 -7 -90q0 -30 15 -50t33.5 -28.5t33.5 -26t15 -43.5q0 -29 -22 -45t-58 -16q-25 0 -67.5 3t-63.5 3q-23 0 -63 -3t-56 -3q-72 0 -72 61q0 20 10.5 34t26.5 25t32.5 24t30 38.5t17.5 61.5l100 901q4 43 4 94q0 37 -13.5 64t-29.5 40
t-29.5 32t-13.5 42q0 28 18 45t54 17q11 0 70 -3.5t116 -3.5q49 0 108 3.5t77 3.5q32 0 50.5 -18.5t18.5 -43.5t-11 -43.5t-23.5 -29.5t-23.5 -32t-11 -49q0 -41 18 -96l185 -551l167 553q21 69 21 94q0 29 -10.5 49.5t-22.5 30.5t-22.5 29t-10.5 45t20 44t56 18
q19 0 63 -3.5t97 -3.5q47 0 99 3.5t65 3.5q33 0 50 -16.5t17 -41.5q0 -28 -15 -48t-30.5 -45t-15.5 -67q0 -22 16 -172z" />
    <glyph glyph-name="N" unicode="N" horiz-adv-x="1126" 
d="M1020 1473q35 0 52.5 -17.5t17.5 -44.5q0 -22 -8.5 -36t-21 -24t-25 -23t-21 -40t-8.5 -67v-1131q0 -110 -93 -110q-43 0 -68.5 18.5t-47.5 58.5l-480 889v-700q0 -37 12 -62t28.5 -38t33.5 -23.5t29 -27t12 -40.5q0 -29 -22.5 -45t-59.5 -16q-25 0 -62 3t-52 3
q-18 0 -57.5 -3t-61.5 -3q-35 0 -52.5 18t-17.5 43q0 26 13.5 43.5t29.5 27.5t29.5 40.5t13.5 79.5v975q0 40 -9 67t-21.5 40t-25 23t-21.5 24t-9 36q0 27 22 44.5t58 17.5q23 0 67.5 -3.5t59.5 -3.5q24 0 63 3.5t60 3.5q36 0 56.5 -16t37.5 -48l350 -686v498
q0 39 -11.5 64.5t-28 37.5t-33 21.5t-28 25.5t-11.5 41q0 26 21.5 44t55.5 18q25 0 64 -3.5t55 -3.5t55 3.5t60 3.5z" />
    <glyph glyph-name="O" unicode="O" horiz-adv-x="1183" 
d="M588 -43q-252 0 -396.5 199.5t-144.5 550.5q0 232 71.5 416t197.5 286t284 102q123 0 225.5 -63.5t170 -172.5t104.5 -253.5t37 -306.5q0 -228 -65.5 -399t-190 -265t-293.5 -94zM594 133q48 0 79.5 40.5t48 122t22.5 178t6 235.5q0 80 -2 145.5t-7.5 141t-16.5 131.5
t-27.5 104t-42.5 73t-60 25t-60 -25t-43 -72.5t-28 -103.5t-17 -130.5t-8 -141t-2 -147.5q0 -100 4 -180t14.5 -156.5t28 -127.5t45.5 -81.5t66 -30.5z" />
    <glyph glyph-name="P" unicode="P" horiz-adv-x="1093" 
d="M547 1477q260 0 395 -137.5t135 -370.5q0 -227 -125 -368.5t-358 -141.5q-14 0 -31 0.5t-25.5 1t-19 0t-15 -2.5t-9 -6.5t-6 -11.5t-1.5 -18v-176q0 -40 10.5 -66t25.5 -38t29.5 -21.5t25 -25.5t10.5 -40q0 -25 -18.5 -43t-53.5 -18q-12 0 -73.5 3t-131.5 3
q-66 0 -120 -3t-64 -3q-36 0 -54 17.5t-18 43.5t12 43.5t26 27.5t26 40.5t12 79.5v975q0 40 -8 67t-19 40t-22 23t-19 24t-8 36q0 25 23 43.5t57 18.5q12 0 60.5 -3.5t111.5 -3.5q27 0 112 5.5t128 5.5zM547 629q70 0 107.5 85t37.5 242q0 168 -40.5 262.5t-102.5 94.5
t-62 -96v-506q0 -47 16 -64.5t44 -17.5z" />
    <glyph glyph-name="Q" unicode="Q" horiz-adv-x="1185" 
d="M1028 43q23 0 38 -15t15 -38q0 -59 -110 -215q-59 -82 -135 -82q-91 0 -153 66.5t-79 197.5h-12q-255 0 -400 199t-145 551q0 232 71 416t196.5 286t281.5 102q125 0 228.5 -63.5t171 -172.5t104.5 -253t37 -307q0 -266 -89.5 -454t-250.5 -261q19 -55 59 -55
q28 0 57.5 24.5l59 49t55.5 24.5zM436 709q0 -100 4 -180t14.5 -156.5t28 -127.5t45.5 -81.5t66 -30.5h2q-2 106 -13 165.5t-23 75t-32 19.5q-10 2 -26 2q-23 0 -23 29q0 33 30 60.5t71 27.5q114 0 149 -176q21 129 21 373q0 80 -2 145.5t-7.5 141t-16.5 131.5t-27.5 104
t-42.5 73t-60 25t-60 -25t-43 -72.5t-28 -103.5t-17 -130.5t-8 -141t-2 -147.5z" />
    <glyph glyph-name="R" unicode="R" horiz-adv-x="1181" 
d="M1014 297q19 -51 42.5 -89t42 -56.5t34.5 -33.5t25 -31t9 -38q0 -24 -17 -39.5t-44 -15.5q-23 0 -83 3t-112 3q-54 0 -115 -3t-75 -3q-72 0 -72 61q0 19 7.5 33t17 22t17 25t7.5 43q0 14 -1 25.5t-4.5 26t-5.5 21.5t-8.5 27.5t-8.5 28.5l-49 152q-20 61 -68 61h-31
q-20 0 -27.5 -11t-7.5 -36v-227q0 -49 12 -79.5t26 -40.5t26 -27.5t12 -43.5t-16 -43.5t-51 -17.5q-10 0 -65 3t-120 3q-66 0 -120 -3t-64 -3q-36 0 -54 17.5t-18 43.5t12 43.5t26 27.5t26 40.5t12 79.5v975q0 40 -8 67.5t-19 41t-22 24t-19 24t-8 33.5q0 27 20 44.5
t60 17.5q11 0 62.5 -3.5t91.5 -3.5q46 0 134.5 5.5t127.5 5.5q110 0 200.5 -26t153 -71t105 -108.5t62.5 -137t20 -157.5q0 -280 -185 -391zM549 684q156 0 156 297q0 150 -49 233.5t-111 83.5q-58 0 -58 -73v-469q0 -41 15.5 -56.5t46.5 -15.5z" />
    <glyph glyph-name="S" unicode="S" horiz-adv-x="1017" 
d="M233 -51q-32 0 -49.5 24t-36.5 82l-63 197q-49 149 -49 197q0 35 17 55t44 20q24 0 41 -14.5t37 -44.5q30 -45 43 -64t42.5 -60t47.5 -61t47.5 -49.5t53.5 -43t54 -24.5t60 -11q65 0 105 41t39 108q0 24 -5.5 45t-21 43.5t-28 37.5t-43 40.5t-49.5 40.5t-64 48.5
t-70 53.5q-76 58 -125.5 104.5t-96 106t-69 128t-22.5 147.5q0 172 98.5 288.5t251.5 116.5q59 0 118 -21.5t66 -21.5q12 0 21.5 9.5t15.5 21.5t19 21.5t30 9.5q52 0 88 -86l66 -148l24 -54t21.5 -48.5t13.5 -33.5t10.5 -33.5t2.5 -24.5q0 -31 -18.5 -50.5t-45.5 -19.5
q-37 0 -66 41q-49 65 -77 99.5t-67 74.5t-74 57t-72 17q-52 0 -80.5 -32t-28.5 -71q0 -20 7 -39.5t26.5 -43t34.5 -40t52 -47t57 -45.5t69 -53q14 -11 43.5 -33t47 -35t46 -37t46 -41.5t42 -45t39.5 -52t32 -57t26.5 -65.5t15.5 -73t6 -83q0 -201 -115 -326t-282 -125
q-54 0 -102 14.5t-80.5 29t-47.5 14.5t-29 -12t-23.5 -26t-27 -26t-39.5 -12z" />
    <glyph glyph-name="S" unicode="&#xe002;" horiz-adv-x="1017" 
d="M233 -51q-32 0 -49.5 24t-36.5 82l-63 197q-49 149 -49 197q0 35 17 55t44 20q24 0 41 -14.5t37 -44.5q30 -45 43 -64t42.5 -60t47.5 -61t47.5 -49.5t53.5 -43t54 -24.5t60 -11q65 0 105 41t39 108q0 24 -5.5 45t-21 43.5t-28 37.5t-43 40.5t-49.5 40.5t-64 48.5
t-70 53.5q-76 58 -125.5 104.5t-96 106t-69 128t-22.5 147.5q0 172 98.5 288.5t251.5 116.5q59 0 118 -21.5t66 -21.5q12 0 21.5 9.5t15.5 21.5t19 21.5t30 9.5q52 0 88 -86l66 -148l24 -54t21.5 -48.5t13.5 -33.5t10.5 -33.5t2.5 -24.5q0 -31 -18.5 -50.5t-45.5 -19.5
q-37 0 -66 41q-49 65 -77 99.5t-67 74.5t-74 57t-72 17q-52 0 -80.5 -32t-28.5 -71q0 -20 7 -39.5t26.5 -43t34.5 -40t52 -47t57 -45.5t69 -53q14 -11 43.5 -33t47 -35t46 -37t46 -41.5t42 -45t39.5 -52t32 -57t26.5 -65.5t15.5 -73t6 -83q0 -201 -115 -326t-282 -125
q-54 0 -102 14.5t-80.5 29t-47.5 14.5t-29 -12t-23.5 -26t-27 -26t-39.5 -12z" />
    <glyph glyph-name="T" unicode="T" horiz-adv-x="1099" 
d="M348 -6q-33 0 -51 18t-18 43q0 24 9.5 40t23.5 25.5t28 21.5t23.5 38t9.5 66v960q0 48 -10.5 72.5t-38.5 24.5h-5q-10 0 -19 -4.5t-20.5 -16.5t-21.5 -24.5t-25.5 -36t-27.5 -43t-33.5 -54.5t-38.5 -61q-16 -27 -32.5 -41t-43.5 -14q-24 0 -43.5 17.5t-19.5 49.5
q0 11 1 21.5t5 27t6.5 26t10 36t10.5 39.5l53 186q18 61 33.5 83t46.5 22q21 0 58.5 -25t78.5 -25h502q43 0 80 25t57 25q33 0 48.5 -21.5t33.5 -83.5l53 -186q33 -112 33 -150q0 -32 -19.5 -49.5t-42.5 -17.5q-25 0 -40.5 12t-34.5 41q-18 28 -46.5 76t-42.5 70t-33.5 48.5
t-34.5 37t-30 10.5h-6q-25 0 -36 -22t-11 -75v-960q0 -48 14.5 -77t31.5 -38.5t31.5 -28t14.5 -47.5q0 -26 -18 -43.5t-53 -17.5q-9 0 -68 3t-131 3q-71 0 -131.5 -3t-69.5 -3z" />
    <glyph glyph-name="U" unicode="U" horiz-adv-x="1075" 
d="M541 -43q-211 0 -332 109t-121 329q0 51 4 137l31 623q4 70 4 88q0 31 -8 54.5t-15.5 31.5t-21.5 21q-33 26 -33 61q0 26 18.5 44t53.5 18q10 0 63.5 -3.5t118.5 -3.5t123 3.5t70 3.5q34 0 51.5 -18t17.5 -44q0 -17 -5 -30.5t-9.5 -18.5t-15.5 -16q-1 -1 -8 -7.5
t-9.5 -10t-9 -11.5t-9.5 -15.5t-7 -19t-6 -26.5t-3 -33l-28 -695q-6 -129 -6 -143q0 -217 174 -217q73 0 124.5 52t51.5 163q0 25 -4 123l-33 717q-2 34 -13.5 57.5t-22.5 33.5t-34 25q-2 1 -10 5.5t-10 6.5t-8.5 6.5t-9 9t-6 11t-4.5 15t-1 18.5q0 25 22.5 43.5t59.5 18.5
q23 0 62.5 -3.5t58.5 -3.5q18 0 56 3.5t59 3.5q35 0 53 -17.5t18 -44.5q0 -34 -35 -61q-17 -13 -25.5 -22.5t-17 -31.5t-8.5 -53q0 -18 4 -88l31 -645q4 -66 4 -125q0 -226 -114.5 -327t-329.5 -101z" />
    <glyph glyph-name="V" unicode="V" horiz-adv-x="1161" 
d="M1100 1473q38 0 56 -15.5t18 -40.5q0 -24 -11.5 -40.5t-29.5 -28.5t-37 -25.5t-36.5 -40.5t-25.5 -65l-243 -1117q-14 -69 -57 -96t-161 -27q-82 0 -126.5 14.5t-60.5 38t-26 70.5l-245 1114q-8 38 -24 65t-33 41t-33 26t-26.5 28.5t-10.5 40.5q0 25 17 41.5t46 16.5
q24 0 95 -3.5t133 -3.5q67 0 139 3.5t84 3.5q76 0 76 -64q0 -24 -9.5 -40.5t-23 -26.5t-27.5 -20.5t-23.5 -29.5t-9.5 -45q0 -38 17 -125l162 -800l170 800q22 112 22 142q0 29 -18 47t-39.5 25.5t-39.5 25.5t-18 47q0 64 72 64q27 0 79.5 -3.5t70.5 -3.5q19 0 64 3.5
t73 3.5z" />
    <glyph glyph-name="W" unicode="W" horiz-adv-x="1687" 
d="M1638 1473q32 0 49 -14.5t17 -37.5q0 -22 -10.5 -37t-26.5 -26t-33 -24.5t-33 -40t-24 -64.5l-238 -1157q-10 -52 -51 -73.5t-127 -21.5q-83 0 -124.5 21.5t-51.5 73.5l-131 657l-156 -657q-12 -52 -52.5 -73.5t-125.5 -21.5q-83 0 -124.5 21.5t-51.5 73.5l-244 1155
q-10 45 -30.5 76t-39 43t-32.5 30.5t-14 44.5q0 22 19.5 37t45.5 15q20 0 86.5 -3.5t130.5 -3.5q51 0 112.5 3.5t84.5 3.5q36 0 56 -16t20 -44q0 -23 -12.5 -39.5t-27.5 -25.5t-27.5 -29.5t-12.5 -50.5q0 -39 14 -107l145 -727l162 666l-26 127q-9 45 -29 75.5t-38 42
t-32 28.5t-14 40q0 26 15 43t40 17q22 0 84 -3.5t125 -3.5q56 0 116 3.5t81 3.5q76 0 76 -60q0 -23 -14.5 -39.5t-32 -25.5t-32 -29.5t-14.5 -50.5q0 -28 15 -107l133 -719l141 703q17 87 17 123q0 30 -12 50.5t-27 29.5t-27 25.5t-12 39.5q0 27 20 43.5t53 16.5
q30 0 65.5 -3.5t51.5 -3.5q21 0 65.5 3.5t69.5 3.5z" />
    <glyph glyph-name="X" unicode="X" horiz-adv-x="1128" 
d="M1016 240q22 -46 48 -77t41.5 -42t26.5 -27.5t11 -40.5q0 -27 -18 -43t-44 -16q-10 0 -92 3t-141 3q-58 0 -125 -3t-84 -3q-76 0 -76 57q0 23 11 40t24 25.5t24 25.5t11 40q0 36 -33 101l-123 256l-131 -271q-27 -55 -27 -90q0 -25 14.5 -41.5t32 -22.5t32 -21.5
t14.5 -39.5q0 -59 -78 -59q-14 0 -75.5 3t-84.5 3q-19 0 -70 -3t-57 -3q-29 0 -46 15.5t-17 41.5q0 25 15 43.5t37 33.5t58.5 57t69.5 104l229 426l-246 512q-22 45 -48 76.5t-43.5 43t-29.5 27.5t-12 39q0 27 18.5 43.5t45.5 16.5q9 0 87.5 -3.5t139.5 -3.5q56 0 123.5 3.5
t85.5 3.5q36 0 56 -15t20 -43q0 -23 -11 -39t-24 -24t-24 -24.5t-11 -41.5q0 -36 33 -102l104 -213l113 227q23 51 23 86q0 25 -13.5 41t-30.5 23.5t-30.5 23.5t-13.5 41q0 60 77 60q14 0 68.5 -3.5t77.5 -3.5q18 0 66 3.5t55 3.5q28 0 45.5 -15.5t17.5 -42.5
q0 -24 -14.5 -41.5t-34.5 -28.5t-47 -39t-47 -67l-221 -451z" />
    <glyph glyph-name="Y" unicode="Y" horiz-adv-x="1064" 
d="M1010 1470q27 0 43 -14.5t16 -38.5q0 -31 -17 -49.5t-43 -43.5t-40 -64l-258 -697v-317q0 -48 15.5 -77t33.5 -38.5t33.5 -28t15.5 -47.5q0 -26 -18 -43.5t-54 -17.5q-10 0 -71.5 3t-133.5 3t-134 -3t-72 -3q-35 0 -53.5 18t-18.5 43q0 24 10.5 40t25 25.5t29 21.5t25 38
t10.5 66v332l-260 673q-16 40 -40.5 70t-39 49t-14.5 45q0 24 17 39.5t44 15.5q22 0 81.5 -3t121.5 -3q59 0 122.5 3t82.5 3q74 0 74 -61q0 -20 -11.5 -35t-24.5 -24t-24.5 -29t-11.5 -49q0 -25 27 -105l131 -370l131 366q26 74 26 103q0 32 -14.5 52t-31.5 28t-31.5 23.5
t-14.5 39.5q0 61 72 61q26 0 67 -3t58 -3q16 0 52.5 3t66.5 3z" />
    <glyph glyph-name="Z" unicode="Z" horiz-adv-x="1032" 
d="M969 514q23 0 40 -19.5t17 -50.5q0 -62 -45 -190l-72 -205q-18 -50 -38.5 -74t-51.5 -24q-19 0 -54 24.5t-77 24.5h-422q-65 0 -113 -3t-61 -3q-34 0 -55 22t-21 47q0 22 15 56l528 1184h-94q-89 0 -151.5 -51.5t-145.5 -200.5q-31 -56 -68 -56q-24 0 -41.5 19.5
t-17.5 50.5q0 45 39 158l63 188q19 56 40 80.5t50 24.5q20 0 56.5 -25t79.5 -25h352q65 0 114.5 3.5t63.5 3.5q33 0 54.5 -21.5t21.5 -48.5q0 -22 -14 -57l-515 -1182h148q78 0 137.5 62.5t165.5 230.5q35 57 72 57z" />
    <glyph glyph-name="bracketleft" unicode="[" horiz-adv-x="657" 
d="M254 -172q-65 0 -105 33.5t-40 87.5v1474q0 54 40 87.5t105 33.5h295q94 0 94 -86q0 -50 -24 -68t-70 -18h-70q-22 0 -32.5 -10t-10.5 -35v-1282q0 -25 10.5 -35t32.5 -10h70q46 0 70 -18t24 -68q0 -86 -94 -86h-295z" />
    <glyph glyph-name="backslash" unicode="\" horiz-adv-x="608" 
d="M481 -63q-63 0 -93.5 20.5t-41.5 65.5l-309 1333q-8 36 -8 59q0 32 22.5 46t75.5 14q57 0 90.5 -19t44.5 -70l309 -1331q9 -41 9 -59q0 -33 -23 -46t-76 -13z" />
    <glyph glyph-name="bracketright" unicode="]" horiz-adv-x="657" 
d="M403 -172h-294q-44 0 -69.5 21t-25.5 65q0 50 24 68t71 18h69q22 0 32.5 10t10.5 35v1282q0 25 -10.5 35t-32.5 10h-69q-47 0 -71 18t-24 68q0 44 25.5 65t69.5 21h294q65 0 105.5 -33.5t40.5 -87.5v-1474q0 -54 -40.5 -87.5t-105.5 -33.5z" />
    <glyph glyph-name="asciicircum" unicode="^" horiz-adv-x="757" 
d="M131 821q-45 0 -70.5 13.5t-25.5 37.5q0 14 20 60l195 459q20 49 47 67.5t80 18.5q55 0 82 -17.5t49 -68.5l194 -459q21 -53 21 -62q0 -23 -25.5 -36t-70.5 -13q-62 0 -91.5 20.5t-50.5 73.5l-90 242q-10 18 -16 19q-9 0 -17 -19l-90 -242q-21 -54 -50 -74t-91 -20z" />
    <glyph glyph-name="underscore" unicode="_" horiz-adv-x="690" 
d="M47 -309q-43 0 -61.5 16.5t-18.5 69.5v61q0 48 17 67t63 19h598q42 0 60 -16.5t18 -69.5v-61q0 -50 -15.5 -68t-62.5 -18h-598z" />
    <glyph glyph-name="grave" unicode="`" horiz-adv-x="663" 
d="M389 1174q-46 0 -86 38q-37 36 -96 106.5t-68 80.5q-28 31 -37.5 41.5t-19.5 29.5t-10 37q0 30 24 42t99 12q63 0 91 -12.5t42 -43.5q70 -148 106 -241q15 -40 15 -52q0 -16 -16.5 -27t-43.5 -11z" />
    <glyph glyph-name="a" unicode="a" horiz-adv-x="956" 
d="M942 188q37 -11 37 -45q0 -53 -58.5 -106t-162.5 -53q-62 0 -113.5 29.5t-83.5 84.5q-92 -123 -248 -123q-125 0 -206.5 89.5t-81.5 228.5q0 143 87.5 238.5t235.5 95.5q79 0 144 -27l-3 27q-17 231 -137 231q-45 0 -116 -49q-55 -41 -86 -41q-29 0 -45.5 16.5
t-16.5 44.5q0 56 53 109q125 125 320 125q88 0 152 -26t102.5 -75t58.5 -110.5t27 -142.5l30 -344q7 -83 27.5 -120.5t83.5 -56.5zM446 166q47 0 78 39q0 4 -1 11t-1 11l-20 242q-22 14 -53 14q-44 0 -70.5 -40t-26.5 -115q0 -72 27.5 -117t66.5 -45z" />
    <glyph glyph-name="b" unicode="b" horiz-adv-x="1052" 
d="M678 1071q146 0 239 -143t93 -387q0 -246 -118 -410t-296 -164q-64 0 -116 13t-77.5 28t-49.5 28t-40 13q-23 0 -78.5 -33.5t-80.5 -33.5q-62 0 -62 79v1135q0 36 -10 59.5t-24.5 34t-29 18.5t-24.5 21t-10 35q0 31 36 56.5t152 84.5q137 68 168 68q66 0 66 -94v-568
q94 160 262 160zM551 127q117 0 117 313q0 183 -39.5 294.5t-102.5 111.5q-52 0 -81 -78t-29 -213v-82q0 -155 35 -250.5t100 -95.5z" />
    <glyph glyph-name="b" unicode="&#xe003;" horiz-adv-x="1052" 
d="M678 1071q146 0 239 -143t93 -387q0 -246 -118 -410t-296 -164q-64 0 -116 13t-77.5 28t-49.5 28t-40 13q-23 0 -78.5 -33.5t-80.5 -33.5q-62 0 -62 79v1135q0 36 -10 59.5t-24.5 34t-29 18.5t-24.5 21t-10 35q0 31 36 56.5t152 84.5q137 68 168 68q66 0 66 -94v-568
q94 160 262 160zM551 127q117 0 117 313q0 183 -39.5 294.5t-102.5 111.5q-52 0 -81 -78t-29 -213v-82q0 -155 35 -250.5t100 -95.5z" />
    <glyph glyph-name="c" unicode="c" horiz-adv-x="874" 
d="M496 -43q-212 0 -332.5 143t-120.5 394q0 133 37 245t99 185.5t142 114t168 40.5q77 0 143.5 -25t108 -64t65 -84t23.5 -87q0 -46 -20 -83.5t-90 -90.5q-36 -27 -68 -27q-48 0 -55 60q-13 134 -44.5 199t-70.5 65q-35 0 -59.5 -35.5t-35.5 -92t-11 -128.5
q0 -137 19.5 -238t52.5 -156t70 -80.5t79 -25.5q103 0 170 99q20 30 51 30q43 0 43 -55q0 -23 -10 -57q-29 -94 -123.5 -170t-230.5 -76z" />
    <glyph glyph-name="d" unicode="d" 
d="M948 334q0 -44 13.5 -72.5t29.5 -39t29.5 -27.5t13.5 -41q0 -37 -37.5 -61t-150.5 -68q-139 -54 -166 -54q-55 0 -55 105v47q-92 -156 -267 -156q-137 0 -226 142t-89 385q0 253 115 415t288 162q106 0 179 -67v200q0 44 -16 69t-34.5 32t-34.5 23t-16 44q0 33 36 57.5
t163 81.5q101 45 123.5 53.5t40.5 8.5q61 0 61 -103v-1136zM522 190q51 0 77 81.5t26 203.5v76q0 158 -34 259t-95 101q-51 0 -80 -85.5t-29 -239.5q0 -180 37.5 -288t97.5 -108z" />
    <glyph glyph-name="e" unicode="e" horiz-adv-x="909" 
d="M825 295q20 0 33.5 -14.5t13.5 -42.5q0 -32 -14 -66q-38 -92 -132.5 -153.5t-223.5 -61.5q-204 0 -332.5 148.5t-128.5 404.5q0 125 36 233.5t96.5 181.5t139.5 114.5t164 41.5q115 0 204.5 -61.5t136 -162t46.5 -220.5q0 -51 -19.5 -72.5t-66.5 -34.5l-383 -106
q31 -117 86.5 -183.5t124.5 -66.5q94 0 162 84q30 37 57 37zM440 920q-38 0 -58 -59t-20 -148q0 -63 7 -135l102 30q80 23 80 86q0 84 -30.5 155t-80.5 71z" />
    <glyph glyph-name="f" unicode="f" horiz-adv-x="655" 
d="M438 1452q-36 0 -57 -26t-21 -76q0 -64 12 -113.5t43.5 -119.5t35.5 -81h155q47 0 47 -45q0 -29 -4 -65q-6 -49 -51 -49h-123v-633q0 -42 9.5 -69t23.5 -40t28 -22t23.5 -23.5t9.5 -36.5q0 -24 -17.5 -41.5t-51.5 -17.5q-10 0 -66.5 3t-122.5 3q-55 0 -104 -3t-60 -3
q-33 0 -50 17t-17 42q0 19 7.5 32.5t18 23.5t21 23.5t18 41.5t7.5 70v633h-91q-26 0 -37 12.5t-14 40.5q-4 36 -4 61q0 45 49 45h72q-1 2 -8 19.5t-8.5 21t-8 20t-8 22.5t-7 22t-7 24.5t-4.5 23.5t-4.5 27t-2.5 26.5t-1 29.5q0 142 94 227.5t254 85.5q125 0 218 -54t93 -118
q0 -77 -74 -180q-36 -49 -75 -49q-49 0 -52 65q-5 101 -24.5 152t-63.5 51z" />
    <glyph glyph-name="g" unicode="g" horiz-adv-x="964" 
d="M655 258q322 -34 322 -276q0 -120 -76.5 -207.5t-198 -129.5t-270.5 -42q-192 0 -296.5 67.5t-104.5 165.5q0 55 36 105.5t103 85.5q-109 61 -109 188q0 56 38.5 114.5t101.5 104.5q-154 85 -154 273q0 76 29 142.5t84 118.5t143 82.5t197 30.5q29 0 43 -2
q22 134 86 218.5t125 84.5q29 0 61.5 -21.5t87.5 -70.5q41 -38 41 -82q0 -24 -19.5 -39.5t-56.5 -15.5q-156 0 -204 -94q112 -35 169.5 -116.5t57.5 -194.5q0 -75 -28 -140t-81.5 -116.5t-141 -81t-198.5 -29.5q-58 0 -120 10q-29 -32 -29 -59q0 -24 24.5 -34t83.5 -15
q105 -9 254 -25zM461 946q-49 0 -78 -56.5t-29 -148.5q0 -104 35.5 -165.5t85.5 -61.5t78.5 56.5t28.5 148.5q0 105 -35.5 166t-85.5 61zM467 -254q94 0 151.5 30.5t57.5 76.5q0 47 -33 67.5t-102 30.5q-40 6 -215 33q-70 -63 -70 -117q0 -57 53.5 -89t157.5 -32z" />
    <glyph glyph-name="h" unicode="h" horiz-adv-x="1044" 
d="M950 268q3 -50 13 -84.5t21.5 -49.5t22 -25.5t18 -24t7.5 -33.5q0 -25 -18 -40t-51 -15q-9 0 -57.5 3t-104.5 3q-57 0 -107.5 -3t-58.5 -3q-36 0 -54 16.5t-18 42.5q0 21 10 36.5t22 25.5t22 34.5t10 61.5q0 13 -4 47t-5 51l-20 273q-8 110 -25.5 159.5t-58.5 49.5
q-42 0 -60 -46t-18 -165v-338q0 -42 7.5 -70t18.5 -41.5t22 -23.5t18.5 -23.5t7.5 -32.5q0 -24 -18 -41.5t-52 -17.5q-11 0 -60 3t-106 3t-105.5 -3t-59.5 -3q-34 0 -51 17.5t-17 41.5q0 23 11.5 39.5t24.5 26.5t24.5 42t11.5 83v952q0 36 -8.5 59.5t-20.5 34t-24 18.5
t-20.5 21t-8.5 35q0 32 35 58t149 83q94 46 119.5 57t40.5 11q61 0 61 -103v-585h2q36 82 97.5 129t142.5 47q216 0 242 -365z" />
    <glyph glyph-name="i" unicode="i" horiz-adv-x="565" 
d="M238 1184q-67 0 -108.5 37t-41.5 96q0 84 70 151.5t159 67.5q66 0 110 -39.5t44 -101.5q0 -81 -70.5 -146t-162.5 -65zM125 -6q-34 0 -51 17.5t-17 41.5q0 23 11.5 39.5t24.5 26.5t24.5 42t11.5 83v432q0 36 -8.5 59.5t-20.5 34t-24 18.5t-20.5 21t-8.5 35
q0 34 33.5 57.5t150.5 83.5q90 45 117 56.5t43 11.5q62 0 62 -103v-706q0 -42 7.5 -70t18.5 -41.5t21.5 -23.5t18 -23.5t7.5 -32.5q0 -24 -17.5 -41.5t-51.5 -17.5q-11 0 -60 3t-106 3t-106 -3t-60 -3z" />
    <glyph glyph-name="j" unicode="j" horiz-adv-x="530" 
d="M223 1184q-67 0 -108 37t-41 96q0 84 70 151.5t159 67.5q66 0 110 -39.5t44 -101.5q0 -81 -70.5 -146t-163.5 -65zM-4 -397q-150 0 -150 147q0 35 6 70.5t25 66.5t47 31q14 0 24 -5.5t15.5 -13t16.5 -24.5q37 -56 62 -84.5t48 -28.5q43 0 43 56q0 15 -9 81t-9 124v653
q0 36 -8.5 59.5t-20.5 34t-24 18.5t-20.5 21t-8.5 35q0 34 33.5 57.5t150.5 83.5q90 45 117 56.5t43 11.5q61 0 61 -103v-909q0 -124 -68 -227t-168.5 -157t-205.5 -54z" />
    <glyph glyph-name="k" unicode="k" horiz-adv-x="1024" 
d="M924 252q20 -51 42 -88.5t35.5 -51.5t23 -29.5t9.5 -33.5q0 -55 -59 -55q-14 0 -66 3t-92 3q-48 0 -102.5 -3t-73.5 -3q-37 0 -51.5 14t-14.5 43q0 21 19.5 50t19.5 61q0 24 -28 100l-80 201l-70 -76v-143q0 -51 10 -83t22 -42t22 -26.5t10 -39.5q0 -24 -15 -41.5
t-45 -17.5q-11 0 -60 3t-106 3t-105.5 -3t-59.5 -3q-34 0 -51 17.5t-17 41.5q0 23 11.5 39.5t24.5 26.5t24.5 42t11.5 83v952q0 36 -8.5 59.5t-20.5 34t-24 18.5t-20.5 21t-8.5 35q0 33 35 58.5t149 82.5q90 45 117 56.5t43 11.5q61 0 61 -103v-845l156 168q55 58 55 86
q0 18 -11.5 31t-24.5 19t-24.5 20.5t-11.5 35.5q0 57 78 57q13 0 67.5 -3t74.5 -3q19 0 87 3t76 3q62 0 62 -53q0 -24 -15 -39.5t-36.5 -24.5t-55.5 -31.5t-63 -53.5l-109 -119z" />
    <glyph glyph-name="l" unicode="l" horiz-adv-x="548" 
d="M109 -6q-34 0 -51 17.5t-17 41.5q0 23 11.5 39.5t24.5 26.5t24.5 42t11.5 83v952q0 36 -8.5 59.5t-20.5 34t-24 18.5t-20.5 21t-8.5 35q0 33 35 58.5t149 82.5q90 45 117 56.5t43 11.5q61 0 61 -103v-1226q0 -42 7.5 -70t18.5 -41.5t22 -23.5t18.5 -23.5t7.5 -32.5
q0 -24 -18 -41.5t-52 -17.5q-11 0 -60 3t-106 3t-105.5 -3t-59.5 -3z" />
    <glyph glyph-name="m" unicode="m" horiz-adv-x="1552" 
d="M1458 268q3 -50 13 -84.5t21.5 -49.5t22 -25.5t18 -24t7.5 -33.5q0 -25 -18.5 -40t-51.5 -15q-9 0 -57 3t-104 3q-57 0 -107.5 -3t-58.5 -3q-36 0 -54 16.5t-18 42.5q0 21 10 36.5t22 25.5t22 34.5t10 61.5q0 13 -4 47t-5 51l-20 273q-8 110 -25 159.5t-55 49.5
q-42 0 -60 -46t-18 -165v-338q0 -42 7.5 -70t18.5 -41.5t22 -23.5t18.5 -23.5t7.5 -32.5q0 -59 -57 -59q-13 0 -66 3t-113 3q-55 0 -104.5 -3t-60.5 -3q-26 0 -42 18t-16 41q0 19 6.5 32.5t15.5 23.5t18 23.5t15.5 41.5t6.5 70v340q0 209 -80 209q-92 0 -92 -224v-325
q0 -42 6.5 -70t16.5 -41.5t19.5 -23.5t16 -23.5t6.5 -32.5q0 -59 -61 -59q-11 0 -61 3t-105 3q-57 0 -106.5 -3t-59.5 -3q-34 0 -51 17.5t-17 41.5q0 23 11.5 39.5t24.5 26.5t24.5 42t11.5 83v432q0 36 -8.5 59.5t-20.5 34t-24 18.5t-20.5 21t-8.5 35q0 32 35 58t149 83
q94 46 119.5 57t40.5 11q62 0 62 -103v-73h2q35 75 104 129.5t150 54.5q155 0 213 -193q78 193 264 193q215 0 241 -365z" />
    <glyph glyph-name="n" unicode="n" 
d="M967 268q3 -50 13 -84.5t21.5 -49.5t22 -25.5t18 -24t7.5 -33.5q0 -25 -18.5 -40t-51.5 -15q-9 0 -57.5 3t-104.5 3q-57 0 -107.5 -3t-58.5 -3q-71 0 -71 59q0 21 10 36.5t21.5 25.5t21.5 34.5t10 61.5q0 13 -3.5 47t-4.5 51l-21 273q-8 110 -25.5 159.5t-58.5 49.5
q-42 0 -59.5 -46t-17.5 -165v-338q0 -42 7.5 -70t18.5 -41.5t21.5 -23.5t18 -23.5t7.5 -32.5q0 -24 -17.5 -41.5t-51.5 -17.5q-11 0 -60 3t-106 3t-106 -3t-60 -3q-34 0 -51 17.5t-17 41.5q0 23 11.5 39.5t24.5 26.5t24.5 42t11.5 83v432q0 36 -8.5 59.5t-20.5 34t-24 18.5
t-20.5 21t-8.5 35q0 32 35 58t149 83q94 46 119.5 57t40.5 11q62 0 62 -103v-65h2q37 82 97.5 129t141.5 47q216 0 242 -365z" />
    <glyph glyph-name="o" unicode="o" horiz-adv-x="1017" 
d="M500 -45q-212 0 -335.5 148t-123.5 399q0 160 57 290.5t167.5 209.5t254.5 79q211 0 334 -149t123 -402q0 -156 -57.5 -286.5t-168 -209.5t-251.5 -79zM528 117q33 0 53.5 29.5t32 102.5t11.5 195q0 222 -36.5 349t-99.5 127q-49 0 -73.5 -76t-24.5 -256
q0 -221 36.5 -346t100.5 -125z" />
    <glyph glyph-name="p" unicode="p" horiz-adv-x="1073" 
d="M696 1071q145 0 239.5 -148t94.5 -391q0 -248 -107.5 -406.5t-279.5 -158.5q-129 0 -203 78v-170q0 -40 9.5 -66t22.5 -37.5t26 -21t22.5 -25t9.5 -40.5q0 -23 -17.5 -40.5t-51.5 -17.5q-11 0 -66 3t-116 3q-57 0 -105 -3t-59 -3q-34 0 -51 17t-17 41q0 27 11 44t24 26
t24 39t11 81v801q0 36 -8.5 59.5t-20.5 34t-24 18.5t-20.5 21t-8.5 35q0 32 35 58t149 83q94 46 119.5 57t40.5 11q61 0 61 -103v-37q91 158 256 158zM575 127q111 0 111 307q0 185 -39 298.5t-98 113.5q-50 0 -79.5 -80t-29.5 -209v-84q0 -163 37.5 -254.5t97.5 -91.5z" />
    <glyph glyph-name="q" unicode="q" horiz-adv-x="1028" 
d="M938 -125q0 -51 11 -82.5t24 -42t24 -26.5t11 -39q0 -24 -17 -41t-51 -17q-11 0 -59 3t-105 3q-61 0 -116 -3t-66 -3q-34 0 -52 17.5t-18 40.5q0 22 9.5 36t22.5 23.5t26 22.5t22.5 40t9.5 68v256q-92 -166 -260 -166q-135 0 -223 145t-88 388q0 252 114 412.5t283 160.5
q55 0 104 -15t76.5 -33t54.5 -33t44 -15q21 0 75.5 37t79.5 37q31 0 47.5 -22.5t16.5 -59.5v-1092zM514 190q100 0 100 283v96q0 152 -32.5 246t-87.5 94q-107 0 -107 -323q0 -181 34.5 -288.5t92.5 -107.5z" />
    <glyph glyph-name="r" unicode="r" horiz-adv-x="843" 
d="M692 1061q60 0 107 -34t47 -89q0 -27 -12 -69.5t-23.5 -74t-40.5 -104.5q-14 -34 -29.5 -48.5t-40.5 -14.5q-22 0 -36.5 14.5t-32.5 46.5q-46 78 -90 78q-99 0 -99 -326v-196q0 -42 8.5 -69.5t20.5 -40.5t24 -22.5t20.5 -23.5t8.5 -35q0 -24 -17 -41.5t-50 -17.5
q-11 0 -62 3t-114 3q-56 0 -103 -3t-57 -3q-33 0 -49.5 17.5t-16.5 41.5q0 23 10 39.5t22 26.5t22 42t10 83v432q0 36 -7.5 59.5t-18.5 34t-22 18.5t-18.5 21t-7.5 35q0 33 34 58t146 83q97 49 119 58.5t41 9.5q57 0 57 -103v-151q27 116 94.5 189t155.5 73z" />
    <glyph glyph-name="s" unicode="s" horiz-adv-x="897" 
d="M201 -45q-21 0 -37 16t-23 32.5t-16 45.5l-47 146q-39 122 -39 143q0 27 16.5 44t40.5 17q22 0 37 -11.5t35 -39.5q35 -52 62 -86t65 -70.5t80.5 -54.5t89.5 -18q45 0 75.5 20t30.5 60q0 53 -42.5 88t-168.5 90q-65 29 -114 60t-94.5 75t-70 102.5t-24.5 128.5
q0 139 92 228.5t232 89.5q47 0 101 -16.5t63 -16.5q14 0 35 20.5t49 20.5q27 0 43.5 -18.5t38.5 -61.5l61 -121q41 -84 41 -118q0 -25 -15 -39.5t-40 -14.5q-34 0 -76 45q-161 172 -258 172q-32 0 -54 -18t-22 -51q0 -46 36.5 -76t158.5 -86q67 -30 117.5 -60.5t99 -74
t74.5 -101.5t26 -127q0 -166 -104 -257t-273 -91q-58 0 -117.5 18.5t-68.5 18.5q-22 0 -46.5 -26.5t-49.5 -26.5z" />
    <glyph glyph-name="s" unicode="&#xe004;" horiz-adv-x="897" 
d="M201 -45q-21 0 -37 16t-23 32.5t-16 45.5l-47 146q-39 122 -39 143q0 27 16.5 44t40.5 17q22 0 37 -11.5t35 -39.5q35 -52 62 -86t65 -70.5t80.5 -54.5t89.5 -18q45 0 75.5 20t30.5 60q0 53 -42.5 88t-168.5 90q-65 29 -114 60t-94.5 75t-70 102.5t-24.5 128.5
q0 139 92 228.5t232 89.5q47 0 101 -16.5t63 -16.5q14 0 35 20.5t49 20.5q27 0 43.5 -18.5t38.5 -61.5l61 -121q41 -84 41 -118q0 -25 -15 -39.5t-40 -14.5q-34 0 -76 45q-161 172 -258 172q-32 0 -54 -18t-22 -51q0 -46 36.5 -76t158.5 -86q67 -30 117.5 -60.5t99 -74
t74.5 -101.5t26 -127q0 -166 -104 -257t-273 -91q-58 0 -117.5 18.5t-68.5 18.5q-22 0 -46.5 -26.5t-49.5 -26.5z" />
    <glyph glyph-name="t" unicode="t" horiz-adv-x="708" 
d="M651 238q21 0 35 -16t14 -40q0 -45 -41 -98q-42 -54 -113.5 -82.5t-156.5 -28.5q-68 0 -127.5 23.5t-100 75.5t-40.5 123q0 20 4 132.5t4 229.5v320h-37q-35 0 -55.5 18.5t-20.5 48.5q0 24 14.5 42t45.5 40q167 117 246 313q17 41 34 57.5t43 16.5q54 0 54 -74v-303h165
q24 0 38 -12t14 -33q0 -33 -4 -61q-4 -29 -17.5 -41t-38.5 -12h-157v-539q0 -84 14 -124t57 -40q33 0 64 29q2 2 9 8.5t11.5 10t11.5 8t14.5 6.5t16.5 2z" />
    <glyph glyph-name="u" unicode="u" 
d="M938 324q0 -44 16 -75.5t35 -45.5t35 -32.5t16 -39.5q0 -41 -40 -62.5t-162 -52.5q-127 -32 -160 -32q-64 0 -64 86v82h-2q-42 -87 -96 -132t-141 -45q-122 0 -191 99.5t-69 269.5v348q0 36 -10 60.5t-23.5 37t-27.5 22t-24 23t-10 33.5q0 37 35.5 61t157.5 70
q140 54 162 54q34 0 48.5 -24.5t14.5 -80.5v-512q0 -198 86 -198q90 0 90 231v223q0 36 -11.5 60t-27.5 36t-32 21.5t-27.5 23.5t-11.5 35q0 35 42 61t167 72q139 52 164 52q37 0 49 -24.5t12 -80.5v-624z" />
    <glyph glyph-name="v" unicode="v" horiz-adv-x="966" 
d="M901 1042q66 0 66 -55q0 -19 -7 -32t-18.5 -24t-24.5 -25t-27 -42t-24 -67l-157 -639q-12 -48 -23 -75t-35 -52.5t-64.5 -36t-103.5 -10.5q-64 0 -104.5 10.5t-64 36.5t-34 52t-22.5 75l-158 637q-12 49 -31 81.5t-33.5 44t-25 28t-10.5 38.5q0 26 16 40.5t43 14.5
q11 0 71.5 -3t117.5 -3q54 0 112 3t74 3q74 0 74 -57q0 -25 -14 -43.5t-28.5 -43t-14.5 -64.5q0 -56 16 -127l98 -433l107 433q18 78 18 133q0 34 -15 56.5t-29.5 42t-14.5 46.5q0 57 65 57q20 0 55.5 -3t53.5 -3q19 0 52.5 3t43.5 3z" />
    <glyph glyph-name="w" unicode="w" horiz-adv-x="1476" 
d="M1417 1044q33 0 49.5 -15.5t16.5 -41.5q0 -22 -12.5 -39t-29.5 -29.5t-37 -45t-32 -80.5l-164 -670q-15 -60 -31.5 -87t-52 -39.5t-104.5 -12.5q-101 0 -135.5 27t-53.5 112l-88 381l-100 -385q-11 -43 -19.5 -63t-28.5 -39.5t-53 -26t-89 -6.5t-90 7t-53.5 27
t-27.5 39.5t-18 61.5l-166 672q-12 51 -31.5 84.5t-34.5 45.5t-26.5 28t-11.5 38q0 26 16.5 41.5t44.5 15.5q11 0 72 -3t115 -3q51 0 96.5 3t62.5 3q39 0 60.5 -15.5t21.5 -43.5q0 -23 -11.5 -41t-23.5 -43t-12 -63q0 -22 21 -117l94 -414l129 475l-2 11q-10 46 -26.5 79.5
t-29.5 47.5t-22.5 31t-9.5 36q0 26 16.5 41.5t40.5 15.5q10 0 61.5 -3t110.5 -3q43 0 90 3t68 3q78 0 78 -59q0 -19 -10 -34.5t-22 -25.5t-22 -31.5t-10 -51.5q0 -12 3 -29.5t10 -47t10 -44.5l86 -418l96 420q18 81 18 121q0 28 -9.5 49t-21 31t-21 26t-9.5 35q0 27 19.5 43
t56.5 16q17 0 44 -3t50 -3q18 0 52.5 3t41.5 3z" />
    <glyph glyph-name="w" unicode="&#xe005;" horiz-adv-x="1476" 
d="M1417 1044q33 0 49.5 -15.5t16.5 -41.5q0 -22 -12.5 -39t-29.5 -29.5t-37 -45t-32 -80.5l-164 -670q-15 -60 -31.5 -87t-52 -39.5t-104.5 -12.5q-101 0 -135.5 27t-53.5 112l-88 381l-100 -385q-11 -43 -19.5 -63t-28.5 -39.5t-53 -26t-89 -6.5t-90 7t-53.5 27
t-27.5 39.5t-18 61.5l-166 672q-12 51 -31.5 84.5t-34.5 45.5t-26.5 28t-11.5 38q0 26 16.5 41.5t44.5 15.5q11 0 72 -3t115 -3q51 0 96.5 3t62.5 3q39 0 60.5 -15.5t21.5 -43.5q0 -23 -11.5 -41t-23.5 -43t-12 -63q0 -22 21 -117l94 -414l129 475l-2 11q-10 46 -26.5 79.5
t-29.5 47.5t-22.5 31t-9.5 36q0 26 16.5 41.5t40.5 15.5q10 0 61.5 -3t110.5 -3q43 0 90 3t68 3q78 0 78 -59q0 -19 -10 -34.5t-22 -25.5t-22 -31.5t-10 -51.5q0 -12 3 -29.5t10 -47t10 -44.5l86 -418l96 420q18 81 18 121q0 28 -9.5 49t-21 31t-21 26t-9.5 35q0 27 19.5 43
t56.5 16q17 0 44 -3t50 -3q18 0 52.5 3t41.5 3z" />
    <glyph glyph-name="x" unicode="x" horiz-adv-x="919" 
d="M795 231q22 -40 48.5 -70.5t44 -44t30 -30t12.5 -35.5q0 -25 -17 -40t-43 -15q-13 0 -71.5 3t-106.5 3q-54 0 -113.5 -3t-76.5 -3q-76 0 -76 55q0 22 23.5 50t23.5 67q0 38 -27 90l-53 96l-67 -106q-29 -48 -29 -86q0 -28 21.5 -57t21.5 -52q0 -26 -23 -41.5t-63 -15.5
q-13 0 -48.5 3t-55.5 3t-53.5 -3t-43.5 -3q-26 0 -42.5 15t-16.5 40t17.5 42.5t55 52t68.5 85.5l162 265l-170 311q-27 49 -59.5 83.5t-48 52.5t-15.5 42q0 27 17 42t42 15q14 0 70.5 -3t99.5 -3q53 0 110 3t73 3q67 0 67 -55q0 -27 -16 -52t-16 -52q0 -40 36 -105l41 -76
l58 86q30 48 30 86q0 30 -18 59.5t-18 51.5q0 26 21 41.5t54 15.5q20 0 49.5 -3t45.5 -3q18 0 54 3t44 3q27 0 44 -15.5t17 -39.5q0 -22 -10.5 -37.5t-26 -26.5t-39.5 -36t-45 -58l-170 -276z" />
    <glyph glyph-name="y" unicode="y" horiz-adv-x="964" 
d="M893 1042q26 0 42.5 -15t16.5 -40q0 -20 -12 -36.5t-29 -31t-40 -56.5t-40 -103l-210 -760q-58 -208 -149 -302.5t-216 -94.5q-47 0 -86.5 13.5t-52.5 35.5q-27 42 -50.5 133.5t-23.5 151.5q0 35 13.5 56t39.5 21q34 0 56 -37q56 -92 85 -122.5t70 -30.5q38 0 60 25.5
t47 97.5l-299 811q-18 49 -38.5 85.5t-35 55t-27.5 32.5t-19.5 26.5t-6.5 29.5q0 25 17.5 40t41.5 15q11 0 73.5 -3t119.5 -3q54 0 114 3t76 3q76 0 76 -57q0 -26 -13 -44t-26.5 -41t-15.5 -60q-2 -43 26 -133l94 -291l72 291q23 91 23 133q0 34 -14.5 57t-29 42.5
t-14.5 45.5q0 57 74 57q14 0 49 -3t57 -3q18 0 56.5 3t48.5 3z" />
    <glyph glyph-name="y" unicode="&#xe006;" horiz-adv-x="964" 
d="M893 1042q26 0 42.5 -15t16.5 -40q0 -20 -12 -36.5t-29 -31t-40 -56.5t-40 -103l-210 -760q-58 -208 -149 -302.5t-216 -94.5q-47 0 -86.5 13.5t-52.5 35.5q-27 42 -50.5 133.5t-23.5 151.5q0 35 13.5 56t39.5 21q34 0 56 -37q56 -92 85 -122.5t70 -30.5q38 0 60 25.5
t47 97.5l-299 811q-18 49 -38.5 85.5t-35 55t-27.5 32.5t-19.5 26.5t-6.5 29.5q0 25 17.5 40t41.5 15q11 0 73.5 -3t119.5 -3q54 0 114 3t76 3q76 0 76 -57q0 -26 -13 -44t-26.5 -41t-15.5 -60q-2 -43 26 -133l94 -291l72 291q23 91 23 133q0 34 -14.5 57t-29 42.5
t-14.5 45.5q0 57 74 57q14 0 49 -3t57 -3q18 0 56.5 3t48.5 3z" />
    <glyph glyph-name="z" unicode="z" horiz-adv-x="872" 
d="M799 395q51 0 51 -59q0 -13 -4.5 -34t-13.5 -53t-11 -42l-47 -176q-20 -82 -63 -82q-22 0 -54 25.5t-67 25.5h-307q-54 0 -109.5 -4t-71.5 -4q-75 0 -75 63q0 30 20 70l397 760h-75q-63 0 -103 -37t-92 -123q-15 -25 -29 -36t-39 -11q-22 0 -35.5 15.5t-13.5 41.5
q0 27 25 117l45 164q18 71 61 71q22 0 54 -25.5t67 -25.5h254q67 0 116 3t62 3q78 0 78 -51q0 -24 -24 -78l-377 -761h71q71 0 125.5 42t118.5 150q29 51 66 51z" />
    <glyph glyph-name="braceleft" unicode="{" horiz-adv-x="710" 
d="M618 0q80 0 80 -86q0 -40 -19 -61t-61 -25q-80 -8 -151 -8q-320 0 -320 315q0 59 14.5 171t14.5 149q0 119 -76 149q-1 1 -10 4t-14 5.5t-14.5 7.5t-15 11t-11.5 14.5t-9 21t-3 26.5q0 30 17 49t62 37q15 6 25 12.5t23 21.5t19.5 43t6.5 67q0 42 -14.5 155.5t-14.5 171.5
q0 314 318 314q61 0 153 -9q80 -8 80 -88q0 -43 -21.5 -63.5t-58.5 -20.5l-57 2q-40 0 -58 -25.5t-18 -94.5q0 -53 14.5 -169.5t14.5 -158.5q0 -185 -156 -248q81 -32 118.5 -95.5t37.5 -145.5q0 -39 -14.5 -154.5t-14.5 -173.5q0 -71 18 -97t58 -26z" />
    <glyph glyph-name="bar" unicode="|" horiz-adv-x="495" 
d="M248 -305q-68 0 -102.5 27.5t-34.5 91.5v1847q0 64 34.5 91.5t102.5 27.5t102.5 -27.5t34.5 -91.5v-1847q0 -64 -34.5 -91.5t-102.5 -27.5z" />
    <glyph glyph-name="braceright" unicode="}" horiz-adv-x="710" 
d="M608 780q45 -19 62.5 -37.5t17.5 -48.5q0 -14 -3 -26.5t-9 -21t-12 -14.5t-15 -11t-14.5 -7.5t-14.5 -5.5t-10 -4q-75 -29 -75 -149q0 -37 14 -149t14 -171q0 -162 -80.5 -238.5t-238.5 -76.5q-72 0 -152 8q-42 4 -61 25t-19 61q0 86 80 86l58 -2q40 0 57.5 26t17.5 97
q0 58 -14 173.5t-14 154.5q0 179 155 241q-155 63 -155 248q0 42 14 158.5t14 169.5q0 69 -17.5 94.5t-57.5 25.5l-58 -2q-37 0 -58.5 20.5t-21.5 63.5q0 80 80 88q92 9 154 9q317 0 317 -314q0 -58 -14 -171.5t-14 -155.5q0 -51 13 -83.5t26 -42.5t34 -18z" />
    <glyph glyph-name="asciitilde" unicode="~" horiz-adv-x="874" 
d="M170 469q-49 0 -82 25t-33 61q0 32 15 78q12 34 30.5 65.5t45.5 61.5t65 47.5t82 17.5t86 -19t69 -42.5t56 -42.5t49 -19q26 0 48 18t46 71q17 38 58 38q49 0 81.5 -25t32.5 -61q0 -34 -14 -77q-26 -76 -83.5 -134.5t-141.5 -58.5q-42 0 -85 19t-70.5 42.5t-57 42.5
t-48.5 19q-26 0 -47 -17.5t-45 -70.5q-17 -39 -57 -39z" />
    <glyph glyph-name="uni00A0" unicode="&#xa0;" horiz-adv-x="335" 
 />
    <glyph glyph-name="exclamdown" unicode="&#xa1;" horiz-adv-x="473" 
d="M225 764q80 0 131.5 49.5t51.5 120.5q0 68 -42 107.5t-114 39.5q-80 0 -132 -49t-52 -119q0 -69 43 -109t114 -40zM238 606q30 0 44 -13.5t25 -47.5q28 -76 73.5 -338t45.5 -404q0 -120 -44 -184.5t-146 -64.5q-101 0 -145 64.5t-44 184.5q0 142 45.5 402t73.5 340
q11 34 26.5 47.5t45.5 13.5z" />
    <glyph glyph-name="cent" unicode="&#xa2;" horiz-adv-x="901" 
d="M803 330q25 0 39 -16t14 -42q0 -36 -16 -77q-29 -75 -106 -142.5t-185 -83.5v-174q0 -88 -76 -88q-78 0 -78 88v180q-155 36 -248.5 174.5t-93.5 342.5q0 110 28.5 209t76.5 170.5t107.5 120t123.5 67.5v158q0 90 80 90q74 0 74 -90v-160q14 -4 34.5 -12t34 -12.5
t23.5 -4.5q18 0 39.5 23.5t42.5 23.5q22 0 33.5 -19t25.5 -75l45 -172q29 -119 29 -143q0 -29 -17 -42.5t-38 -13.5t-33.5 9.5t-24.5 35.5q-37 78 -57.5 118.5t-44.5 79.5t-43.5 54t-40.5 15q-60 0 -95.5 -102.5t-35.5 -274.5q0 -177 46 -272t126 -95q85 0 145 105
q26 47 66 47z" />
    <glyph glyph-name="sterling" unicode="&#xa3;" horiz-adv-x="1071" 
d="M975 391q29 0 46 -25.5t17 -70.5q0 -59 -18 -117.5t-51 -107t-85.5 -79t-115.5 -30.5q-43 0 -95.5 18t-80 32.5t-89.5 53t-67 41.5q-87 -137 -231 -137q-65 0 -109.5 42.5t-44.5 115.5q0 89 74 153t190 68q21 46 21 90q0 75 -41 168h-119q-54 0 -83.5 34t-29.5 87
q0 72 76 72h64q-92 188 -92 313q0 177 116.5 284t331.5 107q177 0 300.5 -75t123.5 -164q0 -54 -37 -97.5t-117 -93.5q-47 -29 -77 -29q-58 0 -64 70q-10 115 -37.5 163t-75.5 48q-45 0 -70.5 -42.5t-25.5 -113.5q0 -70 9.5 -142.5t19 -114.5t27.5 -113h206q54 0 83.5 -34
t29.5 -87q0 -72 -76 -72h-203q5 -67 5 -80q0 -101 -52 -207q18 -5 54.5 -15t55.5 -14.5t45 -9t46 -4.5q93 0 170 74q22 22 38 31.5t38 9.5z" />
    <glyph glyph-name="currency" unicode="&#xa4;" horiz-adv-x="1089" 
d="M1006 338q21 -21 28.5 -36t7.5 -36q0 -36 -52 -85.5t-89 -49.5q-32 0 -67 35l-82 80q-98 -53 -203 -53q-112 0 -209 57l-86 -86q-37 -37 -70 -37q-37 0 -87 49t-50 86t37 74l86 88q-55 99 -55 215q0 110 53 211l-82 86q-37 37 -37 70q0 38 51.5 87.5t89.5 49.5
q33 0 68 -35l80 -82q97 57 211 57q108 0 207 -55l78 78q37 37 71 37q36 0 85.5 -49.5t49.5 -87.5q0 -34 -36 -70l-80 -80q57 -97 57 -217q0 -117 -57 -219zM549 408q91 0 154 67t63 164t-63 163t-154 66q-92 0 -156.5 -67t-64.5 -162q0 -97 64.5 -164t156.5 -67z" />
    <glyph glyph-name="yen" unicode="&#xa5;" horiz-adv-x="1138" 
d="M1055 1470q59 0 59 -53q0 -22 -13 -39.5t-31 -29t-40.5 -35t-36.5 -53.5l-225 -492h109q63 0 63 -76q0 -80 -63 -80h-140v-141h140q63 0 63 -78t-63 -78h-140v-69q0 -40 10 -66t24.5 -38.5t29.5 -22.5t25 -25.5t10 -38.5q0 -25 -18 -43t-52 -18q-11 0 -72.5 3t-134.5 3
q-72 0 -134.5 -3t-72.5 -3q-34 0 -51.5 17.5t-17.5 43.5q0 23 10 38.5t24.5 25.5t29 22.5t24.5 38.5t10 66v69h-139q-64 0 -64 78t64 78h139v141h-139q-64 0 -64 80q0 76 64 76h114l-221 492q-16 36 -44 62.5t-46 45t-18 45.5q0 25 16 41t45 16q22 0 86.5 -3t126.5 -3
q45 0 105.5 3t82.5 3q84 0 84 -59q0 -20 -10 -34.5t-21.5 -22t-21.5 -25.5t-10 -45q0 -33 27 -96l125 -289l133 297q18 44 18 72q0 30 -12.5 51.5t-27.5 31t-27.5 24.5t-12.5 34q0 31 18 46t60 15q14 0 60.5 -3t64.5 -3q17 0 59.5 3t59.5 3z" />
    <glyph glyph-name="brokenbar" unicode="&#xa6;" horiz-adv-x="495" 
d="M248 924q-68 0 -102.5 27.5t-34.5 90.5v619q0 64 34.5 91.5t102.5 27.5t102.5 -27.5t34.5 -91.5v-619q0 -63 -34.5 -90.5t-102.5 -27.5zM248 -301q-68 0 -102.5 27.5t-34.5 91.5v618q0 64 34.5 91.5t102.5 27.5t102.5 -27.5t34.5 -91.5v-618q0 -64 -34.5 -91.5
t-102.5 -27.5z" />
    <glyph glyph-name="section" unicode="&#xa7;" horiz-adv-x="1042" 
d="M786 432q140 -95 140 -272q0 -163 -117 -256.5t-287 -93.5q-65 0 -132 18t-75 18q-23 0 -48 -27.5t-48 -27.5q-26 0 -41.5 20.5t-34.5 75.5l-53 150q-5 13 -13 35l-12 33t-9 26.5t-7 27.5t-2 23q0 29 16.5 44.5t38.5 15.5q34 0 70 -45q34 -43 57.5 -70.5t60 -63.5t67 -57
t69 -36t76.5 -15q59 0 90 31.5t31 72.5q0 16 -3 30t-12 26.5t-16 22t-23.5 20.5l-25.5 17t-31.5 16t-31 14t-35.5 14.5t-35 13.5q-73 29 -118 50.5t-94.5 54t-76.5 66.5t-44.5 83.5t-17.5 110.5q0 101 52.5 186t142.5 129q-127 93 -127 261q0 143 98 236t236 93
q54 0 121 -18.5t75 -18.5q18 0 38.5 21.5t41.5 21.5q25 0 40 -16.5t42 -65.5l66 -124q47 -91 47 -123q0 -26 -14 -40t-37 -14q-37 0 -76 45q-83 92 -145 139.5t-123 47.5q-50 0 -76.5 -27t-26.5 -71q0 -25 11 -46t27 -35.5t47 -29.5t57 -24.5t71 -24.5q67 -22 113 -41
t93.5 -48t75.5 -62t46 -80.5t18 -106.5q0 -122 -55.5 -205t-151.5 -125zM367 711q0 -69 44 -104t148 -70q8 -3 24.5 -8.5t24.5 -8.5q82 51 82 127q0 15 -3.5 28t-8 23.5t-15 20.5t-17.5 17t-23 15.5t-24 12.5t-28.5 11.5t-28.5 10t-31 10t-30 9.5l-55 18
q-26 -19 -42.5 -49.5t-16.5 -62.5z" />
    <glyph glyph-name="dieresis" unicode="&#xa8;" horiz-adv-x="661" 
d="M150 1200q-62 0 -104 44t-42 108q0 68 42 112.5t108 44.5q62 0 101.5 -43t39.5 -110q0 -68 -40 -112t-105 -44zM510 1200q-61 0 -102 43.5t-41 108.5q0 68 41.5 112.5t107.5 44.5q62 0 101.5 -43t39.5 -110t-40.5 -111.5t-106.5 -44.5z" />
    <glyph glyph-name="copyright" unicode="&#xa9;" horiz-adv-x="1310" 
d="M655 -33q-127 0 -236.5 55t-188 153.5t-123 242.5t-44.5 315q0 173 45 319t123.5 246.5t188 156.5t235.5 56t235.5 -56t188 -156.5t123.5 -246.5t45 -319q0 -171 -44.5 -315t-123 -242.5t-188 -153.5t-236.5 -55zM655 111q197 0 318 171.5t121 450.5q0 284 -122 459.5
t-317 175.5t-316.5 -176t-121.5 -459q0 -280 120.5 -451t317.5 -171zM672 326q-136 0 -221.5 106.5t-85.5 286.5q0 95 26 178t67 138t92 86.5t101 31.5q41 0 77.5 -14.5t43.5 -14.5q12 0 31 16.5t31 16.5q18 0 27.5 -12t19.5 -49l32 -121q17 -64 17 -90q0 -18 -12.5 -28.5
t-28.5 -10.5q-32 0 -53 43q-6 13 -15 31l-14 28t-12.5 24.5t-12 22t-11 17t-11.5 14.5t-11 9.5t-12.5 6.5t-13.5 2q-40 0 -68 -77t-28 -207q0 -134 29 -206.5t79 -72.5q32 0 55 23.5t48 66.5q18 33 47 33q18 0 30.5 -12.5t12.5 -34.5q0 -18 -13 -53q-25 -66 -89.5 -122
t-153.5 -56z" />
    <glyph glyph-name="ordfeminine" unicode="&#xaa;" horiz-adv-x="708" 
d="M674 862q28 -8 28 -33q0 -38 -41.5 -76t-115.5 -38q-90 0 -139 80q-63 -84 -173 -84q-88 0 -145 62t-57 159q0 100 61.5 167.5t165.5 67.5q53 0 98 -18l-2 31q-12 159 -96 159q-30 0 -78 -32q-44 -31 -61 -31q-21 0 -33 12t-12 33q0 39 39 78q83 86 223 86
q66 0 112.5 -19.5t72 -57t37.5 -77.5t17 -94l23 -254q5 -56 19 -82t57 -39zM328 846q29 0 51 22q0 3 -1 9.5t-1 9.5l-12 170q-24 8 -35 8q-30 0 -48 -28.5t-18 -80.5q0 -49 19 -79.5t45 -30.5z" />
    <glyph glyph-name="guillemotleft" unicode="&#xab;" horiz-adv-x="935" 
d="M334 467l96 -207q51 -109 51 -151q0 -25 -13 -43.5t-38 -18.5q-40 0 -119 90l-186 217q-26 31 -36.5 44t-24 42.5t-13.5 57.5q0 27 12.5 55.5t24 43t37.5 44.5l186 215q80 92 119 92q25 0 38 -18.5t13 -44.5q0 -44 -51 -152l-98 -213q-4 -16 -4 -22q0 -7 6 -31zM731 467
l96 -207q52 -111 52 -151q0 -25 -13.5 -43.5t-38.5 -18.5q-24 0 -51 22.5t-67 67.5l-187 217q-25 30 -36 44t-24 43t-13 57t12 55.5t24 43t37 44.5l187 215q42 49 69 70.5t49 21.5q25 0 38.5 -19t13.5 -44q0 -42 -52 -152l-98 -213q-4 -16 -4 -22q0 -7 6 -31z" />
    <glyph glyph-name="logicalnot" unicode="&#xac;" horiz-adv-x="796" 
d="M621 203q-105 0 -105 67v334q0 29 -22 29h-388q-33 0 -48 24.5t-15 79.5q0 56 15 81.5t48 25.5h547q74 0 74 -74v-500q0 -67 -106 -67z" />
    <glyph glyph-name="registered" unicode="&#xae;" horiz-adv-x="1107" 
d="M553 1497q146 0 259 -82.5t172.5 -222t59.5 -309.5q0 -169 -59.5 -308t-172.5 -222t-259 -83t-259 83.5t-172 222.5t-59 307q0 126 35 238.5t97.5 195.5t155 131.5t202.5 48.5zM553 393q117 0 200 68t121.5 176.5t38.5 245.5q0 138 -38.5 246t-121.5 175.5t-200 67.5
q-116 0 -198.5 -67t-121 -175.5t-38.5 -246.5q0 -137 38.5 -246t121 -176.5t198.5 -67.5zM756 700q11 -24 23 -40t17 -24.5t5 -21.5q0 -26 -25 -26q-7 0 -33 2t-53 2q-25 0 -55.5 -2t-36.5 -2q-27 0 -27 26q0 10 11.5 24t11.5 34q0 22 -14 57l-19 45q-12 31 -24 31h-9
q-16 0 -16 -25v-78q0 -34 14.5 -54.5t14.5 -33.5q0 -12 -8.5 -19t-20.5 -7q-4 0 -27.5 2t-52.5 2q-30 0 -54.5 -2t-29.5 -2q-31 0 -31 26q0 10 15.5 32t15.5 56v383q0 32 -15.5 49t-15.5 33q0 11 10.5 21t26.5 10q4 0 25 -2t51 -2q10 0 54 3t79 3q106 0 161.5 -54.5
t55.5 -146.5q0 -105 -86 -159zM530 883h15q23 0 42 30t19 88q0 60 -16 90.5t-41 30.5q-37 0 -37 -41v-170q0 -28 18 -28z" />
    <glyph glyph-name="macron" unicode="&#xaf;" horiz-adv-x="663" 
d="M139 1266q-55 0 -55 94q0 50 13 72t42 22q33 0 96 -1t97 -1t95.5 1t96.5 1q54 0 54 -94t-54 -94q-34 0 -96 2t-96 2t-96.5 -2t-96.5 -2z" />
    <glyph glyph-name="degree" unicode="&#xb0;" horiz-adv-x="692" 
d="M346 866q-130 0 -225.5 93t-95.5 227q0 135 93 227t228 92q136 0 229 -92t93 -227t-93 -227.5t-229 -92.5zM346 1040q58 0 96.5 42.5t38.5 103.5q0 63 -39 105t-96 42q-58 0 -96.5 -42.5t-38.5 -104.5t39 -104t96 -42z" />
    <glyph glyph-name="plusminus" unicode="&#xb1;" horiz-adv-x="860" 
d="M430 307q-104 0 -104 68v145q0 27 -25 27h-197q-33 0 -48 25t-15 81q0 55 15 80t48 25h197q25 0 25 28v279q0 68 104 68q105 0 105 -68v-279q0 -28 22 -28h199q33 0 48 -25t15 -80q0 -56 -15 -81t-48 -25h-199q-22 0 -22 -27v-145q0 -68 -105 -68zM104 51q-33 0 -48 25.5
t-15 81.5q0 55 15 79.5t48 24.5h652q63 0 63 -104q0 -107 -63 -107h-652z" />
    <glyph glyph-name="uni00B2" unicode="&#xb2;" horiz-adv-x="679" 
d="M608 891q41 0 41 -51q0 -40 -24 -111l-52 -143q-14 -40 -26.5 -55t-36.5 -15q-13 0 -38.5 16.5t-57.5 16.5h-213q-9 0 -49 -2t-70 -2q-32 0 -50 17t-18 40q0 35 21 76q4 8 41.5 70.5t83.5 139t65 111.5q90 159 90 263q0 39 -16 62.5t-45 23.5q-16 0 -28.5 -6.5
t-24.5 -22.5t-19.5 -28.5t-21.5 -39.5q-21 -41 -58 -41q-49 0 -49 68q0 30 10 65q27 93 98 147t173 54q121 0 191.5 -74t70.5 -196q0 -82 -30 -144t-85 -129q-42 -52 -83 -95t-86.5 -86t-65.5 -64h157q44 0 85 26t67 70q22 39 53 39z" />
    <glyph glyph-name="uni00B3" unicode="&#xb3;" horiz-adv-x="665" 
d="M393 1161q100 -14 165 -106.5t65 -194.5q0 -141 -88 -237.5t-236 -96.5q-101 0 -165 50.5t-91 130.5q-12 37 -12 77q0 29 15.5 45.5t39.5 16.5q37 0 61 -47q24 -42 46 -61t51 -19q38 0 65 34.5t27 110.5q0 61 -27 96t-67 35q-12 0 -29 -3t-25 -3q-20 0 -32.5 17t-12.5 41
q0 14 9.5 30t21.5 27.5t34.5 32t35.5 34.5q81 85 151 166h-114q-54 0 -78 -18t-62 -82q-23 -39 -51 -39q-16 0 -28.5 14.5t-12.5 38.5q0 31 21 103l36 125q16 56 31 68q11 9 25 9q19 0 46.5 -18t57.5 -18h170q9 0 43.5 2t44.5 2q94 0 94 -82q0 -47 -36 -88
q-41 -45 -189 -193z" />
    <glyph glyph-name="acute" unicode="&#xb4;" horiz-adv-x="663" 
d="M264 1174q-26 0 -40.5 11t-14.5 27q0 15 14 52q37 97 107 237q15 32 43.5 43.5t89.5 11.5q76 0 99.5 -11.5t23.5 -41.5q0 -21 -12.5 -39.5t-57.5 -70.5q-15 -17 -45 -54t-58 -68t-59 -59q-41 -38 -90 -38z" />
    <glyph glyph-name="uni00B5" unicode="&#xb5;" horiz-adv-x="915" 
d="M879 98q2 -52 -6 -70.5t-39 -31.5q-35 -14 -82 -14q-100 0 -152 79q-66 -81 -174 -81q-75 0 -131 38v-317q0 -48 -18.5 -66t-79.5 -18q-64 0 -83.5 18.5t-19.5 65.5v1260q0 47 19.5 65t83.5 18q62 0 80 -17.5t18 -65.5v-582q0 -193 131 -193q68 0 98.5 50.5t30.5 150.5
v574q0 47 19 65t83 18q63 0 81 -18t18 -65v-689q0 -84 49 -84q8 0 18.5 3.5t16.5 3.5q19 0 28.5 -22t10.5 -75z" />
    <glyph glyph-name="paragraph" unicode="&#xb6;" horiz-adv-x="1363" 
d="M1249 1473q74 0 74 -72q0 -25 -14.5 -42.5t-35.5 -29t-41.5 -25.5t-35 -41t-14.5 -67v-1102q0 -59 -27 -88t-86 -29q-64 0 -90.5 28t-26.5 89v1063q0 59 -17.5 90t-62.5 31q-79 0 -79 -121v-1063q0 -59 -27 -88t-86 -29q-61 0 -89 29t-28 88v391q-247 6 -382.5 143.5
t-135.5 377.5q0 231 146.5 354t422.5 123q110 0 235 -8.5t159 -8.5q69 0 145.5 3.5t95.5 3.5z" />
    <glyph glyph-name="periodcentered" unicode="&#xb7;" horiz-adv-x="438" 
d="M233 637q-84 0 -137 -52.5t-53 -127.5q0 -74 43.5 -117t118.5 -43q84 0 138 52.5t54 127.5q0 73 -45 116.5t-119 43.5z" />
    <glyph glyph-name="cedilla" unicode="&#xb8;" horiz-adv-x="663" 
d="M360 -84q70 0 115 -45t45 -113q0 -75 -50.5 -121.5t-133.5 -46.5q-107 0 -156 41q-28 25 -28 56q0 18 10 31.5t28 13.5q8 0 37 -13q58 -28 92 -28q25 0 39.5 14.5t14.5 38.5q0 49 -47 49q-26 0 -66 -20q-17 4 -37 24.5t-28 38.5l47 209h96l-27 -137q21 8 49 8z" />
    <glyph glyph-name="uni00B9" unicode="&#xb9;" horiz-adv-x="530" 
d="M115 545q-25 0 -38.5 13t-13.5 32q0 20 11.5 33t25.5 20.5t25.5 30t11.5 59.5v516q0 64 -31 64q-11 0 -26.5 -4t-28.5 -4q-18 0 -30.5 15t-12.5 40q0 37 45 53q7 3 41 14t77 26.5t91 35.5q26 11 57.5 24.5t42.5 17.5t24 7.5t24 3.5q22 0 34.5 -13.5t12.5 -35.5
q0 -28 -25.5 -63t-25.5 -74v-623q0 -37 11.5 -59.5t25 -30t25 -20.5t11.5 -33q0 -19 -14 -32t-39 -13q-11 0 -56 2t-100 2q-54 0 -99 -2t-56 -2z" />
    <glyph glyph-name="ordmasculine" unicode="&#xba;" horiz-adv-x="718" 
d="M354 694q-149 0 -236 104t-87 281q0 171 93 288.5t245 117.5q148 0 233.5 -104.5t85.5 -280.5q0 -169 -93 -287.5t-241 -118.5zM373 811q33 0 48 50.5t15 176.5q0 156 -23.5 244t-66.5 88q-32 0 -48.5 -52.5t-16.5 -178.5q0 -155 24.5 -241.5t67.5 -86.5z" />
    <glyph glyph-name="guillemotright" unicode="&#xbb;" horiz-adv-x="935" 
d="M414 641q25 -29 37 -44.5t24 -43t12 -55.5t-13 -57t-24 -43t-36 -44l-187 -217q-40 -45 -67 -67.5t-51 -22.5q-25 0 -38.5 18.5t-13.5 43.5q0 40 52 151l96 207q6 24 6 31q0 6 -4 22l-98 213q-52 110 -52 152q0 25 13.5 44t38.5 19q22 0 49 -21.5t69 -70.5zM811 641
q26 -30 37.5 -44.5t24 -43t12.5 -55.5q0 -28 -13.5 -57.5t-24 -42.5t-36.5 -44l-186 -217q-79 -90 -119 -90q-25 0 -38 18.5t-13 43.5q0 42 51 151l96 207q6 24 6 31q0 6 -4 22l-98 213q-51 108 -51 152q0 26 13 44.5t38 18.5q39 0 119 -92z" />
    <glyph glyph-name="onequarter" unicode="&#xbc;" horiz-adv-x="1673" 
d="M506 543q0 -19 -14 -32t-39 -13q-11 0 -56 2t-100 2q-54 0 -99.5 -2t-56.5 -2q-25 0 -38 13t-13 32q0 20 11.5 33t25.5 20.5t25.5 30t11.5 59.5v516q0 64 -31 64q-11 0 -26.5 -4.5t-28.5 -4.5q-18 0 -30.5 15.5t-12.5 40.5q0 37 45 53q7 3 41 14t77 26.5t91 35.5
q27 11 57.5 24t41.5 17.5t24 8t24 3.5q22 0 34.5 -13.5t12.5 -35.5q0 -28 -25.5 -63t-25.5 -74v-623q0 -37 11.5 -59.5t25.5 -30t25.5 -20.5t11.5 -33zM1190 1401q0 -37 -37 -127l-479 -1188q-49 -119 -109 -119q-40 0 -67 25t-27 57q0 44 33 125l481 1186q16 37 27.5 58
t33.5 41t48 20q39 0 67.5 -23.5t28.5 -54.5zM1567 406q15 0 22 -1t16.5 -7t13 -20.5t3.5 -39.5v-59q0 -40 -9.5 -54t-45.5 -14h-17v-39q0 -33 7.5 -54.5t17 -29t17 -19t7.5 -28.5q0 -19 -14 -32t-39 -13q-8 0 -44 2t-85 2q-47 0 -88.5 -2t-48.5 -2q-25 0 -38 13t-13 32
q0 18 8.5 30.5t19 19.5t19 28t8.5 53v39h-207q-86 0 -86 72q0 33 10.5 66t42.5 110l164 407q23 58 53.5 83.5t88.5 25.5h100q52 0 76 -17t24 -65v-487h17zM1303 797l-148 -391h148v391z" />
    <glyph glyph-name="onehalf" unicode="&#xbd;" horiz-adv-x="1701" 
d="M506 543q0 -19 -14 -32t-39 -13q-11 0 -56 2t-100 2q-54 0 -99.5 -2t-56.5 -2q-25 0 -38 13t-13 32q0 20 11.5 33t25.5 20.5t25.5 30t11.5 59.5v516q0 64 -31 64q-11 0 -26.5 -4.5t-28.5 -4.5q-18 0 -30.5 15.5t-12.5 40.5q0 37 45 53q7 3 41 14t77 26.5t91 35.5
q27 11 57.5 24t41.5 17.5t24 8t24 3.5q22 0 34.5 -13.5t12.5 -35.5q0 -28 -25.5 -63t-25.5 -74v-623q0 -37 11.5 -59.5t25.5 -30t25.5 -20.5t11.5 -33zM1167 1401q0 -37 -37 -127l-479 -1188q-49 -119 -108 -119q-40 0 -67 25t-27 57q0 47 32 125l482 1186q17 38 28 58.5
t32.5 40.5t47.5 20q39 0 67.5 -23.5t28.5 -54.5zM1616 342q41 0 41 -51q0 -38 -25 -111l-51 -143q-14 -40 -26.5 -55t-36.5 -15q-14 0 -40 16.5t-57 16.5h-213q-9 0 -48.5 -2t-69.5 -2q-32 0 -50 17t-18 40q0 37 20 76q4 8 42 70.5t84 139.5t65 112q90 159 90 262
q0 39 -16 62.5t-45 23.5t-48.5 -23t-46.5 -74q-21 -40 -57 -40q-49 0 -49 67q0 31 10 66q27 93 97.5 146.5t172.5 53.5q122 0 192.5 -74t70.5 -196q0 -82 -30 -143.5t-85 -128.5q-42 -52 -83 -95t-87 -86.5t-66 -64.5h158q44 0 85 26t67 70q22 39 53 39z" />
    <glyph glyph-name="threequarters" unicode="&#xbe;" horiz-adv-x="1708" 
d="M633 813q0 -141 -88 -237.5t-236 -96.5q-101 0 -165 50t-91 130q-12 37 -12 78q0 29 15.5 45.5t39.5 16.5q38 0 62 -47q24 -43 46 -61.5t50 -18.5q38 0 65 34.5t27 110.5q0 61 -27 96t-67 35q-12 0 -28.5 -3t-24.5 -3q-20 0 -32.5 16.5t-12.5 40.5q0 14 9.5 30t21 27.5
t34 33t35.5 34.5q91 95 152 166h-115q-54 0 -77.5 -18t-61.5 -82q-23 -39 -52 -39q-16 0 -28.5 14.5t-12.5 38.5q0 31 21 103l37 125q16 55 28 67q11 10 27 10q18 0 46 -18t58 -18h170q9 0 44 2t45 2q94 0 94 -82q0 -46 -37 -88q-41 -45 -189 -193q100 -14 165 -106.5
t65 -194.5zM1235 1401q0 -37 -37 -127l-479 -1188q-49 -119 -109 -119q-40 0 -67 25t-27 57q0 44 33 125l481 1186q16 37 27.5 58t33.5 41t48 20q39 0 67.5 -23.5t28.5 -54.5zM1608 406q15 0 22 -1t16.5 -7t13 -20.5t3.5 -39.5v-59q0 -40 -9.5 -54t-45.5 -14h-17v-39
q0 -33 7.5 -54.5t17 -29t17 -19t7.5 -28.5q0 -19 -14 -32t-39 -13q-8 0 -44 2t-85 2q-47 0 -88.5 -2t-48.5 -2q-25 0 -38 13t-13 32q0 18 8.5 30.5t19 19.5t19 28t8.5 53v39h-207q-86 0 -86 72q0 33 10.5 66t42.5 110l164 407q23 58 53.5 83.5t88.5 25.5h100q52 0 76 -17
t24 -65v-487h17zM1343 797l-147 -391h147v391z" />
    <glyph glyph-name="questiondown" unicode="&#xbf;" horiz-adv-x="815" 
d="M436 770q75 0 123.5 46t48.5 112t-38.5 103.5t-106.5 37.5q-77 0 -125.5 -46.5t-48.5 -113.5q0 -64 40 -101.5t107 -37.5zM459 629q46 0 57 -47q33 -130 33 -242q0 -81 -20.5 -134t-92.5 -143q-145 -180 -145 -278q0 -43 20.5 -66.5t55.5 -23.5q116 0 168 244
q13 61 63 61q25 0 66 -31q127 -97 127 -180q0 -40 -31.5 -84t-83.5 -81t-126.5 -61t-152.5 -24q-69 0 -133 20.5t-116.5 60t-83.5 104.5t-31 147q0 63 17 121.5t50.5 112t63.5 91t76 87.5q77 82 98.5 109.5t30.5 58.5q15 52 32 131q11 47 58 47z" />
    <glyph glyph-name="Agrave" unicode="&#xc0;" horiz-adv-x="1130" 
d="M541 1581q-37 36 -97 107t-67 79q-51 56 -61 76q-7 17 -7 33q0 30 23.5 41.5t99.5 11.5q64 0 91.5 -12t41.5 -43q73 -155 107 -242q14 -37 14 -51q0 -16 -16 -27.5t-43 -11.5q-44 0 -86 39zM1028 244q7 -35 20 -61.5t26 -40.5t25 -25.5t19.5 -25t7.5 -30.5
q0 -30 -18.5 -48.5t-54.5 -18.5q-1 0 -62 3t-127 3q-64 0 -135 -3t-90 -3q-38 0 -61 15.5t-23 45.5q0 22 14.5 38.5t32.5 25.5t32.5 30t14.5 52q0 36 -10 84l-21 110q-7 37 -21 47.5t-48 10.5h-148q-33 0 -47.5 -13.5t-23.5 -52.5l-21 -98q-10 -49 -10 -88q0 -31 15 -52
t33 -30t33 -25.5t15 -38.5q0 -29 -22 -45t-62 -16q-26 0 -65.5 3t-61.5 3q-30 0 -72.5 -3t-70.5 -3q-64 0 -64 57q0 19 9.5 32.5t25 25.5t32.5 27.5t33.5 46t26.5 73.5l177 797q7 32 19.5 90t22.5 105t17 89q8 49 18 74t35 43t65 23.5t111 5.5q95 0 139 -13t61 -41t28 -94
q4 -25 57 -282zM532 618q44 0 35 52l-84 442l-92 -438q-12 -56 35 -56h106z" />
    <glyph glyph-name="Aacute" unicode="&#xc1;" horiz-adv-x="1130" 
d="M516 1542q-26 0 -40.5 11.5t-14.5 27.5q0 14 14 51q39 101 107 238q15 32 43.5 43.5t89.5 11.5q76 0 99.5 -11.5t23.5 -41.5q0 -22 -13 -41t-57 -70q-15 -17 -45 -53.5t-58 -67.5t-59 -59q-42 -39 -90 -39zM1028 244q7 -35 20 -61.5t26 -40.5t25 -25.5t19.5 -25
t7.5 -30.5q0 -30 -18.5 -48.5t-54.5 -18.5q-1 0 -62 3t-127 3q-64 0 -135 -3t-90 -3q-38 0 -61 15.5t-23 45.5q0 22 14.5 38.5t32.5 25.5t32.5 30t14.5 52q0 36 -10 84l-21 110q-7 37 -21 47.5t-48 10.5h-148q-33 0 -47.5 -13.5t-23.5 -52.5l-21 -98q-10 -49 -10 -88
q0 -31 15 -52t33 -30t33 -25.5t15 -38.5q0 -29 -22 -45t-62 -16q-26 0 -65.5 3t-61.5 3q-30 0 -72.5 -3t-70.5 -3q-64 0 -64 57q0 19 9.5 32.5t25 25.5t32.5 27.5t33.5 46t26.5 73.5l177 797q7 32 19.5 90t22.5 105t17 89q8 49 18 74t35 43t65 23.5t111 5.5q95 0 139 -13
t61 -41t28 -94q4 -25 57 -282zM532 618q44 0 35 52l-84 442l-92 -438q-12 -56 35 -56h106z" />
    <glyph glyph-name="Acircumflex" unicode="&#xc2;" horiz-adv-x="1130" 
d="M375 1556q-30 0 -47 14t-17 38q0 20 21 63q36 74 110 199q21 34 46 47.5t83 13.5q57 0 83.5 -13.5t47.5 -49.5q78 -131 109 -195q20 -44 20 -65q0 -23 -17 -37.5t-46 -14.5q-41 0 -76 43l-121 148l-120 -148q-36 -43 -76 -43zM1028 244q7 -35 20 -61.5t26 -40.5t25 -25.5
t19.5 -25t7.5 -30.5q0 -30 -18.5 -48.5t-54.5 -18.5q-1 0 -62 3t-127 3q-64 0 -135 -3t-90 -3q-38 0 -61 15.5t-23 45.5q0 22 14.5 38.5t32.5 25.5t32.5 30t14.5 52q0 36 -10 84l-21 110q-7 37 -21 47.5t-48 10.5h-148q-33 0 -47.5 -13.5t-23.5 -52.5l-21 -98
q-10 -49 -10 -88q0 -31 15 -52t33 -30t33 -25.5t15 -38.5q0 -29 -22 -45t-62 -16q-26 0 -65.5 3t-61.5 3q-30 0 -72.5 -3t-70.5 -3q-64 0 -64 57q0 19 9.5 32.5t25 25.5t32.5 27.5t33.5 46t26.5 73.5l177 797q7 32 19.5 90t22.5 105t17 89q8 49 18 74t35 43t65 23.5t111 5.5
q95 0 139 -13t61 -41t28 -94q4 -25 57 -282zM532 618q44 0 35 52l-84 442l-92 -438q-12 -56 35 -56h106z" />
    <glyph glyph-name="Atilde" unicode="&#xc3;" horiz-adv-x="1130" 
d="M356 1585q-57 0 -57 66q0 33 12 82q43 168 160 168q40 0 74 -24t52.5 -53t38.5 -53t34 -24q17 0 27 14.5t24 50.5q14 37 28 55.5t37 18.5q58 0 58 -65q0 -30 -13 -84q-44 -166 -159 -166q-34 0 -63 15.5t-48.5 37.5t-35.5 44.5t-29.5 38t-24.5 15.5q-13 0 -22.5 -9.5
t-14 -20.5t-12.5 -33q-25 -74 -66 -74zM1028 244q7 -35 20 -61.5t26 -40.5t25 -25.5t19.5 -25t7.5 -30.5q0 -30 -18.5 -48.5t-54.5 -18.5q-1 0 -62 3t-127 3q-64 0 -135 -3t-90 -3q-38 0 -61 15.5t-23 45.5q0 22 14.5 38.5t32.5 25.5t32.5 30t14.5 52q0 36 -10 84l-21 110
q-7 37 -21 47.5t-48 10.5h-148q-33 0 -47.5 -13.5t-23.5 -52.5l-21 -98q-10 -49 -10 -88q0 -31 15 -52t33 -30t33 -25.5t15 -38.5q0 -29 -22 -45t-62 -16q-26 0 -65.5 3t-61.5 3q-30 0 -72.5 -3t-70.5 -3q-64 0 -64 57q0 19 9.5 32.5t25 25.5t32.5 27.5t33.5 46t26.5 73.5
l177 797q7 32 19.5 90t22.5 105t17 89q8 49 18 74t35 43t65 23.5t111 5.5q95 0 139 -13t61 -41t28 -94q4 -25 57 -282zM532 618q44 0 35 52l-84 442l-92 -438q-12 -56 35 -56h106z" />
    <glyph glyph-name="Adieresis" unicode="&#xc4;" horiz-adv-x="1130" 
d="M391 1569q-62 0 -103.5 43.5t-41.5 107.5q0 68 42 113t107 45q62 0 102 -43.5t40 -110.5q0 -68 -40.5 -111.5t-105.5 -43.5zM752 1569q-62 0 -103 43.5t-41 107.5q0 68 42 113t108 45q62 0 101.5 -43.5t39.5 -110.5t-40.5 -111t-106.5 -44zM1028 244q7 -35 20 -61.5
t26 -40.5t25 -25.5t19.5 -25t7.5 -30.5q0 -30 -18.5 -48.5t-54.5 -18.5q-1 0 -62 3t-127 3q-64 0 -135 -3t-90 -3q-38 0 -61 15.5t-23 45.5q0 22 14.5 38.5t32.5 25.5t32.5 30t14.5 52q0 36 -10 84l-21 110q-7 37 -21 47.5t-48 10.5h-148q-33 0 -47.5 -13.5t-23.5 -52.5
l-21 -98q-10 -49 -10 -88q0 -31 15 -52t33 -30t33 -25.5t15 -38.5q0 -29 -22 -45t-62 -16q-26 0 -65.5 3t-61.5 3q-30 0 -72.5 -3t-70.5 -3q-64 0 -64 57q0 19 9.5 32.5t25 25.5t32.5 27.5t33.5 46t26.5 73.5l177 797q7 32 19.5 90t22.5 105t17 89q8 49 18 74t35 43t65 23.5
t111 5.5q95 0 139 -13t61 -41t28 -94q4 -25 57 -282zM532 618q44 0 35 52l-84 442l-92 -438q-12 -56 35 -56h106z" />
    <glyph glyph-name="Aring" unicode="&#xc5;" horiz-adv-x="1130" 
d="M571 1524q-211 0 -211 217q0 104 56 158.5t162 54.5q102 0 155 -52.5t53 -152.5q0 -110 -54.5 -167.5t-160.5 -57.5zM575 1855q-67 0 -67 -120q0 -111 63 -111q37 0 53.5 29t16.5 92q0 53 -17.5 81.5t-48.5 28.5zM1028 244q7 -35 20 -61.5t26 -40.5t25 -25.5t19.5 -25
t7.5 -30.5q0 -30 -18.5 -48.5t-54.5 -18.5q-1 0 -62 3t-127 3q-64 0 -135 -3t-90 -3q-38 0 -61 15.5t-23 45.5q0 22 14.5 38.5t32.5 25.5t32.5 30t14.5 52q0 36 -10 84l-21 110q-7 37 -21 47.5t-48 10.5h-148q-33 0 -47.5 -13.5t-23.5 -52.5l-21 -98q-10 -49 -10 -88
q0 -31 15 -52t33 -30t33 -25.5t15 -38.5q0 -29 -22 -45t-62 -16q-26 0 -65.5 3t-61.5 3q-30 0 -72.5 -3t-70.5 -3q-64 0 -64 57q0 19 9.5 32.5t25 25.5t32.5 27.5t33.5 46t26.5 73.5l177 797q7 32 19.5 90t22.5 105t17 89q8 49 18 74t35 43t65 23.5t111 5.5q95 0 139 -13
t61 -41t28 -94q4 -25 57 -282zM532 618q44 0 35 52l-84 442l-92 -438q-12 -56 35 -56h106z" />
    <glyph glyph-name="AE" unicode="&#xc6;" horiz-adv-x="1611" 
d="M1550 483q25 0 41.5 -18.5t16.5 -50.5q0 -50 -39 -160l-72 -205q-20 -55 -36 -76.5t-48 -21.5q-22 0 -59.5 24.5t-79.5 24.5h-393q-67 0 -121 -3t-66 -3q-34 0 -51.5 17.5t-17.5 43.5q0 21 7.5 35.5t18.5 24.5t22.5 23t19 40.5t7.5 67.5v157q0 26 -6 38t-24 12h-197
q-32 0 -51 -14.5t-31 -49.5l-43 -117q-26 -72 -26 -94q0 -21 12 -35t26.5 -21t26.5 -24t12 -43q0 -30 -22 -45.5t-60 -15.5q-33 0 -81 3t-66 3q-20 0 -72 -3t-75 -3q-24 0 -40 15.5t-16 37.5q0 28 10 43.5t28 25t38 20t44 38t42 70.5l371 874q37 86 37 129q0 28 -7.5 47.5
t-18.5 30.5t-22 21.5t-18.5 26t-7.5 36.5q0 64 78 64q14 0 67.5 -3.5t118.5 -3.5h496q33 0 57 13.5t43.5 27t40.5 13.5q30 0 46 -22.5t38 -86.5l63 -186q39 -112 39 -158q0 -30 -17 -49t-40 -19q-47 0 -76 56q-77 147 -130.5 197.5t-127.5 50.5h-29q-38 0 -55.5 -24
t-17.5 -75v-325q0 -54 43 -54h12q20 0 37.5 23t28.5 51t30.5 51t44.5 23q56 0 56 -80q0 -23 -2 -74t-2 -76q0 -26 2 -76.5t2 -74.5q0 -80 -56 -80q-25 0 -44 23.5t-29.5 51.5t-28.5 51.5t-41 23.5h-10q-43 0 -43 -54v-346q0 -52 17.5 -75t58.5 -23h61q68 0 124.5 57.5
t151.5 204.5q19 29 36.5 43t43.5 14zM670 618q30 0 30 48v555l-202 -545q-11 -34 -4.5 -46t32.5 -12h144z" />
    <glyph glyph-name="Ccedilla" unicode="&#xc7;" horiz-adv-x="1007" 
d="M553 -43q-29 0 -43 2l-10 -51q21 8 49 8q70 0 115 -45t45 -113q0 -75 -51 -121.5t-134 -46.5q-106 0 -155 41q-29 26 -29 56q0 18 10.5 31.5t28.5 13.5q8 0 37 -13q58 -28 92 -28q24 0 38.5 14.5t14.5 38.5q0 49 -47 49q-25 0 -65 -20q-17 4 -37.5 24.5t-28.5 38.5
l33 141q-175 58 -271 251t-96 474q0 216 62.5 402t173 296.5t241.5 110.5q49 0 90.5 -12.5t68 -24.5t38.5 -12t24 14.5t28.5 29t37.5 14.5q61 0 82 -111l55 -270q17 -87 17 -103q0 -35 -20.5 -53t-45.5 -18q-22 0 -36 13t-29 40q-6 11 -17 31q-31 57 -47 85t-42.5 69.5
t-45 60.5t-42 34t-46.5 15q-158 0 -158 -580q0 -575 195 -575q82 0 128.5 75.5t61.5 196.5q5 40 24 63t50 23q35 0 54.5 -26.5t19.5 -71.5q0 -220 -112.5 -340.5t-305.5 -120.5z" />
    <glyph glyph-name="Egrave" unicode="&#xc8;" horiz-adv-x="1046" 
d="M502 1581q-37 36 -97 107t-67 79q-51 56 -61 76q-7 17 -7 33q0 30 23.5 41.5t99.5 11.5q64 0 91.5 -12t41.5 -43q73 -155 107 -242q14 -37 14 -51q0 -16 -16 -27.5t-43 -11.5q-44 0 -86 39zM985 483q25 0 41 -18.5t16 -50.5q0 -53 -38 -160l-72 -205q-20 -55 -36 -76.5
t-48 -21.5q-22 0 -59.5 24.5t-79.5 24.5h-398q-67 0 -120 -3t-66 -3q-34 0 -52 17.5t-18 43.5q0 25 12 42.5t26 27.5t26 41t12 80v975q0 40 -8 67t-19 40t-22 23t-19 24t-8 36q0 26 18 44t52 18q11 0 65 -3.5t121 -3.5h348q33 0 57.5 13.5t44 27t40.5 13.5q30 0 46 -22.5
t38 -86.5l63 -186q43 -125 43 -156q0 -30 -19 -50t-44 -20q-21 0 -35.5 11.5t-36.5 44.5q-97 148 -152.5 198t-119.5 50h-23q-74 0 -74 -99v-325q0 -54 43 -54h13q20 0 37.5 23t28.5 51t30.5 51t44.5 23q55 0 55 -80q0 -23 -2 -74t-2 -76q0 -26 2 -76.5t2 -74.5
q0 -80 -55 -80q-25 0 -44 23.5t-29.5 51.5t-28.5 51.5t-41 23.5h-11q-43 0 -43 -54v-346q0 -52 17.5 -75t58.5 -23h51q28 0 52.5 6.5t50 26t43.5 35.5t47 54.5t45 61.5t53 78q19 29 36.5 43t43.5 14z" />
    <glyph glyph-name="Eacute" unicode="&#xc9;" horiz-adv-x="1046" 
d="M477 1542q-26 0 -40.5 11.5t-14.5 27.5q0 14 14 51q39 101 107 238q15 32 43.5 43.5t89.5 11.5q76 0 99.5 -11.5t23.5 -41.5q0 -22 -13 -41t-57 -70q-15 -17 -45 -53.5t-58 -67.5t-59 -59q-42 -39 -90 -39zM985 483q25 0 41 -18.5t16 -50.5q0 -53 -38 -160l-72 -205
q-20 -55 -36 -76.5t-48 -21.5q-22 0 -59.5 24.5t-79.5 24.5h-398q-67 0 -120 -3t-66 -3q-34 0 -52 17.5t-18 43.5q0 25 12 42.5t26 27.5t26 41t12 80v975q0 40 -8 67t-19 40t-22 23t-19 24t-8 36q0 26 18 44t52 18q11 0 65 -3.5t121 -3.5h348q33 0 57.5 13.5t44 27
t40.5 13.5q30 0 46 -22.5t38 -86.5l63 -186q43 -125 43 -156q0 -30 -19 -50t-44 -20q-21 0 -35.5 11.5t-36.5 44.5q-97 148 -152.5 198t-119.5 50h-23q-74 0 -74 -99v-325q0 -54 43 -54h13q20 0 37.5 23t28.5 51t30.5 51t44.5 23q55 0 55 -80q0 -23 -2 -74t-2 -76
q0 -26 2 -76.5t2 -74.5q0 -80 -55 -80q-25 0 -44 23.5t-29.5 51.5t-28.5 51.5t-41 23.5h-11q-43 0 -43 -54v-346q0 -52 17.5 -75t58.5 -23h51q28 0 52.5 6.5t50 26t43.5 35.5t47 54.5t45 61.5t53 78q19 29 36.5 43t43.5 14z" />
    <glyph glyph-name="Ecircumflex" unicode="&#xca;" horiz-adv-x="1046" 
d="M336 1556q-30 0 -47 14t-17 38q0 20 21 63q36 74 110 199q21 34 46 47.5t83 13.5t84.5 -13.5t47.5 -49.5q74 -123 108 -195q21 -47 21 -65q0 -23 -17.5 -37.5t-46.5 -14.5q-41 0 -76 43l-121 148l-120 -148q-36 -43 -76 -43zM985 483q25 0 41 -18.5t16 -50.5
q0 -53 -38 -160l-72 -205q-20 -55 -36 -76.5t-48 -21.5q-22 0 -59.5 24.5t-79.5 24.5h-398q-67 0 -120 -3t-66 -3q-34 0 -52 17.5t-18 43.5q0 25 12 42.5t26 27.5t26 41t12 80v975q0 40 -8 67t-19 40t-22 23t-19 24t-8 36q0 26 18 44t52 18q11 0 65 -3.5t121 -3.5h348
q33 0 57.5 13.5t44 27t40.5 13.5q30 0 46 -22.5t38 -86.5l63 -186q43 -125 43 -156q0 -30 -19 -50t-44 -20q-21 0 -35.5 11.5t-36.5 44.5q-97 148 -152.5 198t-119.5 50h-23q-74 0 -74 -99v-325q0 -54 43 -54h13q20 0 37.5 23t28.5 51t30.5 51t44.5 23q55 0 55 -80
q0 -23 -2 -74t-2 -76q0 -26 2 -76.5t2 -74.5q0 -80 -55 -80q-25 0 -44 23.5t-29.5 51.5t-28.5 51.5t-41 23.5h-11q-43 0 -43 -54v-346q0 -52 17.5 -75t58.5 -23h51q28 0 52.5 6.5t50 26t43.5 35.5t47 54.5t45 61.5t53 78q19 29 36.5 43t43.5 14z" />
    <glyph glyph-name="Edieresis" unicode="&#xcb;" horiz-adv-x="1046" 
d="M352 1569q-62 0 -103.5 43.5t-41.5 107.5q0 68 42 113t107 45q62 0 102 -43.5t40 -110.5q0 -68 -40.5 -111.5t-105.5 -43.5zM713 1569q-62 0 -103 43.5t-41 107.5q0 68 42 113t108 45q62 0 101.5 -43.5t39.5 -110.5t-40.5 -111t-106.5 -44zM985 483q25 0 41 -18.5
t16 -50.5q0 -53 -38 -160l-72 -205q-20 -55 -36 -76.5t-48 -21.5q-22 0 -59.5 24.5t-79.5 24.5h-398q-67 0 -120 -3t-66 -3q-34 0 -52 17.5t-18 43.5q0 25 12 42.5t26 27.5t26 41t12 80v975q0 40 -8 67t-19 40t-22 23t-19 24t-8 36q0 26 18 44t52 18q11 0 65 -3.5t121 -3.5
h348q33 0 57.5 13.5t44 27t40.5 13.5q30 0 46 -22.5t38 -86.5l63 -186q43 -125 43 -156q0 -30 -19 -50t-44 -20q-21 0 -35.5 11.5t-36.5 44.5q-97 148 -152.5 198t-119.5 50h-23q-74 0 -74 -99v-325q0 -54 43 -54h13q20 0 37.5 23t28.5 51t30.5 51t44.5 23q55 0 55 -80
q0 -23 -2 -74t-2 -76q0 -26 2 -76.5t2 -74.5q0 -80 -55 -80q-25 0 -44 23.5t-29.5 51.5t-28.5 51.5t-41 23.5h-11q-43 0 -43 -54v-346q0 -52 17.5 -75t58.5 -23h51q28 0 52.5 6.5t50 26t43.5 35.5t47 54.5t45 61.5t53 78q19 29 36.5 43t43.5 14z" />
    <glyph glyph-name="Igrave" unicode="&#xcc;" horiz-adv-x="618" 
d="M365 1542q-44 0 -86 39q-37 36 -97 107t-67 79q-51 56 -61 76q-7 17 -7 33q0 30 23.5 41.5t99.5 11.5q64 0 91.5 -12t41.5 -43q73 -155 107 -242q14 -37 14 -51q0 -16 -16 -27.5t-43 -11.5zM127 -6q-36 0 -54 17.5t-18 43.5t12 43.5t26 27.5t26 40.5t12 79.5v968
q0 49 -12 79.5t-26 40.5t-26 27.5t-12 43.5q0 25 22.5 43t57.5 18q11 0 61 -3t115 -3t119 3t64 3q35 0 53 -17.5t18 -43.5q0 -22 -8 -36.5t-19.5 -24.5t-23 -23t-19.5 -40t-8 -67v-968q0 -40 8 -67t19.5 -40t23 -23t19.5 -24.5t8 -36.5q0 -26 -18 -43.5t-53 -17.5
q-10 0 -64 3t-119 3q-66 0 -120 -3t-64 -3z" />
    <glyph glyph-name="Iacute" unicode="&#xcd;" horiz-adv-x="618" 
d="M254 1542q-26 0 -40.5 11.5t-14.5 27.5q0 14 14 51q42 110 106 238q15 32 44 43.5t90 11.5q75 0 98.5 -11.5t23.5 -41.5q0 -22 -13 -41.5t-56 -69.5q-15 -17 -45 -53.5t-58 -67.5t-59 -59q-42 -39 -90 -39zM127 -6q-36 0 -54 17.5t-18 43.5t12 43.5t26 27.5t26 40.5
t12 79.5v968q0 49 -12 79.5t-26 40.5t-26 27.5t-12 43.5q0 25 22.5 43t57.5 18q11 0 61 -3t115 -3t119 3t64 3q35 0 53 -17.5t18 -43.5q0 -22 -8 -36.5t-19.5 -24.5t-23 -23t-19.5 -40t-8 -67v-968q0 -40 8 -67t19.5 -40t23 -23t19.5 -24.5t8 -36.5q0 -26 -18 -43.5
t-53 -17.5q-10 0 -64 3t-119 3q-66 0 -120 -3t-64 -3z" />
    <glyph glyph-name="Icircumflex" unicode="&#xce;" horiz-adv-x="618" 
d="M113 1556q-30 0 -47 14t-17 38q0 20 21 63q36 74 110 199q21 34 46 47.5t83 13.5q57 0 83.5 -13.5t47.5 -49.5q78 -131 109 -195q20 -44 20 -65q0 -23 -17 -37.5t-46 -14.5q-41 0 -76 43l-121 148l-121 -148q-36 -43 -75 -43zM565 1405q0 -22 -8 -36.5t-19.5 -24.5
t-23 -23t-19.5 -40t-8 -67v-968q0 -40 8 -67t19.5 -40t23 -23t19.5 -24.5t8 -36.5q0 -26 -18 -43.5t-53 -17.5q-10 0 -64 3t-119 3q-66 0 -120 -3t-64 -3q-36 0 -54 17.5t-18 43.5t12 43.5t26 27.5t26 40.5t12 79.5v968q0 49 -12 79.5t-26 40.5t-26 27.5t-12 43.5
q0 25 22.5 43t57.5 18q11 0 61 -3t115 -3t119 3t64 3q35 0 53 -17.5t18 -43.5z" />
    <glyph glyph-name="Idieresis" unicode="&#xcf;" horiz-adv-x="618" 
d="M129 1569q-62 0 -103.5 43.5t-41.5 107.5q0 68 42 113t107 45q62 0 101.5 -43.5t39.5 -110.5q0 -68 -40 -111.5t-105 -43.5zM489 1569q-61 0 -102 43t-41 108q0 68 42 113t108 45q62 0 101.5 -43.5t39.5 -110.5t-41 -111t-107 -44zM127 -6q-36 0 -54 17.5t-18 43.5
t12 43.5t26 27.5t26 40.5t12 79.5v968q0 49 -12 79.5t-26 40.5t-26 27.5t-12 43.5q0 25 22.5 43t57.5 18q11 0 61 -3t115 -3t119 3t64 3q35 0 53 -17.5t18 -43.5q0 -22 -8 -36.5t-19.5 -24.5t-23 -23t-19.5 -40t-8 -67v-968q0 -40 8 -67t19.5 -40t23 -23t19.5 -24.5t8 -36.5
q0 -26 -18 -43.5t-53 -17.5q-10 0 -64 3t-119 3q-66 0 -120 -3t-64 -3z" />
    <glyph glyph-name="Eth" unicode="&#xd0;" horiz-adv-x="1222" 
d="M567 1483q270 0 439.5 -210t169.5 -558q0 -214 -66 -376.5t-195 -254.5t-305 -92q-31 0 -133 4t-164 4q-65 0 -118 -3t-66 -3q-34 0 -52 17.5t-18 43.5t12 43.5t26 27.5t26 40.5t12 79.5v422h-41q-37 0 -53 18.5t-16 63.5q0 44 16 62.5t53 18.5h41v390q0 40 -8 67t-19 40
t-22 23t-19 24t-8 36q0 26 18 44t52 18q13 0 66 -3.5t118 -3.5q48 0 134.5 8.5t119.5 8.5zM575 156q108 0 159.5 133t51.5 420q0 291 -61 439t-154 148h-8q-36 0 -53.5 -21t-17.5 -75v-369h131q37 0 53 -18.5t16 -62.5q0 -45 -16 -63.5t-53 -18.5h-131v-416q0 -48 15 -72
t56 -24h12z" />
    <glyph glyph-name="Ntilde" unicode="&#xd1;" horiz-adv-x="1126" 
d="M371 1585q-58 0 -58 66q0 29 13 82q43 168 159 168q40 0 74 -24t52.5 -53t38.5 -53t34 -24q17 0 27 14.5t24 50.5t28.5 55t37.5 19q57 0 57 -65q0 -35 -12 -84q-44 -166 -160 -166q-34 0 -63 15.5t-48.5 37.5t-35.5 44.5t-29.5 38t-24.5 15.5q-13 0 -22.5 -9.5t-14 -20.5
t-12.5 -33q-25 -74 -65 -74zM1020 1473q35 0 52.5 -17.5t17.5 -44.5q0 -22 -8.5 -36t-21 -24t-25 -23t-21 -40t-8.5 -67v-1131q0 -110 -93 -110q-43 0 -68.5 18.5t-47.5 58.5l-480 889v-700q0 -37 12 -62t28.5 -38t33.5 -23.5t29 -27t12 -40.5q0 -29 -22.5 -45t-59.5 -16
q-25 0 -62 3t-52 3q-18 0 -57.5 -3t-61.5 -3q-35 0 -52.5 18t-17.5 43q0 26 13.5 43.5t29.5 27.5t29.5 40.5t13.5 79.5v975q0 40 -9 67t-21.5 40t-25 23t-21.5 24t-9 36q0 27 22 44.5t58 17.5q23 0 67.5 -3.5t59.5 -3.5q24 0 63 3.5t60 3.5q36 0 56.5 -16t37.5 -48l350 -686
v498q0 39 -11.5 64.5t-28 37.5t-33 21.5t-28 25.5t-11.5 41q0 26 21.5 44t55.5 18q25 0 64 -3.5t55 -3.5t55 3.5t60 3.5z" />
    <glyph glyph-name="Ograve" unicode="&#xd2;" horiz-adv-x="1183" 
d="M649 1542q-44 0 -86 39q-37 36 -97 107t-67 79q-27 30 -37 42t-20 30.5t-10 36.5q0 30 23.5 41.5t99.5 11.5q64 0 91.5 -12t41.5 -43q68 -143 106 -242q15 -40 15 -51q0 -16 -16.5 -27.5t-43.5 -11.5zM588 -43q-252 0 -396.5 199.5t-144.5 550.5q0 232 71.5 416
t197.5 286t284 102q123 0 225.5 -63.5t170 -172.5t104.5 -253.5t37 -306.5q0 -228 -65.5 -399t-190 -265t-293.5 -94zM594 133q48 0 79.5 40.5t48 122t22.5 178t6 235.5q0 80 -2 145.5t-7.5 141t-16.5 131.5t-27.5 104t-42.5 73t-60 25t-60 -25t-43 -72.5t-28 -103.5
t-17 -130.5t-8 -141t-2 -147.5q0 -100 4 -180t14.5 -156.5t28 -127.5t45.5 -81.5t66 -30.5z" />
    <glyph glyph-name="Oacute" unicode="&#xd3;" horiz-adv-x="1183" 
d="M539 1542q-26 0 -41 11.5t-15 27.5q0 11 15 51q42 110 106 238q15 32 43.5 43.5t89.5 11.5q76 0 99.5 -11.5t23.5 -41.5q0 -22 -13 -41.5t-56 -69.5q-15 -17 -45 -53.5t-58 -67.5t-59 -59q-42 -39 -90 -39zM588 -43q-252 0 -396.5 199.5t-144.5 550.5q0 232 71.5 416
t197.5 286t284 102q123 0 225.5 -63.5t170 -172.5t104.5 -253.5t37 -306.5q0 -228 -65.5 -399t-190 -265t-293.5 -94zM594 133q48 0 79.5 40.5t48 122t22.5 178t6 235.5q0 80 -2 145.5t-7.5 141t-16.5 131.5t-27.5 104t-42.5 73t-60 25t-60 -25t-43 -72.5t-28 -103.5
t-17 -130.5t-8 -141t-2 -147.5q0 -100 4 -180t14.5 -156.5t28 -127.5t45.5 -81.5t66 -30.5z" />
    <glyph glyph-name="Ocircumflex" unicode="&#xd4;" horiz-adv-x="1183" 
d="M397 1556q-30 0 -46.5 14t-16.5 38q0 22 20 63q32 65 111 199q21 34 46 47.5t83 13.5q57 0 83.5 -13.5t47.5 -49.5q78 -131 109 -195q20 -44 20 -65q0 -23 -17 -37.5t-46 -14.5q-41 0 -76 43l-121 148l-121 -148q-36 -43 -76 -43zM600 1511q123 0 225.5 -63.5t170 -172.5
t104.5 -253.5t37 -306.5q0 -228 -65.5 -399t-190 -265t-293.5 -94q-252 0 -396.5 199.5t-144.5 550.5q0 232 71.5 416t197.5 286t284 102zM594 133q48 0 79.5 40.5t48 122t22.5 178t6 235.5q0 80 -2 145.5t-7.5 141t-16.5 131.5t-27.5 104t-42.5 73t-60 25t-60 -25
t-43 -72.5t-28 -103.5t-17 -130.5t-8 -141t-2 -147.5q0 -100 4 -180t14.5 -156.5t28 -127.5t45.5 -81.5t66 -30.5z" />
    <glyph glyph-name="Otilde" unicode="&#xd5;" horiz-adv-x="1183" 
d="M694 1571q-41 0 -76 23.5t-54 52t-38 52t-32 23.5q-18 0 -28.5 -15.5t-21.5 -47.5q-25 -74 -65 -74q-57 0 -57 66q0 33 12 82q43 168 160 168q33 0 61 -16t47 -38.5t34.5 -45t29.5 -38.5t26 -16q17 0 27 14.5t24 50.5t28.5 55t37.5 19q57 0 57 -65q0 -35 -12 -84
q-44 -166 -160 -166zM588 -43q-252 0 -396.5 199.5t-144.5 550.5q0 232 71.5 416t197.5 286t284 102q123 0 225.5 -63.5t170 -172.5t104.5 -253.5t37 -306.5q0 -228 -65.5 -399t-190 -265t-293.5 -94zM594 133q48 0 79.5 40.5t48 122t22.5 178t6 235.5q0 80 -2 145.5
t-7.5 141t-16.5 131.5t-27.5 104t-42.5 73t-60 25t-60 -25t-43 -72.5t-28 -103.5t-17 -130.5t-8 -141t-2 -147.5q0 -100 4 -180t14.5 -156.5t28 -127.5t45.5 -81.5t66 -30.5z" />
    <glyph glyph-name="Odieresis" unicode="&#xd6;" horiz-adv-x="1183" 
d="M414 1569q-63 0 -104.5 43.5t-41.5 107.5q0 68 42 113t108 45q62 0 101.5 -43.5t39.5 -110.5q0 -68 -40 -111.5t-105 -43.5zM774 1569q-61 0 -102 43t-41 108q0 68 42 113t107 45q62 0 102 -43.5t40 -110.5t-41 -111t-107 -44zM588 -43q-252 0 -396.5 199.5t-144.5 550.5
q0 232 71.5 416t197.5 286t284 102q123 0 225.5 -63.5t170 -172.5t104.5 -253.5t37 -306.5q0 -228 -65.5 -399t-190 -265t-293.5 -94zM594 133q48 0 79.5 40.5t48 122t22.5 178t6 235.5q0 80 -2 145.5t-7.5 141t-16.5 131.5t-27.5 104t-42.5 73t-60 25t-60 -25t-43 -72.5
t-28 -103.5t-17 -130.5t-8 -141t-2 -147.5q0 -100 4 -180t14.5 -156.5t28 -127.5t45.5 -81.5t66 -30.5z" />
    <glyph glyph-name="multiply" unicode="&#xd7;" horiz-adv-x="798" 
d="M193 193q-37 0 -90.5 34.5t-53.5 71.5q0 16 17 43l172 270q8 12 8 21q0 8 -8 20l-172 271q-17 27 -17 43q0 36 53 71t91 35q23 0 36 -20l152 -238q8 -14 18 -14q11 0 19 14l151 238q13 20 37 20q38 0 91 -35t53 -71q0 -16 -17 -43l-172 -271q-8 -12 -8 -20q0 -9 8 -21
l172 -270q17 -27 17 -43q0 -37 -53.5 -71.5t-90.5 -34.5q-27 0 -37 18l-149 235q-12 19 -21 19q-8 0 -20 -19l-150 -235q-10 -18 -36 -18z" />
    <glyph glyph-name="Oslash" unicode="&#xd8;" horiz-adv-x="1198" 
d="M1135 1337l-97 -129q105 -208 105 -493q0 -228 -65.5 -399t-190 -265t-293.5 -94q-204 0 -338 131l-63 -82q-23 -31 -48 -31q-23 0 -53.5 28t-30.5 60q0 31 25 62l74 92q-107 191 -107 490q0 232 71.5 416t197.5 286t284 102q206 0 342 -165l82 108q22 31 47 31
q21 0 52.5 -27.5t31.5 -60.5q0 -24 -26 -60zM600 1329q-34 0 -60 -25t-43 -72.5t-28 -103.5t-17 -130.5t-8 -141t-2 -147.5q0 -86 2 -127l295 481q-31 266 -139 266zM600 133q48 0 79.5 40.5t48 122t22.5 178t6 235.5q0 84 -2 127l-291 -474q33 -229 137 -229z" />
    <glyph glyph-name="Ugrave" unicode="&#xd9;" horiz-adv-x="1075" 
d="M612 1542q-44 0 -86 39q-37 36 -97 107t-67 79q-27 30 -37 42t-20 30.5t-10 36.5q0 30 23.5 41.5t99.5 11.5q64 0 91.5 -12t41.5 -43q68 -143 106 -242q15 -40 15 -51q0 -16 -16.5 -27.5t-43.5 -11.5zM541 -43q-211 0 -332 109t-121 329q0 51 4 137l31 623q4 70 4 88
q0 31 -8 54.5t-15.5 31.5t-21.5 21q-33 26 -33 61q0 26 18.5 44t53.5 18q10 0 63.5 -3.5t118.5 -3.5t123 3.5t70 3.5q34 0 51.5 -18t17.5 -44q0 -17 -5 -30.5t-9.5 -18.5t-15.5 -16q-1 -1 -8 -7.5t-9.5 -10t-9 -11.5t-9.5 -15.5t-7 -19t-6 -26.5t-3 -33l-28 -695
q-6 -129 -6 -143q0 -217 174 -217q73 0 124.5 52t51.5 163q0 25 -4 123l-33 717q-2 34 -13.5 57.5t-22.5 33.5t-34 25q-2 1 -10 5.5t-10 6.5t-8.5 6.5t-9 9t-6 11t-4.5 15t-1 18.5q0 25 22.5 43.5t59.5 18.5q23 0 62.5 -3.5t58.5 -3.5q18 0 56 3.5t59 3.5q35 0 53 -17.5
t18 -44.5q0 -34 -35 -61q-17 -13 -25.5 -22.5t-17 -31.5t-8.5 -53q0 -18 4 -88l31 -645q4 -66 4 -125q0 -226 -114.5 -327t-329.5 -101z" />
    <glyph glyph-name="Uacute" unicode="&#xda;" horiz-adv-x="1075" 
d="M502 1542q-26 0 -41 11.5t-15 27.5q0 11 15 51q42 110 106 238q15 32 43.5 43.5t89.5 11.5q76 0 99.5 -11.5t23.5 -41.5q0 -22 -13 -41.5t-56 -69.5q-15 -17 -45 -53.5t-58 -67.5t-59 -59q-42 -39 -90 -39zM541 -43q-211 0 -332 109t-121 329q0 51 4 137l31 623
q4 70 4 88q0 31 -8 54.5t-15.5 31.5t-21.5 21q-33 26 -33 61q0 26 18.5 44t53.5 18q10 0 63.5 -3.5t118.5 -3.5t123 3.5t70 3.5q34 0 51.5 -18t17.5 -44q0 -17 -5 -30.5t-9.5 -18.5t-15.5 -16q-1 -1 -8 -7.5t-9.5 -10t-9 -11.5t-9.5 -15.5t-7 -19t-6 -26.5t-3 -33l-28 -695
q-6 -129 -6 -143q0 -217 174 -217q73 0 124.5 52t51.5 163q0 25 -4 123l-33 717q-2 34 -13.5 57.5t-22.5 33.5t-34 25q-2 1 -10 5.5t-10 6.5t-8.5 6.5t-9 9t-6 11t-4.5 15t-1 18.5q0 25 22.5 43.5t59.5 18.5q23 0 62.5 -3.5t58.5 -3.5q18 0 56 3.5t59 3.5q35 0 53 -17.5
t18 -44.5q0 -34 -35 -61q-17 -13 -25.5 -22.5t-17 -31.5t-8.5 -53q0 -18 4 -88l31 -645q4 -66 4 -125q0 -226 -114.5 -327t-329.5 -101z" />
    <glyph glyph-name="Ucircumflex" unicode="&#xdb;" horiz-adv-x="1075" 
d="M360 1556q-30 0 -46.5 14t-16.5 38q0 22 20 63q32 65 111 199q21 34 46 47.5t83 13.5q57 0 83.5 -13.5t47.5 -49.5q78 -131 109 -195q20 -44 20 -65q0 -23 -17 -37.5t-46 -14.5q-41 0 -76 43l-121 148l-121 -148q-36 -43 -76 -43zM961 1473q35 0 53 -17.5t18 -44.5
q0 -34 -35 -61q-17 -13 -25.5 -22.5t-17 -31.5t-8.5 -53q0 -18 4 -88l31 -645q4 -66 4 -125q0 -226 -114.5 -327t-329.5 -101q-211 0 -332 109t-121 329q0 51 4 137l31 623q4 70 4 88q0 31 -8 54.5t-15.5 31.5t-21.5 21q-33 26 -33 61q0 26 18.5 44t53.5 18q10 0 63.5 -3.5
t118.5 -3.5t123 3.5t70 3.5q34 0 51.5 -18t17.5 -44q0 -17 -5 -30.5t-9.5 -18.5t-15.5 -16q-1 -1 -8 -7.5t-9.5 -10t-9 -11.5t-9.5 -15.5t-7 -19t-6 -26.5t-3 -33l-28 -695q-6 -129 -6 -143q0 -217 174 -217q73 0 124.5 52t51.5 163q0 25 -4 123l-33 717q-2 34 -13.5 57.5
t-22.5 33.5t-34 25q-2 1 -10 5.5t-10 6.5t-8.5 6.5t-9 9t-6 11t-4.5 15t-1 18.5q0 25 22.5 43.5t59.5 18.5q23 0 62.5 -3.5t58.5 -3.5q18 0 56 3.5t59 3.5z" />
    <glyph glyph-name="Udieresis" unicode="&#xdc;" horiz-adv-x="1075" 
d="M377 1569q-63 0 -104.5 43.5t-41.5 107.5q0 68 42 113t108 45q62 0 101.5 -43.5t39.5 -110.5q0 -68 -40 -111.5t-105 -43.5zM737 1569q-61 0 -102 43t-41 108q0 68 42 113t107 45q63 0 102.5 -43.5t39.5 -110.5t-41 -111t-107 -44zM541 -43q-211 0 -332 109t-121 329
q0 51 4 137l31 623q4 70 4 88q0 31 -8 54.5t-15.5 31.5t-21.5 21q-33 26 -33 61q0 26 18.5 44t53.5 18q10 0 63.5 -3.5t118.5 -3.5t123 3.5t70 3.5q34 0 51.5 -18t17.5 -44q0 -17 -5 -30.5t-9.5 -18.5t-15.5 -16q-1 -1 -8 -7.5t-9.5 -10t-9 -11.5t-9.5 -15.5t-7 -19
t-6 -26.5t-3 -33l-28 -695q-6 -129 -6 -143q0 -217 174 -217q73 0 124.5 52t51.5 163q0 25 -4 123l-33 717q-2 34 -13.5 57.5t-22.5 33.5t-34 25q-2 1 -10 5.5t-10 6.5t-8.5 6.5t-9 9t-6 11t-4.5 15t-1 18.5q0 25 22.5 43.5t59.5 18.5q23 0 62.5 -3.5t58.5 -3.5q18 0 56 3.5
t59 3.5q35 0 53 -17.5t18 -44.5q0 -34 -35 -61q-17 -13 -25.5 -22.5t-17 -31.5t-8.5 -53q0 -18 4 -88l31 -645q4 -66 4 -125q0 -226 -114.5 -327t-329.5 -101z" />
    <glyph glyph-name="Yacute" unicode="&#xdd;" horiz-adv-x="1064" 
d="M535 1542q-26 0 -41 11.5t-15 27.5q0 11 15 51q42 110 106 238q15 32 43.5 43.5t89.5 11.5q76 0 99.5 -11.5t23.5 -41.5q0 -22 -13 -41t-57 -70q-16 -17 -45 -53.5t-57 -67.5t-59 -59q-42 -39 -90 -39zM1010 1470q27 0 43 -14.5t16 -38.5q0 -31 -17 -49.5t-43 -43.5
t-40 -64l-258 -697v-317q0 -48 15.5 -77t33.5 -38.5t33.5 -28t15.5 -47.5q0 -26 -18 -43.5t-54 -17.5q-10 0 -71.5 3t-133.5 3t-134 -3t-72 -3q-35 0 -53.5 18t-18.5 43q0 24 10.5 40t25 25.5t29 21.5t25 38t10.5 66v332l-260 673q-16 40 -40.5 70t-39 49t-14.5 45
q0 24 17 39.5t44 15.5q22 0 81.5 -3t121.5 -3q59 0 122.5 3t82.5 3q74 0 74 -61q0 -20 -11.5 -35t-24.5 -24t-24.5 -29t-11.5 -49q0 -25 27 -105l131 -370l131 366q26 74 26 103q0 32 -14.5 52t-31.5 28t-31.5 23.5t-14.5 39.5q0 61 72 61q26 0 67 -3t58 -3q16 0 52.5 3
t66.5 3z" />
    <glyph glyph-name="Thorn" unicode="&#xde;" horiz-adv-x="1114" 
d="M563 242q-53 0 -76 2v-2q0 -40 10.5 -65.5t25.5 -37t29.5 -20.5t25 -24.5t10.5 -39.5q0 -25 -18.5 -43t-53.5 -18q-12 0 -73.5 3t-131.5 3q-66 0 -120 -3t-64 -3q-36 0 -54 17.5t-18 43.5t12 43.5t26 27.5t26 40.5t12 79.5v968q0 49 -12 79.5t-26 40.5t-26 27.5t-12 43.5
t18.5 43.5t53.5 17.5q10 0 64 -3t120 -3q70 0 131.5 3t73.5 3q35 0 53.5 -17.5t18.5 -43.5q0 -23 -9.5 -37t-23.5 -22.5t-28 -18t-25.5 -30.5t-14.5 -54q66 4 107 4q232 0 356.5 -132t124.5 -351q0 -235 -132.5 -378.5t-379.5 -143.5zM567 1081q-37 0 -58.5 -20t-21.5 -74
v-495q0 -48 15.5 -65t50.5 -17q60 0 97.5 88t37.5 241q0 159 -37.5 250.5t-83.5 91.5z" />
    <glyph glyph-name="germandbls" unicode="&#xdf;" horiz-adv-x="1163" 
d="M627 -47q-23 0 -34.5 21t-25.5 73l-39 148q-28 109 -28 139q0 29 12 45t31 16q32 0 57 -53q52 -108 95.5 -166.5t92.5 -58.5q38 0 55 25.5t17 60.5q0 115 -102 198q-65 52 -101.5 84t-78.5 78.5t-61 92.5t-19 96q0 44 22.5 104t50 112t50 122t22.5 131q0 81 -24 112
t-74 31q-35 0 -58 -24t-33.5 -72.5t-14 -98.5t-3.5 -125v-800q0 -42 6.5 -70.5t16 -42t19 -23.5t16 -23t6.5 -32q0 -24 -16 -41.5t-48 -17.5q-11 0 -57 3t-107 3q-55 0 -103.5 -3t-59.5 -3q-33 0 -50.5 17t-17.5 42q0 23 11.5 39t24.5 26.5t24.5 42.5t11.5 83v751
q0 99 10.5 176.5t40 150.5t78 121t127.5 76.5t186 28.5q185 0 290 -78t105 -227q0 -60 -25 -118.5t-54.5 -96t-54.5 -81t-25 -77.5t22 -69.5t43.5 -55t61.5 -51.5q47 -38 74.5 -62.5t60 -61.5t50 -70.5t29 -80t11.5 -100.5q0 -162 -94.5 -256t-227.5 -94q-25 0 -60 18.5
t-48 18.5q-21 0 -46 -26.5t-40 -26.5z" />
    <glyph glyph-name="agrave" unicode="&#xe0;" horiz-adv-x="956" 
d="M436 1202q-37 36 -96 106.5t-68 80.5q-28 31 -37.5 41.5t-19.5 29.5t-10 37q0 30 23.5 41.5t99.5 11.5q64 0 91.5 -12t41.5 -43q68 -143 106 -242q15 -40 15 -51q0 -16 -16.5 -27.5t-43.5 -11.5q-44 0 -86 39zM942 188q37 -11 37 -45q0 -53 -58.5 -106t-162.5 -53
q-62 0 -113.5 29.5t-83.5 84.5q-92 -123 -248 -123q-125 0 -206.5 89.5t-81.5 228.5q0 143 87.5 238.5t235.5 95.5q79 0 144 -27l-3 27q-17 231 -137 231q-45 0 -116 -49q-55 -41 -86 -41q-29 0 -45.5 16.5t-16.5 44.5q0 56 53 109q125 125 320 125q88 0 152 -26t102.5 -75
t58.5 -110.5t27 -142.5l30 -344q7 -83 27.5 -120.5t83.5 -56.5zM446 166q47 0 78 39q0 4 -1 11t-1 11l-20 242q-22 14 -53 14q-44 0 -70.5 -40t-26.5 -115q0 -72 27.5 -117t66.5 -45z" />
    <glyph glyph-name="aacute" unicode="&#xe1;" horiz-adv-x="956" 
d="M412 1163q-26 0 -41 11.5t-15 27.5q0 11 15 51q42 110 106 238q15 32 43.5 43.5t89.5 11.5q76 0 99.5 -11.5t23.5 -41.5q0 -22 -13 -41.5t-56 -69.5q-15 -17 -45 -53.5t-58 -67.5t-59 -59q-42 -39 -90 -39zM942 188q37 -11 37 -45q0 -53 -58.5 -106t-162.5 -53
q-62 0 -113.5 29.5t-83.5 84.5q-92 -123 -248 -123q-125 0 -206.5 89.5t-81.5 228.5q0 143 87.5 238.5t235.5 95.5q79 0 144 -27l-3 27q-17 231 -137 231q-45 0 -116 -49q-55 -41 -86 -41q-29 0 -45.5 16.5t-16.5 44.5q0 56 53 109q125 125 320 125q88 0 152 -26t102.5 -75
t58.5 -110.5t27 -142.5l30 -344q7 -83 27.5 -120.5t83.5 -56.5zM446 166q47 0 78 39q0 4 -1 11t-1 11l-20 242q-22 14 -53 14q-44 0 -70.5 -40t-26.5 -115q0 -72 27.5 -117t66.5 -45z" />
    <glyph glyph-name="acircumflex" unicode="&#xe2;" horiz-adv-x="956" 
d="M270 1178q-30 0 -46.5 13.5t-16.5 37.5q0 22 20 63q32 65 111 199q21 34 46 47.5t83 13.5q57 0 83.5 -13.5t47.5 -49.5q78 -131 109 -195q20 -44 20 -65q0 -23 -17 -37t-46 -14q-41 0 -76 43l-121 147l-121 -147q-36 -43 -76 -43zM942 188q37 -11 37 -45
q0 -53 -58.5 -106t-162.5 -53q-62 0 -113.5 29.5t-83.5 84.5q-92 -123 -248 -123q-125 0 -206.5 89.5t-81.5 228.5q0 143 87.5 238.5t235.5 95.5q79 0 144 -27l-3 27q-17 231 -137 231q-45 0 -116 -49q-55 -41 -86 -41q-29 0 -45.5 16.5t-16.5 44.5q0 56 53 109
q125 125 320 125q88 0 152 -26t102.5 -75t58.5 -110.5t27 -142.5l30 -344q7 -83 27.5 -120.5t83.5 -56.5zM446 166q47 0 78 39q0 4 -1 11t-1 11l-20 242q-22 14 -53 14q-44 0 -70.5 -40t-26.5 -115q0 -72 27.5 -117t66.5 -45z" />
    <glyph glyph-name="atilde" unicode="&#xe3;" horiz-adv-x="956" 
d="M252 1206q-57 0 -57 66q0 33 12 82q43 168 160 168q33 0 61 -16t47 -38.5t34.5 -45t29.5 -38.5t26 -16q17 0 27 14.5t24 51.5q14 36 28.5 54.5t37.5 18.5q57 0 57 -65q0 -34 -12 -84q-44 -166 -160 -166q-41 0 -76 23.5t-54 52t-38 52t-32 23.5q-18 0 -28.5 -15.5
t-21.5 -47.5q-25 -74 -65 -74zM942 188q37 -11 37 -45q0 -53 -58.5 -106t-162.5 -53q-62 0 -113.5 29.5t-83.5 84.5q-92 -123 -248 -123q-125 0 -206.5 89.5t-81.5 228.5q0 143 87.5 238.5t235.5 95.5q79 0 144 -27l-3 27q-17 231 -137 231q-45 0 -116 -49q-55 -41 -86 -41
q-29 0 -45.5 16.5t-16.5 44.5q0 56 53 109q125 125 320 125q88 0 152 -26t102.5 -75t58.5 -110.5t27 -142.5l30 -344q7 -83 27.5 -120.5t83.5 -56.5zM446 166q47 0 78 39q0 4 -1 11t-1 11l-20 242q-22 14 -53 14q-44 0 -70.5 -40t-26.5 -115q0 -72 27.5 -117t66.5 -45z" />
    <glyph glyph-name="adieresis" unicode="&#xe4;" horiz-adv-x="956" 
d="M287 1190q-63 0 -104.5 43.5t-41.5 107.5q0 68 42 113t108 45q62 0 101.5 -43t39.5 -110q0 -68 -40 -112t-105 -44zM647 1190q-61 0 -102 43t-41 108q0 68 42 113t107 45q63 0 102.5 -43.5t39.5 -109.5q0 -67 -41 -111.5t-107 -44.5zM942 188q37 -11 37 -45
q0 -53 -58.5 -106t-162.5 -53q-62 0 -113.5 29.5t-83.5 84.5q-92 -123 -248 -123q-125 0 -206.5 89.5t-81.5 228.5q0 143 87.5 238.5t235.5 95.5q79 0 144 -27l-3 27q-17 231 -137 231q-45 0 -116 -49q-55 -41 -86 -41q-29 0 -45.5 16.5t-16.5 44.5q0 56 53 109
q125 125 320 125q88 0 152 -26t102.5 -75t58.5 -110.5t27 -142.5l30 -344q7 -83 27.5 -120.5t83.5 -56.5zM446 166q47 0 78 39q0 4 -1 11t-1 11l-20 242q-22 14 -53 14q-44 0 -70.5 -40t-26.5 -115q0 -72 27.5 -117t66.5 -45z" />
    <glyph glyph-name="aring" unicode="&#xe5;" horiz-adv-x="956" 
d="M467 1145q-211 0 -211 217q0 104 55.5 158.5t161.5 54.5q102 0 155.5 -52.5t53.5 -152.5q0 -110 -54.5 -167.5t-160.5 -57.5zM471 1477q-68 0 -68 -121q0 -53 16.5 -82t47.5 -29q37 0 53.5 29t16.5 92q0 53 -17.5 82t-48.5 29zM942 188q37 -11 37 -45q0 -53 -58.5 -106
t-162.5 -53q-62 0 -113.5 29.5t-83.5 84.5q-92 -123 -248 -123q-125 0 -206.5 89.5t-81.5 228.5q0 143 87.5 238.5t235.5 95.5q79 0 144 -27l-3 27q-17 231 -137 231q-45 0 -116 -49q-55 -41 -86 -41q-29 0 -45.5 16.5t-16.5 44.5q0 56 53 109q125 125 320 125q88 0 152 -26
t102.5 -75t58.5 -110.5t27 -142.5l30 -344q7 -83 27.5 -120.5t83.5 -56.5zM446 166q47 0 78 39q0 4 -1 11t-1 11l-20 242q-22 14 -53 14q-44 0 -70.5 -40t-26.5 -115q0 -72 27.5 -117t66.5 -45z" />
    <glyph glyph-name="ae" unicode="&#xe6;" horiz-adv-x="1345" 
d="M1262 295q21 0 34 -14.5t13 -42.5q0 -32 -13 -64q-39 -92 -131 -154.5t-209 -62.5q-250 0 -366 162q-113 -144 -281 -144q-123 0 -202.5 89.5t-79.5 228.5q0 143 85.5 238.5t231.5 95.5q90 0 139 -33l-4 49q-10 118 -45 174.5t-84 56.5q-56 0 -125 -55q-46 -35 -86 -35
q-22 0 -36.5 17.5t-14.5 44.5q0 58 53 108q131 125 314 125q151 0 233 -110q95 112 230 112q110 0 198.5 -61t136 -161.5t47.5 -219.5q0 -48 -17.5 -71t-68.5 -38l-380 -108q32 -118 86.5 -183t119.5 -65q96 0 164 84q30 37 58 37zM877 920q-35 0 -56.5 -56t-21.5 -151
q0 -73 6 -138l98 31q45 14 64.5 34.5t19.5 55.5q0 84 -30.5 154t-79.5 70zM444 166q43 0 88 59q-37 101 -43 248q-12 10 -45 10q-41 0 -65.5 -39.5t-24.5 -115.5q0 -73 26 -117.5t64 -44.5z" />
    <glyph glyph-name="ccedilla" unicode="&#xe7;" horiz-adv-x="874" 
d="M817 315q43 0 43 -55q0 -23 -10 -57q-29 -94 -123.5 -170t-230.5 -76h-9l-8 -49q21 8 49 8q70 0 115 -45t45 -113q0 -75 -50.5 -121.5t-133.5 -46.5q-107 0 -156 41q-29 26 -29 56q0 18 10.5 31.5t28.5 13.5q8 0 37 -13q58 -28 92 -28q25 0 39.5 14.5t14.5 38.5
q0 49 -47 49q-26 0 -66 -20q-17 4 -37.5 24.5t-28.5 38.5l29 131q-165 34 -256.5 172t-91.5 355q0 133 37 245t99 185.5t142 114t168 40.5q77 0 143.5 -25t108 -64t65 -84t23.5 -87q0 -46 -20 -83.5t-90 -90.5q-36 -27 -68 -27q-48 0 -55 60q-13 134 -44.5 199t-70.5 65
q-35 0 -59.5 -35.5t-35.5 -92t-11 -128.5q0 -137 19.5 -238t52.5 -156t70 -80.5t79 -25.5q103 0 170 99q20 30 51 30z" />
    <glyph glyph-name="egrave" unicode="&#xe8;" horiz-adv-x="909" 
d="M434 1202q-37 36 -96 106.5t-68 80.5q-28 31 -37.5 41.5t-19.5 29.5t-10 37q0 30 23.5 41.5t99.5 11.5q64 0 91.5 -12t41.5 -43q68 -143 106 -242q15 -40 15 -51q0 -16 -16.5 -27.5t-43.5 -11.5q-44 0 -86 39zM825 295q20 0 33.5 -14.5t13.5 -42.5q0 -32 -14 -66
q-38 -92 -132.5 -153.5t-223.5 -61.5q-204 0 -332.5 148.5t-128.5 404.5q0 125 36 233.5t96.5 181.5t139.5 114.5t164 41.5q115 0 204.5 -61.5t136 -162t46.5 -220.5q0 -51 -19.5 -72.5t-66.5 -34.5l-383 -106q31 -117 86.5 -183.5t124.5 -66.5q94 0 162 84q30 37 57 37z
M440 920q-38 0 -58 -59t-20 -148q0 -63 7 -135l102 30q80 23 80 86q0 84 -30.5 155t-80.5 71z" />
    <glyph glyph-name="eacute" unicode="&#xe9;" horiz-adv-x="909" 
d="M410 1163q-26 0 -41 11.5t-15 27.5q0 11 15 51q42 110 106 238q15 32 43.5 43.5t89.5 11.5q76 0 99.5 -11.5t23.5 -41.5q0 -22 -13 -41.5t-56 -69.5q-15 -17 -45 -53.5t-58 -67.5t-59 -59q-42 -39 -90 -39zM825 295q20 0 33.5 -14.5t13.5 -42.5q0 -32 -14 -66
q-38 -92 -132.5 -153.5t-223.5 -61.5q-204 0 -332.5 148.5t-128.5 404.5q0 125 36 233.5t96.5 181.5t139.5 114.5t164 41.5q115 0 204.5 -61.5t136 -162t46.5 -220.5q0 -51 -19.5 -72.5t-66.5 -34.5l-383 -106q31 -117 86.5 -183.5t124.5 -66.5q94 0 162 84q30 37 57 37z
M440 920q-38 0 -58 -59t-20 -148q0 -63 7 -135l102 30q80 23 80 86q0 84 -30.5 155t-80.5 71z" />
    <glyph glyph-name="ecircumflex" unicode="&#xea;" horiz-adv-x="909" 
d="M268 1178q-30 0 -46.5 13.5t-16.5 37.5q0 22 20 63q32 65 111 199q21 34 46 47.5t83 13.5q57 0 83.5 -13.5t47.5 -49.5q78 -131 109 -195q20 -44 20 -65q0 -23 -17 -37t-46 -14q-41 0 -76 43l-121 147l-121 -147q-36 -43 -76 -43zM825 295q20 0 33.5 -14.5t13.5 -42.5
q0 -32 -14 -66q-38 -92 -132.5 -153.5t-223.5 -61.5q-204 0 -332.5 148.5t-128.5 404.5q0 125 36 233.5t96.5 181.5t139.5 114.5t164 41.5q115 0 204.5 -61.5t136 -162t46.5 -220.5q0 -51 -19.5 -72.5t-66.5 -34.5l-383 -106q31 -117 86.5 -183.5t124.5 -66.5q94 0 162 84
q30 37 57 37zM440 920q-38 0 -58 -59t-20 -148q0 -63 7 -135l102 30q80 23 80 86q0 84 -30.5 155t-80.5 71z" />
    <glyph glyph-name="edieresis" unicode="&#xeb;" horiz-adv-x="909" 
d="M285 1190q-63 0 -104.5 43.5t-41.5 107.5q0 68 42 113t108 45q62 0 101.5 -43t39.5 -110q0 -68 -40 -112t-105 -44zM645 1190q-61 0 -102 43t-41 108q0 68 42 113t107 45q63 0 102.5 -43.5t39.5 -109.5q0 -67 -41 -111.5t-107 -44.5zM825 295q20 0 33.5 -14.5t13.5 -42.5
q0 -32 -14 -66q-38 -92 -132.5 -153.5t-223.5 -61.5q-204 0 -332.5 148.5t-128.5 404.5q0 125 36 233.5t96.5 181.5t139.5 114.5t164 41.5q115 0 204.5 -61.5t136 -162t46.5 -220.5q0 -51 -19.5 -72.5t-66.5 -34.5l-383 -106q31 -117 86.5 -183.5t124.5 -66.5q94 0 162 84
q30 37 57 37zM440 920q-38 0 -58 -59t-20 -148q0 -63 7 -135l102 30q80 23 80 86q0 84 -30.5 155t-80.5 71z" />
    <glyph glyph-name="igrave" unicode="&#xec;" horiz-adv-x="565" 
d="M338 1163q-44 0 -86 39q-37 36 -96 106.5t-68 80.5q-3 4 -11.5 13t-11.5 12t-9.5 11t-9 11t-7.5 9.5t-7 10.5l-5 10t-4 10.5t-2 10t-1 10.5q0 30 23.5 41.5t99.5 11.5q64 0 91.5 -12t41.5 -43q73 -155 107 -242q14 -37 14 -51q0 -16 -16 -27.5t-43 -11.5zM125 -6
q-34 0 -51 17.5t-17 41.5q0 23 11.5 39.5t24.5 26.5t24.5 42t11.5 83v432q0 36 -8.5 59.5t-20.5 34t-24 18.5t-20.5 21t-8.5 35q0 34 33.5 57.5t150.5 83.5q90 45 117 56.5t43 11.5q62 0 62 -103v-706q0 -42 7.5 -70t18.5 -41.5t21.5 -23.5t18 -23.5t7.5 -32.5
q0 -24 -17.5 -41.5t-51.5 -17.5q-11 0 -60 3t-106 3t-106 -3t-60 -3z" />
    <glyph glyph-name="iacute" unicode="&#xed;" horiz-adv-x="565" 
d="M227 1163q-26 0 -40.5 11.5t-14.5 27.5q0 14 14 51q39 101 107 238q15 32 43.5 43.5t89.5 11.5q76 0 99.5 -11.5t23.5 -41.5q0 -22 -13 -41t-57 -70q-15 -17 -45 -53.5t-58 -67.5t-59 -59q-42 -39 -90 -39zM125 -6q-34 0 -51 17.5t-17 41.5q0 23 11.5 39.5t24.5 26.5
t24.5 42t11.5 83v432q0 36 -8.5 59.5t-20.5 34t-24 18.5t-20.5 21t-8.5 35q0 34 33.5 57.5t150.5 83.5q90 45 117 56.5t43 11.5q62 0 62 -103v-706q0 -42 7.5 -70t18.5 -41.5t21.5 -23.5t18 -23.5t7.5 -32.5q0 -24 -17.5 -41.5t-51.5 -17.5q-11 0 -60 3t-106 3t-106 -3
t-60 -3z" />
    <glyph glyph-name="icircumflex" unicode="&#xee;" horiz-adv-x="565" 
d="M522 1294q21 -46 21 -65q0 -23 -17.5 -37t-46.5 -14q-41 0 -76 43l-120 147l-121 -147q-36 -43 -76 -43q-30 0 -46.5 13.5t-16.5 37.5q0 22 20 63q32 65 111 199q21 34 46 47.5t83 13.5q57 0 83.5 -13.5t47.5 -49.5q74 -123 108 -195zM453 244q0 -42 7.5 -70t18.5 -41.5
t21.5 -23.5t18 -23.5t7.5 -32.5q0 -24 -17.5 -41.5t-51.5 -17.5q-11 0 -60 3t-106 3t-106 -3t-60 -3q-34 0 -51 17.5t-17 41.5q0 23 11.5 39.5t24.5 26.5t24.5 42t11.5 83v432q0 36 -8.5 59.5t-20.5 34t-24 18.5t-20.5 21t-8.5 35q0 34 33.5 57.5t150.5 83.5q90 45 117 56.5
t43 11.5q62 0 62 -103v-706z" />
    <glyph glyph-name="idieresis" unicode="&#xef;" horiz-adv-x="565" 
d="M102 1190q-62 0 -103.5 43.5t-41.5 107.5q0 68 42 113t107 45q63 0 102.5 -43.5t39.5 -109.5q0 -68 -40.5 -112t-105.5 -44zM463 1190q-62 0 -103 43.5t-41 107.5q0 68 42 113t108 45q62 0 101.5 -43t39.5 -110t-40.5 -111.5t-106.5 -44.5zM125 -6q-34 0 -51 17.5
t-17 41.5q0 23 11.5 39.5t24.5 26.5t24.5 42t11.5 83v432q0 36 -8.5 59.5t-20.5 34t-24 18.5t-20.5 21t-8.5 35q0 34 33.5 57.5t150.5 83.5q90 45 117 56.5t43 11.5q62 0 62 -103v-706q0 -42 7.5 -70t18.5 -41.5t21.5 -23.5t18 -23.5t7.5 -32.5q0 -24 -17.5 -41.5
t-51.5 -17.5q-11 0 -60 3t-106 3t-106 -3t-60 -3z" />
    <glyph glyph-name="eth" unicode="&#xf0;" horiz-adv-x="1009" 
d="M694 1378q118 -135 194.5 -338.5t76.5 -437.5q0 -157 -37.5 -279.5t-104.5 -199.5t-157 -116.5t-197 -39.5q-186 0 -306 147.5t-120 391.5q0 246 107 399.5t274 153.5q61 0 117 -29q-21 107 -82 187l-119 -82q-20 -13 -45 -13q-24 0 -45 21t-21 57q0 41 45 70l82 57
l-20 19q-64 57 -83.5 82.5t-19.5 58.5q0 35 27 54.5t74 19.5q116 0 225 -66q4 -2 11.5 -7t11.5 -7l88 59q26 16 43 16q24 0 46.5 -21t22.5 -56q0 -42 -49 -74zM524 154q50 0 73.5 80t23.5 245q0 174 -34 291t-95 117q-49 0 -77 -83t-28 -231q0 -190 37 -304.5t100 -114.5z
" />
    <glyph glyph-name="ntilde" unicode="&#xf1;" 
d="M311 1206q-57 0 -57 66q0 33 12 82q43 168 160 168q40 0 74 -24t53 -53t38.5 -53t33.5 -24q17 0 27 14.5t24 51.5q14 36 28 54.5t37 18.5q58 0 58 -65q0 -30 -13 -84q-44 -166 -159 -166q-34 0 -63 15.5t-48.5 38t-35.5 44.5t-29.5 37.5t-24.5 15.5q-13 0 -22.5 -9.5
t-14 -20.5t-12.5 -33q-25 -74 -66 -74zM967 268q3 -50 13 -84.5t21.5 -49.5t22 -25.5t18 -24t7.5 -33.5q0 -25 -18.5 -40t-51.5 -15q-9 0 -57.5 3t-104.5 3q-57 0 -107.5 -3t-58.5 -3q-71 0 -71 59q0 21 10 36.5t21.5 25.5t21.5 34.5t10 61.5q0 13 -3.5 47t-4.5 51l-21 273
q-8 110 -25.5 159.5t-58.5 49.5q-42 0 -59.5 -46t-17.5 -165v-338q0 -42 7.5 -70t18.5 -41.5t21.5 -23.5t18 -23.5t7.5 -32.5q0 -24 -17.5 -41.5t-51.5 -17.5q-11 0 -60 3t-106 3t-106 -3t-60 -3q-34 0 -51 17.5t-17 41.5q0 23 11.5 39.5t24.5 26.5t24.5 42t11.5 83v432
q0 36 -8.5 59.5t-20.5 34t-24 18.5t-20.5 21t-8.5 35q0 32 35 58t149 83q94 46 119.5 57t40.5 11q62 0 62 -103v-65h2q37 82 97.5 129t141.5 47q216 0 242 -365z" />
    <glyph glyph-name="ograve" unicode="&#xf2;" horiz-adv-x="1017" 
d="M563 1163q-44 0 -86 39q-37 36 -96 106.5t-68 80.5q-28 31 -37.5 41.5t-19.5 29.5t-10 37q0 30 23.5 41.5t99.5 11.5q64 0 91.5 -12t41.5 -43q68 -143 106 -242q15 -40 15 -51q0 -16 -16.5 -27.5t-43.5 -11.5zM500 -45q-212 0 -335.5 148t-123.5 399q0 160 57 290.5
t167.5 209.5t254.5 79q211 0 334 -149t123 -402q0 -156 -57.5 -286.5t-168 -209.5t-251.5 -79zM528 117q33 0 53.5 29.5t32 102.5t11.5 195q0 222 -36.5 349t-99.5 127q-49 0 -73.5 -76t-24.5 -256q0 -221 36.5 -346t100.5 -125z" />
    <glyph glyph-name="oacute" unicode="&#xf3;" horiz-adv-x="1017" 
d="M453 1163q-26 0 -41 11.5t-15 27.5q0 11 15 51q42 110 106 238q15 32 43.5 43.5t89.5 11.5q76 0 99.5 -11.5t23.5 -41.5q0 -22 -13 -41.5t-56 -69.5q-15 -17 -45 -53.5t-58 -67.5t-59 -59q-42 -39 -90 -39zM500 -45q-212 0 -335.5 148t-123.5 399q0 160 57 290.5
t167.5 209.5t254.5 79q211 0 334 -149t123 -402q0 -156 -57.5 -286.5t-168 -209.5t-251.5 -79zM528 117q33 0 53.5 29.5t32 102.5t11.5 195q0 222 -36.5 349t-99.5 127q-49 0 -73.5 -76t-24.5 -256q0 -221 36.5 -346t100.5 -125z" />
    <glyph glyph-name="ocircumflex" unicode="&#xf4;" horiz-adv-x="1017" 
d="M311 1178q-30 0 -46.5 13.5t-16.5 37.5q0 22 20 63q32 65 111 199q21 34 46 47.5t83 13.5q57 0 83.5 -13.5t47.5 -49.5q78 -131 109 -195q20 -44 20 -65q0 -23 -17 -37t-46 -14q-41 0 -76 43l-121 147l-121 -147q-36 -43 -76 -43zM520 1081q211 0 334 -149t123 -402
q0 -156 -57.5 -286.5t-168 -209.5t-251.5 -79q-212 0 -335.5 148t-123.5 399q0 160 57 290.5t167.5 209.5t254.5 79zM528 117q33 0 53.5 29.5t32 102.5t11.5 195q0 222 -36.5 349t-99.5 127q-49 0 -73.5 -76t-24.5 -256q0 -221 36.5 -346t100.5 -125z" />
    <glyph glyph-name="otilde" unicode="&#xf5;" horiz-adv-x="1017" 
d="M608 1192q-41 0 -76 23.5t-54 52t-38 52t-32 23.5q-18 0 -28.5 -15.5t-21.5 -47.5q-25 -74 -65 -74q-57 0 -57 66q0 33 12 82q43 168 160 168q33 0 61 -16t47 -38.5t34.5 -45t29.5 -38.5t26 -16q17 0 27 14.5t24 51.5q14 36 28.5 54.5t37.5 18.5q57 0 57 -65
q0 -34 -12 -84q-44 -166 -160 -166zM500 -45q-212 0 -335.5 148t-123.5 399q0 160 57 290.5t167.5 209.5t254.5 79q211 0 334 -149t123 -402q0 -156 -57.5 -286.5t-168 -209.5t-251.5 -79zM528 117q33 0 53.5 29.5t32 102.5t11.5 195q0 222 -36.5 349t-99.5 127
q-49 0 -73.5 -76t-24.5 -256q0 -221 36.5 -346t100.5 -125z" />
    <glyph glyph-name="odieresis" unicode="&#xf6;" horiz-adv-x="1017" 
d="M328 1190q-63 0 -104.5 43.5t-41.5 107.5q0 68 42 113t108 45q62 0 101.5 -43t39.5 -110q0 -68 -40 -112t-105 -44zM688 1190q-61 0 -102 43t-41 108q0 68 42 113t107 45q63 0 102.5 -43.5t39.5 -109.5q0 -67 -41 -111.5t-107 -44.5zM500 -45q-212 0 -335.5 148
t-123.5 399q0 160 57 290.5t167.5 209.5t254.5 79q211 0 334 -149t123 -402q0 -156 -57.5 -286.5t-168 -209.5t-251.5 -79zM528 117q33 0 53.5 29.5t32 102.5t11.5 195q0 222 -36.5 349t-99.5 127q-49 0 -73.5 -76t-24.5 -256q0 -221 36.5 -346t100.5 -125z" />
    <glyph glyph-name="divide" unicode="&#xf7;" horiz-adv-x="892" 
d="M449 879q-59 0 -96.5 36.5t-37.5 92.5t37.5 92.5t96.5 36.5t95 -36.5t36 -92.5t-36 -92.5t-95 -36.5zM119 524q-34 0 -54 27t-20 82q0 104 74 104h655q74 0 74 -104q0 -55 -20 -82t-54 -27h-655zM449 127q-59 0 -96.5 37.5t-37.5 93.5q0 55 37.5 92t96.5 37t95 -37
t36 -92q0 -57 -36 -94t-95 -37z" />
    <glyph glyph-name="oslash" unicode="&#xf8;" horiz-adv-x="1038" 
d="M905 874q82 -139 82 -344q0 -156 -57.5 -286.5t-168 -209.5t-251.5 -79q-167 0 -281 94l-45 -51q-28 -31 -49 -31q-20 0 -44.5 26.5t-24.5 51.5q0 28 28 59l43 50q-86 144 -86 348q0 160 57 290.5t167.5 209.5t254.5 79q172 0 287 -100l39 45q26 29 49 29
q21 0 45.5 -25.5t24.5 -50.5q0 -24 -29 -57zM500 920q-33 0 -54 -30.5t-33 -105.5t-12 -196q0 -30 5 -133l206 280q-36 185 -112 185zM539 117q49 0 72.5 73.5t23.5 253.5q0 22 -1 61.5t-1 57.5l-207 -276q38 -170 113 -170z" />
    <glyph glyph-name="ugrave" unicode="&#xf9;" 
d="M487 1202q-37 36 -94.5 105.5t-68.5 81.5q-3 4 -11.5 13t-11.5 12t-9.5 11t-9 11t-7.5 9.5t-7 10.5l-5 10t-4 10.5t-2 10t-1 10.5q0 30 23.5 41.5t99.5 11.5q64 0 91.5 -12t41.5 -43q68 -143 106 -242q15 -40 15 -51q0 -16 -16.5 -27.5t-43.5 -11.5q-44 0 -86 39z
M938 324q0 -44 16 -75.5t35 -45.5t35 -32.5t16 -39.5q0 -41 -40 -62.5t-162 -52.5q-127 -32 -160 -32q-64 0 -64 86v82h-2q-42 -87 -96 -132t-141 -45q-122 0 -191 99.5t-69 269.5v348q0 36 -10 60.5t-23.5 37t-27.5 22t-24 23t-10 33.5q0 37 35.5 61t157.5 70
q140 54 162 54q34 0 48.5 -24.5t14.5 -80.5v-512q0 -198 86 -198q90 0 90 231v223q0 36 -11.5 60t-27.5 36t-32 21.5t-27.5 23.5t-11.5 35q0 35 42 61t167 72q139 52 164 52q37 0 49 -24.5t12 -80.5v-624z" />
    <glyph glyph-name="uacute" unicode="&#xfa;" 
d="M463 1163q-26 0 -40.5 11.5t-14.5 27.5q0 14 14 51q42 110 106 238q15 32 44 43.5t90 11.5q76 0 99 -11.5t23 -41.5q0 -22 -13 -41.5t-56 -69.5q-15 -17 -45 -53.5t-58 -67.5t-59 -59q-42 -39 -90 -39zM938 324q0 -44 16 -75.5t35 -45.5t35 -32.5t16 -39.5
q0 -41 -40 -62.5t-162 -52.5q-127 -32 -160 -32q-64 0 -64 86v82h-2q-42 -87 -96 -132t-141 -45q-122 0 -191 99.5t-69 269.5v348q0 36 -10 60.5t-23.5 37t-27.5 22t-24 23t-10 33.5q0 37 35.5 61t157.5 70q140 54 162 54q34 0 48.5 -24.5t14.5 -80.5v-512q0 -198 86 -198
q90 0 90 231v223q0 36 -11.5 60t-27.5 36t-32 21.5t-27.5 23.5t-11.5 35q0 35 42 61t167 72q139 52 164 52q37 0 49 -24.5t12 -80.5v-624z" />
    <glyph glyph-name="ucircumflex" unicode="&#xfb;" 
d="M322 1178q-30 0 -47 13.5t-17 37.5q0 20 21 63q36 74 110 199q21 34 46 47.5t83 13.5q57 0 83.5 -13.5t47.5 -49.5q78 -131 109 -195q20 -44 20 -65q0 -23 -17 -37t-46 -14q-41 0 -76 43l-121 147l-121 -147q-36 -43 -75 -43zM938 324q0 -44 16 -75.5t35 -45.5t35 -32.5
t16 -39.5q0 -41 -40 -62.5t-162 -52.5q-127 -32 -160 -32q-64 0 -64 86v82h-2q-42 -87 -96 -132t-141 -45q-122 0 -191 99.5t-69 269.5v348q0 36 -10 60.5t-23.5 37t-27.5 22t-24 23t-10 33.5q0 37 35.5 61t157.5 70q140 54 162 54q34 0 48.5 -24.5t14.5 -80.5v-512
q0 -198 86 -198q90 0 90 231v223q0 36 -11.5 60t-27.5 36t-32 21.5t-27.5 23.5t-11.5 35q0 35 42 61t167 72q139 52 164 52q37 0 49 -24.5t12 -80.5v-624z" />
    <glyph glyph-name="udieresis" unicode="&#xfc;" 
d="M338 1190q-62 0 -103.5 43.5t-41.5 107.5q0 68 42 113t107 45q62 0 101.5 -43t39.5 -110q0 -68 -40 -112t-105 -44zM698 1190q-61 0 -102 43t-41 108q0 68 42 113t108 45q62 0 101.5 -43t39.5 -110t-41 -111.5t-107 -44.5zM938 324q0 -44 16 -75.5t35 -45.5t35 -32.5
t16 -39.5q0 -41 -40 -62.5t-162 -52.5q-127 -32 -160 -32q-64 0 -64 86v82h-2q-42 -87 -96 -132t-141 -45q-122 0 -191 99.5t-69 269.5v348q0 36 -10 60.5t-23.5 37t-27.5 22t-24 23t-10 33.5q0 37 35.5 61t157.5 70q140 54 162 54q34 0 48.5 -24.5t14.5 -80.5v-512
q0 -198 86 -198q90 0 90 231v223q0 36 -11.5 60t-27.5 36t-32 21.5t-27.5 23.5t-11.5 35q0 35 42 61t167 72q139 52 164 52q37 0 49 -24.5t12 -80.5v-624z" />
    <glyph glyph-name="yacute" unicode="&#xfd;" horiz-adv-x="964" 
d="M469 1163q-26 0 -40.5 11.5t-14.5 27.5q0 14 14 51q39 101 107 238q15 32 43.5 43.5t89.5 11.5q76 0 99.5 -11.5t23.5 -41.5q0 -22 -13 -41t-57 -70q-15 -17 -45 -53.5t-58 -67.5t-59 -59q-42 -39 -90 -39zM893 1042q26 0 42.5 -15t16.5 -40q0 -20 -12 -36.5t-29 -31
t-40 -56.5t-40 -103l-210 -760q-58 -208 -149 -302.5t-216 -94.5q-47 0 -86.5 13.5t-52.5 35.5q-27 42 -50.5 133.5t-23.5 151.5q0 35 13.5 56t39.5 21q34 0 56 -37q56 -92 85 -122.5t70 -30.5q38 0 60 25.5t47 97.5l-299 811q-18 49 -38.5 85.5t-35 55t-27.5 32.5
t-19.5 26.5t-6.5 29.5q0 25 17.5 40t41.5 15q11 0 73.5 -3t119.5 -3q54 0 114 3t76 3q76 0 76 -57q0 -26 -13 -44t-26.5 -41t-15.5 -60q-2 -43 26 -133l94 -291l72 291q23 91 23 133q0 34 -14.5 57t-29 42.5t-14.5 45.5q0 57 74 57q14 0 49 -3t57 -3q18 0 56.5 3t48.5 3z
" />
    <glyph glyph-name="thorn" unicode="&#xfe;" horiz-adv-x="1048" 
d="M672 1071q145 0 239.5 -148t94.5 -391q0 -247 -108 -406t-280 -159q-126 0 -202 80v-172q0 -40 9.5 -66t22.5 -37.5t26 -21t22.5 -25t9.5 -40.5q0 -23 -18 -40.5t-52 -17.5q-11 0 -66 3t-116 3q-57 0 -105 -3t-59 -3q-34 0 -50.5 17t-16.5 41q0 27 11 44t23.5 26t23.5 39
t11 81v1321q0 36 -8.5 59.5t-20.5 34t-24 18.5t-20.5 21t-8.5 35q0 33 35 58t150 83q91 46 117 57t42 11q62 0 62 -103v-557q91 158 256 158zM563 127q47 0 73 84t26 240q0 167 -41.5 281t-94.5 114t-81.5 -79t-28.5 -210v-84q0 -155 37 -250.5t110 -95.5z" />
    <glyph glyph-name="ydieresis" unicode="&#xff;" horiz-adv-x="964" 
d="M344 1190q-62 0 -103.5 43.5t-41.5 107.5q0 68 42 113t107 45q62 0 101.5 -43t39.5 -110q0 -68 -40 -112t-105 -44zM705 1190q-62 0 -103 43.5t-41 107.5q0 68 42 113t108 45q62 0 101.5 -43t39.5 -110t-40.5 -111.5t-106.5 -44.5zM893 1042q26 0 42.5 -15t16.5 -40
q0 -20 -12 -36.5t-29 -31t-40 -56.5t-40 -103l-210 -760q-58 -208 -149 -302.5t-216 -94.5q-47 0 -86.5 13.5t-52.5 35.5q-27 42 -50.5 133.5t-23.5 151.5q0 35 13.5 56t39.5 21q34 0 56 -37q56 -92 85 -122.5t70 -30.5q38 0 60 25.5t47 97.5l-299 811q-18 49 -38.5 85.5
t-35 55t-27.5 32.5t-19.5 26.5t-6.5 29.5q0 25 17.5 40t41.5 15q11 0 73.5 -3t119.5 -3q54 0 114 3t76 3q76 0 76 -57q0 -26 -13 -44t-26.5 -41t-15.5 -60q-2 -43 26 -133l94 -291l72 291q23 91 23 133q0 34 -14.5 57t-29 42.5t-14.5 45.5q0 57 74 57q14 0 49 -3t57 -3
q18 0 56.5 3t48.5 3z" />
    <glyph glyph-name="OE" unicode="&#x152;" horiz-adv-x="1677" 
d="M1616 483q25 0 41 -18.5t16 -50.5q0 -50 -39 -160l-71 -205q-20 -55 -36 -76.5t-48 -21.5q-22 0 -60 24.5t-80 24.5h-526q-93 -43 -211 -43q-261 0 -408 199t-147 551q0 234 66.5 415.5t194 285t298.5 103.5q115 0 207 -45h475q33 0 57.5 13.5t44 27t40.5 13.5
q30 0 45.5 -22t37.5 -87l64 -186q39 -112 39 -158q0 -30 -17 -49t-40 -19q-47 0 -76 56q-77 147 -130.5 197.5t-127.5 50.5h-29q-74 0 -74 -99v-325q0 -54 43 -54h13q20 0 37.5 23t28.5 51t30.5 51t44.5 23q55 0 55 -80q0 -23 -2 -74t-2 -76q0 -26 2 -76.5t2 -74.5
q0 -80 -55 -80q-25 0 -44 23.5t-29.5 51.5t-28.5 51.5t-41 23.5h-11q-43 0 -43 -54v-346q0 -52 17.5 -75t58.5 -23h62q68 0 124.5 57.5t151.5 204.5q19 29 36.5 43t43.5 14zM616 139q65 0 107.5 84t42.5 275v506q0 89 -15 160t-49.5 118t-85.5 47q-182 0 -182 -620
q0 -127 8 -223.5t27.5 -178t56.5 -125t90 -43.5z" />
    <glyph glyph-name="oe" unicode="&#x153;" horiz-adv-x="1501" 
d="M1417 295q21 0 34 -14.5t13 -42.5q0 -34 -12 -64q-39 -93 -134.5 -155t-225.5 -62q-196 0 -314 141q-127 -143 -278 -143q-212 0 -335.5 148t-123.5 399q0 160 57 290.5t167.5 209.5t254.5 79q176 0 281 -133q108 133 264 133q117 0 207.5 -61t137 -161t46.5 -220
q0 -48 -17.5 -72t-66.5 -37l-387 -106q31 -118 86 -184t125 -66q96 0 164 84q30 37 57 37zM530 117q54 0 74.5 72.5t20.5 254.5q0 223 -36.5 349.5t-101.5 126.5q-53 0 -74.5 -75t-21.5 -257q0 -222 36.5 -346.5t102.5 -124.5zM1034 920q-39 0 -59.5 -58t-20.5 -149
q0 -63 7 -135l104 30q78 23 78 88q0 83 -31 153.5t-78 70.5z" />
    <glyph glyph-name="Ydieresis" unicode="&#x178;" horiz-adv-x="1064" 
d="M410 1569q-63 0 -104.5 43.5t-41.5 107.5q0 68 42 113t108 45q62 0 101.5 -43.5t39.5 -110.5q0 -68 -40 -111.5t-105 -43.5zM770 1569q-61 0 -102 43t-41 108q0 68 42 113t107 45q62 0 102 -43.5t40 -110.5t-41 -111t-107 -44zM1010 1470q27 0 43 -14.5t16 -38.5
q0 -31 -17 -49.5t-43 -43.5t-40 -64l-258 -697v-317q0 -48 15.5 -77t33.5 -38.5t33.5 -28t15.5 -47.5q0 -26 -18 -43.5t-54 -17.5q-10 0 -71.5 3t-133.5 3t-134 -3t-72 -3q-35 0 -53.5 18t-18.5 43q0 24 10.5 40t25 25.5t29 21.5t25 38t10.5 66v332l-260 673
q-16 40 -40.5 70t-39 49t-14.5 45q0 24 17 39.5t44 15.5q22 0 81.5 -3t121.5 -3q59 0 122.5 3t82.5 3q74 0 74 -61q0 -20 -11.5 -35t-24.5 -24t-24.5 -29t-11.5 -49q0 -25 27 -105l131 -370l131 366q26 74 26 103q0 32 -14.5 52t-31.5 28t-31.5 23.5t-14.5 39.5q0 61 72 61
q26 0 67 -3t58 -3q16 0 52.5 3t66.5 3z" />
    <glyph glyph-name="tilde" unicode="&#x2dc;" horiz-adv-x="663" 
d="M434 1202q-34 0 -63 15.5t-48.5 38t-35.5 45t-29.5 38t-24.5 15.5q-13 0 -22.5 -10t-14 -20.5t-12.5 -33.5q-25 -73 -65 -73q-58 0 -58 65q0 29 13 82q43 168 159 168q40 0 74 -24t52.5 -53t38.5 -53t34 -24q17 0 27 14.5t24 51.5q14 36 28.5 55t37.5 19q57 0 57 -66
q0 -34 -12 -84q-44 -166 -160 -166z" />
    <glyph glyph-name="endash" unicode="&#x2013;" horiz-adv-x="737" 
d="M137 422q-42 0 -61 18t-19 72v55q0 49 17 69.5t63 20.5h463q42 0 61 -18t19 -72v-55q0 -51 -17 -70.5t-63 -19.5h-463z" />
    <glyph glyph-name="emdash" unicode="&#x2014;" horiz-adv-x="1433" 
d="M137 422q-42 0 -61 18t-19 72v55q0 49 17 69.5t63 20.5h1159q42 0 61 -18t19 -72v-55q0 -51 -17 -70.5t-63 -19.5h-1159z" />
    <glyph glyph-name="quoteleft" unicode="&#x2018;" horiz-adv-x="407" 
d="M197 903q-82 0 -124 50t-42 147t40 193t99.5 155t114.5 59q23 0 36 -14.5t13 -38.5q0 -31 -51 -76q-47 -44 -47 -94q0 -26 12.5 -40.5t54.5 -39.5q37 -22 58.5 -50.5t21.5 -78.5q0 -71 -53.5 -121.5t-132.5 -50.5z" />
    <glyph glyph-name="quoteright" unicode="&#x2019;" horiz-adv-x="407" 
d="M215 1489q82 0 124 -50t42 -147t-40 -193t-99.5 -155t-114.5 -59q-23 0 -36 14.5t-13 38.5q0 31 51 76q47 44 47 94q0 26 -12.5 40.5t-54.5 39.5q-37 22 -58.5 50.5t-21.5 78.5q0 71 53.5 121.5t132.5 50.5z" />
    <glyph glyph-name="quotedblleft" unicode="&#x201c;" horiz-adv-x="819" 
d="M197 903q-82 0 -124 50t-42 147t40 193t99.5 155t114.5 59q23 0 36 -14.5t13 -38.5q0 -31 -51 -76q-47 -44 -47 -94q0 -26 12.5 -40.5t54.5 -39.5q37 -22 58.5 -50.5t21.5 -78.5q0 -71 -53.5 -121.5t-132.5 -50.5zM608 901q-168 0 -168 197q0 97 40 193t99.5 155
t114.5 59q23 0 36 -14.5t13 -38.5q0 -33 -51 -76q-47 -44 -47 -94q0 -26 12.5 -40t55.5 -40q38 -22 60 -50.5t22 -78.5q0 -71 -54.5 -121.5t-132.5 -50.5z" />
    <glyph glyph-name="quotedblright" unicode="&#x201d;" horiz-adv-x="800" 
d="M215 1489q82 0 124 -50t42 -147t-40 -193t-99.5 -155t-114.5 -59q-23 0 -36 14.5t-13 38.5q0 31 51 76q47 44 47 94q0 26 -12.5 40.5t-54.5 39.5q-37 22 -58.5 50.5t-21.5 78.5q0 71 53.5 121.5t132.5 50.5zM608 1489q82 0 124 -50t42 -147t-40 -193t-99.5 -155
t-114.5 -59q-23 0 -36 14.5t-13 38.5q0 31 51 76q47 44 47 94q0 26 -12.5 40.5t-54.5 39.5q-37 22 -58.5 50.5t-21.5 78.5q0 71 53.5 121.5t132.5 50.5z" />
    <glyph glyph-name="quotedblbase" unicode="&#x201e;" horiz-adv-x="847" 
d="M225 322q85 0 128.5 -51.5t43.5 -151.5t-41.5 -199t-102.5 -160t-118 -61q-23 0 -37 15t-14 38q0 33 53 80q49 44 49 96q0 26 -13 41.5t-56 40.5q-84 47 -84 133q0 74 55.5 126.5t136.5 52.5zM635 322q85 0 128.5 -51.5t43.5 -151.5t-41.5 -199t-102.5 -160t-118 -61
q-23 0 -37 15t-14 38q0 33 53 80q49 44 49 96q0 26 -13.5 41.5t-56.5 40.5q-84 47 -84 133q0 74 56 126.5t137 52.5z" />
    <glyph glyph-name="bullet" unicode="&#x2022;" horiz-adv-x="757" 
d="M379 240q-125 0 -212 91.5t-87 221.5q0 131 86.5 223t212.5 92t212.5 -92t86.5 -223q0 -130 -87 -221.5t-212 -91.5z" />
    <glyph glyph-name="ellipsis" unicode="&#x2026;" horiz-adv-x="1368" 
d="M223 322q-84 0 -137 -52.5t-53 -128.5q0 -74 43.5 -116.5t118.5 -42.5q84 0 138 52.5t54 127.5q0 73 -45 116.5t-119 43.5zM696 322q-84 0 -137 -52.5t-53 -128.5q0 -74 43.5 -116.5t118.5 -42.5q84 0 138 52.5t54 127.5q0 73 -45 116.5t-119 43.5zM1169 322
q-84 0 -137 -52.5t-53 -128.5q0 -74 43.5 -116.5t118.5 -42.5q84 0 138 52.5t54 127.5q0 73 -45 116.5t-119 43.5z" />
    <glyph glyph-name="guilsinglleft" unicode="&#x2039;" horiz-adv-x="538" 
d="M334 467l96 -207q51 -109 51 -151q0 -25 -13 -43.5t-38 -18.5q-40 0 -119 90l-186 217q-26 31 -36.5 44t-24 42.5t-13.5 57.5q0 27 12.5 55.5t24 43t37.5 44.5l186 215q80 92 119 92q25 0 38 -18.5t13 -44.5q0 -44 -51 -152l-98 -213q-4 -16 -4 -22q0 -7 6 -31z" />
    <glyph glyph-name="guilsinglright" unicode="&#x203a;" horiz-adv-x="538" 
d="M414 641q25 -29 37 -44.5t24 -43t12 -55.5t-13 -57t-24 -43t-36 -44l-187 -217q-40 -45 -67 -67.5t-51 -22.5q-25 0 -38.5 18.5t-13.5 43.5q0 40 52 151l96 207q6 24 6 31q0 6 -4 22l-98 213q-52 110 -52 152q0 25 13.5 44t38.5 19q22 0 49 -21.5t69 -70.5z" />
    <glyph glyph-name="Euro" unicode="&#x20ac;" horiz-adv-x="1056" 
d="M944 422q25 0 39 -17t14 -45q0 -47 -16 -94q-108 -307 -377 -307q-163 0 -277 143t-149 396h-65q-34 0 -50 18t-16 59q0 76 66 76h53v47q0 41 4 119h-57q-66 0 -66 76q0 41 16 59.5t50 18.5h77q47 238 159.5 383t242.5 145q45 0 103.5 -23.5t74.5 -23.5q14 0 42 26.5
t50 26.5q26 0 39 -22.5t29 -87.5l47 -197q29 -122 29 -147q0 -32 -16.5 -51t-41.5 -19q-27 0 -44 14.5t-32 51.5q-67 170 -102.5 230t-81.5 60q-50 0 -88 -98t-53 -268h145q72 0 72 -78q0 -76 -72 -76h-155v-67q0 -68 2 -99h182q70 0 70 -76q0 -77 -70 -77h-170
q22 -152 64.5 -236t95.5 -84q52 0 92 52t78 143q20 49 63 49z" />
    <glyph glyph-name="trademark" unicode="&#x2122;" horiz-adv-x="1488" 
d="M682 1245q0 -19 -12.5 -30t-26.5 -11q-33 0 -51 35q-54 97 -67 112q-14 15 -29 15h-4q-25 0 -25 -33v-493q0 -26 8.5 -42t18 -22t18 -16t8.5 -25t-11.5 -27t-31.5 -12q-5 0 -41 2t-82 2q-43 0 -77 -2t-39 -2q-20 0 -31.5 12t-11.5 27t8.5 25t18 16t18 22t8.5 42v493
q0 33 -25 33h-4q-18 0 -33.5 -20.5t-48.5 -80.5q-3 -5 -4.5 -8.5t-4.5 -8.5t-5 -9q-18 -35 -51 -35q-14 0 -26.5 11t-12.5 30q0 15 2.5 27t8.5 31.5t9 29.5l31 105q9 32 19 44.5t30 12.5q13 0 35 -14.5t47 -14.5h285q26 0 47 14.5t35 14.5q17 0 28.5 -13t20.5 -44l31 -105
q3 -10 9 -29.5t8.5 -31.5t2.5 -27zM1389 838q3 -30 17.5 -47t27 -29t12.5 -31q0 -35 -37 -35q-13 0 -50.5 2t-66.5 2q-33 0 -73.5 -2t-53.5 -2q-20 0 -31.5 11t-11.5 26q0 24 23.5 40.5t23.5 43.5q0 13 -4 45l-22 260l-131 -383q-6 -20 -29 -20q-24 0 -29 18l-131 385
l-28 -260q-4 -36 -4 -45q0 -27 26.5 -43.5t26.5 -40.5q0 -37 -47 -37q-15 0 -36.5 2t-33.5 2q-13 0 -37 -2t-41 -2q-15 0 -25 10t-10 23q0 17 9.5 28.5t21 18.5t23 24t14.5 42l59 465q2 12 2 39q0 35 -18 56t-18 34q0 34 41 34q6 0 39.5 -2t64.5 -2q29 0 60.5 2t39.5 2
q37 0 37 -36q0 -17 -17.5 -37t-17.5 -41q0 -19 15 -66l71 -217l74 219q14 42 14 62q0 22 -17 42t-17 36q0 20 9.5 29t35.5 9q8 0 32 -2t54 -2q28 0 58 2t38 2q21 0 32 -10t11 -24q0 -19 -18.5 -39t-18.5 -49l4 -37z" />
    <glyph glyph-name="Ldot" horiz-adv-x="985" 
d="M774 -49q-19 0 -54 24.5t-77 24.5h-332q-67 0 -120 -3t-66 -3q-34 0 -52 17.5t-18 43.5t12 43.5t26 27.5t26 40.5t12 79.5v968q0 49 -12 79.5t-26 40.5t-26 27.5t-12 43.5q0 25 22.5 43t57.5 18q11 0 61 -3t115 -3t119 3t64 3q35 0 53 -17.5t18 -43.5q0 -22 -8 -36.5
t-19.5 -24.5t-23 -23t-19.5 -40t-8 -67v-960q0 -45 16.5 -67.5t59.5 -22.5h6q59 0 121.5 65t155.5 207q38 58 78 58q57 0 57 -64q0 -45 -43 -170l-72 -209q-18 -53 -38 -76.5t-54 -23.5zM762 930q-68 0 -111 -42.5t-43 -103.5q0 -59 35 -93t96 -34q66 0 110 42t44 102
q0 59 -36 94t-95 35z" />
    <glyph glyph-name="ldot" horiz-adv-x="735" 
d="M109 -6q-34 0 -51 17.5t-17 41.5q0 23 11.5 39.5t24.5 26.5t24.5 42t11.5 83v952q0 36 -8.5 59.5t-20.5 34t-24 18.5t-20.5 21t-8.5 35q0 33 35 58.5t149 82.5q90 45 117 56.5t43 11.5q61 0 61 -103v-1226q0 -42 7.5 -70t18.5 -41.5t22 -23.5t18.5 -23.5t7.5 -32.5
q0 -24 -18 -41.5t-52 -17.5q-11 0 -60 3t-106 3t-105.5 -3t-59.5 -3zM653 895q-72 0 -116.5 -44.5t-44.5 -107.5t36.5 -100t100.5 -37q71 0 117.5 45t46.5 109q0 62 -39 98.5t-101 36.5z" />
    <glyph glyph-name="a.ss01" horiz-adv-x="962" 
d="M961 188q36 -11 36 -45q0 -52 -59.5 -105.5t-159.5 -53.5q-146 0 -205 118q-84 -127 -258 -127q-125 0 -206.5 89.5t-81.5 228.5q0 143 87.5 238.5t235.5 95.5q64 0 125 -21l-12 72q-28 174 -129 174q-9 0 -18.5 -1.5t-17 -3.5t-16.5 -6t-14 -6.5t-14 -8t-12 -8
t-11.5 -8.5t-9.5 -7q-46 -35 -71 -35q-30 0 -48 18t-18 50q0 53 53 106q58 58 141 89.5t166 31.5q79 0 139.5 -25t94 -59.5t57 -86.5t32.5 -89.5t18 -85.5q1 -5 1 -8l60 -344q6 -36 10 -54.5t12 -42.5t19 -36.5t29.5 -24.5t44.5 -19zM449 166q53 0 90 53q-2 4 -2 8l-41 246
q-23 10 -45 10q-44 0 -70.5 -40t-26.5 -115q0 -72 28 -117t67 -45z" />
    <glyph glyph-name="h.ss01" horiz-adv-x="1079" 
d="M991 268q10 -60 25.5 -98t27.5 -49.5t20.5 -28t8.5 -41.5t-18 -40t-51 -15q-7 0 -59 3t-114 3q-57 0 -107 -3t-58 -3q-36 0 -54 16.5t-18 42.5q0 21 10 36.5t21.5 25.5t21.5 34.5t10 61.5q0 49 -8 98l-53 314q-16 95 -32.5 131.5t-49.5 36.5q-42 0 -60 -47.5t-18 -170.5
v-331q0 -42 7.5 -70t18.5 -41.5t22 -23.5t18.5 -23.5t7.5 -32.5q0 -24 -18 -41.5t-52 -17.5q-11 0 -60 3t-106 3t-105.5 -3t-59.5 -3q-34 0 -51 17.5t-17 41.5q0 23 11.5 39.5t24.5 26.5t24.5 42t11.5 83v952q0 36 -8.5 59.5t-20.5 34t-24 18.5t-20.5 21t-8.5 35q0 32 35 58
t149 83q94 46 119.5 57t40.5 11q61 0 61 -103v-585h2q78 176 228 176q112 0 168 -98.5t90 -300.5z" />
    <glyph glyph-name="m.ss01" horiz-adv-x="1572" 
d="M1479 268q9 -60 25 -98t29.5 -49.5t23.5 -28t10 -41.5t-18.5 -40t-53.5 -15q-11 0 -60.5 3t-101.5 3q-57 0 -120.5 -3t-73.5 -3q-31 0 -47.5 16.5t-16.5 42.5q0 17 7.5 29.5t18.5 22t22 21.5t18.5 33.5t7.5 51.5q0 41 -8 98l-51 348q-11 71 -27.5 102.5t-44.5 31.5
q-22 0 -36 -13t-24 -58t-10 -126v-352q0 -42 7.5 -70t18.5 -41.5t22 -23.5t18.5 -23.5t7.5 -32.5q0 -59 -57 -59q-13 0 -66 3t-113 3q-55 0 -104.5 -3t-60.5 -3q-26 0 -42 18t-16 41q0 19 6.5 32.5t15.5 23.5t18 23.5t15.5 41.5t6.5 70v340q0 209 -80 209q-92 0 -92 -224
v-325q0 -42 6.5 -70t16.5 -41.5t19.5 -23.5t16 -23.5t6.5 -32.5q0 -59 -61 -59q-11 0 -61 3t-105 3q-57 0 -106.5 -3t-59.5 -3q-34 0 -51 17.5t-17 41.5q0 23 11.5 39.5t24.5 26.5t24.5 42t11.5 83v432q0 36 -8.5 59.5t-20.5 34t-24 18.5t-20.5 21t-8.5 35q0 32 35 58
t149 83q94 46 119.5 57t40.5 11q62 0 62 -103v-73h2q35 75 104 129.5t150 54.5q155 0 213 -193q35 87 98 140t154 53q56 0 98 -28.5t70 -85t45.5 -123.5t31.5 -162z" />
    <glyph glyph-name="n.ss01" horiz-adv-x="1095" 
d="M1008 268q10 -60 25.5 -98t27.5 -49.5t20.5 -28t8.5 -41.5t-18.5 -40t-51.5 -15q-7 0 -58.5 3t-113.5 3q-57 0 -107.5 -3t-58.5 -3q-36 0 -54 16.5t-18 42.5q0 21 10 36.5t22 25.5t22 34.5t10 61.5q0 49 -8 98l-54 314q-16 95 -32.5 131.5t-49.5 36.5q-42 0 -59.5 -47
t-17.5 -171v-331q0 -42 7.5 -70t18.5 -41.5t21.5 -23.5t18 -23.5t7.5 -32.5q0 -24 -17.5 -41.5t-51.5 -17.5q-11 0 -60 3t-106 3t-106 -3t-60 -3q-34 0 -51 17.5t-17 41.5q0 23 11.5 39.5t24.5 26.5t24.5 42t11.5 83v432q0 36 -8.5 59.5t-20.5 34t-24 18.5t-20.5 21t-8.5 35
q0 32 35 58t149 83q94 46 119.5 57t40.5 11q62 0 62 -103v-65h2q78 176 227 176q112 0 168 -98.5t90 -300.5z" />
    <glyph glyph-name="zero.dnom" horiz-adv-x="772" 
d="M377 -31q-156 0 -246 138t-90 376q0 236 96.5 377t257.5 141q158 0 247 -137.5t89 -380.5q0 -229 -98 -371.5t-256 -142.5zM385 100q78 0 78 383q0 387 -78 387q-41 0 -57.5 -86.5t-16.5 -300.5q0 -215 16.5 -299t57.5 -84z" />
    <glyph glyph-name="one.dnom" horiz-adv-x="530" 
d="M115 -4q-25 0 -38.5 13t-13.5 32q0 20 11.5 33t25.5 20.5t25.5 30t11.5 59.5v516q0 64 -31 64q-11 0 -26.5 -4t-28.5 -4q-18 0 -30.5 15t-12.5 40q0 37 45 53q7 3 41 14t77 26.5t91 35.5q26 11 57.5 24.5t42.5 17.5t24 7.5t24 3.5q22 0 34.5 -13.5t12.5 -35.5
q0 -28 -25.5 -63t-25.5 -74v-623q0 -37 11.5 -59.5t25 -30t25 -20.5t11.5 -33q0 -19 -14 -32t-39 -13q-11 0 -56 2t-100 2q-54 0 -99 -2t-56 -2z" />
    <glyph glyph-name="two.dnom" horiz-adv-x="679" 
d="M608 342q41 0 41 -51q0 -41 -24 -111l-52 -143q-14 -40 -26.5 -55t-36.5 -15q-13 0 -38.5 16.5t-57.5 16.5h-213q-9 0 -49 -2t-70 -2q-32 0 -50 17t-18 40q0 35 21 76q4 8 41.5 70.5t83.5 139.5t65 112q90 159 90 262q0 39 -16 62.5t-45 23.5q-16 0 -28.5 -6.5
t-24.5 -22.5t-19.5 -28.5t-21.5 -39.5q-21 -40 -58 -40q-49 0 -49 67q0 31 10 66q27 93 98 146.5t173 53.5q121 0 191.5 -74t70.5 -196q0 -82 -30 -143.5t-85 -128.5q-42 -52 -82.5 -95t-87 -87t-65.5 -64h157q44 0 85 26t67 70q22 39 53 39z" />
    <glyph glyph-name="three.dnom" horiz-adv-x="665" 
d="M393 612q100 -14 165 -106.5t65 -194.5q0 -141 -88 -237.5t-236 -96.5q-101 0 -165 50.5t-91 130.5q-12 37 -12 78q0 28 15.5 44.5t39.5 16.5q37 0 61 -47q24 -42 46 -61t51 -19q38 0 65 34.5t27 110.5q0 61 -27 96t-67 35q-12 0 -29 -3t-25 -3q-20 0 -32.5 17t-12.5 41
q0 14 10 30t21.5 28t34 32.5t35.5 34.5q90 94 151 165h-114q-54 0 -78 -18t-62 -82q-23 -39 -51 -39q-16 0 -28.5 14.5t-12.5 38.5q0 31 21 103l36 125q16 56 30 68q12 10 26 10q18 0 46 -18.5t58 -18.5h170q9 0 43.5 2t44.5 2q94 0 94 -82q0 -47 -36 -88q-41 -45 -189 -193
z" />
    <glyph glyph-name="four.dnom" horiz-adv-x="675" 
d="M582 406q15 0 22 -1t16.5 -7t13 -20.5t3.5 -39.5v-59q0 -40 -9.5 -54t-45.5 -14h-17v-39q0 -33 7.5 -54.5t17 -29t17 -19t7.5 -28.5q0 -19 -14 -32t-39 -13q-8 0 -44 2t-85 2q-47 0 -88.5 -2t-48.5 -2q-25 0 -38 13t-13 32q0 18 8.5 30.5t19 19.5t19 28t8.5 53v39h-207
q-86 0 -86 72q0 33 10.5 66t42.5 110l164 407q23 58 53.5 83.5t88.5 25.5h100q52 0 76 -17t24 -65v-487h17zM317 797l-147 -391h147v391z" />
    <glyph glyph-name="five.dnom" horiz-adv-x="669" 
d="M346 639q131 0 208 -89.5t77 -225.5q0 -152 -88.5 -250.5t-231.5 -98.5q-89 0 -157 33t-101 90q-24 41 -24 80q0 25 14.5 41.5t36.5 16.5q8 0 15 -2t11.5 -4.5t9 -7t6.5 -7.5t5 -7t4 -5q41 -56 100 -56q44 0 71.5 37t27.5 107q0 64 -26 100.5t-75 36.5q-24 0 -63.5 -14.5
t-54.5 -14.5q-21 0 -34 17.5t-9 52.5l55 453q4 53 61 53h275q33 0 46.5 4.5t33.5 24.5q26 26 45 26q18 0 28.5 -10.5t10.5 -28.5q0 -25 -33 -114l-25 -66q-11 -30 -33.5 -42.5t-66.5 -12.5h-229l-17 -133q63 16 127 16z" />
    <glyph glyph-name="six.dnom" horiz-adv-x="718" 
d="M461 664q97 0 160 -87t63 -235q0 -162 -90.5 -262t-222.5 -100q-167 0 -248.5 125.5t-81.5 351.5q0 152 41 272t128 194t208 74q98 0 153 -36q58 -35 58 -87q0 -24 -15.5 -39.5t-38.5 -15.5q-12 0 -47 15q-32 14 -63 14q-65 0 -104.5 -56t-47.5 -196q27 32 68 50t80 18z
M360 106q66 0 66 209q0 73 -10.5 119.5t-24 62t-29.5 15.5q-65 0 -65 -180q0 -117 15 -171.5t48 -54.5z" />
    <glyph glyph-name="seven.dnom" horiz-adv-x="595" 
d="M492 975q75 0 75 -66q0 -25 -20 -114q-65 -278 -182 -725q-9 -37 -28.5 -52.5t-60.5 -15.5h-108q-78 0 -78 55q0 8 2 17t6 20.5t8 21t12 24.5t13 24t14.5 27.5t14.5 27.5q5 10 31 59.5t39.5 76t40.5 82t47 99t46.5 104.5t49.5 120h-199q-29 0 -50.5 -19t-55.5 -79
q-21 -37 -56 -37q-18 0 -29.5 12.5t-11.5 36.5q0 22 23 102l47 160q10 36 23 54t36 18q15 0 43 -18.5t60 -18.5h139q8 0 54 2t55 2z" />
    <glyph glyph-name="eight.dnom" horiz-adv-x="714" 
d="M508 569q97 -75 133.5 -137t36.5 -153q0 -137 -89.5 -219.5t-230.5 -82.5q-66 0 -121 14t-100 43.5t-70.5 82.5t-25.5 125q0 152 137 233q-119 114 -119 246q0 120 83 197t227 77q66 0 119 -20.5t83.5 -54t46 -71t15.5 -75.5q0 -129 -125 -205zM360 874q-29 0 -44 -19.5
t-15 -47.5q0 -50 28.5 -88.5t80.5 -77.5q26 54 26 111q0 51 -20 86.5t-56 35.5zM348 109q36 0 60 24.5t24 63.5q0 54 -32 94t-107 94q-39 -64 -39 -137q0 -62 24 -100.5t70 -38.5z" />
    <glyph glyph-name="nine.dnom" horiz-adv-x="720" 
d="M350 991q167 0 248.5 -126t81.5 -351q0 -86 -11.5 -161.5t-38.5 -145.5t-68.5 -120t-105.5 -80t-145 -30q-42 0 -91.5 13t-82.5 37q-63 42 -63 96q0 24 14.5 39.5t38.5 15.5q18 0 53 -20q51 -29 96 -29q64 0 95 57.5t37 188.5q-60 -68 -148 -68q-98 0 -160.5 87.5
t-62.5 236.5q0 160 90 260t223 100zM360 459q8 0 15.5 3.5t17 15t16 30.5t11 52.5t4.5 78.5q0 91 -10 143.5t-23 67t-33 14.5q-63 0 -63 -209q0 -196 65 -196z" />
    <glyph glyph-name="zero.numr" horiz-adv-x="772" 
d="M377 471q-156 0 -246 138t-90 376q0 236 96.5 377t257.5 141q158 0 247 -137.5t89 -380.5q0 -229 -98 -371.5t-256 -142.5zM385 602q78 0 78 383q0 387 -78 387q-41 0 -57.5 -86.5t-16.5 -300.5q0 -215 16.5 -299t57.5 -84z" />
    <glyph glyph-name="one.numr" horiz-adv-x="530" 
d="M115 498q-25 0 -38.5 13t-13.5 32q0 20 11.5 33t25.5 20.5t25.5 30t11.5 59.5v516q0 64 -31 64q-11 0 -26.5 -4.5t-28.5 -4.5q-18 0 -30.5 15.5t-12.5 40.5q0 37 45 53q7 3 41 14t77 26.5t91 35.5q26 11 57.5 24.5t42.5 17.5t24 7.5t24 3.5q22 0 34.5 -13.5t12.5 -35.5
q0 -28 -25.5 -63t-25.5 -74v-623q0 -37 11.5 -59.5t25 -30t25 -20.5t11.5 -33q0 -19 -14 -32t-39 -13q-11 0 -56 2t-100 2q-54 0 -99 -2t-56 -2z" />
    <glyph glyph-name="two.numr" horiz-adv-x="679" 
d="M608 844q41 0 41 -51q0 -41 -24 -111l-52 -143q-14 -40 -26.5 -55t-36.5 -15q-13 0 -38.5 16.5t-57.5 16.5h-213q-9 0 -49 -2t-70 -2q-32 0 -50 17t-18 40q0 35 21 76q4 8 41.5 70.5t83.5 139t65 111.5q90 159 90 262q0 39 -16 62.5t-45 23.5q-16 0 -28.5 -6.5t-24.5 -22
t-19.5 -28.5t-21.5 -39q-21 -41 -58 -41q-49 0 -49 68q0 30 10 65q27 93 98 147t173 54q121 0 191.5 -74t70.5 -196q0 -82 -30 -144t-85 -129q-42 -52 -83 -95t-86.5 -86t-65.5 -64h157q44 0 85 26t67 70q22 39 53 39z" />
    <glyph glyph-name="three.numr" horiz-adv-x="665" 
d="M393 1114q100 -14 165 -106.5t65 -194.5q0 -141 -88 -237.5t-236 -96.5q-101 0 -165 50t-91 130q-12 37 -12 78q0 29 15.5 45.5t39.5 16.5q37 0 61 -47q24 -42 46 -61t51 -19q38 0 65 34.5t27 110.5q0 61 -27 96t-67 35q-12 0 -29 -3t-25 -3q-20 0 -32.5 16.5t-12.5 40.5
q0 14 10 30t21.5 28t34 32.5t35.5 34.5q81 85 151 166h-114q-54 0 -78 -18t-62 -82q-23 -39 -51 -39q-16 0 -28.5 14.5t-12.5 38.5q0 31 21 103l36 125q16 56 31 68q11 9 25 9q19 0 46.5 -18t57.5 -18h170q9 0 43.5 2t44.5 2q94 0 94 -82q0 -47 -36 -88q-41 -45 -189 -193z
" />
    <glyph glyph-name="four.numr" horiz-adv-x="675" 
d="M582 907q15 0 22 -1t16.5 -7t13 -20.5t3.5 -38.5v-60q0 -40 -9.5 -53.5t-45.5 -13.5h-17v-39q0 -33 7.5 -54.5t17 -29t17 -19t7.5 -28.5q0 -19 -14 -32t-39 -13q-8 0 -44 2t-85 2q-47 0 -88.5 -2t-48.5 -2q-25 0 -38 13t-13 32q0 18 8.5 30.5t19 19.5t19 28t8.5 53v39
h-207q-86 0 -86 71q0 33 11 67t42 110l164 407q23 58 53.5 83.5t88.5 25.5h100q52 0 76 -17t24 -65v-488h17zM317 1298l-147 -391h147v391z" />
    <glyph glyph-name="five.numr" horiz-adv-x="669" 
d="M346 1141q131 0 208 -90t77 -226q0 -152 -88.5 -250t-231.5 -98q-89 0 -157 33t-101 90q-24 41 -24 80q0 25 14.5 41t36.5 16q8 0 15 -2t11.5 -4.5t9 -7l6.5 -6.5t6 -7l3 -5q41 -56 100 -56q44 0 71.5 37t27.5 107q0 64 -26 100.5t-75 36.5q-24 0 -63.5 -14.5
t-54.5 -14.5q-21 0 -34 17.5t-9 52.5l55 452q4 54 61 54h275q34 0 47.5 4.5t32.5 23.5q27 27 45 27t28.5 -10.5t10.5 -28.5q0 -26 -33 -115l-25 -65q-11 -30 -33.5 -43t-66.5 -13h-229l-17 -133q67 17 127 17z" />
    <glyph glyph-name="six.numr" horiz-adv-x="718" 
d="M461 1165q98 0 160.5 -86.5t62.5 -234.5q0 -162 -90.5 -262.5t-222.5 -100.5q-167 0 -248.5 125.5t-81.5 351.5q0 113 24 210t70 171.5t119 117t164 42.5q97 0 153 -37q58 -35 58 -86q0 -24 -15.5 -39.5t-38.5 -15.5q-14 0 -47 14q-35 15 -63 15q-65 0 -104.5 -56
t-47.5 -196q27 31 67.5 49t80.5 18zM360 608q66 0 66 209q0 73 -10.5 119.5t-24 62t-29.5 15.5q-65 0 -65 -180q0 -117 15 -171.5t48 -54.5z" />
    <glyph glyph-name="seven.numr" horiz-adv-x="595" 
d="M492 1477q75 0 75 -66q0 -26 -20 -115q-65 -278 -182 -725q-9 -37 -28.5 -52t-60.5 -15h-108q-78 0 -78 55q0 8 2 17t6 20.5t8 21t12 24.5t13 24t14.5 27.5t14.5 27.5q5 10 31 59.5t39.5 76t40.5 82t47 99t46.5 104.5t49.5 120h-199q-29 0 -50.5 -19.5t-55.5 -79.5
q-21 -37 -56 -37q-18 0 -29.5 13t-11.5 37q0 22 23 102l47 160q10 35 23 53t36 18q15 0 43 -18t60 -18h139q8 0 54 2t55 2z" />
    <glyph glyph-name="eight.numr" horiz-adv-x="714" 
d="M508 1071q97 -75 133.5 -137.5t36.5 -153.5q0 -136 -89.5 -218.5t-230.5 -82.5q-66 0 -121 13.5t-100 43t-70.5 82.5t-25.5 125q0 153 137 234q-119 114 -119 246q0 120 83 197t227 77q66 0 119 -20.5t83.5 -54t46 -71t15.5 -75.5q0 -129 -125 -205zM360 1376
q-29 0 -44 -19.5t-15 -47.5q0 -50 28.5 -88.5t80.5 -77.5q26 54 26 110q0 51 -20 87t-56 36zM348 610q36 0 60 24.5t24 63.5q0 54 -32 94.5t-107 94.5q-39 -64 -39 -137q0 -63 24 -101.5t70 -38.5z" />
    <glyph glyph-name="nine.numr" horiz-adv-x="720" 
d="M350 1493q167 0 248.5 -126t81.5 -351q0 -86 -11.5 -161.5t-38.5 -145.5t-68.5 -120t-105.5 -80t-145 -30q-42 0 -92 12.5t-82 36.5q-63 42 -63 97q0 24 14.5 39.5t38.5 15.5q16 0 53 -21q49 -28 96 -28q64 0 95 57.5t37 188.5q-60 -68 -148 -68q-98 0 -160.5 87.5
t-62.5 236.5q0 160 90 260t223 100zM360 961q8 0 15.5 3.5t17 15t16 30.5t11 52.5t4.5 78.5q0 91 -10 143.5t-23 67t-33 14.5q-63 0 -63 -209q0 -196 65 -196z" />
    <glyph glyph-name="fraction" horiz-adv-x="327" 
d="M-100 -33q-40 0 -67.5 25t-27.5 57q0 44 33 125l481 1186q16 37 27.5 58t33.5 41t48 20q39 0 67.5 -23.5t28.5 -54.5q0 -37 -37 -127l-479 -1188q-49 -119 -108 -119z" />
    <glyph glyph-name="caron.alt" horiz-adv-x="663" 
d="M178 987q-28 0 -45.5 15.5t-17.5 44.5v438q0 38 18 59t64 21q131 0 131 -78q0 -80 -23.5 -213t-52.5 -230q-7 -26 -28.5 -41.5t-45.5 -15.5z" />
    </font>
</defs>
</svg>
